<?xml version="1.0" encoding="UTF-8" standalone="no"?>
<!-- Created with Inkscape (http://www.inkscape.org/) -->

<svg
   version="1.1"
   id="svg1"
   width="575.74615"
   height="414.78262"
   viewBox="0 0 575.74615 414.78262"
   sodipodi:docname="plotE2.pdf"
   xmlns:inkscape="http://www.inkscape.org/namespaces/inkscape"
   xmlns:sodipodi="http://sodipodi.sourceforge.net/DTD/sodipodi-0.dtd"
   xmlns="http://www.w3.org/2000/svg"
   xmlns:svg="http://www.w3.org/2000/svg">
  <defs
     id="defs1">
    <clipPath
       clipPathUnits="userSpaceOnUse"
       id="clipPath56">
      <path
         d="M 67.489636,37.77497 H 424.60964 v 266.112 H 67.489636 Z"
         id="path56" />
    </clipPath>
    <clipPath
       clipPathUnits="userSpaceOnUse"
       id="clipPath58">
      <path
         d="M 67.489636,37.77497 H 424.60964 v 266.112 H 67.489636 Z"
         id="path58" />
    </clipPath>
  </defs>
  <sodipodi:namedview
     id="namedview1"
     pagecolor="#ffffff"
     bordercolor="#000000"
     borderopacity="0.25"
     inkscape:showpageshadow="2"
     inkscape:pageopacity="0.0"
     inkscape:pagecheckerboard="0"
     inkscape:deskcolor="#d1d1d1">
    <inkscape:page
       x="0"
       y="0"
       inkscape:label="1"
       id="page1"
       width="575.74615"
       height="414.78262"
       margin="0"
       bleed="0" />
  </sodipodi:namedview>
  <g
     id="g1"
     inkscape:groupmode="layer"
     inkscape:label="1">
    <path
       id="path1"
       d="m 113.91524,37.77497 v -3.5"
       style="fill:#000000;fill-opacity:1;fill-rule:nonzero;stroke:#000000;stroke-width:0.8;stroke-linecap:butt;stroke-linejoin:round;stroke-miterlimit:10;stroke-dasharray:none;stroke-opacity:1"
       transform="matrix(1.3333333,0,0,-1.3333333,0,414.78263)" />
    <path
       id="path2"
       d="M 4.4891133,-8.322842e-4 V -0.31723853 H 4.1492695 c -0.9609375,0 -0.9960937,-0.12890625 -0.9960937,-0.52734375 V -7.0203635 c 0,-0.2578125 0,-0.2695313 -0.2109375,-0.2695313 -0.2695313,0.2929688 -0.8203125,0.703125 -1.94531254,0.703125 v 0.3164063 c 0.25781254,0 0.79687504,0 1.40625004,-0.28125 v 5.70703122 c 0,0.3984375 -0.035156,0.52734375 -0.9960938,0.52734375 H 1.0672383 V -8.322842e-4 C 1.360207,-0.02426978 2.4266133,-0.02426978 2.7781758,-0.02426978 c 0.3632812,0 1.4179687,0 1.7109375,0.0234374958 z M 10.175637,-1.840676 H 9.9412617 c -0.035156,0.1875 -0.1171875,0.7851562 -0.234375,0.96093747 -0.070312,0.10546875 -0.703125,0.10546875 -1.03125,0.10546875 H 6.6482929 C 6.9529804,-1.0320823 7.6209492,-1.7352073 7.9021992,-1.9930198 c 1.6640625,-1.5351562 2.2734378,-2.109375 2.2734378,-3.1875 0,-1.265625 -0.9960941,-2.109375 -2.2617191,-2.109375 -1.2773437,0 -2.015625,1.0898438 -2.015625,2.0273438 0,0.5625 0.4804688,0.5625 0.515625,0.5625 0.2226563,0 0.515625,-0.1640625 0.515625,-0.515625 0,-0.3046875 -0.2109375,-0.515625 -0.515625,-0.515625 -0.1054687,0 -0.1289062,0 -0.1523437,0.011719 0.1992187,-0.75 0.796875,-1.2539062 1.5117187,-1.2539062 0.9257813,0 1.5,0.7851562 1.5,1.7929687 0,0.9257813 -0.5390625,1.734375 -1.1601562,2.4375 l -2.2148438,2.48437502 v 0.2578124958 h 3.9960938 z m 0,0"
       style="fill:#000000;fill-opacity:1;fill-rule:nonzero;stroke:none"
       aria-label="12"
       transform="matrix(1.3333333,0,0,1.3333333,144.73327,383.95814)" />
    <path
       id="path3"
       d="m 185.33924,37.77497 v -3.5"
       style="fill:#000000;fill-opacity:1;fill-rule:nonzero;stroke:#000000;stroke-width:0.8;stroke-linecap:butt;stroke-linejoin:round;stroke-miterlimit:10;stroke-dasharray:none;stroke-opacity:1"
       transform="matrix(1.3333333,0,0,-1.3333333,0,414.78263)" />
    <path
       id="path4"
       d="M 4.4879648,-8.322842e-4 V -0.31723853 H 4.1481211 c -0.9609375,0 -0.9960938,-0.12890625 -0.9960938,-0.52734375 V -7.0203635 c 0,-0.2578125 0,-0.2695313 -0.2109375,-0.2695313 -0.2695312,0.2929688 -0.8203125,0.703125 -1.94531248,0.703125 v 0.3164063 c 0.25781248,0 0.79687498,0 1.40624998,-0.28125 v 5.70703122 c 0,0.3984375 -0.035156,0.52734375 -0.9960937,0.52734375 H 1.0660898 V -8.322842e-4 C 1.3590586,-0.02426978 2.4254648,-0.02426978 2.7770273,-0.02426978 c 0.3632813,0 1.4179688,0 1.7109375,0.0234374958 z M 10.420582,-1.8289573 V -2.1453635 H 9.3190195 V -7.137551 c 0,-0.1992188 0,-0.2578125 -0.1640625,-0.2578125 -0.082031,0 -0.1171875,0 -0.1992187,0.1289062 l -3.3046875,5.1210938 v 0.3164062 h 2.8828125 v 0.99609377 c 0,0.41015625 -0.023437,0.515625 -0.8203125,0.515625 H 7.4908945 V -8.322842e-4 C 7.748707,-0.02426978 8.6158945,-0.02426978 8.920582,-0.02426978 c 0.3046875,0 1.183594,0 1.429688,0.0234374958 V -0.31723853 h -0.210938 c -0.796875,0 -0.8203125,-0.10546875 -0.8203125,-0.515625 V -1.8289573 Z M 8.592457,-2.1453635 H 5.9323008 L 8.592457,-6.2820823 Z m 0,0"
       style="fill:#000000;fill-opacity:1;fill-rule:nonzero;stroke:none"
       aria-label="14"
       transform="matrix(1.3333333,0,0,1.3333333,239.96527,383.95814)" />
    <path
       id="path5"
       d="m 256.76324,37.77497 v -3.5"
       style="fill:#000000;fill-opacity:1;fill-rule:nonzero;stroke:#000000;stroke-width:0.8;stroke-linecap:butt;stroke-linejoin:round;stroke-miterlimit:10;stroke-dasharray:none;stroke-opacity:1"
       transform="matrix(1.3333333,0,0,-1.3333333,0,414.78263)" />
    <path
       id="path6"
       d="M 4.4897461,-8.322842e-4 V -0.31723853 H 4.1499023 c -0.9609375,0 -0.9960937,-0.12890625 -0.9960937,-0.52734375 V -7.0203635 c 0,-0.2578125 0,-0.2695313 -0.2109375,-0.2695313 -0.2695313,0.2929688 -0.8203125,0.703125 -1.94531253,0.703125 v 0.3164063 c 0.25781253,0 0.79687503,0 1.40625003,-0.28125 v 5.70703122 c 0,0.3984375 -0.035156,0.52734375 -0.9960938,0.52734375 H 1.0678711 V -8.322842e-4 C 1.3608398,-0.02426978 2.4272461,-0.02426978 2.7788086,-0.02426978 c 0.3632812,0 1.4179687,0 1.7109375,0.0234374958 z M 10.27002,-2.2391135 c 0,-1.453125 -1.0195317,-2.4257813 -2.1210942,-2.4257813 -0.9726563,0 -1.3359375,0.84375 -1.4414063,1.1484375 V -3.809426 c 0,-2.7773438 1.3476563,-3.2109375 1.9335938,-3.2109375 0.3984375,0 0.796875,0.1171875 1.0078125,0.4453125 -0.140625,0 -0.5507813,0 -0.5507813,0.4453125 0,0.2460937 0.1640625,0.4570312 0.4453125,0.4570312 0.28125,0 0.457031,-0.1640625 0.457031,-0.4804687 0,-0.5742188 -0.410156,-1.1367188 -1.3593747,-1.1367188 -1.3828125,0 -2.8359375,1.4179688 -2.8359375,3.8320313 0,3.01171872 1.3242187,3.69140622 2.25,3.69140622 1.1953125,0 2.2148442,-1.04296875 2.2148442,-2.47265622 z m -0.9023442,-0.011719 c 0,0.5625 0,1.0546875 -0.2109375,1.47656252 -0.2695313,0.515625 -0.6679688,0.703125 -1.1015625,0.703125 -0.6914063,0 -1.0195313,-0.609375 -1.1132813,-0.84375 C 6.8364258,-1.1961448 6.730957,-1.7352073 6.730957,-2.496926 c 0,-0.8671875 0.3984375,-1.9570313 1.3828125,-1.9570313 0.5976563,0 0.9140625,0.4101563 1.078125,0.7851563 0.1757813,0.3984375 0.1757813,0.9492187 0.1757813,1.4179685 z m 0,0"
       style="fill:#000000;fill-opacity:1;fill-rule:nonzero;stroke:none"
       aria-label="16"
       transform="matrix(1.3333333,0,0,1.3333333,335.19727,383.95814)" />
    <path
       id="path7"
       d="m 328.18724,37.77497 v -3.5"
       style="fill:#000000;fill-opacity:1;fill-rule:nonzero;stroke:#000000;stroke-width:0.8;stroke-linecap:butt;stroke-linejoin:round;stroke-miterlimit:10;stroke-dasharray:none;stroke-opacity:1"
       transform="matrix(1.3333333,0,0,-1.3333333,0,414.78263)" />
    <path
       id="path8"
       d="M 4.4885976,-8.322842e-4 V -0.31723853 H 4.1487539 c -0.9609375,0 -0.9960938,-0.12890625 -0.9960938,-0.52734375 V -7.0203635 c 0,-0.2578125 0,-0.2695313 -0.2109375,-0.2695313 -0.2695312,0.2929688 -0.8203125,0.703125 -1.94531247,0.703125 v 0.3164063 c 0.25781247,0 0.79687497,0 1.40624997,-0.28125 v 5.70703122 c 0,0.3984375 -0.035156,0.52734375 -0.9960937,0.52734375 H 1.0667226 V -8.322842e-4 C 1.3596914,-0.02426978 2.4260976,-0.02426978 2.7776601,-0.02426978 c 0.3632813,0 1.4179688,0 1.7109375,0.0234374958 z M 10.268871,-1.8172385 c 0,-1.125 -0.7851562,-1.6171875 -1.6406249,-2.1445313 0.5390625,-0.2929687 1.3476562,-0.796875 1.3476562,-1.7109375 0,-0.9609375 -0.9257812,-1.6171875 -1.9335937,-1.6171875 -1.078125,0 -1.9335938,0.796875 -1.9335938,1.8046875 0,0.3632813 0.1054688,0.7382813 0.4101563,1.1132813 0.1171875,0.140625 0.1289062,0.1523437 0.9023437,0.6914062 -1.0664062,0.4921875 -1.6171875,1.2304688 -1.6171875,2.0273438 0,1.16015622 1.1132813,1.88671872 2.2265625,1.88671872 1.21875,0 2.2382812,-0.90234375 2.2382812,-2.05078122 z m -0.7499999,-3.84375 c 0,0.6679687 -0.4804688,1.1953125 -1.1132813,1.546875 L 7.1282461,-4.9461448 c -0.140625,-0.09375 -0.5742188,-0.375 -0.5742188,-0.9140625 0,-0.7148437 0.7382813,-1.1601562 1.4765625,-1.1601562 0.7851563,0 1.4882813,0.5625 1.4882813,1.359375 z m 0.2460937,4.1953125 c 0,0.83203122 -0.84375,1.39453122 -1.7226562,1.39453122 -0.9257813,0 -1.734375,-0.6796875 -1.734375,-1.58203122 0,-0.8554688 0.6328125,-1.546875 1.3359375,-1.875 l 1.3359375,0.8671875 c 0.28125,0.1875 0.7851562,0.5273437 0.7851562,1.1953125 z m 0,0"
       style="fill:#000000;fill-opacity:1;fill-rule:nonzero;stroke:none"
       aria-label="18"
       transform="matrix(1.3333333,0,0,1.3333333,430.42927,383.95814)" />
    <path
       id="path9"
       d="m 399.61124,37.77497 v -3.5"
       style="fill:#000000;fill-opacity:1;fill-rule:nonzero;stroke:#000000;stroke-width:0.8;stroke-linecap:butt;stroke-linejoin:round;stroke-miterlimit:10;stroke-dasharray:none;stroke-opacity:1"
       transform="matrix(1.3333333,0,0,-1.3333333,0,414.78263)" />
    <path
       id="path10"
       d="m 4.8155742,-1.840676 h -0.234375 c -0.035156,0.1875 -0.1171875,0.7851562 -0.234375,0.96093747 -0.070312,0.10546875 -0.703125,0.10546875 -1.03125,0.10546875 H 1.2882304 C 1.5929179,-1.0320823 2.2608867,-1.7352073 2.5421367,-1.9930198 c 1.6640625,-1.5351562 2.2734375,-2.109375 2.2734375,-3.1875 0,-1.265625 -0.9960938,-2.109375 -2.2617188,-2.109375 -1.2773437,0 -2.01562495,1.0898438 -2.01562495,2.0273438 0,0.5625 0.48046875,0.5625 0.51562495,0.5625 0.2226563,0 0.515625,-0.1640625 0.515625,-0.515625 0,-0.3046875 -0.2109375,-0.515625 -0.515625,-0.515625 -0.1054687,0 -0.1289062,0 -0.1523437,0.011719 0.1992187,-0.75 0.796875,-1.2539062 1.5117187,-1.2539062 0.9257813,0 1.5,0.7851562 1.5,1.7929687 0,0.9257813 -0.5390625,1.734375 -1.1601562,2.4375 L 0.53823045,-0.25864478 V -8.322842e-4 H 4.5343242 Z m 5.4521488,-1.6640625 c 0,-0.9140625 -0.05859,-1.8046875 -0.4453129,-2.6367188 -0.4570312,-0.9023437 -1.2421875,-1.1484375 -1.78125,-1.1484375 -0.6328125,0 -1.4179687,0.3164063 -1.8164062,1.2304688 -0.3046875,0.6914062 -0.421875,1.3710937 -0.421875,2.5546875 0,1.0546875 0.082031,1.8632812 0.4804687,2.63671872 0.421875,0.83203125 1.1835938,1.1015625 1.7460938,1.1015625 0.9492187,0 1.5,-0.57421875 1.8164062,-1.20703125 C 10.244285,-1.793801 10.267723,-2.871926 10.267723,-3.5047385 Z M 9.4356914,-3.6336448 c 0,0.7265625 0,1.5585938 -0.1171875,2.2265625 -0.2109375,1.20703127 -0.9023438,1.41796877 -1.2890625,1.41796877 -0.3515625,0 -1.0664063,-0.19921875 -1.265625,-1.39453127 -0.1289063,-0.65625 -0.1289063,-1.4882812 -0.1289063,-2.25 0,-0.9023437 0,-1.7109375 0.1757813,-2.3554687 0.1875,-0.7382813 0.75,-1.078125 1.21875,-1.078125 0.421875,0 1.0546875,0.2460937 1.265625,1.1953125 0.140625,0.6210937 0.140625,1.4882812 0.140625,2.2382812 z m 0,0"
       style="fill:#000000;fill-opacity:1;fill-rule:nonzero;stroke:none"
       aria-label="20"
       transform="matrix(1.3333333,0,0,1.3333333,525.66127,383.95814)" />
    <path
       id="path11"
       d="m 5.6247586,-2.0519893 c 0.058594,-0.234375 0.082031,-0.4804688 0.082031,-0.7148438 0,-0.421875 -0.09375,-0.8320312 -0.3164063,-1.1601562 -0.1289062,-0.1992188 -0.28125,-0.375 -0.4804687,-0.4921875 0.1171875,-0.058594 0.234375,-0.140625 0.3515625,-0.2226563 0.4335937,-0.328125 0.75,-0.7851562 0.8789062,-1.265625 0.023437,-0.1289062 0.046875,-0.2695312 0.046875,-0.4101562 0,-0.328125 -0.1054687,-0.6328125 -0.3046875,-0.8671875 -0.28125,-0.3515625 -0.7382812,-0.5390625 -1.2421875,-0.5390625 -1.3007812,0 -2.2617187,1.5 -2.625,2.9882812 l -1.69921872,6.75 c 0,0.082031 0.046875,0.1054688 0.09375,0.1054688 h 0.0585938 c 0.046875,0 0.0820313,-0.011719 0.09375,-0.058594 l 0.76171902,-3.082031 c 0.1523437,0.66796873 0.6445312,1.12499998 1.40625,1.12499998 0.609375,0 1.2539062,-0.19921875 1.8164062,-0.62109375 0.5273438,-0.3984375 0.9257813,-0.94921873 1.078125,-1.53515623 z m -0.6796875,-0.046875 c -0.1289062,0.515625 -0.375,1.03125 -0.8085937,1.41796873 -0.3984375,0.375 -0.9140625,0.5859375 -1.40625,0.5859375 -0.7851563,0 -1.21875,-0.62109375 -1.21875,-1.39453123 0,-0.1757813 0.023437,-0.3632813 0.070312,-0.5625 l 0.6679687,-2.6484375 c 0.3398438,-1.3828125 1.1835938,-2.8125 2.390625,-2.8125 0.3632813,0 0.6679688,0.1640625 0.84375,0.4453125 0.1054688,0.1640625 0.1523438,0.3632812 0.1523438,0.5742187 0,0.1757813 -0.035156,0.3515625 -0.082031,0.5390625 -0.1054687,0.421875 -0.2929687,0.8320313 -0.6445312,1.1484375 -0.09375,0.082031 -0.1992188,0.1640625 -0.2929688,0.2226563 -0.2226562,-0.082031 -0.46875,-0.1289063 -0.7265625,-0.1289063 -0.375,0 -0.8203125,0 -0.890625,0.2578125 0,0.035156 -0.011719,0.082031 -0.011719,0.082031 0,0.2460937 0.4335937,0.2460937 0.796875,0.2460937 0.2578125,0 0.5273437,-0.046875 0.796875,-0.1523437 0.1523437,0.1289062 0.2695312,0.28125 0.3515625,0.4570312 0.1054687,0.2226563 0.1523437,0.4921875 0.1523437,0.7617188 0,0.3046875 -0.058594,0.6328125 -0.1406245,0.9609378 z M 4.3005399,-4.4308956 c -0.1757813,0.058594 -0.3398438,0.09375 -0.5039063,0.09375 -0.234375,0 -0.5742187,0 -0.5507812,-0.070312 0.023437,-0.09375 0.375,-0.09375 0.6328125,-0.09375 0.1523437,0 0.28125,0.023437 0.421875,0.070312 z m 0,0"
       style="fill:#000000;fill-opacity:1;fill-rule:nonzero;stroke:none"
       aria-label="β"
       transform="matrix(1.3333333,0,0,1.3333333,324.02767,402.34145)" />
    <path
       id="path12"
       d="m 67.489636,54.197178 h -3.5"
       style="fill:#000000;fill-opacity:1;fill-rule:nonzero;stroke:#000000;stroke-width:0.8;stroke-linecap:butt;stroke-linejoin:round;stroke-miterlimit:10;stroke-dasharray:none;stroke-opacity:1"
       transform="matrix(1.3333333,0,0,-1.3333333,0,414.78263)" />
    <g
       id="g12"
       aria-label="−0.5015"
       transform="matrix(1.3333333,0,0,1.3333333,29.545205,347.62413)">
      <path
         id="path13"
         d="m 7.6067209,-2.741533 c 0,-0.2109375 -0.2109375,-0.2109375 -0.3632813,-0.2109375 H 1.2668771 c -0.1523437,0 -0.35156246,0 -0.35156246,0.2109375 0,0.2226562 0.19921876,0.2226562 0.35156246,0.2226562 h 5.9765625 c 0.1523438,0 0.3632813,0 0.3632813,-0.2226562 z m 0,0"
         style="fill:#000000;fill-opacity:1;fill-rule:nonzero;stroke:none" />
      <path
         id="path14"
         d="m 13.433869,-3.5032518 c 0,-0.9140625 -0.05859,-1.8046875 -0.445312,-2.6367187 -0.457031,-0.9023438 -1.242188,-1.1484375 -1.78125,-1.1484375 -0.632813,0 -1.4179689,0.3164062 -1.8164064,1.2304687 -0.3046875,0.6914063 -0.421875,1.3710938 -0.421875,2.5546875 0,1.0546875 0.082031,1.8632813 0.4804687,2.6367188 0.421875,0.83203125 1.1835937,1.1015625 1.7460937,1.1015625 0.949219,0 1.5,-0.57421875 1.816406,-1.20703125 0.398438,-0.82031255 0.421875,-1.89843755 0.421875,-2.53125005 z M 12.601838,-3.632158 c 0,0.7265625 0,1.5585937 -0.117187,2.2265625 -0.210938,1.20703125 -0.902344,1.41796875 -1.289063,1.41796875 -0.351562,0 -1.066406,-0.19921875 -1.2656249,-1.39453125 -0.1289063,-0.65625 -0.1289063,-1.4882813 -0.1289063,-2.25 0,-0.9023438 0,-1.7109375 0.1757813,-2.3554688 0.1874999,-0.7382812 0.7499999,-1.078125 1.2187499,-1.078125 0.421875,0 1.054688,0.2460938 1.265625,1.1953125 0.140625,0.6210938 0.140625,1.4882813 0.140625,2.2382813 z m 0,0"
         style="fill:#000000;fill-opacity:1;fill-rule:nonzero;stroke:none" />
      <path
         id="path15"
         d="m 15.903596,-0.52668925 c 0,-0.31640625 -0.257813,-0.53906255 -0.527344,-0.53906255 -0.316406,0 -0.539062,0.2695313 -0.539062,0.5273438 0,0.31640625 0.269531,0.539062499 0.527343,0.539062499 0.316407,0 0.539063,-0.257812499 0.539063,-0.527343749 z m 0,0"
         style="fill:#000000;fill-opacity:1;fill-rule:nonzero;stroke:none" />
      <path
         id="path16"
         d="m 21.686799,-2.2024705 c 0,-1.3007813 -0.867187,-2.390625 -2.027344,-2.390625 -0.621093,0 -1.101562,0.28125 -1.382812,0.5859375 v -2.2734375 c 0.46875,0.1523437 0.855469,0.1640625 0.972656,0.1640625 1.242188,0 2.027344,-0.9023438 2.027344,-1.0546875 0,-0.046875 -0.02344,-0.1054688 -0.09375,-0.1054688 0,0 -0.03516,0 -0.140625,0.046875 -0.609375,0.2578125 -1.136719,0.2929688 -1.417969,0.2929688 -0.726562,0 -1.242187,-0.2226563 -1.453125,-0.3046875 -0.07031,-0.035156 -0.105469,-0.035156 -0.105469,-0.035156 -0.09375,0 -0.09375,0.070312 -0.09375,0.2460938 v 3.2460937 c 0,0.1992188 0,0.2695313 0.140625,0.2695313 0.04687,0 0.05859,-0.011719 0.175782,-0.140625 0.304687,-0.4570313 0.820312,-0.7148438 1.359375,-0.7148438 0.585937,0 0.867187,0.5390625 0.960937,0.7265625 0.1875,0.421875 0.199219,0.9609375 0.199219,1.3710938 0,0.421875 0,1.0429687 -0.316406,1.53515625 -0.234375,0.3984375 -0.667969,0.66796875 -1.148438,0.66796875 -0.714844,0 -1.429687,-0.4921875 -1.628906,-1.2890625 0.05859,0.023437 0.117187,0.035156 0.175781,0.035156 0.1875,0 0.480469,-0.1054687 0.480469,-0.4804687 0,-0.3046875 -0.210938,-0.4804688 -0.480469,-0.4804688 -0.199219,0 -0.480469,0.09375 -0.480469,0.515625 0,0.93750005 0.738282,2.0039063 1.957032,2.0039063 1.242187,0 2.320312,-1.04296875 2.320312,-2.4375001 z m 5.452148,-1.3007813 c 0,-0.9140625 -0.05859,-1.8046875 -0.445312,-2.6367187 -0.457031,-0.9023438 -1.242188,-1.1484375 -1.78125,-1.1484375 -0.632813,0 -1.417969,0.3164062 -1.816406,1.2304687 -0.304688,0.6914063 -0.421875,1.3710938 -0.421875,2.5546875 0,1.0546875 0.08203,1.8632813 0.480468,2.6367188 0.421875,0.83203125 1.183594,1.1015625 1.746094,1.1015625 0.949219,0 1.5,-0.57421875 1.816406,-1.20703125 0.398438,-0.82031255 0.421875,-1.89843755 0.421875,-2.53125005 z M 26.306916,-3.632158 c 0,0.7265625 0,1.5585937 -0.117187,2.2265625 -0.210938,1.20703125 -0.902344,1.41796875 -1.289063,1.41796875 -0.351562,0 -1.066406,-0.19921875 -1.265625,-1.39453125 -0.128906,-0.65625 -0.128906,-1.4882813 -0.128906,-2.25 0,-0.9023438 0,-1.7109375 0.175781,-2.3554688 0.1875,-0.7382812 0.75,-1.078125 1.21875,-1.078125 0.421875,0 1.054688,0.2460938 1.265625,1.1953125 0.140625,0.6210938 0.140625,1.4882813 0.140625,2.2382813 z M 32.075471,6.54499e-4 V -0.31575175 h -0.339844 c -0.960937,0 -0.996094,-0.12890625 -0.996094,-0.52734375 v -6.1757813 c 0,-0.2578125 0,-0.2695312 -0.210937,-0.2695312 -0.269531,0.2929687 -0.820313,0.703125 -1.945313,0.703125 v 0.3164062 c 0.257813,0 0.796875,0 1.40625,-0.28125 v 5.7070313 c 0,0.3984375 -0.03516,0.52734375 -0.996093,0.52734375 H 28.653596 V 6.54499e-4 C 28.946565,-0.022783 30.012971,-0.022783 30.364533,-0.022783 c 0.363282,0 1.417969,0 1.710938,0.023437499 z M 37.761994,-2.2024705 c 0,-1.3007813 -0.867187,-2.390625 -2.027343,-2.390625 -0.621094,0 -1.101563,0.28125 -1.382813,0.5859375 v -2.2734375 c 0.46875,0.1523437 0.855469,0.1640625 0.972656,0.1640625 1.242188,0 2.027344,-0.9023438 2.027344,-1.0546875 0,-0.046875 -0.02344,-0.1054688 -0.09375,-0.1054688 0,0 -0.03516,0 -0.140625,0.046875 -0.609375,0.2578125 -1.136719,0.2929688 -1.417969,0.2929688 -0.726562,0 -1.242187,-0.2226563 -1.453125,-0.3046875 -0.07031,-0.035156 -0.105468,-0.035156 -0.105468,-0.035156 -0.09375,0 -0.09375,0.070312 -0.09375,0.2460938 v 3.2460937 c 0,0.1992188 0,0.2695313 0.140625,0.2695313 0.04687,0 0.05859,-0.011719 0.175781,-0.140625 0.304687,-0.4570313 0.820312,-0.7148438 1.359375,-0.7148438 0.585937,0 0.867187,0.5390625 0.960937,0.7265625 0.1875,0.421875 0.199219,0.9609375 0.199219,1.3710938 0,0.421875 0,1.0429687 -0.316406,1.53515625 -0.234375,0.3984375 -0.667969,0.66796875 -1.148438,0.66796875 -0.714843,0 -1.429687,-0.4921875 -1.628906,-1.2890625 0.05859,0.023437 0.117188,0.035156 0.175781,0.035156 0.1875,0 0.480469,-0.1054687 0.480469,-0.4804687 0,-0.3046875 -0.210937,-0.4804688 -0.480469,-0.4804688 -0.199218,0 -0.480468,0.09375 -0.480468,0.515625 0,0.93750005 0.738281,2.0039063 1.957031,2.0039063 1.242187,0 2.320312,-1.04296875 2.320312,-2.4375001 z m 0,0"
         style="fill:#000000;fill-opacity:1;fill-rule:nonzero;stroke:none" />
    </g>
    <path
       id="path17"
       d="m 67.489636,86.140032 h -3.5"
       style="fill:#000000;fill-opacity:1;fill-rule:nonzero;stroke:#000000;stroke-width:0.8;stroke-linecap:butt;stroke-linejoin:round;stroke-miterlimit:10;stroke-dasharray:none;stroke-opacity:1"
       transform="matrix(1.3333333,0,0,-1.3333333,0,414.78263)" />
    <g
       id="g17"
       aria-label="−0.5010"
       transform="matrix(1.3333333,0,0,1.3333333,29.545205,305.03366)">
      <path
         id="path18"
         d="m 7.6067209,-2.7410617 c 0,-0.2109375 -0.2109375,-0.2109375 -0.3632813,-0.2109375 H 1.2668771 c -0.1523437,0 -0.35156246,0 -0.35156246,0.2109375 0,0.2226562 0.19921876,0.2226562 0.35156246,0.2226562 h 5.9765625 c 0.1523438,0 0.3632813,0 0.3632813,-0.2226562 z m 0,0"
         style="fill:#000000;fill-opacity:1;fill-rule:nonzero;stroke:none" />
      <path
         id="path19"
         d="m 13.433869,-3.5027805 c 0,-0.9140625 -0.05859,-1.8046875 -0.445312,-2.6367187 -0.457031,-0.9023438 -1.242188,-1.1484375 -1.78125,-1.1484375 -0.632813,0 -1.4179689,0.3164062 -1.8164064,1.2304687 -0.3046875,0.6914063 -0.421875,1.3710938 -0.421875,2.5546875 0,1.0546875 0.082031,1.8632813 0.4804687,2.63671878 0.421875,0.83203125 1.1835937,1.1015625 1.7460937,1.1015625 0.949219,0 1.5,-0.57421875 1.816406,-1.20703125 0.398438,-0.82031253 0.421875,-1.89843753 0.421875,-2.53125003 z m -0.832031,-0.1289062 c 0,0.7265625 0,1.5585937 -0.117187,2.2265625 -0.210938,1.20703123 -0.902344,1.41796873 -1.289063,1.41796873 -0.351562,0 -1.066406,-0.19921875 -1.2656249,-1.39453123 -0.1289063,-0.65625 -0.1289063,-1.4882813 -0.1289063,-2.25 0,-0.9023438 0,-1.7109375 0.1757813,-2.3554688 0.1874999,-0.7382812 0.7499999,-1.078125 1.2187499,-1.078125 0.421875,0 1.054688,0.2460938 1.265625,1.1953125 0.140625,0.6210938 0.140625,1.4882813 0.140625,2.2382813 z m 0,0"
         style="fill:#000000;fill-opacity:1;fill-rule:nonzero;stroke:none" />
      <path
         id="path20"
         d="m 15.903596,-0.52621797 c 0,-0.31640625 -0.257813,-0.53906253 -0.527344,-0.53906253 -0.316406,0 -0.539062,0.26953128 -0.539062,0.52734378 0,0.31640625 0.269531,0.5390625 0.527343,0.5390625 0.316407,0 0.539063,-0.2578125 0.539063,-0.52734375 z m 0,0"
         style="fill:#000000;fill-opacity:1;fill-rule:nonzero;stroke:none" />
      <path
         id="path21"
         d="m 21.686799,-2.2019992 c 0,-1.3007813 -0.867187,-2.390625 -2.027344,-2.390625 -0.621093,0 -1.101562,0.28125 -1.382812,0.5859375 v -2.2734375 c 0.46875,0.1523437 0.855469,0.1640625 0.972656,0.1640625 1.242188,0 2.027344,-0.9023438 2.027344,-1.0546875 0,-0.046875 -0.02344,-0.1054688 -0.09375,-0.1054688 0,0 -0.03516,0 -0.140625,0.046875 -0.609375,0.2578125 -1.136719,0.2929688 -1.417969,0.2929688 -0.726562,0 -1.242187,-0.2226563 -1.453125,-0.3046875 -0.07031,-0.035156 -0.105469,-0.035156 -0.105469,-0.035156 -0.09375,0 -0.09375,0.070312 -0.09375,0.2460938 v 3.2460937 c 0,0.1992188 0,0.2695313 0.140625,0.2695313 0.04687,0 0.05859,-0.011719 0.175782,-0.140625 0.304687,-0.4570313 0.820312,-0.7148438 1.359375,-0.7148438 0.585937,0 0.867187,0.5390625 0.960937,0.7265625 0.1875,0.421875 0.199219,0.9609375 0.199219,1.3710938 0,0.421875 0,1.0429687 -0.316406,1.53515623 -0.234375,0.3984375 -0.667969,0.66796875 -1.148438,0.66796875 -0.714844,0 -1.429687,-0.4921875 -1.628906,-1.28906248 0.05859,0.023437 0.117187,0.035156 0.175781,0.035156 0.1875,0 0.480469,-0.1054687 0.480469,-0.4804687 0,-0.3046875 -0.210938,-0.4804688 -0.480469,-0.4804688 -0.199219,0 -0.480469,0.09375 -0.480469,0.515625 0,0.93750003 0.738282,2.00390628 1.957032,2.00390628 1.242187,0 2.320312,-1.04296875 2.320312,-2.43750008 z m 5.452148,-1.3007813 c 0,-0.9140625 -0.05859,-1.8046875 -0.445312,-2.6367187 -0.457031,-0.9023438 -1.242188,-1.1484375 -1.78125,-1.1484375 -0.632813,0 -1.417969,0.3164062 -1.816406,1.2304687 -0.304688,0.6914063 -0.421875,1.3710938 -0.421875,2.5546875 0,1.0546875 0.08203,1.8632813 0.480468,2.63671878 0.421875,0.83203125 1.183594,1.1015625 1.746094,1.1015625 0.949219,0 1.5,-0.57421875 1.816406,-1.20703125 C 27.11551,-1.791843 27.138947,-2.869968 27.138947,-3.5027805 Z m -0.832031,-0.1289062 c 0,0.7265625 0,1.5585937 -0.117187,2.2265625 -0.210938,1.20703123 -0.902344,1.41796873 -1.289063,1.41796873 -0.351562,0 -1.066406,-0.19921875 -1.265625,-1.39453123 -0.128906,-0.65625 -0.128906,-1.4882813 -0.128906,-2.25 0,-0.9023438 0,-1.7109375 0.175781,-2.3554688 0.1875,-0.7382812 0.75,-1.078125 1.21875,-1.078125 0.421875,0 1.054688,0.2460938 1.265625,1.1953125 0.140625,0.6210938 0.140625,1.4882813 0.140625,2.2382813 z m 5.768555,3.63281248 v -0.31640625 h -0.339844 c -0.960937,0 -0.996094,-0.12890625 -0.996094,-0.52734375 V -7.0184055 c 0,-0.2578125 0,-0.2695312 -0.210937,-0.2695312 -0.269531,0.2929687 -0.820313,0.703125 -1.945313,0.703125 v 0.3164062 c 0.257813,0 0.796875,0 1.40625,-0.28125 v 5.70703128 c 0,0.3984375 -0.03516,0.52734375 -0.996093,0.52734375 h -0.339844 v 0.31640625 c 0.292969,-0.0234375 1.359375,-0.0234375 1.710937,-0.0234375 0.363282,0 1.417969,0 1.710938,0.0234375 z m 5.780273,-3.50390628 c 0,-0.9140625 -0.05859,-1.8046875 -0.445312,-2.6367187 -0.457031,-0.9023438 -1.242188,-1.1484375 -1.78125,-1.1484375 -0.632813,0 -1.417969,0.3164062 -1.816406,1.2304687 -0.304688,0.6914063 -0.421875,1.3710938 -0.421875,2.5546875 0,1.0546875 0.08203,1.8632813 0.480468,2.63671878 0.421875,0.83203125 1.183594,1.1015625 1.746094,1.1015625 0.949219,0 1.5,-0.57421875 1.816406,-1.20703125 0.398438,-0.82031253 0.421875,-1.89843753 0.421875,-2.53125003 z m -0.832031,-0.1289062 c 0,0.7265625 0,1.5585937 -0.117187,2.2265625 -0.210938,1.20703123 -0.902344,1.41796873 -1.289063,1.41796873 -0.351562,0 -1.066406,-0.19921875 -1.265625,-1.39453123 -0.128906,-0.65625 -0.128906,-1.4882813 -0.128906,-2.25 0,-0.9023438 0,-1.7109375 0.175781,-2.3554688 0.1875,-0.7382812 0.75,-1.078125 1.21875,-1.078125 0.421875,0 1.054688,0.2460938 1.265625,1.1953125 0.140625,0.6210938 0.140625,1.4882813 0.140625,2.2382813 z m 0,0"
         style="fill:#000000;fill-opacity:1;fill-rule:nonzero;stroke:none" />
    </g>
    <path
       id="path22"
       d="m 67.489636,118.08289 h -3.5"
       style="fill:#000000;fill-opacity:1;fill-rule:nonzero;stroke:#000000;stroke-width:0.8;stroke-linecap:butt;stroke-linejoin:round;stroke-miterlimit:10;stroke-dasharray:none;stroke-opacity:1"
       transform="matrix(1.3333333,0,0,-1.3333333,0,414.78263)" />
    <g
       id="g22"
       aria-label="−0.5005"
       transform="matrix(1.3333333,0,0,1.3333333,29.545205,262.44318)">
      <path
         id="path23"
         d="m 7.6067209,-2.7435201 c 0,-0.2109375 -0.2109375,-0.2109375 -0.3632813,-0.2109375 H 1.2668771 c -0.1523437,0 -0.35156246,0 -0.35156246,0.2109375 0,0.2226562 0.19921876,0.2226562 0.35156246,0.2226562 h 5.9765625 c 0.1523438,0 0.3632813,0 0.3632813,-0.2226562 z m 0,0"
         style="fill:#000000;fill-opacity:1;fill-rule:nonzero;stroke:none" />
      <path
         id="path24"
         d="m 13.433869,-3.5052389 c 0,-0.9140625 -0.05859,-1.8046875 -0.445312,-2.6367187 -0.457031,-0.9023438 -1.242188,-1.1484375 -1.78125,-1.1484375 -0.632813,0 -1.4179689,0.3164062 -1.8164064,1.2304687 -0.3046875,0.6914063 -0.421875,1.3710938 -0.421875,2.5546875 0,1.0546875 0.082031,1.8632813 0.4804687,2.63671878 0.421875,0.83203125 1.1835937,1.1015625 1.7460937,1.1015625 0.949219,0 1.5,-0.57421875 1.816406,-1.20703125 0.398438,-0.82031253 0.421875,-1.89843753 0.421875,-2.53125003 z m -0.832031,-0.1289062 c 0,0.7265625 0,1.5585937 -0.117187,2.2265625 -0.210938,1.20703123 -0.902344,1.41796873 -1.289063,1.41796873 -0.351562,0 -1.066406,-0.19921875 -1.2656249,-1.39453123 -0.1289063,-0.65625 -0.1289063,-1.4882813 -0.1289063,-2.25 0,-0.9023438 0,-1.7109375 0.1757813,-2.3554688 0.1874999,-0.7382812 0.7499999,-1.078125 1.2187499,-1.078125 0.421875,0 1.054688,0.2460938 1.265625,1.1953125 0.140625,0.6210938 0.140625,1.4882813 0.140625,2.2382813 z m 0,0"
         style="fill:#000000;fill-opacity:1;fill-rule:nonzero;stroke:none" />
      <path
         id="path25"
         d="m 15.903596,-0.52867637 c 0,-0.31640625 -0.257813,-0.53906253 -0.527344,-0.53906253 -0.316406,0 -0.539062,0.26953128 -0.539062,0.52734378 0,0.31640625 0.269531,0.5390625 0.527343,0.5390625 0.316407,0 0.539063,-0.2578125 0.539063,-0.52734375 z m 0,0"
         style="fill:#000000;fill-opacity:1;fill-rule:nonzero;stroke:none" />
      <path
         id="path26"
         d="m 21.686799,-2.2044576 c 0,-1.3007813 -0.867187,-2.390625 -2.027344,-2.390625 -0.621093,0 -1.101562,0.28125 -1.382812,0.5859375 v -2.2734375 c 0.46875,0.1523437 0.855469,0.1640625 0.972656,0.1640625 1.242188,0 2.027344,-0.9023438 2.027344,-1.0546875 0,-0.046875 -0.02344,-0.1054688 -0.09375,-0.1054688 0,0 -0.03516,0 -0.140625,0.046875 -0.609375,0.2578125 -1.136719,0.2929688 -1.417969,0.2929688 -0.726562,0 -1.242187,-0.2226563 -1.453125,-0.3046875 -0.07031,-0.035156 -0.105469,-0.035156 -0.105469,-0.035156 -0.09375,0 -0.09375,0.070312 -0.09375,0.2460938 v 3.2460937 c 0,0.1992188 0,0.2695313 0.140625,0.2695313 0.04687,0 0.05859,-0.011719 0.175782,-0.140625 0.304687,-0.4570313 0.820312,-0.7148438 1.359375,-0.7148438 0.585937,0 0.867187,0.5390625 0.960937,0.7265625 0.1875,0.421875 0.199219,0.9609375 0.199219,1.3710938 0,0.421875 0,1.0429687 -0.316406,1.53515623 -0.234375,0.3984375 -0.667969,0.66796875 -1.148438,0.66796875 -0.714844,0 -1.429687,-0.4921875 -1.628906,-1.28906248 0.05859,0.023437 0.117187,0.035156 0.175781,0.035156 0.1875,0 0.480469,-0.1054687 0.480469,-0.4804687 0,-0.3046875 -0.210938,-0.4804688 -0.480469,-0.4804688 -0.199219,0 -0.480469,0.09375 -0.480469,0.515625 0,0.93750003 0.738282,2.00390628 1.957032,2.00390628 1.242187,0 2.320312,-1.04296875 2.320312,-2.43750008 z m 5.452148,-1.3007813 c 0,-0.9140625 -0.05859,-1.8046875 -0.445312,-2.6367187 -0.457031,-0.9023438 -1.242188,-1.1484375 -1.78125,-1.1484375 -0.632813,0 -1.417969,0.3164062 -1.816406,1.2304687 -0.304688,0.6914063 -0.421875,1.3710938 -0.421875,2.5546875 0,1.0546875 0.08203,1.8632813 0.480468,2.63671878 0.421875,0.83203125 1.183594,1.1015625 1.746094,1.1015625 0.949219,0 1.5,-0.57421875 1.816406,-1.20703125 0.398438,-0.82031253 0.421875,-1.89843753 0.421875,-2.53125003 z m -0.832031,-0.1289062 c 0,0.7265625 0,1.5585937 -0.117187,2.2265625 -0.210938,1.20703123 -0.902344,1.41796873 -1.289063,1.41796873 -0.351562,0 -1.066406,-0.19921875 -1.265625,-1.39453123 -0.128906,-0.65625 -0.128906,-1.4882813 -0.128906,-2.25 0,-0.9023438 0,-1.7109375 0.175781,-2.3554688 0.1875,-0.7382812 0.75,-1.078125 1.21875,-1.078125 0.421875,0 1.054688,0.2460938 1.265625,1.1953125 0.140625,0.6210938 0.140625,1.4882813 0.140625,2.2382813 z m 6.19043,0.1289062 c 0,-0.9140625 -0.05859,-1.8046875 -0.445313,-2.6367187 -0.457031,-0.9023438 -1.242187,-1.1484375 -1.78125,-1.1484375 -0.632812,0 -1.417968,0.3164062 -1.816406,1.2304687 -0.304687,0.6914063 -0.421875,1.3710938 -0.421875,2.5546875 0,1.0546875 0.08203,1.8632813 0.480469,2.63671878 0.421875,0.83203125 1.183594,1.1015625 1.746094,1.1015625 0.949218,0 1.5,-0.57421875 1.816406,-1.20703125 0.398437,-0.82031253 0.421875,-1.89843753 0.421875,-2.53125003 z m -0.832031,-0.1289062 c 0,0.7265625 0,1.5585937 -0.117188,2.2265625 -0.210937,1.20703123 -0.902344,1.41796873 -1.289062,1.41796873 -0.351563,0 -1.066407,-0.19921875 -1.265625,-1.39453123 -0.128907,-0.65625 -0.128907,-1.4882813 -0.128907,-2.25 0,-0.9023438 0,-1.7109375 0.175782,-2.3554688 0.1875,-0.7382812 0.75,-1.078125 1.21875,-1.078125 0.421875,0 1.054687,0.2460938 1.265625,1.1953125 0.140625,0.6210938 0.140625,1.4882813 0.140625,2.2382813 z m 6.096679,1.4296875 c 0,-1.3007813 -0.867187,-2.390625 -2.027343,-2.390625 -0.621094,0 -1.101563,0.28125 -1.382813,0.5859375 v -2.2734375 c 0.46875,0.1523437 0.855469,0.1640625 0.972656,0.1640625 1.242188,0 2.027344,-0.9023438 2.027344,-1.0546875 0,-0.046875 -0.02344,-0.1054688 -0.09375,-0.1054688 0,0 -0.03516,0 -0.140625,0.046875 -0.609375,0.2578125 -1.136719,0.2929688 -1.417969,0.2929688 -0.726562,0 -1.242187,-0.2226563 -1.453125,-0.3046875 -0.07031,-0.035156 -0.105468,-0.035156 -0.105468,-0.035156 -0.09375,0 -0.09375,0.070312 -0.09375,0.2460938 v 3.2460937 c 0,0.1992188 0,0.2695313 0.140625,0.2695313 0.04687,0 0.05859,-0.011719 0.175781,-0.140625 0.304687,-0.4570313 0.820312,-0.7148438 1.359375,-0.7148438 0.585937,0 0.867187,0.5390625 0.960937,0.7265625 0.1875,0.421875 0.199219,0.9609375 0.199219,1.3710938 0,0.421875 0,1.0429687 -0.316406,1.53515623 -0.234375,0.3984375 -0.667969,0.66796875 -1.148438,0.66796875 -0.714843,0 -1.429687,-0.4921875 -1.628906,-1.28906248 0.05859,0.023437 0.117188,0.035156 0.175781,0.035156 0.1875,0 0.480469,-0.1054687 0.480469,-0.4804687 0,-0.3046875 -0.210937,-0.4804688 -0.480469,-0.4804688 -0.199218,0 -0.480468,0.09375 -0.480468,0.515625 0,0.93750003 0.738281,2.00390628 1.957031,2.00390628 1.242187,0 2.320312,-1.04296875 2.320312,-2.43750008 z m 0,0"
         style="fill:#000000;fill-opacity:1;fill-rule:nonzero;stroke:none" />
    </g>
    <path
       id="path27"
       d="m 67.489636,150.02574 h -3.5"
       style="fill:#000000;fill-opacity:1;fill-rule:nonzero;stroke:#000000;stroke-width:0.8;stroke-linecap:butt;stroke-linejoin:round;stroke-miterlimit:10;stroke-dasharray:none;stroke-opacity:1"
       transform="matrix(1.3333333,0,0,-1.3333333,0,414.78263)" />
    <g
       id="g27"
       aria-label="−0.5000"
       transform="matrix(1.3333333,0,0,1.3333333,29.545205,219.85271)">
      <path
         id="path28"
         d="m 7.6067209,-2.7430488 c 0,-0.2109375 -0.2109375,-0.2109375 -0.3632813,-0.2109375 H 1.2668771 c -0.1523437,0 -0.35156246,0 -0.35156246,0.2109375 0,0.2226562 0.19921876,0.2226562 0.35156246,0.2226562 h 5.9765625 c 0.1523438,0 0.3632813,0 0.3632813,-0.2226562 z m 0,0"
         style="fill:#000000;fill-opacity:1;fill-rule:nonzero;stroke:none" />
      <path
         id="path29"
         d="m 13.433869,-3.5047676 c 0,-0.9140625 -0.05859,-1.8046875 -0.445312,-2.6367187 -0.457031,-0.9023438 -1.242188,-1.1484375 -1.78125,-1.1484375 -0.632813,0 -1.4179689,0.3164062 -1.8164064,1.2304687 -0.3046875,0.6914063 -0.421875,1.3710938 -0.421875,2.5546875 0,1.0546875 0.082031,1.8632813 0.4804687,2.63671876 0.421875,0.83203125 1.1835937,1.1015625 1.7460937,1.1015625 0.949219,0 1.5,-0.57421875 1.816406,-1.20703125 0.398438,-0.82031251 0.421875,-1.89843751 0.421875,-2.53125001 z m -0.832031,-0.1289062 c 0,0.7265625 0,1.5585937 -0.117187,2.2265625 -0.210938,1.20703121 -0.902344,1.41796871 -1.289063,1.41796871 -0.351562,0 -1.066406,-0.19921875 -1.2656249,-1.39453121 -0.1289063,-0.65625 -0.1289063,-1.4882813 -0.1289063,-2.25 0,-0.9023438 0,-1.7109375 0.1757813,-2.3554688 0.1874999,-0.7382812 0.7499999,-1.078125 1.2187499,-1.078125 0.421875,0 1.054688,0.2460938 1.265625,1.1953125 0.140625,0.6210938 0.140625,1.4882813 0.140625,2.2382813 z m 0,0"
         style="fill:#000000;fill-opacity:1;fill-rule:nonzero;stroke:none" />
      <path
         id="path30"
         d="m 15.903596,-0.52820509 c 0,-0.31640625 -0.257813,-0.53906251 -0.527344,-0.53906251 -0.316406,0 -0.539062,0.26953126 -0.539062,0.52734376 0,0.31640625 0.269531,0.539062504 0.527343,0.539062504 0.316407,0 0.539063,-0.257812504 0.539063,-0.527343754 z m 0,0"
         style="fill:#000000;fill-opacity:1;fill-rule:nonzero;stroke:none" />
      <path
         id="path31"
         d="m 21.686799,-2.2039863 c 0,-1.3007813 -0.867187,-2.390625 -2.027344,-2.390625 -0.621093,0 -1.101562,0.28125 -1.382812,0.5859375 v -2.2734375 c 0.46875,0.1523437 0.855469,0.1640625 0.972656,0.1640625 1.242188,0 2.027344,-0.9023438 2.027344,-1.0546875 0,-0.046875 -0.02344,-0.1054688 -0.09375,-0.1054688 0,0 -0.03516,0 -0.140625,0.046875 -0.609375,0.2578125 -1.136719,0.2929688 -1.417969,0.2929688 -0.726562,0 -1.242187,-0.2226563 -1.453125,-0.3046875 -0.07031,-0.035156 -0.105469,-0.035156 -0.105469,-0.035156 -0.09375,0 -0.09375,0.070312 -0.09375,0.2460938 v 3.2460937 c 0,0.1992188 0,0.2695313 0.140625,0.2695313 0.04687,0 0.05859,-0.011719 0.175782,-0.140625 0.304687,-0.4570313 0.820312,-0.7148438 1.359375,-0.7148438 0.585937,0 0.867187,0.5390625 0.960937,0.7265625 0.1875,0.421875 0.199219,0.9609375 0.199219,1.3710938 0,0.421875 0,1.0429687 -0.316406,1.53515621 -0.234375,0.3984375 -0.667969,0.66796875 -1.148438,0.66796875 -0.714844,0 -1.429687,-0.4921875 -1.628906,-1.28906246 0.05859,0.023437 0.117187,0.035156 0.175781,0.035156 0.1875,0 0.480469,-0.1054687 0.480469,-0.4804687 0,-0.3046875 -0.210938,-0.4804688 -0.480469,-0.4804688 -0.199219,0 -0.480469,0.09375 -0.480469,0.515625 0,0.93750001 0.738282,2.00390626 1.957032,2.00390626 1.242187,0 2.320312,-1.04296875 2.320312,-2.43750006 z m 5.452148,-1.3007813 c 0,-0.9140625 -0.05859,-1.8046875 -0.445312,-2.6367187 -0.457031,-0.9023438 -1.242188,-1.1484375 -1.78125,-1.1484375 -0.632813,0 -1.417969,0.3164062 -1.816406,1.2304687 -0.304688,0.6914063 -0.421875,1.3710938 -0.421875,2.5546875 0,1.0546875 0.08203,1.8632813 0.480468,2.63671876 0.421875,0.83203125 1.183594,1.1015625 1.746094,1.1015625 0.949219,0 1.5,-0.57421875 1.816406,-1.20703125 0.398438,-0.82031251 0.421875,-1.89843751 0.421875,-2.53125001 z m -0.832031,-0.1289062 c 0,0.7265625 0,1.5585937 -0.117187,2.2265625 -0.210938,1.20703121 -0.902344,1.41796871 -1.289063,1.41796871 -0.351562,0 -1.066406,-0.19921875 -1.265625,-1.39453121 -0.128906,-0.65625 -0.128906,-1.4882813 -0.128906,-2.25 0,-0.9023438 0,-1.7109375 0.175781,-2.3554688 0.1875,-0.7382812 0.75,-1.078125 1.21875,-1.078125 0.421875,0 1.054688,0.2460938 1.265625,1.1953125 0.140625,0.6210938 0.140625,1.4882813 0.140625,2.2382813 z m 6.19043,0.1289062 c 0,-0.9140625 -0.05859,-1.8046875 -0.445313,-2.6367187 -0.457031,-0.9023438 -1.242187,-1.1484375 -1.78125,-1.1484375 -0.632812,0 -1.417968,0.3164062 -1.816406,1.2304687 -0.304687,0.6914063 -0.421875,1.3710938 -0.421875,2.5546875 0,1.0546875 0.08203,1.8632813 0.480469,2.63671876 0.421875,0.83203125 1.183594,1.1015625 1.746094,1.1015625 0.949218,0 1.5,-0.57421875 1.816406,-1.20703125 0.398437,-0.82031251 0.421875,-1.89843751 0.421875,-2.53125001 z m -0.832031,-0.1289062 c 0,0.7265625 0,1.5585937 -0.117188,2.2265625 -0.210937,1.20703121 -0.902344,1.41796871 -1.289062,1.41796871 -0.351563,0 -1.066407,-0.19921875 -1.265625,-1.39453121 -0.128907,-0.65625 -0.128907,-1.4882813 -0.128907,-2.25 0,-0.9023438 0,-1.7109375 0.175782,-2.3554688 0.1875,-0.7382812 0.75,-1.078125 1.21875,-1.078125 0.421875,0 1.054687,0.2460938 1.265625,1.1953125 0.140625,0.6210938 0.140625,1.4882813 0.140625,2.2382813 z m 6.190429,0.1289062 c 0,-0.9140625 -0.05859,-1.8046875 -0.445312,-2.6367187 -0.457031,-0.9023438 -1.242188,-1.1484375 -1.78125,-1.1484375 -0.632813,0 -1.417969,0.3164062 -1.816406,1.2304687 -0.304688,0.6914063 -0.421875,1.3710938 -0.421875,2.5546875 0,1.0546875 0.08203,1.8632813 0.480468,2.63671876 0.421875,0.83203125 1.183594,1.1015625 1.746094,1.1015625 0.949219,0 1.5,-0.57421875 1.816406,-1.20703125 0.398438,-0.82031251 0.421875,-1.89843751 0.421875,-2.53125001 z m -0.832031,-0.1289062 c 0,0.7265625 0,1.5585937 -0.117187,2.2265625 -0.210938,1.20703121 -0.902344,1.41796871 -1.289063,1.41796871 -0.351562,0 -1.066406,-0.19921875 -1.265625,-1.39453121 -0.128906,-0.65625 -0.128906,-1.4882813 -0.128906,-2.25 0,-0.9023438 0,-1.7109375 0.175781,-2.3554688 0.1875,-0.7382812 0.75,-1.078125 1.21875,-1.078125 0.421875,0 1.054688,0.2460938 1.265625,1.1953125 0.140625,0.6210938 0.140625,1.4882813 0.140625,2.2382813 z m 0,0"
         style="fill:#000000;fill-opacity:1;fill-rule:nonzero;stroke:none" />
    </g>
    <path
       id="path32"
       d="m 67.489636,181.96859 h -3.5"
       style="fill:#000000;fill-opacity:1;fill-rule:nonzero;stroke:#000000;stroke-width:0.8;stroke-linecap:butt;stroke-linejoin:round;stroke-miterlimit:10;stroke-dasharray:none;stroke-opacity:1"
       transform="matrix(1.3333333,0,0,-1.3333333,0,414.78263)" />
    <g
       id="g32"
       aria-label="−0.4995"
       transform="matrix(1.3333333,0,0,1.3333333,29.545205,177.26224)">
      <path
         id="path33"
         d="m 7.6067209,-2.7425776 c 0,-0.2109375 -0.2109375,-0.2109375 -0.3632813,-0.2109375 H 1.2668771 c -0.1523437,0 -0.35156246,0 -0.35156246,0.2109375 0,0.2226563 0.19921876,0.2226563 0.35156246,0.2226563 h 5.9765625 c 0.1523438,0 0.3632813,0 0.3632813,-0.2226563 z m 0,0"
         style="fill:#000000;fill-opacity:1;fill-rule:nonzero;stroke:none" />
      <path
         id="path34"
         d="m 13.433869,-3.5042963 c 0,-0.9140625 -0.05859,-1.8046875 -0.445312,-2.6367188 -0.457031,-0.9023437 -1.242188,-1.1484375 -1.78125,-1.1484375 -0.632813,0 -1.4179689,0.3164063 -1.8164064,1.2304688 -0.3046875,0.6914062 -0.421875,1.3710937 -0.421875,2.5546875 0,1.0546875 0.082031,1.8632812 0.4804687,2.63671875 0.421875,0.83203125 1.1835937,1.1015625 1.7460937,1.1015625 0.949219,0 1.5,-0.57421875 1.816406,-1.20703125 0.398438,-0.8203125 0.421875,-1.8984375 0.421875,-2.53125 z m -0.832031,-0.1289063 c 0,0.7265625 0,1.5585938 -0.117187,2.2265625 -0.210938,1.2070313 -0.902344,1.4179688 -1.289063,1.4179688 -0.351562,0 -1.066406,-0.19921875 -1.2656249,-1.3945313 -0.1289063,-0.65625 -0.1289063,-1.4882812 -0.1289063,-2.25 0,-0.9023437 0,-1.7109375 0.1757813,-2.3554687 0.1874999,-0.7382813 0.7499999,-1.078125 1.2187499,-1.078125 0.421875,0 1.054688,0.2460937 1.265625,1.1953125 0.140625,0.6210937 0.140625,1.4882812 0.140625,2.2382812 z m 0,0"
         style="fill:#000000;fill-opacity:1;fill-rule:nonzero;stroke:none" />
      <path
         id="path35"
         d="m 15.903596,-0.5277338 c 0,-0.31640625 -0.257813,-0.5390625 -0.527344,-0.5390625 -0.316406,0 -0.539062,0.26953125 -0.539062,0.52734375 0,0.31640625 0.269531,0.5390624981 0.527343,0.5390624981 0.316407,0 0.539063,-0.2578124981 0.539063,-0.5273437481 z m 0,0"
         style="fill:#000000;fill-opacity:1;fill-rule:nonzero;stroke:none" />
      <path
         id="path36"
         d="M 21.932893,-1.8285151 V -2.1449213 H 20.83133 v -4.9921875 c 0,-0.1992188 0,-0.2578125 -0.164062,-0.2578125 -0.08203,0 -0.117188,0 -0.199219,0.1289062 l -3.304687,5.1210938 v 0.3164062 h 2.882812 v 0.9960938 c 0,0.41015625 -0.02344,0.515625 -0.820312,0.515625 h -0.222657 v 0.3164062481 c 0.257813,-0.0234374981 1.125,-0.0234374981 1.429688,-0.0234374981 0.304687,0 1.183594,0 1.429687,0.0234374981 V -0.3167963 h -0.210937 c -0.796875,0 -0.820313,-0.10546875 -0.820313,-0.515625 v -0.9960938 z m -1.828125,-0.3164062 h -2.660156 l 2.660156,-4.1367188 z m 7.034179,-1.4648438 c 0,-2.9414062 -1.230468,-3.6796875 -2.191406,-3.6796875 -1.207031,0 -2.273437,1.0078125 -2.273437,2.4609375 0,1.4414063 1.019531,2.4257813 2.121093,2.4257813 0.808594,0 1.230469,-0.5859375 1.441407,-1.1484375 v 0.3632812 c 0,2.5898438 -1.148438,3.11718755 -1.804688,3.11718755 -0.269531,0 -0.84375,-0.0234375 -1.113281,-0.41015625 h 0.05859 c 0.08203,0.0234375 0.46875,-0.046875 0.46875,-0.4453125 0,-0.2460938 -0.164063,-0.4570313 -0.445313,-0.4570313 -0.28125,0 -0.457031,0.1875 -0.457031,0.46875005 0,0.6796875 0.550781,1.1484375 1.5,1.1484375 1.371094,0 2.695312,-1.46484375 2.695312,-3.84375005 z m -0.925781,-0.984375 c 0,0.9257813 -0.410156,1.9804688 -1.371094,1.9804688 -0.691406,0 -0.996093,-0.5625 -1.089843,-0.7734375 -0.175782,-0.4101563 -0.175782,-0.9375 -0.175782,-1.4296875 0,-0.6210938 0,-1.1484375 0.28125,-1.59375 0.199219,-0.2929688 0.492188,-0.609375 1.089844,-0.609375 0.621094,0 0.9375,0.5390625 1.054688,0.796875 0.210937,0.5390625 0.210937,1.4648437 0.210937,1.6289062 z m 6.28418,0.984375 c 0,-2.9414062 -1.230469,-3.6796875 -2.191406,-3.6796875 -1.207032,0 -2.273438,1.0078125 -2.273438,2.4609375 0,1.4414063 1.019531,2.4257813 2.121094,2.4257813 0.808594,0 1.230469,-0.5859375 1.441406,-1.1484375 v 0.3632812 c 0,2.5898438 -1.148437,3.11718755 -1.804687,3.11718755 -0.269532,0 -0.84375,-0.0234375 -1.113282,-0.41015625 h 0.05859 c 0.08203,0.0234375 0.46875,-0.046875 0.46875,-0.4453125 0,-0.2460938 -0.164062,-0.4570313 -0.445312,-0.4570313 -0.28125,0 -0.457032,0.1875 -0.457032,0.46875005 0,0.6796875 0.550782,1.1484375 1.5,1.1484375 1.371094,0 2.695313,-1.46484375 2.695313,-3.84375005 z m -0.925781,-0.984375 c 0,0.9257813 -0.410157,1.9804688 -1.371094,1.9804688 -0.691406,0 -0.996094,-0.5625 -1.089844,-0.7734375 -0.175781,-0.4101563 -0.175781,-0.9375 -0.175781,-1.4296875 0,-0.6210938 0,-1.1484375 0.28125,-1.59375 0.199219,-0.2929688 0.492187,-0.609375 1.089844,-0.609375 0.621093,0 0.9375,0.5390625 1.054687,0.796875 0.210938,0.5390625 0.210938,1.4648437 0.210938,1.6289062 z m 6.190429,2.390625 c 0,-1.3007812 -0.867187,-2.390625 -2.027343,-2.390625 -0.621094,0 -1.101563,0.28125 -1.382813,0.5859375 v -2.2734375 c 0.46875,0.1523438 0.855469,0.1640625 0.972656,0.1640625 1.242188,0 2.027344,-0.9023437 2.027344,-1.0546875 0,-0.046875 -0.02344,-0.1054687 -0.09375,-0.1054687 0,0 -0.03516,0 -0.140625,0.046875 -0.609375,0.2578125 -1.136719,0.2929687 -1.417969,0.2929687 -0.726562,0 -1.242187,-0.2226562 -1.453125,-0.3046875 -0.07031,-0.035156 -0.105468,-0.035156 -0.105468,-0.035156 -0.09375,0 -0.09375,0.070312 -0.09375,0.2460937 v 3.2460938 c 0,0.1992187 0,0.2695312 0.140625,0.2695312 0.04687,0 0.05859,-0.011719 0.175781,-0.140625 0.304687,-0.4570312 0.820312,-0.7148437 1.359375,-0.7148437 0.585937,0 0.867187,0.5390625 0.960937,0.7265625 0.1875,0.421875 0.199219,0.9609375 0.199219,1.3710937 0,0.421875 0,1.0429688 -0.316406,1.5351563 -0.234375,0.3984375 -0.667969,0.66796875 -1.148438,0.66796875 -0.714843,0 -1.429687,-0.4921875 -1.628906,-1.28906255 0.05859,0.023437 0.117188,0.035156 0.175781,0.035156 0.1875,0 0.480469,-0.1054688 0.480469,-0.4804688 0,-0.3046875 -0.210937,-0.4804687 -0.480469,-0.4804687 -0.199218,0 -0.480468,0.09375 -0.480468,0.515625 0,0.9375 0.738281,2.00390625 1.957031,2.00390625 1.242187,0 2.320312,-1.04296875 2.320312,-2.43749995 z m 0,0"
         style="fill:#000000;fill-opacity:1;fill-rule:nonzero;stroke:none" />
    </g>
    <path
       id="path37"
       d="m 67.489636,213.91145 h -3.5"
       style="fill:#000000;fill-opacity:1;fill-rule:nonzero;stroke:#000000;stroke-width:0.8;stroke-linecap:butt;stroke-linejoin:round;stroke-miterlimit:10;stroke-dasharray:none;stroke-opacity:1"
       transform="matrix(1.3333333,0,0,-1.3333333,0,414.78263)" />
    <g
       id="g37"
       aria-label="−0.4990"
       transform="matrix(1.3333333,0,0,1.3333333,29.545205,134.67177)">
      <path
         id="path38"
         d="m 7.6067209,-2.7421063 c 0,-0.2109375 -0.2109375,-0.2109375 -0.3632813,-0.2109375 H 1.2668771 c -0.1523437,0 -0.35156246,0 -0.35156246,0.2109375 0,0.2226563 0.19921876,0.2226563 0.35156246,0.2226563 h 5.9765625 c 0.1523438,0 0.3632813,0 0.3632813,-0.2226563 z m 0,0"
         style="fill:#000000;fill-opacity:1;fill-rule:nonzero;stroke:none" />
      <path
         id="path39"
         d="m 13.433869,-3.503825 c 0,-0.9140625 -0.05859,-1.8046875 -0.445312,-2.6367188 -0.457031,-0.9023437 -1.242188,-1.1484375 -1.78125,-1.1484375 -0.632813,0 -1.4179689,0.3164063 -1.8164064,1.2304688 -0.3046875,0.6914062 -0.421875,1.3710937 -0.421875,2.5546875 0,1.0546875 0.082031,1.8632812 0.4804687,2.63671873 0.421875,0.83203125 1.1835937,1.1015625 1.7460937,1.1015625 0.949219,0 1.5,-0.57421875 1.816406,-1.20703125 0.398438,-0.82031248 0.421875,-1.89843748 0.421875,-2.53124998 z m -0.832031,-0.1289063 c 0,0.7265625 0,1.5585938 -0.117187,2.2265625 -0.210938,1.20703128 -0.902344,1.41796878 -1.289063,1.41796878 -0.351562,0 -1.066406,-0.19921875 -1.2656249,-1.39453128 -0.1289063,-0.65625 -0.1289063,-1.4882812 -0.1289063,-2.25 0,-0.9023437 0,-1.7109375 0.1757813,-2.3554687 0.1874999,-0.7382813 0.7499999,-1.078125 1.2187499,-1.078125 0.421875,0 1.054688,0.2460937 1.265625,1.1953125 0.140625,0.6210937 0.140625,1.4882812 0.140625,2.2382812 z m 0,0"
         style="fill:#000000;fill-opacity:1;fill-rule:nonzero;stroke:none" />
      <path
         id="path40"
         d="m 15.903596,-0.52726252 c 0,-0.31640625 -0.257813,-0.53906248 -0.527344,-0.53906248 -0.316406,0 -0.539062,0.26953123 -0.539062,0.52734373 0,0.31640625 0.269531,0.5390625023 0.527343,0.5390625023 0.316407,0 0.539063,-0.2578125023 0.539063,-0.5273437523 z m 0,0"
         style="fill:#000000;fill-opacity:1;fill-rule:nonzero;stroke:none" />
      <path
         id="path41"
         d="M 21.932893,-1.8280438 V -2.14445 H 20.83133 v -4.9921875 c 0,-0.1992188 0,-0.2578125 -0.164062,-0.2578125 -0.08203,0 -0.117188,0 -0.199219,0.1289062 L 17.163362,-2.14445 v 0.3164062 h 2.882812 v 0.99609378 c 0,0.41015625 -0.02344,0.515625 -0.820312,0.515625 H 19.003205 V 8.12323e-5 c 0.257813,-0.0234375023 1.125,-0.0234375023 1.429688,-0.0234375023 0.304687,0 1.183594,0 1.429687,0.0234375023 V -0.31632502 h -0.210937 c -0.796875,0 -0.820313,-0.10546875 -0.820313,-0.515625 V -1.8280438 Z M 20.104768,-2.14445 h -2.660156 l 2.660156,-4.1367188 z m 7.034179,-1.4648438 c 0,-2.9414062 -1.230468,-3.6796875 -2.191406,-3.6796875 -1.207031,0 -2.273437,1.0078125 -2.273437,2.4609375 0,1.4414063 1.019531,2.4257813 2.121093,2.4257813 0.808594,0 1.230469,-0.5859375 1.441407,-1.1484375 v 0.3632812 c 0,2.58984378 -1.148438,3.11718753 -1.804688,3.11718753 -0.269531,0 -0.84375,-0.0234375 -1.113281,-0.41015625 h 0.05859 c 0.08203,0.0234375 0.46875,-0.046875 0.46875,-0.4453125 0,-0.24609378 -0.164063,-0.45703128 -0.445313,-0.45703128 -0.28125,0 -0.457031,0.1875 -0.457031,0.46875003 0,0.6796875 0.550781,1.1484375 1.5,1.1484375 1.371094,0 2.695312,-1.46484373 2.695312,-3.84375003 z m -0.925781,-0.984375 c 0,0.9257813 -0.410156,1.9804688 -1.371094,1.9804688 -0.691406,0 -0.996093,-0.5625 -1.089843,-0.7734375 -0.175782,-0.4101563 -0.175782,-0.9375 -0.175782,-1.4296875 0,-0.6210938 0,-1.1484375 0.28125,-1.59375 0.199219,-0.2929688 0.492188,-0.609375 1.089844,-0.609375 0.621094,0 0.9375,0.5390625 1.054688,0.796875 0.210937,0.5390625 0.210937,1.4648437 0.210937,1.6289062 z m 6.28418,0.984375 c 0,-2.9414062 -1.230469,-3.6796875 -2.191406,-3.6796875 -1.207032,0 -2.273438,1.0078125 -2.273438,2.4609375 0,1.4414063 1.019531,2.4257813 2.121094,2.4257813 0.808594,0 1.230469,-0.5859375 1.441406,-1.1484375 v 0.3632812 c 0,2.58984378 -1.148437,3.11718753 -1.804687,3.11718753 -0.269532,0 -0.84375,-0.0234375 -1.113282,-0.41015625 h 0.05859 c 0.08203,0.0234375 0.46875,-0.046875 0.46875,-0.4453125 0,-0.24609378 -0.164062,-0.45703128 -0.445312,-0.45703128 -0.28125,0 -0.457032,0.1875 -0.457032,0.46875003 0,0.6796875 0.550782,1.1484375 1.5,1.1484375 1.371094,0 2.695313,-1.46484373 2.695313,-3.84375003 z m -0.925781,-0.984375 c 0,0.9257813 -0.410157,1.9804688 -1.371094,1.9804688 -0.691406,0 -0.996094,-0.5625 -1.089844,-0.7734375 -0.175781,-0.4101563 -0.175781,-0.9375 -0.175781,-1.4296875 0,-0.6210938 0,-1.1484375 0.28125,-1.59375 0.199219,-0.2929688 0.492187,-0.609375 1.089844,-0.609375 0.621093,0 0.9375,0.5390625 1.054687,0.796875 0.210938,0.5390625 0.210938,1.4648437 0.210938,1.6289062 z m 6.284179,1.0898438 c 0,-0.9140625 -0.05859,-1.8046875 -0.445312,-2.6367188 -0.457031,-0.9023437 -1.242188,-1.1484375 -1.78125,-1.1484375 -0.632813,0 -1.417969,0.3164063 -1.816406,1.2304688 -0.304688,0.6914062 -0.421875,1.3710937 -0.421875,2.5546875 0,1.0546875 0.08203,1.8632812 0.480468,2.63671873 0.421875,0.83203125 1.183594,1.1015625 1.746094,1.1015625 0.949219,0 1.5,-0.57421875 1.816406,-1.20703125 0.398438,-0.82031248 0.421875,-1.89843748 0.421875,-2.53124998 z m -0.832031,-0.1289063 c 0,0.7265625 0,1.5585938 -0.117187,2.2265625 -0.210938,1.20703128 -0.902344,1.41796878 -1.289063,1.41796878 -0.351562,0 -1.066406,-0.19921875 -1.265625,-1.39453128 -0.128906,-0.65625 -0.128906,-1.4882812 -0.128906,-2.25 0,-0.9023437 0,-1.7109375 0.175781,-2.3554687 0.1875,-0.7382813 0.75,-1.078125 1.21875,-1.078125 0.421875,0 1.054688,0.2460937 1.265625,1.1953125 0.140625,0.6210937 0.140625,1.4882812 0.140625,2.2382812 z m 0,0"
         style="fill:#000000;fill-opacity:1;fill-rule:nonzero;stroke:none" />
    </g>
    <path
       id="path42"
       d="m 67.489636,245.8543 h -3.5"
       style="fill:#000000;fill-opacity:1;fill-rule:nonzero;stroke:#000000;stroke-width:0.8;stroke-linecap:butt;stroke-linejoin:round;stroke-miterlimit:10;stroke-dasharray:none;stroke-opacity:1"
       transform="matrix(1.3333333,0,0,-1.3333333,0,414.78263)" />
    <g
       id="g42"
       aria-label="−0.4985"
       transform="matrix(1.3333333,0,0,1.3333333,29.545205,92.081295)">
      <path
         id="path43"
         d="m 7.6067209,-2.741635 c 0,-0.2109375 -0.2109375,-0.2109375 -0.3632813,-0.2109375 H 1.2668771 c -0.1523437,0 -0.35156246,0 -0.35156246,0.2109375 0,0.2226563 0.19921876,0.2226563 0.35156246,0.2226563 h 5.9765625 c 0.1523438,0 0.3632813,0 0.3632813,-0.2226563 z m 0,0"
         style="fill:#000000;fill-opacity:1;fill-rule:nonzero;stroke:none" />
      <path
         id="path44"
         d="m 13.433869,-3.5033537 c 0,-0.9140625 -0.05859,-1.8046875 -0.445312,-2.6367188 -0.457031,-0.9023437 -1.242188,-1.1484375 -1.78125,-1.1484375 -0.632813,0 -1.4179689,0.3164063 -1.8164064,1.2304688 -0.3046875,0.6914062 -0.421875,1.3710937 -0.421875,2.5546875 0,1.0546875 0.082031,1.8632812 0.4804687,2.63671872 0.421875,0.83203125 1.1835937,1.1015625 1.7460937,1.1015625 0.949219,0 1.5,-0.57421875 1.816406,-1.20703125 0.398438,-0.82031247 0.421875,-1.89843747 0.421875,-2.53124997 z M 12.601838,-3.63226 c 0,0.7265625 0,1.5585938 -0.117187,2.2265625 -0.210938,1.20703127 -0.902344,1.41796877 -1.289063,1.41796877 -0.351562,0 -1.066406,-0.19921875 -1.2656249,-1.39453127 -0.1289063,-0.65625 -0.1289063,-1.4882812 -0.1289063,-2.25 0,-0.9023437 0,-1.7109375 0.1757813,-2.3554687 0.1874999,-0.7382813 0.7499999,-1.078125 1.2187499,-1.078125 0.421875,0 1.054688,0.2460937 1.265625,1.1953125 0.140625,0.6210937 0.140625,1.4882812 0.140625,2.2382812 z m 0,0"
         style="fill:#000000;fill-opacity:1;fill-rule:nonzero;stroke:none" />
      <path
         id="path45"
         d="m 15.903596,-0.52679123 c 0,-0.31640625 -0.257813,-0.53906247 -0.527344,-0.53906247 -0.316406,0 -0.539062,0.26953122 -0.539062,0.52734372 0,0.31640625 0.269531,0.5390624964 0.527343,0.5390624964 0.316407,0 0.539063,-0.2578124964 0.539063,-0.5273437464 z m 0,0"
         style="fill:#000000;fill-opacity:1;fill-rule:nonzero;stroke:none" />
      <path
         id="path46"
         d="M 21.932893,-1.8275725 V -2.1439787 H 20.83133 v -4.9921875 c 0,-0.1992188 0,-0.2578125 -0.164062,-0.2578125 -0.08203,0 -0.117188,0 -0.199219,0.1289062 l -3.304687,5.1210938 v 0.3164062 h 2.882812 v 0.99609377 c 0,0.41015625 -0.02344,0.515625 -0.820312,0.515625 H 19.003205 V 5.525164e-4 c 0.257813,-0.0234374964 1.125,-0.0234374964 1.429688,-0.0234374964 0.304687,0 1.183594,0 1.429687,0.0234374964 V -0.31585373 h -0.210937 c -0.796875,0 -0.820313,-0.10546875 -0.820313,-0.515625 V -1.8275725 Z m -1.828125,-0.3164062 h -2.660156 l 2.660156,-4.1367188 z m 7.034179,-1.4648438 c 0,-2.9414062 -1.230468,-3.6796875 -2.191406,-3.6796875 -1.207031,0 -2.273437,1.0078125 -2.273437,2.4609375 0,1.4414063 1.019531,2.4257813 2.121093,2.4257813 0.808594,0 1.230469,-0.5859375 1.441407,-1.1484375 v 0.3632812 c 0,2.58984377 -1.148438,3.11718752 -1.804688,3.11718752 -0.269531,0 -0.84375,-0.0234375 -1.113281,-0.41015625 h 0.05859 c 0.08203,0.0234375 0.46875,-0.046875 0.46875,-0.4453125 0,-0.24609377 -0.164063,-0.45703127 -0.445313,-0.45703127 -0.28125,0 -0.457031,0.1875 -0.457031,0.46875002 0,0.6796875 0.550781,1.1484375 1.5,1.1484375 1.371094,0 2.695312,-1.46484372 2.695312,-3.84375002 z m -0.925781,-0.984375 c 0,0.9257813 -0.410156,1.9804688 -1.371094,1.9804688 -0.691406,0 -0.996093,-0.5625 -1.089843,-0.7734375 -0.175782,-0.4101563 -0.175782,-0.9375 -0.175782,-1.4296875 0,-0.6210938 0,-1.1484375 0.28125,-1.59375 0.199219,-0.2929688 0.492188,-0.609375 1.089844,-0.609375 0.621094,0 0.9375,0.5390625 1.054688,0.796875 0.210937,0.5390625 0.210937,1.4648437 0.210937,1.6289062 z m 6.28418,2.7773438 c 0,-1.125 -0.785156,-1.6171875 -1.640625,-2.1445313 0.539062,-0.2929687 1.347656,-0.796875 1.347656,-1.7109375 0,-0.9609375 -0.925781,-1.6171875 -1.933594,-1.6171875 -1.078125,0 -1.933593,0.796875 -1.933593,1.8046875 0,0.3632813 0.105468,0.7382813 0.410156,1.1132813 0.117187,0.140625 0.128906,0.1523437 0.902344,0.6914062 -1.066407,0.4921875 -1.617188,1.2304688 -1.617188,2.0273438 0,1.16015622 1.113281,1.88671872 2.226563,1.88671872 1.21875,0 2.238281,-0.90234375 2.238281,-2.05078122 z m -0.75,-3.84375 c 0,0.6679687 -0.480469,1.1953125 -1.113281,1.546875 L 29.356721,-4.94476 c -0.140625,-0.09375 -0.574219,-0.375 -0.574219,-0.9140625 0,-0.7148437 0.738281,-1.1601562 1.476563,-1.1601562 0.785156,0 1.488281,0.5625 1.488281,1.359375 z m 0.246094,4.1953125 c 0,0.83203122 -0.84375,1.39453122 -1.722657,1.39453122 -0.925781,0 -1.734375,-0.6796875 -1.734375,-1.58203122 0,-0.8554688 0.632813,-1.546875 1.335938,-1.875 l 1.335937,0.8671875 c 0.28125,0.1875 0.785157,0.5273437 0.785157,1.1953125 z m 5.768554,-0.7382813 c 0,-1.3007812 -0.867187,-2.390625 -2.027343,-2.390625 -0.621094,0 -1.101563,0.28125 -1.382813,0.5859375 v -2.2734375 c 0.46875,0.1523438 0.855469,0.1640625 0.972656,0.1640625 1.242188,0 2.027344,-0.9023437 2.027344,-1.0546875 0,-0.046875 -0.02344,-0.1054687 -0.09375,-0.1054687 0,0 -0.03516,0 -0.140625,0.046875 -0.609375,0.2578125 -1.136719,0.2929687 -1.417969,0.2929687 -0.726562,0 -1.242187,-0.2226562 -1.453125,-0.3046875 -0.07031,-0.035156 -0.105468,-0.035156 -0.105468,-0.035156 -0.09375,0 -0.09375,0.070312 -0.09375,0.2460937 v 3.2460938 c 0,0.1992187 0,0.2695312 0.140625,0.2695312 0.04687,0 0.05859,-0.011719 0.175781,-0.140625 0.304687,-0.4570312 0.820312,-0.7148437 1.359375,-0.7148437 0.585937,0 0.867187,0.5390625 0.960937,0.7265625 0.1875,0.421875 0.199219,0.9609375 0.199219,1.3710937 0,0.421875 0,1.0429688 -0.316406,1.53515627 -0.234375,0.3984375 -0.667969,0.66796875 -1.148438,0.66796875 -0.714843,0 -1.429687,-0.4921875 -1.628906,-1.28906252 0.05859,0.023437 0.117188,0.035156 0.175781,0.035156 0.1875,0 0.480469,-0.1054688 0.480469,-0.4804688 0,-0.3046875 -0.210937,-0.4804687 -0.480469,-0.4804687 -0.199218,0 -0.480468,0.09375 -0.480468,0.515625 0,0.93749997 0.738281,2.00390622 1.957031,2.00390622 1.242187,0 2.320312,-1.04296875 2.320312,-2.43749992 z m 0,0"
         style="fill:#000000;fill-opacity:1;fill-rule:nonzero;stroke:none" />
    </g>
    <path
       id="path47"
       d="m 67.489636,277.79716 h -3.5"
       style="fill:#000000;fill-opacity:1;fill-rule:nonzero;stroke:#000000;stroke-width:0.8;stroke-linecap:butt;stroke-linejoin:round;stroke-miterlimit:10;stroke-dasharray:none;stroke-opacity:1"
       transform="matrix(1.3333333,0,0,-1.3333333,0,414.78263)" />
    <g
       id="g47"
       aria-label="−0.4980"
       transform="matrix(1.3333333,0,0,1.3333333,29.545205,49.490822)">
      <path
         id="path48"
         d="m 7.6067209,-2.7411637 c 0,-0.2109375 -0.2109375,-0.2109375 -0.3632813,-0.2109375 H 1.2668771 c -0.1523437,0 -0.35156246,0 -0.35156246,0.2109375 0,0.2226563 0.19921876,0.2226563 0.35156246,0.2226563 h 5.9765625 c 0.1523438,0 0.3632813,0 0.3632813,-0.2226563 z m 0,0"
         style="fill:#000000;fill-opacity:1;fill-rule:nonzero;stroke:none" />
      <path
         id="path49"
         d="m 13.433869,-3.5028824 c 0,-0.9140625 -0.05859,-1.8046875 -0.445312,-2.6367188 -0.457031,-0.9023437 -1.242188,-1.1484375 -1.78125,-1.1484375 -0.632813,0 -1.4179689,0.3164063 -1.8164064,1.2304688 -0.3046875,0.6914062 -0.421875,1.3710937 -0.421875,2.5546875 0,1.0546875 0.082031,1.8632812 0.4804687,2.6367187 0.421875,0.83203125 1.1835937,1.1015625 1.7460937,1.1015625 0.949219,0 1.5,-0.57421875 1.816406,-1.20703125 0.398438,-0.82031245 0.421875,-1.89843745 0.421875,-2.53124995 z m -0.832031,-0.1289063 c 0,0.7265625 0,1.5585938 -0.117187,2.2265625 -0.210938,1.20703125 -0.902344,1.41796875 -1.289063,1.41796875 -0.351562,0 -1.066406,-0.19921875 -1.2656249,-1.39453125 -0.1289063,-0.65625 -0.1289063,-1.4882812 -0.1289063,-2.25 0,-0.9023437 0,-1.7109375 0.1757813,-2.3554687 0.1874999,-0.7382813 0.7499999,-1.078125 1.2187499,-1.078125 0.421875,0 1.054688,0.2460937 1.265625,1.1953125 0.140625,0.6210937 0.140625,1.4882812 0.140625,2.2382812 z m 0,0"
         style="fill:#000000;fill-opacity:1;fill-rule:nonzero;stroke:none" />
      <path
         id="path50"
         d="m 15.903596,-0.52631995 c 0,-0.31640625 -0.257813,-0.53906245 -0.527344,-0.53906245 -0.316406,0 -0.539062,0.2695312 -0.539062,0.5273437 0,0.31640625 0.269531,0.5390625 0.527343,0.5390625 0.316407,0 0.539063,-0.2578125 0.539063,-0.52734375 z m 0,0"
         style="fill:#000000;fill-opacity:1;fill-rule:nonzero;stroke:none" />
      <path
         id="path51"
         d="M 21.932893,-1.8271012 V -2.1435074 H 20.83133 v -4.9921875 c 0,-0.1992188 0,-0.2578125 -0.164062,-0.2578125 -0.08203,0 -0.117188,0 -0.199219,0.1289062 l -3.304687,5.1210938 v 0.3164062 h 2.882812 v 0.99609375 c 0,0.41015625 -0.02344,0.515625 -0.820312,0.515625 H 19.003205 V 0.0010238 c 0.257813,-0.0234375 1.125,-0.0234375 1.429688,-0.0234375 0.304687,0 1.183594,0 1.429687,0.0234375 v -0.31640625 h -0.210937 c -0.796875,0 -0.820313,-0.10546875 -0.820313,-0.515625 V -1.8271012 Z m -1.828125,-0.3164062 h -2.660156 l 2.660156,-4.1367188 z m 7.034179,-1.4648438 c 0,-2.9414062 -1.230468,-3.6796875 -2.191406,-3.6796875 -1.207031,0 -2.273437,1.0078125 -2.273437,2.4609375 0,1.4414063 1.019531,2.4257813 2.121093,2.4257813 0.808594,0 1.230469,-0.5859375 1.441407,-1.1484375 v 0.3632812 c 0,2.58984375 -1.148438,3.1171875 -1.804688,3.1171875 -0.269531,0 -0.84375,-0.0234375 -1.113281,-0.41015625 h 0.05859 c 0.08203,0.0234375 0.46875,-0.046875 0.46875,-0.4453125 0,-0.24609375 -0.164063,-0.45703125 -0.445313,-0.45703125 -0.28125,0 -0.457031,0.1875 -0.457031,0.46875 0,0.6796875 0.550781,1.1484375 1.5,1.1484375 1.371094,0 2.695312,-1.4648437 2.695312,-3.84375 z m -0.925781,-0.984375 c 0,0.9257813 -0.410156,1.9804688 -1.371094,1.9804688 -0.691406,0 -0.996093,-0.5625 -1.089843,-0.7734375 -0.175782,-0.4101563 -0.175782,-0.9375 -0.175782,-1.4296875 0,-0.6210938 0,-1.1484375 0.28125,-1.59375 0.199219,-0.2929688 0.492188,-0.609375 1.089844,-0.609375 0.621094,0 0.9375,0.5390625 1.054688,0.796875 0.210937,0.5390625 0.210937,1.4648437 0.210937,1.6289062 z m 6.28418,2.7773438 c 0,-1.125 -0.785156,-1.6171875 -1.640625,-2.1445313 0.539062,-0.2929687 1.347656,-0.796875 1.347656,-1.7109375 0,-0.9609375 -0.925781,-1.6171875 -1.933594,-1.6171875 -1.078125,0 -1.933593,0.796875 -1.933593,1.8046875 0,0.3632813 0.105468,0.7382813 0.410156,1.1132813 0.117187,0.140625 0.128906,0.1523437 0.902344,0.6914062 -1.066407,0.4921875 -1.617188,1.2304688 -1.617188,2.0273438 0,1.1601562 1.113281,1.8867187 2.226563,1.8867187 1.21875,0 2.238281,-0.90234375 2.238281,-2.0507812 z m -0.75,-3.84375 c 0,0.6679687 -0.480469,1.1953125 -1.113281,1.546875 l -1.277344,-0.8320313 c -0.140625,-0.09375 -0.574219,-0.375 -0.574219,-0.9140625 0,-0.7148437 0.738281,-1.1601562 1.476563,-1.1601562 0.785156,0 1.488281,0.5625 1.488281,1.359375 z m 0.246094,4.1953125 c 0,0.8320312 -0.84375,1.3945312 -1.722657,1.3945312 -0.925781,0 -1.734375,-0.6796875 -1.734375,-1.5820312 0,-0.8554688 0.632813,-1.546875 1.335938,-1.875 l 1.335937,0.8671875 c 0.28125,0.1875 0.785157,0.5273437 0.785157,1.1953125 z m 5.862304,-2.0390625 c 0,-0.9140625 -0.05859,-1.8046875 -0.445312,-2.6367188 -0.457031,-0.9023437 -1.242188,-1.1484375 -1.78125,-1.1484375 -0.632813,0 -1.417969,0.3164063 -1.816406,1.2304688 -0.304688,0.6914062 -0.421875,1.3710937 -0.421875,2.5546875 0,1.0546875 0.08203,1.8632812 0.480468,2.6367187 0.421875,0.83203125 1.183594,1.1015625 1.746094,1.1015625 0.949219,0 1.5,-0.57421875 1.816406,-1.20703125 0.398438,-0.82031245 0.421875,-1.89843745 0.421875,-2.53124995 z m -0.832031,-0.1289063 c 0,0.7265625 0,1.5585938 -0.117187,2.2265625 -0.210938,1.20703125 -0.902344,1.41796875 -1.289063,1.41796875 -0.351562,0 -1.066406,-0.19921875 -1.265625,-1.39453125 -0.128906,-0.65625 -0.128906,-1.4882812 -0.128906,-2.25 0,-0.9023437 0,-1.7109375 0.175781,-2.3554687 0.1875,-0.7382813 0.75,-1.078125 1.21875,-1.078125 0.421875,0 1.054688,0.2460937 1.265625,1.1953125 0.140625,0.6210937 0.140625,1.4882812 0.140625,2.2382812 z m 0,0"
         style="fill:#000000;fill-opacity:1;fill-rule:nonzero;stroke:none" />
    </g>
    <path
       id="path52"
       d="m 3.6329014,2.5192985 c 0,0 0,-0.070312 -0.046875,-0.1992188 l -1.9335937,-5.0625 1.9335937,-5.0625 c 0.046875,-0.1289062 0.046875,-0.1992187 0.046875,-0.1992187 0,-0.1171875 -0.09375,-0.2109375 -0.2109375,-0.2109375 -0.140625,0 -0.1875,0.09375 -0.234375,0.2109375 l -1.921875,5.0625 c -0.058594,0.140625 -0.058594,0.1992187 -0.058594,0.1992187 0,0 0,0.070312 0.058594,0.1992188 L 3.1758702,2.495861 c 0.058594,0.1289062 0.09375,0.2460937 0.2460937,0.2460937 0.1171875,0 0.2109375,-0.1054687 0.2109375,-0.2226562 z m 0,0"
       style="fill:#000000;fill-opacity:1;fill-rule:nonzero;stroke:none"
       aria-label="h"
       transform="matrix(0,-1.3333333,1.3333333,0,20.558904,198.41418)" />
    <path
       id="path53"
       d="m 7.6650423,-2.6955453 c 0,-0.058594 -0.046875,-0.1054687 -0.1171875,-0.1054687 -0.046875,0 -0.058594,0.011719 -0.09375,0.035156 -0.023437,0.011719 -0.023437,0.035156 -0.1171875,0.2578125 -0.65625,1.53515628 -1.125,2.19140628 -2.8710938,2.19140628 H 2.8603548 c -0.1523438,0 -0.1757813,0 -0.2460938,-0.0117188 -0.1171875,-0.0117188 -0.1289062,-0.0351563 -0.1289062,-0.1171875 0,-0.0820313 0.023437,-0.140625 0.046875,-0.24609375 l 0.75,-3.02343743 h 1.0898437 c 0.8554688,0 0.9257813,0.1875 0.9257813,0.515625 0,0.1054687 0,0.2109375 -0.082031,0.5390625 -0.023437,0.046875 -0.035156,0.082031 -0.035156,0.1171875 0,0.082031 0.058594,0.1054687 0.1289062,0.1054687 0.09375,0 0.1054688,-0.070312 0.1523438,-0.2226562 L 6.083011,-5.2033578 c 0,-0.058594 -0.046875,-0.1054687 -0.1054687,-0.1054687 -0.1054688,0 -0.1171875,0.035156 -0.1640625,0.1875 -0.2109375,0.84375 -0.4335938,1.0898437 -1.40625,1.0898437 H 3.364261 l 0.6796875,-2.6953125 c 0.09375,-0.3867187 0.1171875,-0.421875 0.5742188,-0.421875 H 6.176761 c 1.3476563,0 1.6289063,0.3632813 1.6289063,1.1953125 0,0 0,0.3164063 -0.046875,0.6796875 -0.011719,0.046875 -0.023437,0.1289063 -0.023437,0.1289063 0,0.09375 0.058594,0.1289062 0.1171875,0.1289062 0.082031,0 0.1289062,-0.046875 0.1523437,-0.2460937 l 0.2226563,-1.9101563 c 0,-0.035156 0.023437,-0.1640625 0.023437,-0.1640625 0,-0.1289062 -0.09375,-0.1289062 -0.2929688,-0.1289062 h -5.34375 c -0.2109375,0 -0.328125,0 -0.328125,0.1992187 0,0.1171875 0.082031,0.1171875 0.2695313,0.1171875 0.6796875,0 0.6796875,0.082031 0.6796875,0.1992188 0,0.058594 -0.011719,0.1054687 -0.046875,0.2226562 l -1.4765625,5.91796878 c -0.1054688,0.38671875 -0.1171875,0.4921875 -0.89062504,0.4921875 -0.2109375,0 -0.31640625,0 -0.31640625,0.19921875 0,0.1171875003 0.0703125,0.1171875003 0.28125,0.1171875003 H 6.2939485 c 0.234375,0 0.2460938,-0.0117187503 0.328125,-0.1875000003 L 7.6181673,-2.5432015 c 0.011719,-0.035156 0.046875,-0.1054688 0.046875,-0.1523438 z m 0,0"
       style="fill:#000000;fill-opacity:1;fill-rule:nonzero;stroke:none"
       aria-label="E"
       transform="matrix(0,-1.3333333,1.3333333,0,20.558904,192.73178)" />
    <path
       id="path54"
       d="m 3.0461765,-2.7424203 c 0,0 0,-0.058594 -0.058594,-0.1992187 l -1.910156,-5.0390625 c -0.058594,-0.1289063 -0.09375,-0.234375 -0.24609376,-0.234375 -0.1171875,0 -0.22265625,0.09375 -0.22265625,0.2109375 0,0 0,0.070312 0.0585938,0.1992187 l 1.93359381,5.0625 -1.93359381,5.0625 c -0.0585938,0.1289063 -0.0585938,0.1992188 -0.0585938,0.1992188 0,0.1171875 0.10546875,0.2226562 0.22265625,0.2226562 0.140625,0 0.18749996,-0.1054687 0.23437496,-0.2226562 l 1.921875,-5.0625 c 0.058594,-0.1289063 0.058594,-0.1992188 0.058594,-0.1992188 z m 0,0"
       style="fill:#000000;fill-opacity:1;fill-rule:nonzero;stroke:none"
       aria-label="i"
       transform="matrix(0,-1.3333333,1.3333333,0,20.558904,181.28422)" />
    <path
       id="path55"
       d="m 67.489636,49.87097 3.5712,21.275159 3.5712,19.845469 3.5712,18.489592 3.5712,17.20419 3.5712,15.9861 3.5712,14.83225 3.5712,13.73972 3.5712,12.70572 3.5712,11.72758 3.571204,10.80271 3.5712,9.92868 3.5712,9.10309 3.5712,8.32374 3.5712,7.58842 3.5712,6.89508 3.5712,6.24173 3.5712,5.62648 3.5712,5.04749 3.5712,4.50303 3.5712,3.99142 3.5712,3.51106 3.5712,3.06043 3.5712,2.63805 3.5712,2.24252 3.5712,1.8725 3.5712,1.5267 3.5712,1.20389 3.5712,0.9029 3.5712,0.62259 3.5712,0.36191 3.5712,0.1198 3.5712,-0.1047 3.5712,-0.31253 3.5712,-0.5046 3.5712,-0.68174 3.5712,-0.8448 3.5712,-0.99455 3.5712,-1.1317 3.5712,-1.25701 3.5712,-1.37112 3.5712,-1.47469 3.5712,-1.56833 3.5712,-1.65263 3.5712,-1.72814 3.5712,-1.79538 3.5712,-1.85489 3.5712,-1.90709 3.5712,-1.95251 3.5712,-1.99151 3.5712,-2.02456 3.5712,-2.05201 3.5712,-2.07425 3.5712,-2.09163 3.5712,-2.10448 3.5712,-2.11312 3.5712,-2.11783 3.5712,-2.11893 3.5712,-2.11666 3.5712,-2.11128 3.5712,-2.10303 3.5712,-2.09214 3.5712,-2.07883 3.5712,-2.06328 3.5712,-2.0457 3.5712,-2.02627 3.5712,-2.00515 3.5712,-1.9825 3.5712,-1.95847 3.5712,-1.93321 3.5712,-1.90684 3.5712,-1.8795 3.5712,-1.85128 3.5712,-1.82232 3.5712,-1.7927 3.5712,-1.76253 3.5712,-1.73189 3.5712,-1.70086 3.5712,-1.66953 3.5712,-1.63796 3.5712,-1.60623 3.5712,-1.5744 3.5712,-1.54251 3.5712,-1.51063 3.5712,-1.47882 3.5712,-1.4471 3.5712,-1.41554 3.5712,-1.38414 3.5712,-1.35298 3.5712,-1.32207 3.5712,-1.29143 3.5712,-1.2611 3.5712,-1.23112 3.5712,-1.20147 3.5712,-1.17221 3.5712,-1.14335 3.5712,-1.11488 3.5712,-1.08684 3.5712,-1.05924 3.5712,-1.03207 3.5712,-1.00537"
       style="fill:none;stroke:#1f77b4;stroke-width:1.5;stroke-linecap:square;stroke-linejoin:round;stroke-miterlimit:10;stroke-dasharray:none;stroke-opacity:1"
       transform="matrix(1.3333333,0,0,-1.3333333,0,414.78263)"
       clip-path="url(#clipPath56)" />
    <path
       id="path57"
       d="M 67.489636,150.02574 H 424.60964"
       style="fill:none;stroke:#000000;stroke-width:1.5;stroke-linecap:butt;stroke-linejoin:round;stroke-miterlimit:10;stroke-dasharray:5.55, 2.4;stroke-dashoffset:0;stroke-opacity:1"
       transform="matrix(1.3333333,0,0,-1.3333333,0,414.78263)"
       clip-path="url(#clipPath58)" />
    <path
       id="path59"
       d="m 67.489636,37.77497 v 266.112"
       style="fill:none;stroke:#000000;stroke-width:0.8;stroke-linecap:square;stroke-linejoin:miter;stroke-miterlimit:10;stroke-dasharray:none;stroke-opacity:1"
       transform="matrix(1.3333333,0,0,-1.3333333,0,414.78263)" />
    <path
       id="path60"
       d="m 424.60964,37.77497 v 266.112"
       style="fill:none;stroke:#000000;stroke-width:0.8;stroke-linecap:square;stroke-linejoin:miter;stroke-miterlimit:10;stroke-dasharray:none;stroke-opacity:1"
       transform="matrix(1.3333333,0,0,-1.3333333,0,414.78263)" />
    <path
       id="path61"
       d="M 67.489636,37.77497 H 424.60964"
       style="fill:none;stroke:#000000;stroke-width:0.8;stroke-linecap:square;stroke-linejoin:miter;stroke-miterlimit:10;stroke-dasharray:none;stroke-opacity:1"
       transform="matrix(1.3333333,0,0,-1.3333333,0,414.78263)" />
    <path
       id="path62"
       d="M 67.489636,303.88697 H 424.60964"
       style="fill:none;stroke:#000000;stroke-width:0.8;stroke-linecap:square;stroke-linejoin:miter;stroke-miterlimit:10;stroke-dasharray:none;stroke-opacity:1"
       transform="matrix(1.3333333,0,0,-1.3333333,0,414.78263)" />
  </g>
</svg>
