<?xml version="1.0" encoding="UTF-8" standalone="no"?>
<!-- Created with Inkscape (http://www.inkscape.org/) -->

<svg
   version="1.1"
   id="svg1"
   width="559.4516"
   height="419.88702"
   viewBox="0 0 559.4516 419.88702"
   sodipodi:docname="plotE.pdf"
   xmlns:inkscape="http://www.inkscape.org/namespaces/inkscape"
   xmlns:sodipodi="http://sodipodi.sourceforge.net/DTD/sodipodi-0.dtd"
   xmlns="http://www.w3.org/2000/svg"
   xmlns:svg="http://www.w3.org/2000/svg">
  <defs
     id="defs1">
    <clipPath
       clipPathUnits="userSpaceOnUse"
       id="clipPath53">
      <path
         d="M 48.413086,37.77497 H 405.53309 v 266.112 H 48.413086 Z"
         id="path53" />
    </clipPath>
    <clipPath
       clipPathUnits="userSpaceOnUse"
       id="clipPath55">
      <path
         d="M 48.413086,37.77497 H 405.53309 v 266.112 H 48.413086 Z"
         id="path55" />
    </clipPath>
    <clipPath
       clipPathUnits="userSpaceOnUse"
       id="clipPath57">
      <path
         d="M 48.413086,37.77497 H 405.53309 v 266.112 H 48.413086 Z"
         id="path57" />
    </clipPath>
    <clipPath
       clipPathUnits="userSpaceOnUse"
       id="clipPath59">
      <path
         d="M 48.413086,37.77497 H 405.53309 v 266.112 H 48.413086 Z"
         id="path59" />
    </clipPath>
    <clipPath
       clipPathUnits="userSpaceOnUse"
       id="clipPath61">
      <path
         d="M 48.413086,37.77497 H 405.53309 v 266.112 H 48.413086 Z"
         id="path61" />
    </clipPath>
  </defs>
  <sodipodi:namedview
     id="namedview1"
     pagecolor="#ffffff"
     bordercolor="#000000"
     borderopacity="0.25"
     inkscape:showpageshadow="2"
     inkscape:pageopacity="0.0"
     inkscape:pagecheckerboard="0"
     inkscape:deskcolor="#d1d1d1">
    <inkscape:page
       x="0"
       y="0"
       inkscape:label="1"
       id="page1"
       width="559.4516"
       height="419.88702"
       margin="0"
       bleed="0" />
  </sodipodi:namedview>
  <g
     id="g1"
     inkscape:groupmode="layer"
     inkscape:label="1">
    <path
       id="path1"
       d="m 48.413086,37.77497 v -3.5"
       style="fill:#000000;fill-opacity:1;fill-rule:nonzero;stroke:#000000;stroke-width:0.8;stroke-linecap:butt;stroke-linejoin:round;stroke-miterlimit:10;stroke-dasharray:none;stroke-opacity:1"
       transform="matrix(1.3333333,0,0,-1.3333333,0,419.88703)" />
    <g
       id="g2"
       aria-label="−1.0"
       transform="matrix(1.3333333,0,0,1.3333333,49.727534,389.06254)">
      <path
         id="path2"
         d="m 7.6047401,-2.7422211 c 0,-0.2109375 -0.2109375,-0.2109375 -0.3632813,-0.2109375 H 1.2648963 c -0.1523437,0 -0.35156245,0 -0.35156245,0.2109375 0,0.2226563 0.19921875,0.2226563 0.35156245,0.2226563 h 5.9765625 c 0.1523438,0 0.3632813,0 0.3632813,-0.2226563 z m 0,0"
         style="fill:#000000;fill-opacity:1;fill-rule:nonzero;stroke:none" />
      <path
         id="path3"
         d="M 13.012943,-3.35826e-5 V -0.31643983 h -0.339844 c -0.960937,0 -0.996093,-0.12890625 -0.996093,-0.52734375 V -7.0195648 c 0,-0.2578125 0,-0.2695313 -0.210938,-0.2695313 -0.269531,0.2929688 -0.820312,0.703125 -1.9453123,0.703125 v 0.3164063 c 0.2578125,0 0.7968753,0 1.4062503,-0.28125 v 5.70703122 c 0,0.3984375 -0.03516,0.52734375 -0.996094,0.52734375 H 9.5910682 V -3.35826e-5 C 9.884037,-0.02347108 10.950443,-0.02347108 11.302006,-0.02347108 c 0.363281,0 1.417968,0 1.710937,0.0234374974 z m 0,0"
         style="fill:#000000;fill-opacity:1;fill-rule:nonzero;stroke:none" />
      <path
         id="path4"
         d="m 15.904545,-0.52737733 c 0,-0.31640625 -0.257813,-0.53906247 -0.527344,-0.53906247 -0.316406,0 -0.539062,0.26953122 -0.539062,0.52734372 0,0.31640625 0.269531,0.5390624974 0.527343,0.5390624974 0.316407,0 0.539063,-0.2578124974 0.539063,-0.5273437474 z m 0,0"
         style="fill:#000000;fill-opacity:1;fill-rule:nonzero;stroke:none" />
      <path
         id="path5"
         d="m 21.778568,-3.5039398 c 0,-0.9140625 -0.05859,-1.8046875 -0.445312,-2.6367188 -0.457032,-0.9023437 -1.242188,-1.1484375 -1.78125,-1.1484375 -0.632813,0 -1.417969,0.3164063 -1.816407,1.2304688 -0.304687,0.6914062 -0.421875,1.3710937 -0.421875,2.5546875 0,1.0546875 0.08203,1.8632812 0.480469,2.63671872 0.421875,0.83203125 1.183594,1.1015625 1.746094,1.1015625 0.949219,0 1.5,-0.57421875 1.816406,-1.20703125 0.398438,-0.82031247 0.421875,-1.89843747 0.421875,-2.53124997 z m -0.832031,-0.1289063 c 0,0.7265625 0,1.5585938 -0.117188,2.2265625 -0.210937,1.20703127 -0.902343,1.41796877 -1.289062,1.41796877 -0.351563,0 -1.066406,-0.19921875 -1.265625,-1.39453127 -0.128906,-0.65625 -0.128906,-1.4882812 -0.128906,-2.25 0,-0.9023437 0,-1.7109375 0.175781,-2.3554687 0.1875,-0.7382813 0.75,-1.078125 1.21875,-1.078125 0.421875,0 1.054687,0.2460937 1.265625,1.1953125 0.140625,0.6210937 0.140625,1.4882812 0.140625,2.2382812 z m 0,0"
         style="fill:#000000;fill-opacity:1;fill-rule:nonzero;stroke:none" />
    </g>
    <path
       id="path6"
       d="m 107.93309,37.77497 v -3.5"
       style="fill:#000000;fill-opacity:1;fill-rule:nonzero;stroke:#000000;stroke-width:0.8;stroke-linecap:butt;stroke-linejoin:round;stroke-miterlimit:10;stroke-dasharray:none;stroke-opacity:1"
       transform="matrix(1.3333333,0,0,-1.3333333,0,419.88703)" />
    <g
       id="g6"
       aria-label="−0.5"
       transform="matrix(1.3333333,0,0,1.3333333,129.08753,389.06254)">
      <path
         id="path7"
         d="m 7.6042713,-2.7422211 c 0,-0.2109375 -0.2109375,-0.2109375 -0.3632812,-0.2109375 H 1.2644276 c -0.1523438,0 -0.3515625,0 -0.3515625,0.2109375 0,0.2226563 0.1992187,0.2226563 0.3515625,0.2226563 h 5.9765625 c 0.1523437,0 0.3632812,0 0.3632812,-0.2226563 z m 0,0"
         style="fill:#000000;fill-opacity:1;fill-rule:nonzero;stroke:none" />
      <path
         id="path8"
         d="m 13.434349,-3.5039398 c 0,-0.9140625 -0.05859,-1.8046875 -0.445312,-2.6367188 -0.457031,-0.9023437 -1.242188,-1.1484375 -1.78125,-1.1484375 -0.632813,0 -1.4179688,0.3164063 -1.8164063,1.2304688 -0.3046875,0.6914062 -0.421875,1.3710937 -0.421875,2.5546875 0,1.0546875 0.082031,1.8632812 0.4804688,2.63671872 0.421875,0.83203125 1.1835935,1.1015625 1.7460935,1.1015625 0.949219,0 1.5,-0.57421875 1.816406,-1.20703125 0.398438,-0.82031247 0.421875,-1.89843747 0.421875,-2.53124997 z m -0.832031,-0.1289063 c 0,0.7265625 0,1.5585938 -0.117187,2.2265625 -0.210938,1.20703127 -0.902344,1.41796877 -1.289063,1.41796877 -0.351562,0 -1.066406,-0.19921875 -1.2656248,-1.39453127 -0.1289062,-0.65625 -0.1289062,-1.4882812 -0.1289062,-2.25 0,-0.9023437 0,-1.7109375 0.1757812,-2.3554687 0.1874998,-0.7382813 0.7499998,-1.078125 1.2187498,-1.078125 0.421875,0 1.054688,0.2460937 1.265625,1.1953125 0.140625,0.6210937 0.140625,1.4882812 0.140625,2.2382812 z m 0,0"
         style="fill:#000000;fill-opacity:1;fill-rule:nonzero;stroke:none" />
      <path
         id="path9"
         d="m 15.904076,-0.52737733 c 0,-0.31640625 -0.257812,-0.53906247 -0.527344,-0.53906247 -0.316406,0 -0.539062,0.26953122 -0.539062,0.52734372 0,0.31640625 0.269531,0.5390624974 0.527344,0.5390624974 0.316406,0 0.539062,-0.2578124974 0.539062,-0.5273437474 z m 0,0"
         style="fill:#000000;fill-opacity:1;fill-rule:nonzero;stroke:none" />
      <path
         id="path10"
         d="m 21.687279,-2.2031586 c 0,-1.3007812 -0.867187,-2.390625 -2.027344,-2.390625 -0.621093,0 -1.101562,0.28125 -1.382812,0.5859375 v -2.2734375 c 0.46875,0.1523438 0.855469,0.1640625 0.972656,0.1640625 1.242188,0 2.027344,-0.9023437 2.027344,-1.0546875 0,-0.046875 -0.02344,-0.1054687 -0.09375,-0.1054687 0,0 -0.03516,0 -0.140625,0.046875 -0.609375,0.2578125 -1.136719,0.2929687 -1.417969,0.2929687 -0.726562,0 -1.242187,-0.2226562 -1.453125,-0.3046875 -0.07031,-0.035156 -0.105469,-0.035156 -0.105469,-0.035156 -0.09375,0 -0.09375,0.070312 -0.09375,0.2460937 v 3.2460938 c 0,0.1992187 0,0.2695312 0.140625,0.2695312 0.04687,0 0.05859,-0.011719 0.175782,-0.140625 0.304687,-0.4570312 0.820312,-0.7148437 1.359375,-0.7148437 0.585937,0 0.867187,0.5390625 0.960937,0.7265625 0.1875,0.421875 0.199219,0.9609375 0.199219,1.3710937 0,0.421875 0,1.0429688 -0.316406,1.53515627 -0.234375,0.3984375 -0.667969,0.66796875 -1.148438,0.66796875 -0.714844,0 -1.429687,-0.4921875 -1.628906,-1.28906252 0.05859,0.023437 0.117187,0.035156 0.175781,0.035156 0.1875,0 0.480469,-0.1054688 0.480469,-0.4804688 0,-0.3046875 -0.210938,-0.4804687 -0.480469,-0.4804687 -0.199219,0 -0.480469,0.09375 -0.480469,0.515625 0,0.93749997 0.738282,2.00390622 1.957032,2.00390622 1.242187,0 2.320312,-1.04296875 2.320312,-2.43749992 z m 0,0"
         style="fill:#000000;fill-opacity:1;fill-rule:nonzero;stroke:none" />
    </g>
    <path
       id="path11"
       d="m 167.45309,37.77497 v -3.5"
       style="fill:#000000;fill-opacity:1;fill-rule:nonzero;stroke:#000000;stroke-width:0.8;stroke-linecap:butt;stroke-linejoin:round;stroke-miterlimit:10;stroke-dasharray:none;stroke-opacity:1"
       transform="matrix(1.3333333,0,0,-1.3333333,0,419.88703)" />
    <g
       id="g11"
       aria-label="0.0"
       transform="matrix(1.3333333,0,0,1.3333333,214.12994,389.06254)">
      <path
         id="path12"
         d="m 4.9093809,-3.5039398 c 0,-0.9140625 -0.058594,-1.8046875 -0.4453125,-2.6367188 -0.4570312,-0.9023437 -1.2421875,-1.1484375 -1.78125,-1.1484375 -0.6328125,0 -1.4179687,0.3164063 -1.81640623,1.2304688 -0.3046875,0.6914062 -0.421875,1.3710937 -0.421875,2.5546875 0,1.0546875 0.0820313,1.8632812 0.48046875,2.63671872 0.42187498,0.83203125 1.18359378,1.1015625 1.74609378,1.1015625 0.9492187,0 1.5,-0.57421875 1.8164062,-1.20703125 0.3984375,-0.82031247 0.421875,-1.89843747 0.421875,-2.53124997 z M 4.0773497,-3.6328461 c 0,0.7265625 0,1.5585938 -0.1171875,2.2265625 -0.2109375,1.20703127 -0.9023438,1.41796877 -1.2890625,1.41796877 -0.3515625,0 -1.0664063,-0.19921875 -1.265625,-1.39453127 -0.1289063,-0.65625 -0.1289063,-1.4882812 -0.1289063,-2.25 0,-0.9023437 0,-1.7109375 0.1757813,-2.3554687 0.1875,-0.7382813 0.75,-1.078125 1.21875,-1.078125 0.421875,0 1.0546875,0.2460937 1.265625,1.1953125 0.140625,0.6210937 0.140625,1.4882812 0.140625,2.2382812 z m 0,0"
         style="fill:#000000;fill-opacity:1;fill-rule:nonzero;stroke:none" />
      <path
         id="path13"
         d="m 7.3820372,-0.52737733 c 0,-0.31640625 -0.2578125,-0.53906247 -0.5273438,-0.53906247 -0.3164062,0 -0.5390625,0.26953122 -0.5390625,0.52734372 0,0.31640625 0.2695313,0.5390624974 0.5273438,0.5390624974 0.3164062,0 0.5390625,-0.2578124974 0.5390625,-0.5273437474 z m 0,0"
         style="fill:#000000;fill-opacity:1;fill-rule:nonzero;stroke:none" />
      <path
         id="path14"
         d="m 13.256061,-3.5039398 c 0,-0.9140625 -0.05859,-1.8046875 -0.445313,-2.6367188 -0.457031,-0.9023437 -1.242187,-1.1484375 -1.78125,-1.1484375 -0.632812,0 -1.4179686,0.3164063 -1.8164061,1.2304688 -0.3046875,0.6914062 -0.421875,1.3710937 -0.421875,2.5546875 0,1.0546875 0.082031,1.8632812 0.4804687,2.63671872 0.421875,0.83203125 1.1835934,1.1015625 1.7460934,1.1015625 0.949219,0 1.5,-0.57421875 1.816407,-1.20703125 0.398437,-0.82031247 0.421875,-1.89843747 0.421875,-2.53124997 z m -0.832032,-0.1289063 c 0,0.7265625 0,1.5585938 -0.117187,2.2265625 -0.210938,1.20703127 -0.902344,1.41796877 -1.289063,1.41796877 -0.351562,0 -1.0664059,-0.19921875 -1.2656246,-1.39453127 -0.1289063,-0.65625 -0.1289063,-1.4882812 -0.1289063,-2.25 0,-0.9023437 0,-1.7109375 0.1757813,-2.3554687 0.1875,-0.7382813 0.7499996,-1.078125 1.2187496,-1.078125 0.421875,0 1.054688,0.2460937 1.265625,1.1953125 0.140625,0.6210937 0.140625,1.4882812 0.140625,2.2382812 z m 0,0"
         style="fill:#000000;fill-opacity:1;fill-rule:nonzero;stroke:none" />
    </g>
    <path
       id="path15"
       d="m 226.97309,37.77497 v -3.5"
       style="fill:#000000;fill-opacity:1;fill-rule:nonzero;stroke:#000000;stroke-width:0.8;stroke-linecap:butt;stroke-linejoin:round;stroke-miterlimit:10;stroke-dasharray:none;stroke-opacity:1"
       transform="matrix(1.3333333,0,0,-1.3333333,0,419.88703)" />
    <g
       id="g15"
       aria-label="0.5"
       transform="matrix(1.3333333,0,0,1.3333333,293.48994,389.06254)">
      <path
         id="path16"
         d="m 4.9089122,-3.5039398 c 0,-0.9140625 -0.058594,-1.8046875 -0.4453125,-2.6367188 -0.4570313,-0.9023437 -1.2421875,-1.1484375 -1.78125,-1.1484375 -0.6328125,0 -1.4179688,0.3164063 -1.81640628,1.2304688 -0.3046875,0.6914062 -0.421875,1.3710937 -0.421875,2.5546875 0,1.0546875 0.0820313,1.8632812 0.48046875,2.63671872 0.42187503,0.83203125 1.18359373,1.1015625 1.74609373,1.1015625 0.9492188,0 1.5,-0.57421875 1.8164063,-1.20703125 0.3984375,-0.82031247 0.421875,-1.89843747 0.421875,-2.53124997 z M 4.0768809,-3.6328461 c 0,0.7265625 0,1.5585938 -0.1171875,2.2265625 -0.2109375,1.20703127 -0.9023437,1.41796877 -1.2890625,1.41796877 -0.3515625,0 -1.0664062,-0.19921875 -1.265625,-1.39453127 -0.1289062,-0.65625 -0.1289062,-1.4882812 -0.1289062,-2.25 0,-0.9023437 0,-1.7109375 0.1757812,-2.3554687 0.1875,-0.7382813 0.75,-1.078125 1.21875,-1.078125 0.421875,0 1.0546875,0.2460937 1.265625,1.1953125 0.140625,0.6210937 0.140625,1.4882812 0.140625,2.2382812 z m 0,0"
         style="fill:#000000;fill-opacity:1;fill-rule:nonzero;stroke:none" />
      <path
         id="path17"
         d="m 7.3815684,-0.52737733 c 0,-0.31640625 -0.2578125,-0.53906247 -0.5273437,-0.53906247 -0.3164063,0 -0.5390625,0.26953122 -0.5390625,0.52734372 0,0.31640625 0.2695312,0.5390624974 0.5273437,0.5390624974 0.3164063,0 0.5390625,-0.2578124974 0.5390625,-0.5273437474 z m 0,0"
         style="fill:#000000;fill-opacity:1;fill-rule:nonzero;stroke:none" />
      <path
         id="path18"
         d="m 13.161842,-2.2031586 c 0,-1.3007812 -0.867188,-2.390625 -2.027344,-2.390625 -0.621094,0 -1.101562,0.28125 -1.3828124,0.5859375 v -2.2734375 c 0.4687504,0.1523438 0.8554684,0.1640625 0.9726564,0.1640625 1.242187,0 2.027344,-0.9023437 2.027344,-1.0546875 0,-0.046875 -0.02344,-0.1054687 -0.09375,-0.1054687 0,0 -0.03516,0 -0.140625,0.046875 -0.609375,0.2578125 -1.136719,0.2929687 -1.417969,0.2929687 -0.726563,0 -1.2421876,-0.2226562 -1.4531251,-0.3046875 -0.070312,-0.035156 -0.1054688,-0.035156 -0.1054688,-0.035156 -0.09375,0 -0.09375,0.070312 -0.09375,0.2460937 v 3.2460938 c 0,0.1992187 0,0.2695312 0.140625,0.2695312 0.046875,0 0.058594,-0.011719 0.1757813,-0.140625 0.3046876,-0.4570312 0.8203126,-0.7148437 1.3593746,-0.7148437 0.585938,0 0.867188,0.5390625 0.960938,0.7265625 0.1875,0.421875 0.199219,0.9609375 0.199219,1.3710937 0,0.421875 0,1.0429688 -0.316407,1.53515627 -0.234375,0.3984375 -0.667968,0.66796875 -1.148437,0.66796875 -0.714844,0 -1.4296876,-0.4921875 -1.6289064,-1.28906252 0.058594,0.023437 0.1171875,0.035156 0.1757813,0.035156 0.1875,0 0.4804687,-0.1054688 0.4804687,-0.4804688 0,-0.3046875 -0.2109375,-0.4804687 -0.4804687,-0.4804687 -0.1992188,0 -0.4804688,0.09375 -0.4804688,0.515625 0,0.93749997 0.7382813,2.00390622 1.9570309,2.00390622 1.242188,0 2.320313,-1.04296875 2.320313,-2.43749992 z m 0,0"
         style="fill:#000000;fill-opacity:1;fill-rule:nonzero;stroke:none" />
    </g>
    <path
       id="path19"
       d="m 286.49309,37.77497 v -3.5"
       style="fill:#000000;fill-opacity:1;fill-rule:nonzero;stroke:#000000;stroke-width:0.8;stroke-linecap:butt;stroke-linejoin:round;stroke-miterlimit:10;stroke-dasharray:none;stroke-opacity:1"
       transform="matrix(1.3333333,0,0,-1.3333333,0,419.88703)" />
    <g
       id="g19"
       aria-label="1.0"
       transform="matrix(1.3333333,0,0,1.3333333,372.84994,389.06254)">
      <path
         id="path20"
         d="M 4.4894981,-3.35826e-5 V -0.31643983 H 4.1496544 c -0.9609375,0 -0.9960938,-0.12890625 -0.9960938,-0.52734375 V -7.0195648 c 0,-0.2578125 0,-0.2695313 -0.2109375,-0.2695313 -0.2695312,0.2929688 -0.8203125,0.703125 -1.94531249,0.703125 v 0.3164063 c 0.25781249,0 0.79687499,0 1.40624999,-0.28125 v 5.70703122 c 0,0.3984375 -0.035156,0.52734375 -0.9960937,0.52734375 H 1.0676231 V -3.35826e-5 C 1.3605919,-0.02347108 2.4269981,-0.02347108 2.7785606,-0.02347108 c 0.3632813,0 1.4179688,0 1.7109375,0.0234374974 z m 0,0"
         style="fill:#000000;fill-opacity:1;fill-rule:nonzero;stroke:none" />
      <path
         id="path21"
         d="m 7.3810997,-0.52737733 c 0,-0.31640625 -0.2578125,-0.53906247 -0.5273438,-0.53906247 -0.3164062,0 -0.5390625,0.26953122 -0.5390625,0.52734372 0,0.31640625 0.2695313,0.5390624974 0.5273438,0.5390624974 0.3164062,0 0.5390625,-0.2578124974 0.5390625,-0.5273437474 z m 0,0"
         style="fill:#000000;fill-opacity:1;fill-rule:nonzero;stroke:none" />
      <path
         id="path22"
         d="m 13.255123,-3.5039398 c 0,-0.9140625 -0.05859,-1.8046875 -0.445312,-2.6367188 -0.457032,-0.9023437 -1.242188,-1.1484375 -1.78125,-1.1484375 -0.632813,0 -1.4179691,0.3164063 -1.8164066,1.2304688 -0.3046875,0.6914062 -0.421875,1.3710937 -0.421875,2.5546875 0,1.0546875 0.082031,1.8632812 0.4804687,2.63671872 0.421875,0.83203125 1.1835939,1.1015625 1.7460939,1.1015625 0.949219,0 1.5,-0.57421875 1.816406,-1.20703125 0.398438,-0.82031247 0.421875,-1.89843747 0.421875,-2.53124997 z m -0.832031,-0.1289063 c 0,0.7265625 0,1.5585938 -0.117188,2.2265625 -0.210937,1.20703127 -0.902343,1.41796877 -1.289062,1.41796877 -0.351563,0 -1.0664064,-0.19921875 -1.2656251,-1.39453127 -0.1289063,-0.65625 -0.1289063,-1.4882812 -0.1289063,-2.25 0,-0.9023437 0,-1.7109375 0.1757813,-2.3554687 0.1875,-0.7382813 0.7500001,-1.078125 1.2187501,-1.078125 0.421875,0 1.054687,0.2460937 1.265625,1.1953125 0.140625,0.6210937 0.140625,1.4882812 0.140625,2.2382812 z m 0,0"
         style="fill:#000000;fill-opacity:1;fill-rule:nonzero;stroke:none" />
    </g>
    <path
       id="path23"
       d="m 346.01309,37.77497 v -3.5"
       style="fill:#000000;fill-opacity:1;fill-rule:nonzero;stroke:#000000;stroke-width:0.8;stroke-linecap:butt;stroke-linejoin:round;stroke-miterlimit:10;stroke-dasharray:none;stroke-opacity:1"
       transform="matrix(1.3333333,0,0,-1.3333333,0,419.88703)" />
    <g
       id="g23"
       aria-label="1.5"
       transform="matrix(1.3333333,0,0,1.3333333,452.20994,389.06254)">
      <path
         id="path24"
         d="M 4.4890294,-3.35826e-5 V -0.31643983 H 4.1491856 c -0.9609375,0 -0.9960937,-0.12890625 -0.9960937,-0.52734375 V -7.0195648 c 0,-0.2578125 0,-0.2695313 -0.2109375,-0.2695313 -0.2695313,0.2929688 -0.8203125,0.703125 -1.94531254,0.703125 v 0.3164063 c 0.25781254,0 0.79687504,0 1.40625004,-0.28125 v 5.70703122 c 0,0.3984375 -0.035156,0.52734375 -0.9960938,0.52734375 H 1.0671544 V -3.35826e-5 C 1.3601231,-0.02347108 2.4265294,-0.02347108 2.7780919,-0.02347108 c 0.3632812,0 1.4179687,0 1.7109375,0.0234374974 z m 0,0"
         style="fill:#000000;fill-opacity:1;fill-rule:nonzero;stroke:none" />
      <path
         id="path25"
         d="m 7.3806309,-0.52737733 c 0,-0.31640625 -0.2578125,-0.53906247 -0.5273437,-0.53906247 -0.3164063,0 -0.5390625,0.26953122 -0.5390625,0.52734372 0,0.31640625 0.2695312,0.5390624974 0.5273437,0.5390624974 0.3164063,0 0.5390625,-0.2578124974 0.5390625,-0.5273437474 z m 0,0"
         style="fill:#000000;fill-opacity:1;fill-rule:nonzero;stroke:none" />
      <path
         id="path26"
         d="m 13.163834,-2.2031586 c 0,-1.3007812 -0.867187,-2.390625 -2.027344,-2.390625 -0.621093,0 -1.101562,0.28125 -1.3828122,0.5859375 v -2.2734375 c 0.4687502,0.1523438 0.8554692,0.1640625 0.9726562,0.1640625 1.242188,0 2.027344,-0.9023437 2.027344,-1.0546875 0,-0.046875 -0.02344,-0.1054687 -0.09375,-0.1054687 0,0 -0.03516,0 -0.140625,0.046875 -0.609375,0.2578125 -1.136719,0.2929687 -1.417969,0.2929687 -0.726562,0 -1.2421875,-0.2226562 -1.453125,-0.3046875 -0.070312,-0.035156 -0.1054687,-0.035156 -0.1054687,-0.035156 -0.09375,0 -0.09375,0.070312 -0.09375,0.2460937 v 3.2460938 c 0,0.1992187 0,0.2695312 0.140625,0.2695312 0.046875,0 0.058594,-0.011719 0.1757812,-0.140625 0.3046875,-0.4570312 0.8203125,-0.7148437 1.3593755,-0.7148437 0.585937,0 0.867187,0.5390625 0.960937,0.7265625 0.1875,0.421875 0.199219,0.9609375 0.199219,1.3710937 0,0.421875 0,1.0429688 -0.316406,1.53515627 -0.234375,0.3984375 -0.667969,0.66796875 -1.148438,0.66796875 -0.714844,0 -1.4296875,-0.4921875 -1.6289062,-1.28906252 0.058594,0.023437 0.1171875,0.035156 0.1757812,0.035156 0.1875,0 0.4804688,-0.1054688 0.4804688,-0.4804688 0,-0.3046875 -0.2109375,-0.4804687 -0.4804688,-0.4804687 -0.1992187,0 -0.4804687,0.09375 -0.4804687,0.515625 0,0.93749997 0.7382812,2.00390622 1.9570317,2.00390622 1.242187,0 2.320312,-1.04296875 2.320312,-2.43749992 z m 0,0"
         style="fill:#000000;fill-opacity:1;fill-rule:nonzero;stroke:none" />
    </g>
    <path
       id="path27"
       d="m 405.53309,37.77497 v -3.5"
       style="fill:#000000;fill-opacity:1;fill-rule:nonzero;stroke:#000000;stroke-width:0.8;stroke-linecap:butt;stroke-linejoin:round;stroke-miterlimit:10;stroke-dasharray:none;stroke-opacity:1"
       transform="matrix(1.3333333,0,0,-1.3333333,0,419.88703)" />
    <g
       id="g27"
       aria-label="2.0"
       transform="matrix(1.3333333,0,0,1.3333333,531.56994,389.06254)">
      <path
         id="path28"
         d="m 4.8166856,-1.8398773 h -0.234375 c -0.035156,0.1875 -0.1171875,0.7851562 -0.234375,0.96093747 -0.070312,0.10546875 -0.703125,0.10546875 -1.03125,0.10546875 H 1.2893419 C 1.5940294,-1.0312836 2.2619981,-1.7344086 2.5432481,-1.9922211 c 1.6640625,-1.5351562 2.2734375,-2.109375 2.2734375,-3.1875 0,-1.265625 -0.9960937,-2.109375 -2.2617187,-2.109375 -1.2773438,0 -2.01562504,1.0898438 -2.01562504,2.0273438 0,0.5625 0.48046874,0.5625 0.51562504,0.5625 0.2226562,0 0.515625,-0.1640625 0.515625,-0.515625 0,-0.3046875 -0.2109375,-0.515625 -0.515625,-0.515625 -0.10546879,0 -0.12890629,0 -0.15234379,0.011719 0.19921879,-0.75 0.79687499,-1.2539062 1.51171879,-1.2539062 0.9257812,0 1.5,0.7851562 1.5,1.7929687 0,0.9257813 -0.5390625,1.734375 -1.1601563,2.4375 L 0.53934186,-0.25784608 V -3.35826e-5 H 4.5354356 Z m 0,0"
         style="fill:#000000;fill-opacity:1;fill-rule:nonzero;stroke:none" />
      <path
         id="path29"
         d="m 7.3801622,-0.52737733 c 0,-0.31640625 -0.2578125,-0.53906247 -0.5273438,-0.53906247 -0.3164062,0 -0.5390625,0.26953122 -0.5390625,0.52734372 0,0.31640625 0.2695313,0.5390624974 0.5273438,0.5390624974 0.3164062,0 0.5390625,-0.2578124974 0.5390625,-0.5273437474 z m 0,0"
         style="fill:#000000;fill-opacity:1;fill-rule:nonzero;stroke:none" />
      <path
         id="path30"
         d="m 13.257115,-3.5039398 c 0,-0.9140625 -0.05859,-1.8046875 -0.445312,-2.6367188 -0.457031,-0.9023437 -1.242188,-1.1484375 -1.78125,-1.1484375 -0.632813,0 -1.417969,0.3164063 -1.8164065,1.2304688 -0.3046875,0.6914062 -0.421875,1.3710937 -0.421875,2.5546875 0,1.0546875 0.082031,1.8632812 0.4804688,2.63671872 0.421875,0.83203125 1.1835937,1.1015625 1.7460937,1.1015625 0.949219,0 1.5,-0.57421875 1.816406,-1.20703125 0.398438,-0.82031247 0.421875,-1.89843747 0.421875,-2.53124997 z m -0.832031,-0.1289063 c 0,0.7265625 0,1.5585938 -0.117187,2.2265625 -0.210938,1.20703127 -0.902344,1.41796877 -1.289063,1.41796877 -0.351562,0 -1.0664062,-0.19921875 -1.265625,-1.39453127 -0.1289062,-0.65625 -0.1289062,-1.4882812 -0.1289062,-2.25 0,-0.9023437 0,-1.7109375 0.1757812,-2.3554687 0.1875,-0.7382813 0.75,-1.078125 1.21875,-1.078125 0.421875,0 1.054688,0.2460937 1.265625,1.1953125 0.140625,0.6210937 0.140625,1.4882812 0.140625,2.2382812 z m 0,0"
         style="fill:#000000;fill-opacity:1;fill-rule:nonzero;stroke:none" />
    </g>
    <path
       id="path31"
       d="m 5.6261128,-2.0511906 c 0.058594,-0.234375 0.082031,-0.4804688 0.082031,-0.7148438 0,-0.421875 -0.09375,-0.8320312 -0.3164063,-1.1601562 -0.1289062,-0.1992188 -0.28125,-0.375 -0.4804687,-0.4921875 0.1171875,-0.058594 0.234375,-0.140625 0.3515625,-0.2226563 0.4335937,-0.328125 0.75,-0.7851562 0.8789062,-1.265625 0.023437,-0.1289062 0.046875,-0.2695312 0.046875,-0.4101562 0,-0.328125 -0.1054687,-0.6328125 -0.3046875,-0.8671875 -0.28125,-0.3515625 -0.7382812,-0.5390625 -1.2421875,-0.5390625 -1.3007812,0 -2.2617187,1.5 -2.625,2.9882812 l -1.69921874,6.75 c 0,0.082031 0.046875,0.1054688 0.09375,0.1054688 h 0.0585938 c 0.046875,0 0.0820312,-0.011719 0.09375,-0.058594 l 0.76171904,-3.082031 c 0.1523437,0.66796873 0.6445312,1.12499998 1.40625,1.12499998 0.609375,0 1.2539062,-0.19921875 1.8164062,-0.62109375 0.5273438,-0.3984375 0.9257813,-0.94921873 1.078125,-1.53515623 z m -0.6796875,-0.046875 c -0.1289062,0.515625 -0.375,1.03125 -0.8085937,1.41796873 -0.3984375,0.375 -0.9140625,0.5859375 -1.40625,0.5859375 -0.7851563,0 -1.21875,-0.62109375 -1.21875,-1.39453123 0,-0.1757813 0.023437,-0.3632813 0.070312,-0.5625 l 0.6679687,-2.6484375 c 0.3398438,-1.3828125 1.1835938,-2.8125 2.390625,-2.8125 0.3632813,0 0.6679688,0.1640625 0.84375,0.4453125 0.1054688,0.1640625 0.1523438,0.3632812 0.1523438,0.5742187 0,0.1757813 -0.035156,0.3515625 -0.082031,0.5390625 -0.1054687,0.421875 -0.2929687,0.8320313 -0.6445312,1.1484375 -0.09375,0.082031 -0.1992188,0.1640625 -0.2929688,0.2226563 -0.2226562,-0.082031 -0.46875,-0.1289063 -0.7265625,-0.1289063 -0.375,0 -0.8203125,0 -0.890625,0.2578125 0,0.035156 -0.011719,0.082031 -0.011719,0.082031 0,0.2460937 0.4335937,0.2460937 0.796875,0.2460937 0.2578125,0 0.5273437,-0.046875 0.796875,-0.1523437 0.1523437,0.1289062 0.2695312,0.28125 0.3515625,0.4570312 0.1054687,0.2226563 0.1523437,0.4921875 0.1523437,0.7617188 0,0.3046875 -0.058594,0.6328125 -0.1406245,0.9609378 z M 4.3018941,-4.4300969 c -0.1757813,0.058594 -0.3398438,0.09375 -0.5039063,0.09375 -0.234375,0 -0.5742187,0 -0.5507812,-0.070312 0.023437,-0.09375 0.375,-0.09375 0.6328125,-0.09375 0.1523437,0 0.28125,0.023437 0.421875,0.070312 z m 0,0"
       style="fill:#000000;fill-opacity:1;fill-rule:nonzero;stroke:none"
       aria-label="β"
       transform="matrix(1.3333333,0,0,1.3333333,298.59227,407.44586)" />
    <path
       id="path32"
       d="m 48.413086,37.77497 h -3.5"
       style="fill:#000000;fill-opacity:1;fill-rule:nonzero;stroke:#000000;stroke-width:0.8;stroke-linecap:butt;stroke-linejoin:round;stroke-miterlimit:10;stroke-dasharray:none;stroke-opacity:1"
       transform="matrix(1.3333333,0,0,-1.3333333,0,419.88703)" />
    <g
       id="g32"
       aria-label="−15"
       transform="matrix(1.3333333,0,0,1.3333333,29.545205,374.62481)">
      <path
         id="path33"
         d="m 7.6067209,-2.7420432 c 0,-0.2109375 -0.2109375,-0.2109375 -0.3632813,-0.2109375 H 1.2668771 c -0.1523437,0 -0.35156246,0 -0.35156246,0.2109375 0,0.2226562 0.19921876,0.2226562 0.35156246,0.2226562 h 5.9765625 c 0.1523438,0 0.3632813,0 0.3632813,-0.2226562 z m 0,0"
         style="fill:#000000;fill-opacity:1;fill-rule:nonzero;stroke:none" />
      <path
         id="path34"
         d="M 13.011994,1.442783e-4 V -0.31626197 h -0.339843 c -0.960938,0 -0.996094,-0.12890625 -0.996094,-0.52734375 V -7.019387 c 0,-0.2578125 0,-0.2695312 -0.210938,-0.2695312 -0.269531,0.2929687 -0.820312,0.703125 -1.9453122,0.703125 v 0.3164062 c 0.2578125,0 0.7968752,0 1.4062502,-0.28125 v 5.70703128 c 0,0.3984375 -0.03516,0.52734375 -0.9960939,0.52734375 H 9.5901193 V 1.442783e-4 C 9.8830881,-0.02329322 10.949494,-0.02329322 11.301057,-0.02329322 c 0.363281,0 1.417969,0 1.710937,0.0234374983 z M 18.698518,-2.2029807 c 0,-1.3007813 -0.867188,-2.390625 -2.027344,-2.390625 -0.621094,0 -1.101562,0.28125 -1.382812,0.5859375 v -2.2734375 c 0.46875,0.1523437 0.855468,0.1640625 0.972656,0.1640625 1.242187,0 2.027344,-0.9023438 2.027344,-1.0546875 0,-0.046875 -0.02344,-0.1054688 -0.09375,-0.1054688 0,0 -0.03516,0 -0.140625,0.046875 -0.609375,0.2578125 -1.136719,0.2929688 -1.417969,0.2929688 -0.726563,0 -1.242188,-0.2226563 -1.453125,-0.3046875 -0.07031,-0.035156 -0.105469,-0.035156 -0.105469,-0.035156 -0.09375,0 -0.09375,0.070312 -0.09375,0.2460938 v 3.2460937 c 0,0.1992188 0,0.2695313 0.140625,0.2695313 0.04687,0 0.05859,-0.011719 0.175781,-0.140625 0.304688,-0.4570313 0.820313,-0.7148438 1.359375,-0.7148438 0.585938,0 0.867188,0.5390625 0.960938,0.7265625 0.1875,0.421875 0.199219,0.9609375 0.199219,1.3710938 0,0.421875 0,1.0429687 -0.316407,1.53515623 -0.234375,0.3984375 -0.667968,0.66796875 -1.148437,0.66796875 -0.714844,0 -1.429688,-0.4921875 -1.628906,-1.28906248 0.05859,0.023437 0.117187,0.035156 0.175781,0.035156 0.1875,0 0.480469,-0.1054687 0.480469,-0.4804687 0,-0.3046875 -0.210938,-0.4804688 -0.480469,-0.4804688 -0.199219,0 -0.480469,0.09375 -0.480469,0.515625 0,0.93750003 0.738281,2.00390628 1.957031,2.00390628 1.242188,0 2.320313,-1.04296875 2.320313,-2.43750008 z m 0,0"
         style="fill:#000000;fill-opacity:1;fill-rule:nonzero;stroke:none" />
    </g>
    <path
       id="path35"
       d="m 48.413086,82.12697 h -3.5"
       style="fill:#000000;fill-opacity:1;fill-rule:nonzero;stroke:#000000;stroke-width:0.8;stroke-linecap:butt;stroke-linejoin:round;stroke-miterlimit:10;stroke-dasharray:none;stroke-opacity:1"
       transform="matrix(1.3333333,0,0,-1.3333333,0,419.88703)" />
    <g
       id="g35"
       aria-label="−10"
       transform="matrix(1.3333333,0,0,1.3333333,29.545205,315.48881)">
      <path
         id="path36"
         d="m 7.6067209,-2.7425823 c 0,-0.2109375 -0.2109375,-0.2109375 -0.3632813,-0.2109375 H 1.2668771 c -0.1523437,0 -0.35156246,0 -0.35156246,0.2109375 0,0.2226563 0.19921876,0.2226563 0.35156246,0.2226563 h 5.9765625 c 0.1523438,0 0.3632813,0 0.3632813,-0.2226563 z m 0,0"
         style="fill:#000000;fill-opacity:1;fill-rule:nonzero;stroke:none" />
      <path
         id="path37"
         d="M 13.011994,-3.947842e-4 V -0.31680103 h -0.339843 c -0.960938,0 -0.996094,-0.12890625 -0.996094,-0.52734375 V -7.019926 c 0,-0.2578125 0,-0.2695313 -0.210938,-0.2695313 -0.269531,0.2929688 -0.820312,0.703125 -1.9453122,0.703125 v 0.3164063 c 0.2578125,0 0.7968752,0 1.4062502,-0.28125 v 5.70703122 c 0,0.3984375 -0.03516,0.52734375 -0.9960939,0.52734375 H 9.5901193 V -3.947842e-4 C 9.8830881,-0.02383228 10.949494,-0.02383228 11.301057,-0.02383228 c 0.363281,0 1.417969,0 1.710937,0.0234374958 z M 18.792268,-3.504301 c 0,-0.9140625 -0.05859,-1.8046875 -0.445313,-2.6367188 -0.457031,-0.9023437 -1.242187,-1.1484375 -1.78125,-1.1484375 -0.632812,0 -1.417968,0.3164063 -1.816406,1.2304688 -0.304687,0.6914062 -0.421875,1.3710937 -0.421875,2.5546875 0,1.0546875 0.08203,1.8632812 0.480469,2.63671872 0.421875,0.83203125 1.183594,1.1015625 1.746094,1.1015625 0.949218,0 1.5,-0.57421875 1.816406,-1.20703125 0.398437,-0.82031247 0.421875,-1.89843747 0.421875,-2.53124997 z m -0.832031,-0.1289063 c 0,0.7265625 0,1.5585938 -0.117188,2.2265625 -0.210937,1.20703127 -0.902344,1.41796877 -1.289062,1.41796877 -0.351563,0 -1.066407,-0.19921875 -1.265625,-1.39453127 -0.128907,-0.65625 -0.128907,-1.4882812 -0.128907,-2.25 0,-0.9023437 0,-1.7109375 0.175782,-2.3554687 0.1875,-0.7382813 0.75,-1.078125 1.21875,-1.078125 0.421875,0 1.054687,0.2460937 1.265625,1.1953125 0.140625,0.6210937 0.140625,1.4882812 0.140625,2.2382812 z m 0,0"
         style="fill:#000000;fill-opacity:1;fill-rule:nonzero;stroke:none" />
    </g>
    <path
       id="path38"
       d="m 48.413086,126.47897 h -3.5"
       style="fill:#000000;fill-opacity:1;fill-rule:nonzero;stroke:#000000;stroke-width:0.8;stroke-linecap:butt;stroke-linejoin:round;stroke-miterlimit:10;stroke-dasharray:none;stroke-opacity:1"
       transform="matrix(1.3333333,0,0,-1.3333333,0,419.88703)" />
    <g
       id="g38"
       aria-label="−5"
       transform="matrix(1.3333333,0,0,1.3333333,36.698921,256.35281)">
      <path
         id="path39"
         d="m 7.605692,-2.7431213 c 0,-0.2109375 -0.2109375,-0.2109375 -0.3632812,-0.2109375 H 1.2658483 c -0.1523438,0 -0.35156252,0 -0.35156252,0.2109375 0,0.2226562 0.19921872,0.2226562 0.35156252,0.2226562 h 5.9765625 c 0.1523437,0 0.3632812,0 0.3632812,-0.2226562 z m 0,0"
         style="fill:#000000;fill-opacity:1;fill-rule:nonzero;stroke:none" />
      <path
         id="path40"
         d="m 13.33909,-2.2040588 c 0,-1.3007813 -0.867187,-2.390625 -2.027343,-2.390625 -0.621094,0 -1.101563,0.28125 -1.3828128,0.5859375 v -2.2734375 c 0.4687498,0.1523437 0.8554688,0.1640625 0.9726558,0.1640625 1.242188,0 2.027344,-0.9023438 2.027344,-1.0546875 0,-0.046875 -0.02344,-0.1054688 -0.09375,-0.1054688 0,0 -0.03516,0 -0.140625,0.046875 -0.609375,0.2578125 -1.136719,0.2929688 -1.417969,0.2929688 -0.726562,0 -1.242187,-0.2226563 -1.4531245,-0.3046875 -0.070312,-0.035156 -0.1054688,-0.035156 -0.1054688,-0.035156 -0.09375,0 -0.09375,0.070312 -0.09375,0.2460938 v 3.2460937 c 0,0.1992188 0,0.2695313 0.140625,0.2695313 0.046875,0 0.058594,-0.011719 0.1757813,-0.140625 0.304687,-0.4570313 0.820312,-0.7148438 1.359375,-0.7148438 0.585937,0 0.867187,0.5390625 0.960937,0.7265625 0.1875,0.421875 0.199219,0.9609375 0.199219,1.3710938 0,0.421875 0,1.0429687 -0.316406,1.5351562 -0.234375,0.3984375 -0.667969,0.66796875 -1.148438,0.66796875 -0.714843,0 -1.429687,-0.4921875 -1.6289058,-1.28906245 0.058594,0.023437 0.1171875,0.035156 0.1757813,0.035156 0.1875,0 0.4804685,-0.1054687 0.4804685,-0.4804687 0,-0.3046875 -0.2109373,-0.4804688 -0.4804685,-0.4804688 -0.1992188,0 -0.4804688,0.09375 -0.4804688,0.515625 0,0.9375 0.7382813,2.00390625 1.9570313,2.00390625 1.242187,0 2.320312,-1.04296875 2.320312,-2.43750005 z m 0,0"
         style="fill:#000000;fill-opacity:1;fill-rule:nonzero;stroke:none" />
    </g>
    <path
       id="path41"
       d="m 48.413086,170.83097 h -3.5"
       style="fill:#000000;fill-opacity:1;fill-rule:nonzero;stroke:#000000;stroke-width:0.8;stroke-linecap:butt;stroke-linejoin:round;stroke-miterlimit:10;stroke-dasharray:none;stroke-opacity:1"
       transform="matrix(1.3333333,0,0,-1.3333333,0,419.88703)" />
    <path
       id="path42"
       d="m 4.9092315,-3.5024495 c 0,-0.9140625 -0.058594,-1.8046875 -0.4453125,-2.6367187 -0.4570313,-0.9023438 -1.2421875,-1.1484375 -1.78125,-1.1484375 -0.6328125,0 -1.4179688,0.3164062 -1.81640625,1.2304687 -0.3046875,0.6914063 -0.421875,1.3710938 -0.421875,2.5546875 0,1.0546875 0.0820312,1.8632813 0.48046875,2.63671878 0.421875,0.83203125 1.1835937,1.1015625 1.7460937,1.1015625 0.9492188,0 1.5,-0.57421875 1.8164063,-1.20703125 C 4.885794,-1.791512 4.9092315,-2.869637 4.9092315,-3.5024495 Z M 4.0772002,-3.6313557 c 0,0.7265625 0,1.5585937 -0.1171875,2.2265625 -0.2109375,1.20703123 -0.9023437,1.41796873 -1.2890625,1.41796873 -0.3515625,0 -1.0664062,-0.19921875 -1.265625,-1.39453123 -0.1289062,-0.65625 -0.1289062,-1.4882813 -0.1289062,-2.25 0,-0.9023438 0,-1.7109375 0.1757812,-2.3554688 0.1875,-0.7382812 0.75,-1.078125 1.21875,-1.078125 0.421875,0 1.0546875,0.2460938 1.265625,1.1953125 0.140625,0.6210938 0.140625,1.4882813 0.140625,2.2382813 z m 0,0"
       style="fill:#000000;fill-opacity:1;fill-rule:nonzero;stroke:none"
       aria-label="0"
       transform="matrix(1.3333333,0,0,1.3333333,48.063733,197.21681)" />
    <path
       id="path43"
       d="m 48.413086,215.18297 h -3.5"
       style="fill:#000000;fill-opacity:1;fill-rule:nonzero;stroke:#000000;stroke-width:0.8;stroke-linecap:butt;stroke-linejoin:round;stroke-miterlimit:10;stroke-dasharray:none;stroke-opacity:1"
       transform="matrix(1.3333333,0,0,-1.3333333,0,419.88703)" />
    <path
       id="path44"
       d="m 4.8154815,-2.2022073 c 0,-1.3007812 -0.8671875,-2.390625 -2.0273438,-2.390625 -0.6210937,0 -1.1015625,0.28125 -1.3828125,0.5859375 v -2.2734375 c 0.46875,0.1523438 0.8554688,0.1640625 0.9726563,0.1640625 1.2421875,0 2.0273437,-0.9023437 2.0273437,-1.0546875 0,-0.046875 -0.023437,-0.1054687 -0.09375,-0.1054687 0,0 -0.035156,0 -0.140625,0.046875 -0.609375,0.2578125 -1.1367187,0.2929687 -1.4179687,0.2929687 -0.7265625,0 -1.2421875,-0.2226562 -1.453125,-0.3046875 -0.070312,-0.035156 -0.1054688,-0.035156 -0.1054688,-0.035156 -0.09375,0 -0.09375,0.070312 -0.09375,0.2460937 v 3.2460938 c 0,0.1992187 0,0.2695312 0.140625,0.2695312 0.046875,0 0.058594,-0.011719 0.1757813,-0.140625 0.3046875,-0.4570312 0.8203125,-0.7148437 1.359375,-0.7148437 0.5859375,0 0.8671875,0.5390625 0.9609375,0.7265625 0.1875,0.421875 0.1992187,0.9609375 0.1992187,1.3710937 0,0.421875 0,1.0429688 -0.3164062,1.53515627 -0.234375,0.3984375 -0.6679688,0.66796875 -1.1484375,0.66796875 -0.7148438,0 -1.4296875,-0.4921875 -1.62890625,-1.28906252 0.0585938,0.023437 0.1171875,0.035156 0.17578125,0.035156 0.1875,0 0.4804687,-0.1054688 0.4804687,-0.4804688 0,-0.3046875 -0.2109375,-0.4804687 -0.4804687,-0.4804687 -0.19921875,0 -0.48046875,0.09375 -0.48046875,0.515625 0,0.93749997 0.73828125,2.00390622 1.95703125,2.00390622 1.2421875,0 2.3203125,-1.04296875 2.3203125,-2.43749992 z m 0,0"
       style="fill:#000000;fill-opacity:1;fill-rule:nonzero;stroke:none"
       aria-label="5"
       transform="matrix(1.3333333,0,0,1.3333333,48.063733,138.08081)" />
    <path
       id="path45"
       d="m 48.413086,259.53497 h -3.5"
       style="fill:#000000;fill-opacity:1;fill-rule:nonzero;stroke:#000000;stroke-width:0.8;stroke-linecap:butt;stroke-linejoin:round;stroke-miterlimit:10;stroke-dasharray:none;stroke-opacity:1"
       transform="matrix(1.3333333,0,0,-1.3333333,0,419.88703)" />
    <path
       id="path46"
       d="M 4.4883854,3.786533e-4 V -0.3160276 H 4.1485416 c -0.9609375,0 -0.9960937,-0.12890625 -0.9960937,-0.52734375 V -7.0191526 c 0,-0.2578125 0,-0.2695312 -0.2109375,-0.2695312 -0.2695313,0.2929687 -0.8203125,0.703125 -1.94531255,0.703125 v 0.3164062 c 0.25781255,0 0.79687505,0 1.40625005,-0.28125 v 5.70703125 c 0,0.3984375 -0.035156,0.52734375 -0.9960938,0.52734375 H 1.0665104 V 3.786533e-4 C 1.3594791,-0.02305885 2.4258854,-0.02305885 2.7774479,-0.02305885 c 0.3632812,0 1.4179687,0 1.7109375,0.0234375033 z M 10.268659,-3.5035276 c 0,-0.9140625 -0.05859,-1.8046875 -0.4453127,-2.6367187 -0.4570313,-0.9023438 -1.2421875,-1.1484375 -1.78125,-1.1484375 -0.6328125,0 -1.4179688,0.3164062 -1.8164063,1.2304687 -0.3046875,0.6914063 -0.421875,1.3710938 -0.421875,2.5546875 0,1.0546875 0.082031,1.8632813 0.4804688,2.63671875 0.421875,0.83203125 1.1835937,1.1015625 1.7460937,1.1015625 0.9492188,0 1.5,-0.57421875 1.8164063,-1.20703125 0.3984372,-0.8203125 0.4218752,-1.8984375 0.4218752,-2.53125 z M 9.4366275,-3.6324338 c 0,0.7265625 0,1.5585937 -0.1171875,2.2265625 -0.2109375,1.2070312 -0.9023437,1.4179687 -1.2890625,1.4179687 -0.3515625,0 -1.0664062,-0.19921875 -1.265625,-1.3945312 -0.1289062,-0.65625 -0.1289062,-1.4882813 -0.1289062,-2.25 0,-0.9023438 0,-1.7109375 0.1757812,-2.3554688 0.1875,-0.7382812 0.75,-1.078125 1.21875,-1.078125 0.421875,0 1.0546875,0.2460938 1.265625,1.1953125 0.140625,0.6210938 0.140625,1.4882813 0.140625,2.2382813 z m 0,0"
       style="fill:#000000;fill-opacity:1;fill-rule:nonzero;stroke:none"
       aria-label="10"
       transform="matrix(1.3333333,0,0,1.3333333,40.910017,78.944808)" />
    <path
       id="path47"
       d="m 48.413086,303.88697 h -3.5"
       style="fill:#000000;fill-opacity:1;fill-rule:nonzero;stroke:#000000;stroke-width:0.8;stroke-linecap:butt;stroke-linejoin:round;stroke-miterlimit:10;stroke-dasharray:none;stroke-opacity:1"
       transform="matrix(1.3333333,0,0,-1.3333333,0,419.88703)" />
    <path
       id="path48"
       d="M 4.4883854,-1.604092e-4 V -0.31656666 H 4.1485416 c -0.9609375,0 -0.9960937,-0.12890625 -0.9960937,-0.52734375 V -7.0196917 c 0,-0.2578125 0,-0.2695312 -0.2109375,-0.2695312 -0.2695313,0.2929687 -0.8203125,0.703125 -1.94531255,0.703125 v 0.3164062 c 0.25781255,0 0.79687505,0 1.40625005,-0.28125 v 5.70703129 c 0,0.3984375 -0.035156,0.52734375 -0.9960938,0.52734375 H 1.0665104 V -1.604092e-4 C 1.3594791,-0.02359791 2.4258854,-0.02359791 2.7774479,-0.02359791 c 0.3632812,0 1.4179687,0 1.7109375,0.0234375008 z M 10.174909,-2.2032854 c 0,-1.3007813 -0.8671877,-2.390625 -2.027344,-2.390625 -0.6210937,0 -1.1015625,0.28125 -1.3828125,0.5859375 v -2.2734375 c 0.46875,0.1523437 0.8554688,0.1640625 0.9726563,0.1640625 1.2421875,0 2.0273437,-0.9023438 2.0273437,-1.0546875 0,-0.046875 -0.023437,-0.1054688 -0.09375,-0.1054688 0,0 -0.035156,0 -0.140625,0.046875 -0.609375,0.2578125 -1.1367187,0.2929688 -1.4179687,0.2929688 -0.7265625,0 -1.2421875,-0.2226563 -1.453125,-0.3046875 -0.070312,-0.035156 -0.1054688,-0.035156 -0.1054688,-0.035156 -0.09375,0 -0.09375,0.070312 -0.09375,0.2460938 v 3.2460937 c 0,0.1992188 0,0.2695313 0.140625,0.2695313 0.046875,0 0.058594,-0.011719 0.1757813,-0.140625 0.3046875,-0.4570313 0.8203125,-0.7148438 1.359375,-0.7148438 0.5859375,0 0.8671875,0.5390625 0.9609375,0.7265625 0.1875,0.421875 0.1992187,0.9609375 0.1992187,1.3710938 0,0.421875 0,1.0429687 -0.3164062,1.53515624 -0.234375,0.3984375 -0.6679688,0.66796875 -1.1484375,0.66796875 -0.7148438,0 -1.4296875,-0.4921875 -1.6289063,-1.28906249 0.058594,0.023437 0.1171875,0.035156 0.1757813,0.035156 0.1875,0 0.4804687,-0.1054687 0.4804687,-0.4804687 0,-0.3046875 -0.2109375,-0.4804688 -0.4804687,-0.4804688 -0.1992188,0 -0.4804688,0.09375 -0.4804688,0.515625 0,0.93750004 0.7382813,2.00390629 1.9570313,2.00390629 1.2421875,0 2.3203127,-1.04296875 2.3203127,-2.43750009 z m 0,0"
       style="fill:#000000;fill-opacity:1;fill-rule:nonzero;stroke:none"
       aria-label="15"
       transform="matrix(1.3333333,0,0,1.3333333,40.910017,19.808808)" />
    <path
       id="path49"
       d="m 3.6321027,2.5192985 c 0,0 0,-0.070312 -0.046875,-0.1992188 l -1.9335937,-5.0625 1.9335937,-5.0625 c 0.046875,-0.1289062 0.046875,-0.1992187 0.046875,-0.1992187 0,-0.1171875 -0.09375,-0.2109375 -0.2109375,-0.2109375 -0.140625,0 -0.1875,0.09375 -0.234375,0.2109375 l -1.921875,5.0625 c -0.058594,0.140625 -0.058594,0.1992187 -0.058594,0.1992187 0,0 0,0.070312 0.058594,0.1992188 L 3.1750715,2.495861 c 0.058594,0.1289062 0.09375,0.2460937 0.2460937,0.2460937 0.1171875,0 0.2109375,-0.1054687 0.2109375,-0.2226562 z m 0,0"
       style="fill:#000000;fill-opacity:1;fill-rule:nonzero;stroke:none"
       aria-label="h"
       transform="matrix(0,-1.3333333,1.3333333,0,20.558904,203.51858)" />
    <path
       id="path50"
       d="m 7.6642436,-2.6955453 c 0,-0.058594 -0.046875,-0.1054687 -0.1171875,-0.1054687 -0.046875,0 -0.058594,0.011719 -0.09375,0.035156 -0.023437,0.011719 -0.023437,0.035156 -0.1171875,0.2578125 -0.65625,1.53515628 -1.125,2.19140628 -2.8710938,2.19140628 H 2.8595561 c -0.1523438,0 -0.1757813,0 -0.2460938,-0.0117188 -0.1171875,-0.0117188 -0.1289062,-0.0351563 -0.1289062,-0.1171875 0,-0.0820313 0.023437,-0.140625 0.046875,-0.24609375 l 0.75,-3.02343743 h 1.0898437 c 0.8554688,0 0.9257813,0.1875 0.9257813,0.515625 0,0.1054687 0,0.2109375 -0.082031,0.5390625 -0.023437,0.046875 -0.035156,0.082031 -0.035156,0.1171875 0,0.082031 0.058594,0.1054687 0.1289062,0.1054687 0.09375,0 0.1054688,-0.070312 0.1523438,-0.2226562 L 6.0822128,-5.203358 c 0,-0.058594 -0.046875,-0.1054688 -0.1054687,-0.1054688 -0.1054688,0 -0.1171875,0.035156 -0.1640625,0.1875 -0.2109375,0.84375 -0.4335938,1.0898438 -1.40625,1.0898438 H 3.3634623 l 0.6796875,-2.6953125 c 0.09375,-0.3867188 0.1171875,-0.421875 0.5742188,-0.421875 h 1.5585937 c 1.3476563,0 1.6289063,0.3632812 1.6289063,1.1953125 0,0 0,0.3164062 -0.046875,0.6796875 -0.011719,0.046875 -0.023437,0.1289062 -0.023437,0.1289062 0,0.09375 0.058594,0.1289063 0.1171875,0.1289063 0.082031,0 0.1289062,-0.046875 0.1523437,-0.2460938 L 8.2267441,-7.172108 c 0,-0.035156 0.023437,-0.1640625 0.023437,-0.1640625 0,-0.1289063 -0.09375,-0.1289063 -0.2929688,-0.1289063 h -5.34375 c -0.2109375,0 -0.328125,0 -0.328125,0.1992188 0,0.1171875 0.082031,0.1171875 0.2695313,0.1171875 0.6796875,0 0.6796875,0.082031 0.6796875,0.1992187 0,0.058594 -0.011719,0.1054688 -0.046875,0.2226563 l -1.4765625,5.91796873 c -0.1054688,0.38671875 -0.1171875,0.4921875 -0.89062504,0.4921875 -0.2109375,0 -0.31640625,0 -0.31640625,0.19921875 0,0.1171875003 0.0703125,0.1171875003 0.28125,0.1171875003 H 6.2931498 c 0.234375,0 0.2460938,-0.0117187503 0.328125,-0.1875000003 L 7.6173686,-2.5432015 c 0.011719,-0.035156 0.046875,-0.1054688 0.046875,-0.1523438 z m 0,0"
       style="fill:#000000;fill-opacity:1;fill-rule:nonzero;stroke:none"
       aria-label="E"
       transform="matrix(0,-1.3333333,1.3333333,0,20.558904,197.83618)" />
    <path
       id="path51"
       d="m 3.0483075,-2.7424203 c 0,0 0,-0.058594 -0.058594,-0.1992187 l -1.910156,-5.0390625 c -0.058594,-0.1289063 -0.09375,-0.234375 -0.24609378,-0.234375 -0.1171875,0 -0.22265625,0.09375 -0.22265625,0.2109375 0,0 0,0.070312 0.0585938,0.1992187 l 1.93359383,5.0625 -1.93359383,5.0625 c -0.0585938,0.1289063 -0.0585938,0.1992188 -0.0585938,0.1992188 0,0.1171875 0.10546875,0.2226562 0.22265625,0.2226562 0.140625,0 0.18749998,-0.1054687 0.23437498,-0.2226562 l 1.921875,-5.0625 c 0.058594,-0.1289063 0.058594,-0.1992188 0.058594,-0.1992188 z m 0,0"
       style="fill:#000000;fill-opacity:1;fill-rule:nonzero;stroke:none"
       aria-label="i"
       transform="matrix(0,-1.3333333,1.3333333,0,20.558904,186.38863)" />
    <path
       id="path52"
       d="m 48.413086,183.11369 3.5712,0.33415 3.5712,0.35353 3.5712,0.37471 3.5712,0.39796 3.5712,0.42356 3.5712,0.45182 3.5712,0.48316 3.5712,0.51806 3.5712,0.55707 3.5712,0.6009 3.5712,0.65039 3.5712,0.70659 3.5712,0.77081 3.5712,0.84466 3.571204,0.93025 3.5712,1.03023 3.5712,1.1481 3.5712,1.28851 3.5712,1.45768 3.5712,1.66418 3.5712,1.92007 3.5712,2.24268 3.5712,2.65777 3.5712,3.20483 3.5712,3.94707 3.5712,4.99077 3.5712,6.52608 3.5712,8.92138 3.5712,12.97008 3.5712,20.65556 3.5712,38.21132"
       style="fill:none;stroke:#1f77b4;stroke-width:1.5;stroke-linecap:square;stroke-linejoin:round;stroke-miterlimit:10;stroke-dasharray:none;stroke-opacity:1"
       transform="matrix(1.3333333,0,0,-1.3333333,0,419.88703)"
       clip-path="url(#clipPath53)" />
    <path
       id="path54"
       d="m 173.40509,1.117466 3.5712,66.786895 3.5712,30.515249 3.5712,17.57318 3.5712,11.49408 3.5712,8.1615 3.5712,6.14379 3.5712,4.83555 3.5712,3.94469 3.5712,3.31636 3.5712,2.86234 3.5712,2.52966 3.5712,2.28509 3.5712,2.10728 3.5712,1.98233 3.5712,1.90123 3.5712,1.85853 3.5712,1.85147 3.5712,1.87958 3.5712,1.94467 3.5712,2.05108 3.5712,2.2062 3.5712,2.42174 3.5712,2.7157 3.5712,3.11575 3.5712,3.66565 3.5712,4.43679 3.5712,5.55169 3.5712,7.23428 3.5712,9.9299 3.5712,14.63147 3.5712,23.94978 3.5712,46.80343"
       style="fill:none;stroke:#1f77b4;stroke-width:1.5;stroke-linecap:square;stroke-linejoin:round;stroke-miterlimit:10;stroke-dasharray:none;stroke-opacity:1"
       transform="matrix(1.3333333,0,0,-1.3333333,0,419.88703)"
       clip-path="url(#clipPath55)" />
    <path
       id="path56"
       d="m 301.96829,8.681382 3.5712,52.473668 3.5712,25.862447 3.5712,15.438253 3.5712,10.28331 3.5712,7.35666 3.5712,5.53462 3.5712,4.3226 3.5712,3.47507 3.5712,2.85875 3.5712,2.39624 3.5712,2.04005 3.5712,1.75971 3.5712,1.53497 3.5712,1.35193 3.5712,1.20076 3.5712,1.07442 3.5712,0.96767 3.5712,0.87662 3.5712,0.79829 3.5712,0.73038 3.5712,0.67111 3.5712,0.61901 3.5712,0.573 3.5712,0.5321 3.5712,0.4956 3.5712,0.46286 3.5712,0.43338 3.5712,0.40673 3.5712,0.38255"
       style="fill:none;stroke:#1f77b4;stroke-width:1.5;stroke-linecap:square;stroke-linejoin:round;stroke-miterlimit:10;stroke-dasharray:none;stroke-opacity:1"
       transform="matrix(1.3333333,0,0,-1.3333333,0,419.88703)"
       clip-path="url(#clipPath57)" />
    <path
       id="path58"
       d="m 295.07468,37.77497 v 266.112"
       style="fill:none;stroke:#000000;stroke-width:1.5;stroke-linecap:butt;stroke-linejoin:round;stroke-miterlimit:10;stroke-dasharray:5.55, 2.4;stroke-dashoffset:0;stroke-opacity:1"
       transform="matrix(1.3333333,0,0,-1.3333333,0,419.88703)"
       clip-path="url(#clipPath59)" />
    <path
       id="path60"
       d="m 167.45309,37.77497 v 266.112"
       style="fill:none;stroke:#000000;stroke-width:1.5;stroke-linecap:butt;stroke-linejoin:round;stroke-miterlimit:10;stroke-dasharray:5.55, 2.4;stroke-dashoffset:0;stroke-opacity:1"
       transform="matrix(1.3333333,0,0,-1.3333333,0,419.88703)"
       clip-path="url(#clipPath61)" />
    <path
       id="path62"
       d="m 48.413086,37.77497 v 266.112"
       style="fill:none;stroke:#000000;stroke-width:0.8;stroke-linecap:square;stroke-linejoin:miter;stroke-miterlimit:10;stroke-dasharray:none;stroke-opacity:1"
       transform="matrix(1.3333333,0,0,-1.3333333,0,419.88703)" />
    <path
       id="path63"
       d="m 405.53309,37.77497 v 266.112"
       style="fill:none;stroke:#000000;stroke-width:0.8;stroke-linecap:square;stroke-linejoin:miter;stroke-miterlimit:10;stroke-dasharray:none;stroke-opacity:1"
       transform="matrix(1.3333333,0,0,-1.3333333,0,419.88703)" />
    <path
       id="path64"
       d="M 48.413086,37.77497 H 405.53309"
       style="fill:none;stroke:#000000;stroke-width:0.8;stroke-linecap:square;stroke-linejoin:miter;stroke-miterlimit:10;stroke-dasharray:none;stroke-opacity:1"
       transform="matrix(1.3333333,0,0,-1.3333333,0,419.88703)" />
    <path
       id="path65"
       d="M 48.413086,303.88697 H 405.53309"
       style="fill:none;stroke:#000000;stroke-width:0.8;stroke-linecap:square;stroke-linejoin:miter;stroke-miterlimit:10;stroke-dasharray:none;stroke-opacity:1"
       transform="matrix(1.3333333,0,0,-1.3333333,0,419.88703)" />
  </g>
</svg>
