<svg width="296" height="296" viewBox="32 32 296 296" xmlns="http://www.w3.org/2000/svg">
<defs>
<rect id="p" width="8" height="8"/>
</defs>
<g class="qrcode">
<use href="#p" x="32" y="32"/>
<use href="#p" x="32" y="40"/>
<use href="#p" x="32" y="48"/>
<use href="#p" x="32" y="56"/>
<use href="#p" x="32" y="64"/>
<use href="#p" x="32" y="72"/>
<use href="#p" x="32" y="80"/>
<use href="#p" x="32" y="96"/>
<use href="#p" x="32" y="104"/>
<use href="#p" x="32" y="128"/>
<use href="#p" x="32" y="144"/>
<use href="#p" x="32" y="160"/>
<use href="#p" x="32" y="168"/>
<use href="#p" x="32" y="192"/>
<use href="#p" x="32" y="200"/>
<use href="#p" x="32" y="208"/>
<use href="#p" x="32" y="224"/>
<use href="#p" x="32" y="232"/>
<use href="#p" x="32" y="248"/>
<use href="#p" x="32" y="272"/>
<use href="#p" x="32" y="280"/>
<use href="#p" x="32" y="288"/>
<use href="#p" x="32" y="296"/>
<use href="#p" x="32" y="304"/>
<use href="#p" x="32" y="312"/>
<use href="#p" x="32" y="320"/>
<use href="#p" x="40" y="32"/>
<use href="#p" x="40" y="80"/>
<use href="#p" x="40" y="96"/>
<use href="#p" x="40" y="104"/>
<use href="#p" x="40" y="128"/>
<use href="#p" x="40" y="136"/>
<use href="#p" x="40" y="152"/>
<use href="#p" x="40" y="176"/>
<use href="#p" x="40" y="192"/>
<use href="#p" x="40" y="200"/>
<use href="#p" x="40" y="224"/>
<use href="#p" x="40" y="232"/>
<use href="#p" x="40" y="240"/>
<use href="#p" x="40" y="272"/>
<use href="#p" x="40" y="320"/>
<use href="#p" x="48" y="32"/>
<use href="#p" x="48" y="48"/>
<use href="#p" x="48" y="56"/>
<use href="#p" x="48" y="64"/>
<use href="#p" x="48" y="80"/>
<use href="#p" x="48" y="104"/>
<use href="#p" x="48" y="112"/>
<use href="#p" x="48" y="120"/>
<use href="#p" x="48" y="128"/>
<use href="#p" x="48" y="144"/>
<use href="#p" x="48" y="160"/>
<use href="#p" x="48" y="168"/>
<use href="#p" x="48" y="200"/>
<use href="#p" x="48" y="208"/>
<use href="#p" x="48" y="216"/>
<use href="#p" x="48" y="224"/>
<use href="#p" x="48" y="248"/>
<use href="#p" x="48" y="256"/>
<use href="#p" x="48" y="272"/>
<use href="#p" x="48" y="288"/>
<use href="#p" x="48" y="296"/>
<use href="#p" x="48" y="304"/>
<use href="#p" x="48" y="320"/>
<use href="#p" x="56" y="32"/>
<use href="#p" x="56" y="48"/>
<use href="#p" x="56" y="56"/>
<use href="#p" x="56" y="64"/>
<use href="#p" x="56" y="80"/>
<use href="#p" x="56" y="96"/>
<use href="#p" x="56" y="104"/>
<use href="#p" x="56" y="112"/>
<use href="#p" x="56" y="128"/>
<use href="#p" x="56" y="136"/>
<use href="#p" x="56" y="160"/>
<use href="#p" x="56" y="176"/>
<use href="#p" x="56" y="192"/>
<use href="#p" x="56" y="200"/>
<use href="#p" x="56" y="224"/>
<use href="#p" x="56" y="240"/>
<use href="#p" x="56" y="248"/>
<use href="#p" x="56" y="272"/>
<use href="#p" x="56" y="288"/>
<use href="#p" x="56" y="296"/>
<use href="#p" x="56" y="304"/>
<use href="#p" x="56" y="320"/>
<use href="#p" x="64" y="32"/>
<use href="#p" x="64" y="48"/>
<use href="#p" x="64" y="56"/>
<use href="#p" x="64" y="64"/>
<use href="#p" x="64" y="80"/>
<use href="#p" x="64" y="112"/>
<use href="#p" x="64" y="128"/>
<use href="#p" x="64" y="144"/>
<use href="#p" x="64" y="168"/>
<use href="#p" x="64" y="192"/>
<use href="#p" x="64" y="200"/>
<use href="#p" x="64" y="208"/>
<use href="#p" x="64" y="240"/>
<use href="#p" x="64" y="256"/>
<use href="#p" x="64" y="272"/>
<use href="#p" x="64" y="288"/>
<use href="#p" x="64" y="296"/>
<use href="#p" x="64" y="304"/>
<use href="#p" x="64" y="320"/>
<use href="#p" x="72" y="32"/>
<use href="#p" x="72" y="80"/>
<use href="#p" x="72" y="104"/>
<use href="#p" x="72" y="120"/>
<use href="#p" x="72" y="128"/>
<use href="#p" x="72" y="144"/>
<use href="#p" x="72" y="152"/>
<use href="#p" x="72" y="168"/>
<use href="#p" x="72" y="176"/>
<use href="#p" x="72" y="192"/>
<use href="#p" x="72" y="208"/>
<use href="#p" x="72" y="216"/>
<use href="#p" x="72" y="248"/>
<use href="#p" x="72" y="256"/>
<use href="#p" x="72" y="272"/>
<use href="#p" x="72" y="320"/>
<use href="#p" x="80" y="32"/>
<use href="#p" x="80" y="40"/>
<use href="#p" x="80" y="48"/>
<use href="#p" x="80" y="56"/>
<use href="#p" x="80" y="64"/>
<use href="#p" x="80" y="72"/>
<use href="#p" x="80" y="80"/>
<use href="#p" x="80" y="96"/>
<use href="#p" x="80" y="112"/>
<use href="#p" x="80" y="128"/>
<use href="#p" x="80" y="144"/>
<use href="#p" x="80" y="160"/>
<use href="#p" x="80" y="176"/>
<use href="#p" x="80" y="192"/>
<use href="#p" x="80" y="208"/>
<use href="#p" x="80" y="224"/>
<use href="#p" x="80" y="240"/>
<use href="#p" x="80" y="256"/>
<use href="#p" x="80" y="272"/>
<use href="#p" x="80" y="280"/>
<use href="#p" x="80" y="288"/>
<use href="#p" x="80" y="296"/>
<use href="#p" x="80" y="304"/>
<use href="#p" x="80" y="312"/>
<use href="#p" x="80" y="320"/>
<use href="#p" x="88" y="96"/>
<use href="#p" x="88" y="128"/>
<use href="#p" x="88" y="152"/>
<use href="#p" x="88" y="160"/>
<use href="#p" x="88" y="176"/>
<use href="#p" x="88" y="184"/>
<use href="#p" x="88" y="200"/>
<use href="#p" x="88" y="216"/>
<use href="#p" x="88" y="224"/>
<use href="#p" x="88" y="232"/>
<use href="#p" x="88" y="248"/>
<use href="#p" x="96" y="40"/>
<use href="#p" x="96" y="48"/>
<use href="#p" x="96" y="64"/>
<use href="#p" x="96" y="72"/>
<use href="#p" x="96" y="80"/>
<use href="#p" x="96" y="88"/>
<use href="#p" x="96" y="104"/>
<use href="#p" x="96" y="112"/>
<use href="#p" x="96" y="128"/>
<use href="#p" x="96" y="144"/>
<use href="#p" x="96" y="152"/>
<use href="#p" x="96" y="160"/>
<use href="#p" x="96" y="168"/>
<use href="#p" x="96" y="208"/>
<use href="#p" x="96" y="224"/>
<use href="#p" x="96" y="232"/>
<use href="#p" x="96" y="240"/>
<use href="#p" x="96" y="256"/>
<use href="#p" x="96" y="264"/>
<use href="#p" x="96" y="272"/>
<use href="#p" x="96" y="296"/>
<use href="#p" x="96" y="312"/>
<use href="#p" x="96" y="320"/>
<use href="#p" x="104" y="32"/>
<use href="#p" x="104" y="48"/>
<use href="#p" x="104" y="56"/>
<use href="#p" x="104" y="72"/>
<use href="#p" x="104" y="88"/>
<use href="#p" x="104" y="128"/>
<use href="#p" x="104" y="136"/>
<use href="#p" x="104" y="144"/>
<use href="#p" x="104" y="152"/>
<use href="#p" x="104" y="176"/>
<use href="#p" x="104" y="184"/>
<use href="#p" x="104" y="192"/>
<use href="#p" x="104" y="200"/>
<use href="#p" x="104" y="224"/>
<use href="#p" x="104" y="232"/>
<use href="#p" x="104" y="240"/>
<use href="#p" x="104" y="248"/>
<use href="#p" x="104" y="256"/>
<use href="#p" x="104" y="264"/>
<use href="#p" x="104" y="272"/>
<use href="#p" x="104" y="288"/>
<use href="#p" x="104" y="296"/>
<use href="#p" x="104" y="304"/>
<use href="#p" x="104" y="320"/>
<use href="#p" x="112" y="48"/>
<use href="#p" x="112" y="56"/>
<use href="#p" x="112" y="80"/>
<use href="#p" x="112" y="96"/>
<use href="#p" x="112" y="104"/>
<use href="#p" x="112" y="112"/>
<use href="#p" x="112" y="136"/>
<use href="#p" x="112" y="144"/>
<use href="#p" x="112" y="152"/>
<use href="#p" x="112" y="168"/>
<use href="#p" x="112" y="176"/>
<use href="#p" x="112" y="184"/>
<use href="#p" x="112" y="192"/>
<use href="#p" x="112" y="200"/>
<use href="#p" x="112" y="216"/>
<use href="#p" x="112" y="240"/>
<use href="#p" x="112" y="248"/>
<use href="#p" x="112" y="296"/>
<use href="#p" x="112" y="304"/>
<use href="#p" x="120" y="40"/>
<use href="#p" x="120" y="48"/>
<use href="#p" x="120" y="56"/>
<use href="#p" x="120" y="72"/>
<use href="#p" x="120" y="104"/>
<use href="#p" x="120" y="136"/>
<use href="#p" x="120" y="160"/>
<use href="#p" x="120" y="184"/>
<use href="#p" x="120" y="192"/>
<use href="#p" x="120" y="200"/>
<use href="#p" x="120" y="208"/>
<use href="#p" x="120" y="216"/>
<use href="#p" x="120" y="224"/>
<use href="#p" x="120" y="232"/>
<use href="#p" x="120" y="240"/>
<use href="#p" x="120" y="248"/>
<use href="#p" x="120" y="272"/>
<use href="#p" x="120" y="296"/>
<use href="#p" x="128" y="32"/>
<use href="#p" x="128" y="40"/>
<use href="#p" x="128" y="48"/>
<use href="#p" x="128" y="80"/>
<use href="#p" x="128" y="88"/>
<use href="#p" x="128" y="128"/>
<use href="#p" x="128" y="136"/>
<use href="#p" x="128" y="144"/>
<use href="#p" x="128" y="152"/>
<use href="#p" x="128" y="192"/>
<use href="#p" x="128" y="200"/>
<use href="#p" x="128" y="208"/>
<use href="#p" x="128" y="216"/>
<use href="#p" x="128" y="256"/>
<use href="#p" x="128" y="264"/>
<use href="#p" x="128" y="272"/>
<use href="#p" x="128" y="280"/>
<use href="#p" x="128" y="320"/>
<use href="#p" x="136" y="32"/>
<use href="#p" x="136" y="64"/>
<use href="#p" x="136" y="96"/>
<use href="#p" x="136" y="120"/>
<use href="#p" x="136" y="128"/>
<use href="#p" x="136" y="136"/>
<use href="#p" x="136" y="144"/>
<use href="#p" x="136" y="152"/>
<use href="#p" x="136" y="168"/>
<use href="#p" x="136" y="176"/>
<use href="#p" x="136" y="192"/>
<use href="#p" x="136" y="200"/>
<use href="#p" x="136" y="208"/>
<use href="#p" x="136" y="216"/>
<use href="#p" x="136" y="224"/>
<use href="#p" x="136" y="248"/>
<use href="#p" x="136" y="264"/>
<use href="#p" x="144" y="40"/>
<use href="#p" x="144" y="48"/>
<use href="#p" x="144" y="56"/>
<use href="#p" x="144" y="64"/>
<use href="#p" x="144" y="72"/>
<use href="#p" x="144" y="80"/>
<use href="#p" x="144" y="88"/>
<use href="#p" x="144" y="96"/>
<use href="#p" x="144" y="144"/>
<use href="#p" x="144" y="176"/>
<use href="#p" x="144" y="184"/>
<use href="#p" x="144" y="192"/>
<use href="#p" x="144" y="208"/>
<use href="#p" x="144" y="232"/>
<use href="#p" x="144" y="272"/>
<use href="#p" x="144" y="312"/>
<use href="#p" x="152" y="32"/>
<use href="#p" x="152" y="40"/>
<use href="#p" x="152" y="56"/>
<use href="#p" x="152" y="64"/>
<use href="#p" x="152" y="72"/>
<use href="#p" x="152" y="152"/>
<use href="#p" x="152" y="192"/>
<use href="#p" x="152" y="256"/>
<use href="#p" x="152" y="264"/>
<use href="#p" x="152" y="280"/>
<use href="#p" x="152" y="288"/>
<use href="#p" x="152" y="312"/>
<use href="#p" x="160" y="32"/>
<use href="#p" x="160" y="64"/>
<use href="#p" x="160" y="72"/>
<use href="#p" x="160" y="80"/>
<use href="#p" x="160" y="88"/>
<use href="#p" x="160" y="96"/>
<use href="#p" x="160" y="104"/>
<use href="#p" x="160" y="152"/>
<use href="#p" x="160" y="160"/>
<use href="#p" x="160" y="168"/>
<use href="#p" x="160" y="192"/>
<use href="#p" x="160" y="200"/>
<use href="#p" x="160" y="208"/>
<use href="#p" x="160" y="248"/>
<use href="#p" x="160" y="256"/>
<use href="#p" x="160" y="264"/>
<use href="#p" x="160" y="288"/>
<use href="#p" x="160" y="296"/>
<use href="#p" x="160" y="312"/>
<use href="#p" x="168" y="32"/>
<use href="#p" x="168" y="40"/>
<use href="#p" x="168" y="48"/>
<use href="#p" x="168" y="64"/>
<use href="#p" x="168" y="88"/>
<use href="#p" x="168" y="104"/>
<use href="#p" x="168" y="112"/>
<use href="#p" x="168" y="128"/>
<use href="#p" x="168" y="136"/>
<use href="#p" x="168" y="144"/>
<use href="#p" x="168" y="152"/>
<use href="#p" x="168" y="160"/>
<use href="#p" x="168" y="176"/>
<use href="#p" x="168" y="184"/>
<use href="#p" x="168" y="224"/>
<use href="#p" x="168" y="232"/>
<use href="#p" x="168" y="248"/>
<use href="#p" x="168" y="256"/>
<use href="#p" x="168" y="264"/>
<use href="#p" x="168" y="272"/>
<use href="#p" x="168" y="280"/>
<use href="#p" x="168" y="296"/>
<use href="#p" x="168" y="320"/>
<use href="#p" x="176" y="80"/>
<use href="#p" x="176" y="88"/>
<use href="#p" x="176" y="96"/>
<use href="#p" x="176" y="104"/>
<use href="#p" x="176" y="112"/>
<use href="#p" x="176" y="144"/>
<use href="#p" x="176" y="152"/>
<use href="#p" x="176" y="160"/>
<use href="#p" x="176" y="168"/>
<use href="#p" x="176" y="176"/>
<use href="#p" x="176" y="192"/>
<use href="#p" x="176" y="200"/>
<use href="#p" x="176" y="208"/>
<use href="#p" x="176" y="216"/>
<use href="#p" x="176" y="240"/>
<use href="#p" x="176" y="256"/>
<use href="#p" x="176" y="264"/>
<use href="#p" x="176" y="280"/>
<use href="#p" x="176" y="296"/>
<use href="#p" x="176" y="312"/>
<use href="#p" x="184" y="32"/>
<use href="#p" x="184" y="56"/>
<use href="#p" x="184" y="72"/>
<use href="#p" x="184" y="112"/>
<use href="#p" x="184" y="120"/>
<use href="#p" x="184" y="128"/>
<use href="#p" x="184" y="136"/>
<use href="#p" x="184" y="152"/>
<use href="#p" x="184" y="160"/>
<use href="#p" x="184" y="208"/>
<use href="#p" x="184" y="216"/>
<use href="#p" x="184" y="224"/>
<use href="#p" x="184" y="232"/>
<use href="#p" x="184" y="256"/>
<use href="#p" x="184" y="288"/>
<use href="#p" x="184" y="304"/>
<use href="#p" x="184" y="312"/>
<use href="#p" x="192" y="32"/>
<use href="#p" x="192" y="48"/>
<use href="#p" x="192" y="80"/>
<use href="#p" x="192" y="88"/>
<use href="#p" x="192" y="104"/>
<use href="#p" x="192" y="120"/>
<use href="#p" x="192" y="144"/>
<use href="#p" x="192" y="160"/>
<use href="#p" x="192" y="184"/>
<use href="#p" x="192" y="192"/>
<use href="#p" x="192" y="224"/>
<use href="#p" x="192" y="248"/>
<use href="#p" x="192" y="256"/>
<use href="#p" x="192" y="272"/>
<use href="#p" x="192" y="288"/>
<use href="#p" x="192" y="312"/>
<use href="#p" x="200" y="72"/>
<use href="#p" x="200" y="88"/>
<use href="#p" x="200" y="96"/>
<use href="#p" x="200" y="120"/>
<use href="#p" x="200" y="128"/>
<use href="#p" x="200" y="136"/>
<use href="#p" x="200" y="152"/>
<use href="#p" x="200" y="160"/>
<use href="#p" x="200" y="168"/>
<use href="#p" x="200" y="176"/>
<use href="#p" x="200" y="184"/>
<use href="#p" x="200" y="192"/>
<use href="#p" x="200" y="216"/>
<use href="#p" x="200" y="224"/>
<use href="#p" x="200" y="232"/>
<use href="#p" x="200" y="240"/>
<use href="#p" x="200" y="248"/>
<use href="#p" x="200" y="256"/>
<use href="#p" x="200" y="280"/>
<use href="#p" x="200" y="288"/>
<use href="#p" x="200" y="312"/>
<use href="#p" x="200" y="320"/>
<use href="#p" x="208" y="48"/>
<use href="#p" x="208" y="56"/>
<use href="#p" x="208" y="72"/>
<use href="#p" x="208" y="80"/>
<use href="#p" x="208" y="96"/>
<use href="#p" x="208" y="112"/>
<use href="#p" x="208" y="120"/>
<use href="#p" x="208" y="128"/>
<use href="#p" x="208" y="168"/>
<use href="#p" x="208" y="176"/>
<use href="#p" x="208" y="192"/>
<use href="#p" x="208" y="200"/>
<use href="#p" x="208" y="216"/>
<use href="#p" x="208" y="224"/>
<use href="#p" x="208" y="288"/>
<use href="#p" x="208" y="296"/>
<use href="#p" x="208" y="312"/>
<use href="#p" x="208" y="320"/>
<use href="#p" x="216" y="32"/>
<use href="#p" x="216" y="40"/>
<use href="#p" x="216" y="56"/>
<use href="#p" x="216" y="64"/>
<use href="#p" x="216" y="88"/>
<use href="#p" x="216" y="96"/>
<use href="#p" x="216" y="128"/>
<use href="#p" x="216" y="144"/>
<use href="#p" x="216" y="168"/>
<use href="#p" x="216" y="192"/>
<use href="#p" x="216" y="216"/>
<use href="#p" x="216" y="240"/>
<use href="#p" x="216" y="264"/>
<use href="#p" x="216" y="280"/>
<use href="#p" x="216" y="288"/>
<use href="#p" x="216" y="312"/>
<use href="#p" x="224" y="32"/>
<use href="#p" x="224" y="56"/>
<use href="#p" x="224" y="64"/>
<use href="#p" x="224" y="80"/>
<use href="#p" x="224" y="88"/>
<use href="#p" x="224" y="96"/>
<use href="#p" x="224" y="104"/>
<use href="#p" x="224" y="120"/>
<use href="#p" x="224" y="128"/>
<use href="#p" x="224" y="176"/>
<use href="#p" x="224" y="208"/>
<use href="#p" x="224" y="240"/>
<use href="#p" x="224" y="248"/>
<use href="#p" x="224" y="256"/>
<use href="#p" x="224" y="264"/>
<use href="#p" x="224" y="272"/>
<use href="#p" x="224" y="280"/>
<use href="#p" x="232" y="96"/>
<use href="#p" x="232" y="104"/>
<use href="#p" x="232" y="112"/>
<use href="#p" x="232" y="120"/>
<use href="#p" x="232" y="128"/>
<use href="#p" x="232" y="144"/>
<use href="#p" x="232" y="152"/>
<use href="#p" x="232" y="168"/>
<use href="#p" x="232" y="192"/>
<use href="#p" x="232" y="200"/>
<use href="#p" x="232" y="208"/>
<use href="#p" x="232" y="216"/>
<use href="#p" x="232" y="224"/>
<use href="#p" x="232" y="232"/>
<use href="#p" x="232" y="240"/>
<use href="#p" x="232" y="248"/>
<use href="#p" x="232" y="264"/>
<use href="#p" x="232" y="272"/>
<use href="#p" x="232" y="288"/>
<use href="#p" x="232" y="304"/>
<use href="#p" x="232" y="312"/>
<use href="#p" x="232" y="320"/>
<use href="#p" x="240" y="32"/>
<use href="#p" x="240" y="48"/>
<use href="#p" x="240" y="56"/>
<use href="#p" x="240" y="64"/>
<use href="#p" x="240" y="80"/>
<use href="#p" x="240" y="96"/>
<use href="#p" x="240" y="112"/>
<use href="#p" x="240" y="144"/>
<use href="#p" x="240" y="152"/>
<use href="#p" x="240" y="168"/>
<use href="#p" x="240" y="184"/>
<use href="#p" x="240" y="192"/>
<use href="#p" x="240" y="216"/>
<use href="#p" x="240" y="224"/>
<use href="#p" x="240" y="240"/>
<use href="#p" x="240" y="248"/>
<use href="#p" x="240" y="256"/>
<use href="#p" x="240" y="272"/>
<use href="#p" x="240" y="296"/>
<use href="#p" x="240" y="304"/>
<use href="#p" x="240" y="320"/>
<use href="#p" x="248" y="32"/>
<use href="#p" x="248" y="40"/>
<use href="#p" x="248" y="64"/>
<use href="#p" x="248" y="72"/>
<use href="#p" x="248" y="96"/>
<use href="#p" x="248" y="152"/>
<use href="#p" x="248" y="184"/>
<use href="#p" x="248" y="224"/>
<use href="#p" x="248" y="264"/>
<use href="#p" x="248" y="272"/>
<use href="#p" x="248" y="296"/>
<use href="#p" x="248" y="320"/>
<use href="#p" x="256" y="64"/>
<use href="#p" x="256" y="72"/>
<use href="#p" x="256" y="80"/>
<use href="#p" x="256" y="96"/>
<use href="#p" x="256" y="112"/>
<use href="#p" x="256" y="152"/>
<use href="#p" x="256" y="168"/>
<use href="#p" x="256" y="176"/>
<use href="#p" x="256" y="192"/>
<use href="#p" x="256" y="200"/>
<use href="#p" x="256" y="208"/>
<use href="#p" x="256" y="216"/>
<use href="#p" x="256" y="224"/>
<use href="#p" x="256" y="256"/>
<use href="#p" x="256" y="264"/>
<use href="#p" x="256" y="272"/>
<use href="#p" x="256" y="280"/>
<use href="#p" x="256" y="288"/>
<use href="#p" x="256" y="296"/>
<use href="#p" x="256" y="312"/>
<use href="#p" x="256" y="320"/>
<use href="#p" x="264" y="104"/>
<use href="#p" x="264" y="112"/>
<use href="#p" x="264" y="128"/>
<use href="#p" x="264" y="136"/>
<use href="#p" x="264" y="144"/>
<use href="#p" x="264" y="160"/>
<use href="#p" x="264" y="176"/>
<use href="#p" x="264" y="200"/>
<use href="#p" x="264" y="208"/>
<use href="#p" x="264" y="216"/>
<use href="#p" x="264" y="232"/>
<use href="#p" x="264" y="256"/>
<use href="#p" x="264" y="288"/>
<use href="#p" x="264" y="304"/>
<use href="#p" x="264" y="320"/>
<use href="#p" x="272" y="32"/>
<use href="#p" x="272" y="40"/>
<use href="#p" x="272" y="48"/>
<use href="#p" x="272" y="56"/>
<use href="#p" x="272" y="64"/>
<use href="#p" x="272" y="72"/>
<use href="#p" x="272" y="80"/>
<use href="#p" x="272" y="96"/>
<use href="#p" x="272" y="104"/>
<use href="#p" x="272" y="120"/>
<use href="#p" x="272" y="128"/>
<use href="#p" x="272" y="136"/>
<use href="#p" x="272" y="144"/>
<use href="#p" x="272" y="152"/>
<use href="#p" x="272" y="160"/>
<use href="#p" x="272" y="168"/>
<use href="#p" x="272" y="184"/>
<use href="#p" x="272" y="192"/>
<use href="#p" x="272" y="200"/>
<use href="#p" x="272" y="224"/>
<use href="#p" x="272" y="232"/>
<use href="#p" x="272" y="248"/>
<use href="#p" x="272" y="256"/>
<use href="#p" x="272" y="272"/>
<use href="#p" x="272" y="288"/>
<use href="#p" x="272" y="320"/>
<use href="#p" x="280" y="32"/>
<use href="#p" x="280" y="80"/>
<use href="#p" x="280" y="96"/>
<use href="#p" x="280" y="104"/>
<use href="#p" x="280" y="112"/>
<use href="#p" x="280" y="136"/>
<use href="#p" x="280" y="144"/>
<use href="#p" x="280" y="152"/>
<use href="#p" x="280" y="160"/>
<use href="#p" x="280" y="192"/>
<use href="#p" x="280" y="216"/>
<use href="#p" x="280" y="224"/>
<use href="#p" x="280" y="232"/>
<use href="#p" x="280" y="240"/>
<use href="#p" x="280" y="248"/>
<use href="#p" x="280" y="256"/>
<use href="#p" x="280" y="288"/>
<use href="#p" x="280" y="296"/>
<use href="#p" x="280" y="312"/>
<use href="#p" x="288" y="32"/>
<use href="#p" x="288" y="48"/>
<use href="#p" x="288" y="56"/>
<use href="#p" x="288" y="64"/>
<use href="#p" x="288" y="80"/>
<use href="#p" x="288" y="96"/>
<use href="#p" x="288" y="112"/>
<use href="#p" x="288" y="168"/>
<use href="#p" x="288" y="176"/>
<use href="#p" x="288" y="192"/>
<use href="#p" x="288" y="208"/>
<use href="#p" x="288" y="256"/>
<use href="#p" x="288" y="264"/>
<use href="#p" x="288" y="272"/>
<use href="#p" x="288" y="280"/>
<use href="#p" x="288" y="288"/>
<use href="#p" x="288" y="296"/>
<use href="#p" x="288" y="304"/>
<use href="#p" x="288" y="312"/>
<use href="#p" x="288" y="320"/>
<use href="#p" x="296" y="32"/>
<use href="#p" x="296" y="48"/>
<use href="#p" x="296" y="56"/>
<use href="#p" x="296" y="64"/>
<use href="#p" x="296" y="80"/>
<use href="#p" x="296" y="104"/>
<use href="#p" x="296" y="120"/>
<use href="#p" x="296" y="144"/>
<use href="#p" x="296" y="152"/>
<use href="#p" x="296" y="176"/>
<use href="#p" x="296" y="192"/>
<use href="#p" x="296" y="208"/>
<use href="#p" x="296" y="224"/>
<use href="#p" x="296" y="240"/>
<use href="#p" x="296" y="256"/>
<use href="#p" x="296" y="272"/>
<use href="#p" x="296" y="280"/>
<use href="#p" x="296" y="320"/>
<use href="#p" x="304" y="32"/>
<use href="#p" x="304" y="48"/>
<use href="#p" x="304" y="56"/>
<use href="#p" x="304" y="64"/>
<use href="#p" x="304" y="80"/>
<use href="#p" x="304" y="96"/>
<use href="#p" x="304" y="104"/>
<use href="#p" x="304" y="112"/>
<use href="#p" x="304" y="160"/>
<use href="#p" x="304" y="168"/>
<use href="#p" x="304" y="184"/>
<use href="#p" x="304" y="208"/>
<use href="#p" x="304" y="232"/>
<use href="#p" x="304" y="256"/>
<use href="#p" x="304" y="280"/>
<use href="#p" x="304" y="296"/>
<use href="#p" x="304" y="304"/>
<use href="#p" x="312" y="32"/>
<use href="#p" x="312" y="80"/>
<use href="#p" x="312" y="96"/>
<use href="#p" x="312" y="120"/>
<use href="#p" x="312" y="152"/>
<use href="#p" x="312" y="168"/>
<use href="#p" x="312" y="176"/>
<use href="#p" x="312" y="184"/>
<use href="#p" x="312" y="208"/>
<use href="#p" x="312" y="224"/>
<use href="#p" x="312" y="248"/>
<use href="#p" x="312" y="272"/>
<use href="#p" x="312" y="280"/>
<use href="#p" x="312" y="304"/>
<use href="#p" x="312" y="320"/>
<use href="#p" x="320" y="32"/>
<use href="#p" x="320" y="40"/>
<use href="#p" x="320" y="48"/>
<use href="#p" x="320" y="56"/>
<use href="#p" x="320" y="64"/>
<use href="#p" x="320" y="72"/>
<use href="#p" x="320" y="80"/>
<use href="#p" x="320" y="104"/>
<use href="#p" x="320" y="112"/>
<use href="#p" x="320" y="120"/>
<use href="#p" x="320" y="128"/>
<use href="#p" x="320" y="136"/>
<use href="#p" x="320" y="144"/>
<use href="#p" x="320" y="160"/>
<use href="#p" x="320" y="168"/>
<use href="#p" x="320" y="176"/>
<use href="#p" x="320" y="192"/>
<use href="#p" x="320" y="200"/>
<use href="#p" x="320" y="208"/>
<use href="#p" x="320" y="224"/>
<use href="#p" x="320" y="232"/>
<use href="#p" x="320" y="240"/>
<use href="#p" x="320" y="264"/>
<use href="#p" x="320" y="272"/>
<use href="#p" x="320" y="280"/>
<use href="#p" x="320" y="304"/>
<use href="#p" x="320" y="320"/>
</g></svg>