<?xml version="1.0" encoding="utf-8"?>
<svg xmlns="http://www.w3.org/2000/svg" width="264" height="264" viewBox="16 16 264 264">
<g transform="scale(0.333333)" class="qrcode">
<g transform="translate(384,48) scale(4)"><rect width="6" height="6"/></g>
<g transform="translate(504,48) scale(4)"><rect width="6" height="6"/></g>
<g transform="translate(528,48) scale(4)"><rect width="6" height="6"/></g>
<g transform="translate(552,48) scale(4)"><rect width="6" height="6"/></g>
<g transform="translate(264,72) scale(4)"><rect width="6" height="6"/></g>
<g transform="translate(312,72) scale(4)"><rect width="6" height="6"/></g>
<g transform="translate(336,72) scale(4)"><rect width="6" height="6"/></g>
<g transform="translate(408,72) scale(4)"><rect width="6" height="6"/></g>
<g transform="translate(432,72) scale(4)"><rect width="6" height="6"/></g>
<g transform="translate(480,72) scale(4)"><rect width="6" height="6"/></g>
<g transform="translate(528,72) scale(4)"><rect width="6" height="6"/></g>
<g transform="translate(552,72) scale(4)"><rect width="6" height="6"/></g>
<g transform="translate(624,72) scale(4)"><rect width="6" height="6"/></g>
<g transform="translate(240,96) scale(4)"><rect width="6" height="6"/></g>
<g transform="translate(264,96) scale(4)"><rect width="6" height="6"/></g>
<g transform="translate(288,96) scale(4)"><rect width="6" height="6"/></g>
<g transform="translate(384,96) scale(4)"><rect width="6" height="6"/></g>
<g transform="translate(408,96) scale(4)"><rect width="6" height="6"/></g>
<g transform="translate(432,96) scale(4)"><rect width="6" height="6"/></g>
<g transform="translate(504,96) scale(4)"><rect width="6" height="6"/></g>
<g transform="translate(552,96) scale(4)"><rect width="6" height="6"/></g>
<g transform="translate(576,96) scale(4)"><rect width="6" height="6"/></g>
<g transform="translate(600,96) scale(4)"><rect width="6" height="6"/></g>
<g transform="translate(624,96) scale(4)"><rect width="6" height="6"/></g>
<g transform="translate(240,120) scale(4)"><rect width="6" height="6"/></g>
<g transform="translate(312,120) scale(4)"><rect width="6" height="6"/></g>
<g transform="translate(336,120) scale(4)"><rect width="6" height="6"/></g>
<g transform="translate(408,120) scale(4)"><rect width="6" height="6"/></g>
<g transform="translate(480,120) scale(4)"><rect width="6" height="6"/></g>
<g transform="translate(504,120) scale(4)"><rect width="6" height="6"/></g>
<g transform="translate(600,120) scale(4)"><rect width="6" height="6"/></g>
<g transform="translate(624,120) scale(4)"><rect width="6" height="6"/></g>
<g transform="translate(240,144) scale(4)"><rect width="6" height="6"/></g>
<g transform="translate(264,144) scale(4)"><rect width="6" height="6"/></g>
<g transform="translate(288,144) scale(4)"><rect width="6" height="6"/></g>
<g transform="translate(312,144) scale(4)"><rect width="6" height="6"/></g>
<g transform="translate(336,144) scale(4)"><rect width="6" height="6"/></g>
<g transform="translate(384,144) scale(4)"><rect width="6" height="6"/></g>
<g transform="translate(408,144) scale(4)"><rect width="6" height="6"/></g>
<g transform="translate(432,144) scale(4)"><rect width="6" height="6"/></g>
<g transform="translate(480,144) scale(4)"><rect width="6" height="6"/></g>
<g transform="translate(528,144) scale(4)"><rect width="6" height="6"/></g>
<g transform="translate(552,144) scale(4)"><rect width="6" height="6"/></g>
<g transform="translate(576,144) scale(4)"><rect width="6" height="6"/></g>
<g transform="translate(600,144) scale(4)"><rect width="6" height="6"/></g>
<g transform="translate(240,168) scale(4)"><rect width="6" height="6"/></g>
<g transform="translate(264,168) scale(4)"><rect width="6" height="6"/></g>
<g transform="translate(288,168) scale(4)"><rect width="6" height="6"/></g>
<g transform="translate(360,168) scale(4)"><rect width="6" height="6"/></g>
<g transform="translate(384,168) scale(4)"><rect width="6" height="6"/></g>
<g transform="translate(480,168) scale(4)"><rect width="6" height="6"/></g>
<g transform="translate(528,168) scale(4)"><rect width="6" height="6"/></g>
<g transform="translate(240,192) scale(4)"><rect width="6" height="6"/></g>
<g transform="translate(288,192) scale(4)"><rect width="6" height="6"/></g>
<g transform="translate(336,192) scale(4)"><rect width="6" height="6"/></g>
<g transform="translate(384,192) scale(4)"><rect width="6" height="6"/></g>
<g transform="translate(432,192) scale(4)"><rect width="6" height="6"/></g>
<g transform="translate(480,192) scale(4)"><rect width="6" height="6"/></g>
<g transform="translate(528,192) scale(4)"><rect width="6" height="6"/></g>
<g transform="translate(576,192) scale(4)"><rect width="6" height="6"/></g>
<g transform="translate(624,192) scale(4)"><rect width="6" height="6"/></g>
<g transform="translate(240,216) scale(4)"><rect width="6" height="6"/></g>
<g transform="translate(264,216) scale(4)"><rect width="6" height="6"/></g>
<g transform="translate(288,216) scale(4)"><rect width="6" height="6"/></g>
<g transform="translate(312,216) scale(4)"><rect width="6" height="6"/></g>
<g transform="translate(336,216) scale(4)"><rect width="6" height="6"/></g>
<g transform="translate(432,216) scale(4)"><rect width="6" height="6"/></g>
<g transform="translate(480,216) scale(4)"><rect width="6" height="6"/></g>
<g transform="translate(504,216) scale(4)"><rect width="6" height="6"/></g>
<g transform="translate(528,216) scale(4)"><rect width="6" height="6"/></g>
<g transform="translate(552,216) scale(4)"><rect width="6" height="6"/></g>
<g transform="translate(576,216) scale(4)"><rect width="6" height="6"/></g>
<g transform="translate(48,240) scale(4)"><rect width="6" height="6"/></g>
<g transform="translate(96,240) scale(4)"><rect width="6" height="6"/></g>
<g transform="translate(120,240) scale(4)"><rect width="6" height="6"/></g>
<g transform="translate(144,240) scale(4)"><rect width="6" height="6"/></g>
<g transform="translate(168,240) scale(4)"><rect width="6" height="6"/></g>
<g transform="translate(192,240) scale(4)"><rect width="6" height="6"/></g>
<g transform="translate(312,240) scale(4)"><rect width="6" height="6"/></g>
<g transform="translate(360,240) scale(4)"><rect width="6" height="6"/></g>
<g transform="translate(384,240) scale(4)"><rect width="6" height="6"/></g>
<g transform="translate(576,240) scale(4)"><rect width="6" height="6"/></g>
<g transform="translate(624,240) scale(4)"><rect width="6" height="6"/></g>
<g transform="translate(672,240) scale(4)"><rect width="6" height="6"/></g>
<g transform="translate(696,240) scale(4)"><rect width="6" height="6"/></g>
<g transform="translate(720,240) scale(4)"><rect width="6" height="6"/></g>
<g transform="translate(744,240) scale(4)"><rect width="6" height="6"/></g>
<g transform="translate(768,240) scale(4)"><rect width="6" height="6"/></g>
<g transform="translate(120,264) scale(4)"><rect width="6" height="6"/></g>
<g transform="translate(144,264) scale(4)"><rect width="6" height="6"/></g>
<g transform="translate(168,264) scale(4)"><rect width="6" height="6"/></g>
<g transform="translate(216,264) scale(4)"><rect width="6" height="6"/></g>
<g transform="translate(264,264) scale(4)"><rect width="6" height="6"/></g>
<g transform="translate(360,264) scale(4)"><rect width="6" height="6"/></g>
<g transform="translate(384,264) scale(4)"><rect width="6" height="6"/></g>
<g transform="translate(432,264) scale(4)"><rect width="6" height="6"/></g>
<g transform="translate(456,264) scale(4)"><rect width="6" height="6"/></g>
<g transform="translate(480,264) scale(4)"><rect width="6" height="6"/></g>
<g transform="translate(528,264) scale(4)"><rect width="6" height="6"/></g>
<g transform="translate(552,264) scale(4)"><rect width="6" height="6"/></g>
<g transform="translate(648,264) scale(4)"><rect width="6" height="6"/></g>
<g transform="translate(672,264) scale(4)"><rect width="6" height="6"/></g>
<g transform="translate(696,264) scale(4)"><rect width="6" height="6"/></g>
<g transform="translate(816,264) scale(4)"><rect width="6" height="6"/></g>
<g transform="translate(48,288) scale(4)"><rect width="6" height="6"/></g>
<g transform="translate(72,288) scale(4)"><rect width="6" height="6"/></g>
<g transform="translate(96,288) scale(4)"><rect width="6" height="6"/></g>
<g transform="translate(120,288) scale(4)"><rect width="6" height="6"/></g>
<g transform="translate(192,288) scale(4)"><rect width="6" height="6"/></g>
<g transform="translate(216,288) scale(4)"><rect width="6" height="6"/></g>
<g transform="translate(288,288) scale(4)"><rect width="6" height="6"/></g>
<g transform="translate(336,288) scale(4)"><rect width="6" height="6"/></g>
<g transform="translate(360,288) scale(4)"><rect width="6" height="6"/></g>
<g transform="translate(384,288) scale(4)"><rect width="6" height="6"/></g>
<g transform="translate(408,288) scale(4)"><rect width="6" height="6"/></g>
<g transform="translate(456,288) scale(4)"><rect width="6" height="6"/></g>
<g transform="translate(552,288) scale(4)"><rect width="6" height="6"/></g>
<g transform="translate(576,288) scale(4)"><rect width="6" height="6"/></g>
<g transform="translate(648,288) scale(4)"><rect width="6" height="6"/></g>
<g transform="translate(696,288) scale(4)"><rect width="6" height="6"/></g>
<g transform="translate(720,288) scale(4)"><rect width="6" height="6"/></g>
<g transform="translate(768,288) scale(4)"><rect width="6" height="6"/></g>
<g transform="translate(792,288) scale(4)"><rect width="6" height="6"/></g>
<g transform="translate(48,312) scale(4)"><rect width="6" height="6"/></g>
<g transform="translate(120,312) scale(4)"><rect width="6" height="6"/></g>
<g transform="translate(216,312) scale(4)"><rect width="6" height="6"/></g>
<g transform="translate(264,312) scale(4)"><rect width="6" height="6"/></g>
<g transform="translate(312,312) scale(4)"><rect width="6" height="6"/></g>
<g transform="translate(360,312) scale(4)"><rect width="6" height="6"/></g>
<g transform="translate(432,312) scale(4)"><rect width="6" height="6"/></g>
<g transform="translate(456,312) scale(4)"><rect width="6" height="6"/></g>
<g transform="translate(480,312) scale(4)"><rect width="6" height="6"/></g>
<g transform="translate(552,312) scale(4)"><rect width="6" height="6"/></g>
<g transform="translate(576,312) scale(4)"><rect width="6" height="6"/></g>
<g transform="translate(600,312) scale(4)"><rect width="6" height="6"/></g>
<g transform="translate(648,312) scale(4)"><rect width="6" height="6"/></g>
<g transform="translate(744,312) scale(4)"><rect width="6" height="6"/></g>
<g transform="translate(768,312) scale(4)"><rect width="6" height="6"/></g>
<g transform="translate(792,312) scale(4)"><rect width="6" height="6"/></g>
<g transform="translate(816,312) scale(4)"><rect width="6" height="6"/></g>
<g transform="translate(48,336) scale(4)"><rect width="6" height="6"/></g>
<g transform="translate(72,336) scale(4)"><rect width="6" height="6"/></g>
<g transform="translate(96,336) scale(4)"><rect width="6" height="6"/></g>
<g transform="translate(120,336) scale(4)"><rect width="6" height="6"/></g>
<g transform="translate(168,336) scale(4)"><rect width="6" height="6"/></g>
<g transform="translate(192,336) scale(4)"><rect width="6" height="6"/></g>
<g transform="translate(216,336) scale(4)"><rect width="6" height="6"/></g>
<g transform="translate(240,336) scale(4)"><rect width="6" height="6"/></g>
<g transform="translate(312,336) scale(4)"><rect width="6" height="6"/></g>
<g transform="translate(384,336) scale(4)"><rect width="6" height="6"/></g>
<g transform="translate(408,336) scale(4)"><rect width="6" height="6"/></g>
<g transform="translate(432,336) scale(4)"><rect width="6" height="6"/></g>
<g transform="translate(528,336) scale(4)"><rect width="6" height="6"/></g>
<g transform="translate(624,336) scale(4)"><rect width="6" height="6"/></g>
<g transform="translate(648,336) scale(4)"><rect width="6" height="6"/></g>
<g transform="translate(720,336) scale(4)"><rect width="6" height="6"/></g>
<g transform="translate(744,336) scale(4)"><rect width="6" height="6"/></g>
<g transform="translate(120,360) scale(4)"><rect width="6" height="6"/></g>
<g transform="translate(144,360) scale(4)"><rect width="6" height="6"/></g>
<g transform="translate(264,360) scale(4)"><rect width="6" height="6"/></g>
<g transform="translate(288,360) scale(4)"><rect width="6" height="6"/></g>
<g transform="translate(336,360) scale(4)"><rect width="6" height="6"/></g>
<g transform="translate(408,360) scale(4)"><rect width="6" height="6"/></g>
<g transform="translate(480,360) scale(4)"><rect width="6" height="6"/></g>
<g transform="translate(504,360) scale(4)"><rect width="6" height="6"/></g>
<g transform="translate(528,360) scale(4)"><rect width="6" height="6"/></g>
<g transform="translate(576,360) scale(4)"><rect width="6" height="6"/></g>
<g transform="translate(600,360) scale(4)"><rect width="6" height="6"/></g>
<g transform="translate(672,360) scale(4)"><rect width="6" height="6"/></g>
<g transform="translate(768,360) scale(4)"><rect width="6" height="6"/></g>
<g transform="translate(792,360) scale(4)"><rect width="6" height="6"/></g>
<g transform="translate(816,360) scale(4)"><rect width="6" height="6"/></g>
<g transform="translate(72,384) scale(4)"><rect width="6" height="6"/></g>
<g transform="translate(120,384) scale(4)"><rect width="6" height="6"/></g>
<g transform="translate(168,384) scale(4)"><rect width="6" height="6"/></g>
<g transform="translate(192,384) scale(4)"><rect width="6" height="6"/></g>
<g transform="translate(264,384) scale(4)"><rect width="6" height="6"/></g>
<g transform="translate(312,384) scale(4)"><rect width="6" height="6"/></g>
<g transform="translate(360,384) scale(4)"><rect width="6" height="6"/></g>
<g transform="translate(384,384) scale(4)"><rect width="6" height="6"/></g>
<g transform="translate(408,384) scale(4)"><rect width="6" height="6"/></g>
<g transform="translate(432,384) scale(4)"><rect width="6" height="6"/></g>
<g transform="translate(456,384) scale(4)"><rect width="6" height="6"/></g>
<g transform="translate(624,384) scale(4)"><rect width="6" height="6"/></g>
<g transform="translate(696,384) scale(4)"><rect width="6" height="6"/></g>
<g transform="translate(720,384) scale(4)"><rect width="6" height="6"/></g>
<g transform="translate(744,384) scale(4)"><rect width="6" height="6"/></g>
<g transform="translate(768,384) scale(4)"><rect width="6" height="6"/></g>
<g transform="translate(792,384) scale(4)"><rect width="6" height="6"/></g>
<g transform="translate(72,408) scale(4)"><rect width="6" height="6"/></g>
<g transform="translate(96,408) scale(4)"><rect width="6" height="6"/></g>
<g transform="translate(168,408) scale(4)"><rect width="6" height="6"/></g>
<g transform="translate(216,408) scale(4)"><rect width="6" height="6"/></g>
<g transform="translate(336,408) scale(4)"><rect width="6" height="6"/></g>
<g transform="translate(360,408) scale(4)"><rect width="6" height="6"/></g>
<g transform="translate(408,408) scale(4)"><rect width="6" height="6"/></g>
<g transform="translate(504,408) scale(4)"><rect width="6" height="6"/></g>
<g transform="translate(528,408) scale(4)"><rect width="6" height="6"/></g>
<g transform="translate(552,408) scale(4)"><rect width="6" height="6"/></g>
<g transform="translate(600,408) scale(4)"><rect width="6" height="6"/></g>
<g transform="translate(624,408) scale(4)"><rect width="6" height="6"/></g>
<g transform="translate(672,408) scale(4)"><rect width="6" height="6"/></g>
<g transform="translate(768,408) scale(4)"><rect width="6" height="6"/></g>
<g transform="translate(792,408) scale(4)"><rect width="6" height="6"/></g>
<g transform="translate(816,408) scale(4)"><rect width="6" height="6"/></g>
<g transform="translate(72,432) scale(4)"><rect width="6" height="6"/></g>
<g transform="translate(96,432) scale(4)"><rect width="6" height="6"/></g>
<g transform="translate(120,432) scale(4)"><rect width="6" height="6"/></g>
<g transform="translate(144,432) scale(4)"><rect width="6" height="6"/></g>
<g transform="translate(168,432) scale(4)"><rect width="6" height="6"/></g>
<g transform="translate(192,432) scale(4)"><rect width="6" height="6"/></g>
<g transform="translate(216,432) scale(4)"><rect width="6" height="6"/></g>
<g transform="translate(240,432) scale(4)"><rect width="6" height="6"/></g>
<g transform="translate(264,432) scale(4)"><rect width="6" height="6"/></g>
<g transform="translate(288,432) scale(4)"><rect width="6" height="6"/></g>
<g transform="translate(336,432) scale(4)"><rect width="6" height="6"/></g>
<g transform="translate(360,432) scale(4)"><rect width="6" height="6"/></g>
<g transform="translate(408,432) scale(4)"><rect width="6" height="6"/></g>
<g transform="translate(432,432) scale(4)"><rect width="6" height="6"/></g>
<g transform="translate(456,432) scale(4)"><rect width="6" height="6"/></g>
<g transform="translate(480,432) scale(4)"><rect width="6" height="6"/></g>
<g transform="translate(504,432) scale(4)"><rect width="6" height="6"/></g>
<g transform="translate(528,432) scale(4)"><rect width="6" height="6"/></g>
<g transform="translate(552,432) scale(4)"><rect width="6" height="6"/></g>
<g transform="translate(576,432) scale(4)"><rect width="6" height="6"/></g>
<g transform="translate(600,432) scale(4)"><rect width="6" height="6"/></g>
<g transform="translate(648,432) scale(4)"><rect width="6" height="6"/></g>
<g transform="translate(696,432) scale(4)"><rect width="6" height="6"/></g>
<g transform="translate(720,432) scale(4)"><rect width="6" height="6"/></g>
<g transform="translate(744,432) scale(4)"><rect width="6" height="6"/></g>
<g transform="translate(792,432) scale(4)"><rect width="6" height="6"/></g>
<g transform="translate(120,456) scale(4)"><rect width="6" height="6"/></g>
<g transform="translate(168,456) scale(4)"><rect width="6" height="6"/></g>
<g transform="translate(216,456) scale(4)"><rect width="6" height="6"/></g>
<g transform="translate(288,456) scale(4)"><rect width="6" height="6"/></g>
<g transform="translate(312,456) scale(4)"><rect width="6" height="6"/></g>
<g transform="translate(360,456) scale(4)"><rect width="6" height="6"/></g>
<g transform="translate(504,456) scale(4)"><rect width="6" height="6"/></g>
<g transform="translate(528,456) scale(4)"><rect width="6" height="6"/></g>
<g transform="translate(552,456) scale(4)"><rect width="6" height="6"/></g>
<g transform="translate(600,456) scale(4)"><rect width="6" height="6"/></g>
<g transform="translate(672,456) scale(4)"><rect width="6" height="6"/></g>
<g transform="translate(768,456) scale(4)"><rect width="6" height="6"/></g>
<g transform="translate(792,456) scale(4)"><rect width="6" height="6"/></g>
<g transform="translate(816,456) scale(4)"><rect width="6" height="6"/></g>
<g transform="translate(48,480) scale(4)"><rect width="6" height="6"/></g>
<g transform="translate(120,480) scale(4)"><rect width="6" height="6"/></g>
<g transform="translate(168,480) scale(4)"><rect width="6" height="6"/></g>
<g transform="translate(192,480) scale(4)"><rect width="6" height="6"/></g>
<g transform="translate(264,480) scale(4)"><rect width="6" height="6"/></g>
<g transform="translate(288,480) scale(4)"><rect width="6" height="6"/></g>
<g transform="translate(312,480) scale(4)"><rect width="6" height="6"/></g>
<g transform="translate(336,480) scale(4)"><rect width="6" height="6"/></g>
<g transform="translate(360,480) scale(4)"><rect width="6" height="6"/></g>
<g transform="translate(408,480) scale(4)"><rect width="6" height="6"/></g>
<g transform="translate(480,480) scale(4)"><rect width="6" height="6"/></g>
<g transform="translate(528,480) scale(4)"><rect width="6" height="6"/></g>
<g transform="translate(552,480) scale(4)"><rect width="6" height="6"/></g>
<g transform="translate(576,480) scale(4)"><rect width="6" height="6"/></g>
<g transform="translate(624,480) scale(4)"><rect width="6" height="6"/></g>
<g transform="translate(720,480) scale(4)"><rect width="6" height="6"/></g>
<g transform="translate(768,480) scale(4)"><rect width="6" height="6"/></g>
<g transform="translate(792,480) scale(4)"><rect width="6" height="6"/></g>
<g transform="translate(48,504) scale(4)"><rect width="6" height="6"/></g>
<g transform="translate(120,504) scale(4)"><rect width="6" height="6"/></g>
<g transform="translate(168,504) scale(4)"><rect width="6" height="6"/></g>
<g transform="translate(216,504) scale(4)"><rect width="6" height="6"/></g>
<g transform="translate(264,504) scale(4)"><rect width="6" height="6"/></g>
<g transform="translate(288,504) scale(4)"><rect width="6" height="6"/></g>
<g transform="translate(312,504) scale(4)"><rect width="6" height="6"/></g>
<g transform="translate(336,504) scale(4)"><rect width="6" height="6"/></g>
<g transform="translate(504,504) scale(4)"><rect width="6" height="6"/></g>
<g transform="translate(552,504) scale(4)"><rect width="6" height="6"/></g>
<g transform="translate(576,504) scale(4)"><rect width="6" height="6"/></g>
<g transform="translate(600,504) scale(4)"><rect width="6" height="6"/></g>
<g transform="translate(624,504) scale(4)"><rect width="6" height="6"/></g>
<g transform="translate(648,504) scale(4)"><rect width="6" height="6"/></g>
<g transform="translate(672,504) scale(4)"><rect width="6" height="6"/></g>
<g transform="translate(720,504) scale(4)"><rect width="6" height="6"/></g>
<g transform="translate(768,504) scale(4)"><rect width="6" height="6"/></g>
<g transform="translate(792,504) scale(4)"><rect width="6" height="6"/></g>
<g transform="translate(72,528) scale(4)"><rect width="6" height="6"/></g>
<g transform="translate(96,528) scale(4)"><rect width="6" height="6"/></g>
<g transform="translate(120,528) scale(4)"><rect width="6" height="6"/></g>
<g transform="translate(144,528) scale(4)"><rect width="6" height="6"/></g>
<g transform="translate(168,528) scale(4)"><rect width="6" height="6"/></g>
<g transform="translate(192,528) scale(4)"><rect width="6" height="6"/></g>
<g transform="translate(216,528) scale(4)"><rect width="6" height="6"/></g>
<g transform="translate(240,528) scale(4)"><rect width="6" height="6"/></g>
<g transform="translate(360,528) scale(4)"><rect width="6" height="6"/></g>
<g transform="translate(384,528) scale(4)"><rect width="6" height="6"/></g>
<g transform="translate(480,528) scale(4)"><rect width="6" height="6"/></g>
<g transform="translate(504,528) scale(4)"><rect width="6" height="6"/></g>
<g transform="translate(576,528) scale(4)"><rect width="6" height="6"/></g>
<g transform="translate(600,528) scale(4)"><rect width="6" height="6"/></g>
<g transform="translate(624,528) scale(4)"><rect width="6" height="6"/></g>
<g transform="translate(648,528) scale(4)"><rect width="6" height="6"/></g>
<g transform="translate(696,528) scale(4)"><rect width="6" height="6"/></g>
<g transform="translate(744,528) scale(4)"><rect width="6" height="6"/></g>
<g transform="translate(792,528) scale(4)"><rect width="6" height="6"/></g>
<g transform="translate(816,528) scale(4)"><rect width="6" height="6"/></g>
<g transform="translate(48,552) scale(4)"><rect width="6" height="6"/></g>
<g transform="translate(72,552) scale(4)"><rect width="6" height="6"/></g>
<g transform="translate(96,552) scale(4)"><rect width="6" height="6"/></g>
<g transform="translate(120,552) scale(4)"><rect width="6" height="6"/></g>
<g transform="translate(144,552) scale(4)"><rect width="6" height="6"/></g>
<g transform="translate(168,552) scale(4)"><rect width="6" height="6"/></g>
<g transform="translate(264,552) scale(4)"><rect width="6" height="6"/></g>
<g transform="translate(312,552) scale(4)"><rect width="6" height="6"/></g>
<g transform="translate(360,552) scale(4)"><rect width="6" height="6"/></g>
<g transform="translate(408,552) scale(4)"><rect width="6" height="6"/></g>
<g transform="translate(432,552) scale(4)"><rect width="6" height="6"/></g>
<g transform="translate(504,552) scale(4)"><rect width="6" height="6"/></g>
<g transform="translate(528,552) scale(4)"><rect width="6" height="6"/></g>
<g transform="translate(768,552) scale(4)"><rect width="6" height="6"/></g>
<g transform="translate(792,552) scale(4)"><rect width="6" height="6"/></g>
<g transform="translate(816,552) scale(4)"><rect width="6" height="6"/></g>
<g transform="translate(48,576) scale(4)"><rect width="6" height="6"/></g>
<g transform="translate(96,576) scale(4)"><rect width="6" height="6"/></g>
<g transform="translate(144,576) scale(4)"><rect width="6" height="6"/></g>
<g transform="translate(192,576) scale(4)"><rect width="6" height="6"/></g>
<g transform="translate(216,576) scale(4)"><rect width="6" height="6"/></g>
<g transform="translate(264,576) scale(4)"><rect width="6" height="6"/></g>
<g transform="translate(288,576) scale(4)"><rect width="6" height="6"/></g>
<g transform="translate(312,576) scale(4)"><rect width="6" height="6"/></g>
<g transform="translate(336,576) scale(4)"><rect width="6" height="6"/></g>
<g transform="translate(360,576) scale(4)"><rect width="6" height="6"/></g>
<g transform="translate(384,576) scale(4)"><rect width="6" height="6"/></g>
<g transform="translate(480,576) scale(4)"><rect width="6" height="6"/></g>
<g transform="translate(528,576) scale(4)"><rect width="6" height="6"/></g>
<g transform="translate(648,576) scale(4)"><rect width="6" height="6"/></g>
<g transform="translate(768,576) scale(4)"><rect width="6" height="6"/></g>
<g transform="translate(792,576) scale(4)"><rect width="6" height="6"/></g>
<g transform="translate(48,600) scale(4)"><rect width="6" height="6"/></g>
<g transform="translate(120,600) scale(4)"><rect width="6" height="6"/></g>
<g transform="translate(144,600) scale(4)"><rect width="6" height="6"/></g>
<g transform="translate(168,600) scale(4)"><rect width="6" height="6"/></g>
<g transform="translate(216,600) scale(4)"><rect width="6" height="6"/></g>
<g transform="translate(264,600) scale(4)"><rect width="6" height="6"/></g>
<g transform="translate(288,600) scale(4)"><rect width="6" height="6"/></g>
<g transform="translate(360,600) scale(4)"><rect width="6" height="6"/></g>
<g transform="translate(432,600) scale(4)"><rect width="6" height="6"/></g>
<g transform="translate(480,600) scale(4)"><rect width="6" height="6"/></g>
<g transform="translate(552,600) scale(4)"><rect width="6" height="6"/></g>
<g transform="translate(576,600) scale(4)"><rect width="6" height="6"/></g>
<g transform="translate(672,600) scale(4)"><rect width="6" height="6"/></g>
<g transform="translate(696,600) scale(4)"><rect width="6" height="6"/></g>
<g transform="translate(720,600) scale(4)"><rect width="6" height="6"/></g>
<g transform="translate(744,600) scale(4)"><rect width="6" height="6"/></g>
<g transform="translate(768,600) scale(4)"><rect width="6" height="6"/></g>
<g transform="translate(792,600) scale(4)"><rect width="6" height="6"/></g>
<g transform="translate(48,624) scale(4)"><rect width="6" height="6"/></g>
<g transform="translate(120,624) scale(4)"><rect width="6" height="6"/></g>
<g transform="translate(144,624) scale(4)"><rect width="6" height="6"/></g>
<g transform="translate(192,624) scale(4)"><rect width="6" height="6"/></g>
<g transform="translate(240,624) scale(4)"><rect width="6" height="6"/></g>
<g transform="translate(288,624) scale(4)"><rect width="6" height="6"/></g>
<g transform="translate(336,624) scale(4)"><rect width="6" height="6"/></g>
<g transform="translate(384,624) scale(4)"><rect width="6" height="6"/></g>
<g transform="translate(432,624) scale(4)"><rect width="6" height="6"/></g>
<g transform="translate(456,624) scale(4)"><rect width="6" height="6"/></g>
<g transform="translate(552,624) scale(4)"><rect width="6" height="6"/></g>
<g transform="translate(576,624) scale(4)"><rect width="6" height="6"/></g>
<g transform="translate(624,624) scale(4)"><rect width="6" height="6"/></g>
<g transform="translate(648,624) scale(4)"><rect width="6" height="6"/></g>
<g transform="translate(672,624) scale(4)"><rect width="6" height="6"/></g>
<g transform="translate(696,624) scale(4)"><rect width="6" height="6"/></g>
<g transform="translate(720,624) scale(4)"><rect width="6" height="6"/></g>
<g transform="translate(744,624) scale(4)"><rect width="6" height="6"/></g>
<g transform="translate(792,624) scale(4)"><rect width="6" height="6"/></g>
<g transform="translate(240,648) scale(4)"><rect width="6" height="6"/></g>
<g transform="translate(264,648) scale(4)"><rect width="6" height="6"/></g>
<g transform="translate(360,648) scale(4)"><rect width="6" height="6"/></g>
<g transform="translate(384,648) scale(4)"><rect width="6" height="6"/></g>
<g transform="translate(408,648) scale(4)"><rect width="6" height="6"/></g>
<g transform="translate(432,648) scale(4)"><rect width="6" height="6"/></g>
<g transform="translate(456,648) scale(4)"><rect width="6" height="6"/></g>
<g transform="translate(504,648) scale(4)"><rect width="6" height="6"/></g>
<g transform="translate(528,648) scale(4)"><rect width="6" height="6"/></g>
<g transform="translate(624,648) scale(4)"><rect width="6" height="6"/></g>
<g transform="translate(720,648) scale(4)"><rect width="6" height="6"/></g>
<g transform="translate(816,648) scale(4)"><rect width="6" height="6"/></g>
<g transform="translate(312,672) scale(4)"><rect width="6" height="6"/></g>
<g transform="translate(360,672) scale(4)"><rect width="6" height="6"/></g>
<g transform="translate(384,672) scale(4)"><rect width="6" height="6"/></g>
<g transform="translate(408,672) scale(4)"><rect width="6" height="6"/></g>
<g transform="translate(456,672) scale(4)"><rect width="6" height="6"/></g>
<g transform="translate(600,672) scale(4)"><rect width="6" height="6"/></g>
<g transform="translate(624,672) scale(4)"><rect width="6" height="6"/></g>
<g transform="translate(672,672) scale(4)"><rect width="6" height="6"/></g>
<g transform="translate(720,672) scale(4)"><rect width="6" height="6"/></g>
<g transform="translate(240,696) scale(4)"><rect width="6" height="6"/></g>
<g transform="translate(264,696) scale(4)"><rect width="6" height="6"/></g>
<g transform="translate(288,696) scale(4)"><rect width="6" height="6"/></g>
<g transform="translate(336,696) scale(4)"><rect width="6" height="6"/></g>
<g transform="translate(384,696) scale(4)"><rect width="6" height="6"/></g>
<g transform="translate(432,696) scale(4)"><rect width="6" height="6"/></g>
<g transform="translate(456,696) scale(4)"><rect width="6" height="6"/></g>
<g transform="translate(480,696) scale(4)"><rect width="6" height="6"/></g>
<g transform="translate(552,696) scale(4)"><rect width="6" height="6"/></g>
<g transform="translate(576,696) scale(4)"><rect width="6" height="6"/></g>
<g transform="translate(600,696) scale(4)"><rect width="6" height="6"/></g>
<g transform="translate(624,696) scale(4)"><rect width="6" height="6"/></g>
<g transform="translate(720,696) scale(4)"><rect width="6" height="6"/></g>
<g transform="translate(768,696) scale(4)"><rect width="6" height="6"/></g>
<g transform="translate(792,696) scale(4)"><rect width="6" height="6"/></g>
<g transform="translate(240,720) scale(4)"><rect width="6" height="6"/></g>
<g transform="translate(288,720) scale(4)"><rect width="6" height="6"/></g>
<g transform="translate(432,720) scale(4)"><rect width="6" height="6"/></g>
<g transform="translate(504,720) scale(4)"><rect width="6" height="6"/></g>
<g transform="translate(528,720) scale(4)"><rect width="6" height="6"/></g>
<g transform="translate(624,720) scale(4)"><rect width="6" height="6"/></g>
<g transform="translate(648,720) scale(4)"><rect width="6" height="6"/></g>
<g transform="translate(672,720) scale(4)"><rect width="6" height="6"/></g>
<g transform="translate(696,720) scale(4)"><rect width="6" height="6"/></g>
<g transform="translate(720,720) scale(4)"><rect width="6" height="6"/></g>
<g transform="translate(240,744) scale(4)"><rect width="6" height="6"/></g>
<g transform="translate(312,744) scale(4)"><rect width="6" height="6"/></g>
<g transform="translate(384,744) scale(4)"><rect width="6" height="6"/></g>
<g transform="translate(408,744) scale(4)"><rect width="6" height="6"/></g>
<g transform="translate(480,744) scale(4)"><rect width="6" height="6"/></g>
<g transform="translate(504,744) scale(4)"><rect width="6" height="6"/></g>
<g transform="translate(552,744) scale(4)"><rect width="6" height="6"/></g>
<g transform="translate(576,744) scale(4)"><rect width="6" height="6"/></g>
<g transform="translate(624,744) scale(4)"><rect width="6" height="6"/></g>
<g transform="translate(696,744) scale(4)"><rect width="6" height="6"/></g>
<g transform="translate(720,744) scale(4)"><rect width="6" height="6"/></g>
<g transform="translate(792,744) scale(4)"><rect width="6" height="6"/></g>
<g transform="translate(816,744) scale(4)"><rect width="6" height="6"/></g>
<g transform="translate(240,768) scale(4)"><rect width="6" height="6"/></g>
<g transform="translate(264,768) scale(4)"><rect width="6" height="6"/></g>
<g transform="translate(312,768) scale(4)"><rect width="6" height="6"/></g>
<g transform="translate(336,768) scale(4)"><rect width="6" height="6"/></g>
<g transform="translate(384,768) scale(4)"><rect width="6" height="6"/></g>
<g transform="translate(408,768) scale(4)"><rect width="6" height="6"/></g>
<g transform="translate(432,768) scale(4)"><rect width="6" height="6"/></g>
<g transform="translate(528,768) scale(4)"><rect width="6" height="6"/></g>
<g transform="translate(552,768) scale(4)"><rect width="6" height="6"/></g>
<g transform="translate(576,768) scale(4)"><rect width="6" height="6"/></g>
<g transform="translate(624,768) scale(4)"><rect width="6" height="6"/></g>
<g transform="translate(648,768) scale(4)"><rect width="6" height="6"/></g>
<g transform="translate(672,768) scale(4)"><rect width="6" height="6"/></g>
<g transform="translate(696,768) scale(4)"><rect width="6" height="6"/></g>
<g transform="translate(768,768) scale(4)"><rect width="6" height="6"/></g>
<g transform="translate(264,792) scale(4)"><rect width="6" height="6"/></g>
<g transform="translate(288,792) scale(4)"><rect width="6" height="6"/></g>
<g transform="translate(384,792) scale(4)"><rect width="6" height="6"/></g>
<g transform="translate(408,792) scale(4)"><rect width="6" height="6"/></g>
<g transform="translate(504,792) scale(4)"><rect width="6" height="6"/></g>
<g transform="translate(528,792) scale(4)"><rect width="6" height="6"/></g>
<g transform="translate(552,792) scale(4)"><rect width="6" height="6"/></g>
<g transform="translate(600,792) scale(4)"><rect width="6" height="6"/></g>
<g transform="translate(648,792) scale(4)"><rect width="6" height="6"/></g>
<g transform="translate(672,792) scale(4)"><rect width="6" height="6"/></g>
<g transform="translate(720,792) scale(4)"><rect width="6" height="6"/></g>
<g transform="translate(744,792) scale(4)"><rect width="6" height="6"/></g>
<g transform="translate(768,792) scale(4)"><rect width="6" height="6"/></g>
<g transform="translate(240,816) scale(4)"><rect width="6" height="6"/></g>
<g transform="translate(264,816) scale(4)"><rect width="6" height="6"/></g>
<g transform="translate(336,816) scale(4)"><rect width="6" height="6"/></g>
<g transform="translate(360,816) scale(4)"><rect width="6" height="6"/></g>
<g transform="translate(408,816) scale(4)"><rect width="6" height="6"/></g>
<g transform="translate(456,816) scale(4)"><rect width="6" height="6"/></g>
<g transform="translate(528,816) scale(4)"><rect width="6" height="6"/></g>
<g transform="translate(552,816) scale(4)"><rect width="6" height="6"/></g>
<g transform="translate(576,816) scale(4)"><rect width="6" height="6"/></g>
<g transform="translate(624,816) scale(4)"><rect width="6" height="6"/></g>
<g transform="translate(648,816) scale(4)"><rect width="6" height="6"/></g>
<g transform="translate(672,816) scale(4)"><rect width="6" height="6"/></g>
<g transform="translate(720,816) scale(4)"><rect width="6" height="6"/></g>
<g transform="translate(768,816) scale(4)"><rect width="6" height="6"/></g>
<g transform="translate(792,816) scale(4)"><rect width="6" height="6"/></g>
<g transform="translate(48,48)"><g transform="scale(12)"><path d="M0,0v14h14V0H0z M12,12H2V2h10V12z"/></g></g>
<g transform="translate(672,48)"><g transform="scale(12)"><path d="M0,0v14h14V0H0z M12,12H2V2h10V12z"/></g></g>
<g transform="translate(48,672)"><g transform="scale(12)"><path d="M0,0v14h14V0H0z M12,12H2V2h10V12z"/></g></g>
<g transform="translate(96,96)"><g transform="scale(12)"><rect width="6" height="6"/></g></g>
<g transform="translate(720,96)"><g transform="scale(12)"><rect width="6" height="6"/></g></g>
<g transform="translate(96,720)"><g transform="scale(12)"><rect width="6" height="6"/></g></g>
</g></svg>
