<svg width="232" height="232" viewBox="32 32 232 232" xmlns="http://www.w3.org/2000/svg">
<defs>
<rect id="p" width="8" height="8"/>
</defs>
<g class="qrcode">
<use href="#p" x="32" y="32"/>
<use href="#p" x="32" y="40"/>
<use href="#p" x="32" y="48"/>
<use href="#p" x="32" y="56"/>
<use href="#p" x="32" y="64"/>
<use href="#p" x="32" y="72"/>
<use href="#p" x="32" y="80"/>
<use href="#p" x="32" y="96"/>
<use href="#p" x="32" y="104"/>
<use href="#p" x="32" y="128"/>
<use href="#p" x="32" y="160"/>
<use href="#p" x="32" y="168"/>
<use href="#p" x="32" y="184"/>
<use href="#p" x="32" y="192"/>
<use href="#p" x="32" y="208"/>
<use href="#p" x="32" y="216"/>
<use href="#p" x="32" y="224"/>
<use href="#p" x="32" y="232"/>
<use href="#p" x="32" y="240"/>
<use href="#p" x="32" y="248"/>
<use href="#p" x="32" y="256"/>
<use href="#p" x="40" y="32"/>
<use href="#p" x="40" y="80"/>
<use href="#p" x="40" y="96"/>
<use href="#p" x="40" y="120"/>
<use href="#p" x="40" y="136"/>
<use href="#p" x="40" y="144"/>
<use href="#p" x="40" y="152"/>
<use href="#p" x="40" y="176"/>
<use href="#p" x="40" y="184"/>
<use href="#p" x="40" y="208"/>
<use href="#p" x="40" y="256"/>
<use href="#p" x="48" y="32"/>
<use href="#p" x="48" y="48"/>
<use href="#p" x="48" y="56"/>
<use href="#p" x="48" y="64"/>
<use href="#p" x="48" y="80"/>
<use href="#p" x="48" y="96"/>
<use href="#p" x="48" y="112"/>
<use href="#p" x="48" y="136"/>
<use href="#p" x="48" y="144"/>
<use href="#p" x="48" y="152"/>
<use href="#p" x="48" y="168"/>
<use href="#p" x="48" y="176"/>
<use href="#p" x="48" y="192"/>
<use href="#p" x="48" y="208"/>
<use href="#p" x="48" y="224"/>
<use href="#p" x="48" y="232"/>
<use href="#p" x="48" y="240"/>
<use href="#p" x="48" y="256"/>
<use href="#p" x="56" y="32"/>
<use href="#p" x="56" y="48"/>
<use href="#p" x="56" y="56"/>
<use href="#p" x="56" y="64"/>
<use href="#p" x="56" y="80"/>
<use href="#p" x="56" y="96"/>
<use href="#p" x="56" y="104"/>
<use href="#p" x="56" y="128"/>
<use href="#p" x="56" y="152"/>
<use href="#p" x="56" y="160"/>
<use href="#p" x="56" y="168"/>
<use href="#p" x="56" y="184"/>
<use href="#p" x="56" y="192"/>
<use href="#p" x="56" y="208"/>
<use href="#p" x="56" y="224"/>
<use href="#p" x="56" y="232"/>
<use href="#p" x="56" y="240"/>
<use href="#p" x="56" y="256"/>
<use href="#p" x="64" y="32"/>
<use href="#p" x="64" y="48"/>
<use href="#p" x="64" y="56"/>
<use href="#p" x="64" y="64"/>
<use href="#p" x="64" y="80"/>
<use href="#p" x="64" y="112"/>
<use href="#p" x="64" y="128"/>
<use href="#p" x="64" y="152"/>
<use href="#p" x="64" y="184"/>
<use href="#p" x="64" y="192"/>
<use href="#p" x="64" y="208"/>
<use href="#p" x="64" y="224"/>
<use href="#p" x="64" y="232"/>
<use href="#p" x="64" y="240"/>
<use href="#p" x="64" y="256"/>
<use href="#p" x="72" y="32"/>
<use href="#p" x="72" y="80"/>
<use href="#p" x="72" y="152"/>
<use href="#p" x="72" y="168"/>
<use href="#p" x="72" y="176"/>
<use href="#p" x="72" y="208"/>
<use href="#p" x="72" y="256"/>
<use href="#p" x="80" y="32"/>
<use href="#p" x="80" y="40"/>
<use href="#p" x="80" y="48"/>
<use href="#p" x="80" y="56"/>
<use href="#p" x="80" y="64"/>
<use href="#p" x="80" y="72"/>
<use href="#p" x="80" y="80"/>
<use href="#p" x="80" y="96"/>
<use href="#p" x="80" y="112"/>
<use href="#p" x="80" y="128"/>
<use href="#p" x="80" y="144"/>
<use href="#p" x="80" y="160"/>
<use href="#p" x="80" y="176"/>
<use href="#p" x="80" y="192"/>
<use href="#p" x="80" y="208"/>
<use href="#p" x="80" y="216"/>
<use href="#p" x="80" y="224"/>
<use href="#p" x="80" y="232"/>
<use href="#p" x="80" y="240"/>
<use href="#p" x="80" y="248"/>
<use href="#p" x="80" y="256"/>
<use href="#p" x="88" y="104"/>
<use href="#p" x="88" y="112"/>
<use href="#p" x="88" y="120"/>
<use href="#p" x="88" y="128"/>
<use href="#p" x="88" y="144"/>
<use href="#p" x="88" y="152"/>
<use href="#p" x="88" y="168"/>
<use href="#p" x="88" y="176"/>
<use href="#p" x="88" y="184"/>
<use href="#p" x="88" y="192"/>
<use href="#p" x="96" y="32"/>
<use href="#p" x="96" y="48"/>
<use href="#p" x="96" y="56"/>
<use href="#p" x="96" y="64"/>
<use href="#p" x="96" y="80"/>
<use href="#p" x="96" y="96"/>
<use href="#p" x="96" y="136"/>
<use href="#p" x="96" y="152"/>
<use href="#p" x="96" y="160"/>
<use href="#p" x="96" y="168"/>
<use href="#p" x="96" y="176"/>
<use href="#p" x="96" y="184"/>
<use href="#p" x="96" y="200"/>
<use href="#p" x="96" y="232"/>
<use href="#p" x="96" y="240"/>
<use href="#p" x="96" y="248"/>
<use href="#p" x="96" y="256"/>
<use href="#p" x="104" y="32"/>
<use href="#p" x="104" y="40"/>
<use href="#p" x="104" y="104"/>
<use href="#p" x="104" y="128"/>
<use href="#p" x="104" y="144"/>
<use href="#p" x="104" y="160"/>
<use href="#p" x="104" y="168"/>
<use href="#p" x="104" y="176"/>
<use href="#p" x="104" y="184"/>
<use href="#p" x="104" y="200"/>
<use href="#p" x="104" y="232"/>
<use href="#p" x="104" y="248"/>
<use href="#p" x="104" y="256"/>
<use href="#p" x="112" y="56"/>
<use href="#p" x="112" y="64"/>
<use href="#p" x="112" y="80"/>
<use href="#p" x="112" y="104"/>
<use href="#p" x="112" y="112"/>
<use href="#p" x="112" y="144"/>
<use href="#p" x="112" y="168"/>
<use href="#p" x="112" y="176"/>
<use href="#p" x="112" y="216"/>
<use href="#p" x="112" y="224"/>
<use href="#p" x="112" y="248"/>
<use href="#p" x="112" y="256"/>
<use href="#p" x="120" y="32"/>
<use href="#p" x="120" y="40"/>
<use href="#p" x="120" y="48"/>
<use href="#p" x="120" y="64"/>
<use href="#p" x="120" y="96"/>
<use href="#p" x="120" y="112"/>
<use href="#p" x="120" y="152"/>
<use href="#p" x="120" y="200"/>
<use href="#p" x="120" y="208"/>
<use href="#p" x="120" y="216"/>
<use href="#p" x="120" y="232"/>
<use href="#p" x="120" y="248"/>
<use href="#p" x="120" y="256"/>
<use href="#p" x="128" y="56"/>
<use href="#p" x="128" y="64"/>
<use href="#p" x="128" y="72"/>
<use href="#p" x="128" y="80"/>
<use href="#p" x="128" y="88"/>
<use href="#p" x="128" y="136"/>
<use href="#p" x="128" y="168"/>
<use href="#p" x="128" y="232"/>
<use href="#p" x="128" y="248"/>
<use href="#p" x="136" y="48"/>
<use href="#p" x="136" y="56"/>
<use href="#p" x="136" y="72"/>
<use href="#p" x="136" y="104"/>
<use href="#p" x="136" y="120"/>
<use href="#p" x="136" y="128"/>
<use href="#p" x="136" y="144"/>
<use href="#p" x="136" y="176"/>
<use href="#p" x="136" y="200"/>
<use href="#p" x="136" y="216"/>
<use href="#p" x="136" y="224"/>
<use href="#p" x="144" y="32"/>
<use href="#p" x="144" y="40"/>
<use href="#p" x="144" y="56"/>
<use href="#p" x="144" y="64"/>
<use href="#p" x="144" y="80"/>
<use href="#p" x="144" y="96"/>
<use href="#p" x="144" y="104"/>
<use href="#p" x="144" y="112"/>
<use href="#p" x="144" y="128"/>
<use href="#p" x="144" y="144"/>
<use href="#p" x="144" y="152"/>
<use href="#p" x="144" y="176"/>
<use href="#p" x="144" y="192"/>
<use href="#p" x="144" y="224"/>
<use href="#p" x="144" y="232"/>
<use href="#p" x="144" y="240"/>
<use href="#p" x="152" y="56"/>
<use href="#p" x="152" y="96"/>
<use href="#p" x="152" y="104"/>
<use href="#p" x="152" y="128"/>
<use href="#p" x="152" y="152"/>
<use href="#p" x="152" y="160"/>
<use href="#p" x="152" y="176"/>
<use href="#p" x="152" y="184"/>
<use href="#p" x="152" y="192"/>
<use href="#p" x="152" y="200"/>
<use href="#p" x="152" y="216"/>
<use href="#p" x="152" y="224"/>
<use href="#p" x="152" y="232"/>
<use href="#p" x="160" y="40"/>
<use href="#p" x="160" y="64"/>
<use href="#p" x="160" y="72"/>
<use href="#p" x="160" y="80"/>
<use href="#p" x="160" y="104"/>
<use href="#p" x="160" y="112"/>
<use href="#p" x="160" y="136"/>
<use href="#p" x="160" y="144"/>
<use href="#p" x="160" y="176"/>
<use href="#p" x="160" y="184"/>
<use href="#p" x="160" y="200"/>
<use href="#p" x="160" y="208"/>
<use href="#p" x="160" y="216"/>
<use href="#p" x="160" y="224"/>
<use href="#p" x="160" y="232"/>
<use href="#p" x="160" y="240"/>
<use href="#p" x="168" y="32"/>
<use href="#p" x="168" y="40"/>
<use href="#p" x="168" y="64"/>
<use href="#p" x="168" y="88"/>
<use href="#p" x="168" y="96"/>
<use href="#p" x="168" y="104"/>
<use href="#p" x="168" y="112"/>
<use href="#p" x="168" y="160"/>
<use href="#p" x="168" y="184"/>
<use href="#p" x="168" y="200"/>
<use href="#p" x="168" y="224"/>
<use href="#p" x="176" y="48"/>
<use href="#p" x="176" y="72"/>
<use href="#p" x="176" y="80"/>
<use href="#p" x="176" y="88"/>
<use href="#p" x="176" y="96"/>
<use href="#p" x="176" y="160"/>
<use href="#p" x="176" y="192"/>
<use href="#p" x="176" y="200"/>
<use href="#p" x="176" y="248"/>
<use href="#p" x="176" y="256"/>
<use href="#p" x="184" y="32"/>
<use href="#p" x="184" y="48"/>
<use href="#p" x="184" y="56"/>
<use href="#p" x="184" y="72"/>
<use href="#p" x="184" y="96"/>
<use href="#p" x="184" y="136"/>
<use href="#p" x="184" y="144"/>
<use href="#p" x="184" y="184"/>
<use href="#p" x="184" y="192"/>
<use href="#p" x="184" y="200"/>
<use href="#p" x="184" y="232"/>
<use href="#p" x="184" y="248"/>
<use href="#p" x="184" y="256"/>
<use href="#p" x="192" y="40"/>
<use href="#p" x="192" y="48"/>
<use href="#p" x="192" y="80"/>
<use href="#p" x="192" y="88"/>
<use href="#p" x="192" y="96"/>
<use href="#p" x="192" y="104"/>
<use href="#p" x="192" y="112"/>
<use href="#p" x="192" y="120"/>
<use href="#p" x="192" y="128"/>
<use href="#p" x="192" y="168"/>
<use href="#p" x="192" y="176"/>
<use href="#p" x="192" y="192"/>
<use href="#p" x="192" y="200"/>
<use href="#p" x="192" y="208"/>
<use href="#p" x="192" y="216"/>
<use href="#p" x="192" y="224"/>
<use href="#p" x="192" y="256"/>
<use href="#p" x="200" y="96"/>
<use href="#p" x="200" y="104"/>
<use href="#p" x="200" y="120"/>
<use href="#p" x="200" y="136"/>
<use href="#p" x="200" y="160"/>
<use href="#p" x="200" y="168"/>
<use href="#p" x="200" y="192"/>
<use href="#p" x="200" y="224"/>
<use href="#p" x="200" y="232"/>
<use href="#p" x="200" y="256"/>
<use href="#p" x="208" y="32"/>
<use href="#p" x="208" y="40"/>
<use href="#p" x="208" y="48"/>
<use href="#p" x="208" y="56"/>
<use href="#p" x="208" y="64"/>
<use href="#p" x="208" y="72"/>
<use href="#p" x="208" y="80"/>
<use href="#p" x="208" y="104"/>
<use href="#p" x="208" y="136"/>
<use href="#p" x="208" y="144"/>
<use href="#p" x="208" y="192"/>
<use href="#p" x="208" y="208"/>
<use href="#p" x="208" y="224"/>
<use href="#p" x="208" y="240"/>
<use href="#p" x="208" y="256"/>
<use href="#p" x="216" y="32"/>
<use href="#p" x="216" y="80"/>
<use href="#p" x="216" y="104"/>
<use href="#p" x="216" y="128"/>
<use href="#p" x="216" y="144"/>
<use href="#p" x="216" y="152"/>
<use href="#p" x="216" y="168"/>
<use href="#p" x="216" y="192"/>
<use href="#p" x="216" y="224"/>
<use href="#p" x="224" y="32"/>
<use href="#p" x="224" y="48"/>
<use href="#p" x="224" y="56"/>
<use href="#p" x="224" y="64"/>
<use href="#p" x="224" y="80"/>
<use href="#p" x="224" y="96"/>
<use href="#p" x="224" y="104"/>
<use href="#p" x="224" y="112"/>
<use href="#p" x="224" y="152"/>
<use href="#p" x="224" y="160"/>
<use href="#p" x="224" y="192"/>
<use href="#p" x="224" y="200"/>
<use href="#p" x="224" y="208"/>
<use href="#p" x="224" y="216"/>
<use href="#p" x="224" y="224"/>
<use href="#p" x="224" y="232"/>
<use href="#p" x="232" y="32"/>
<use href="#p" x="232" y="48"/>
<use href="#p" x="232" y="56"/>
<use href="#p" x="232" y="64"/>
<use href="#p" x="232" y="80"/>
<use href="#p" x="232" y="96"/>
<use href="#p" x="232" y="120"/>
<use href="#p" x="232" y="136"/>
<use href="#p" x="232" y="176"/>
<use href="#p" x="232" y="184"/>
<use href="#p" x="232" y="192"/>
<use href="#p" x="232" y="200"/>
<use href="#p" x="232" y="216"/>
<use href="#p" x="232" y="224"/>
<use href="#p" x="232" y="240"/>
<use href="#p" x="232" y="248"/>
<use href="#p" x="240" y="32"/>
<use href="#p" x="240" y="48"/>
<use href="#p" x="240" y="56"/>
<use href="#p" x="240" y="64"/>
<use href="#p" x="240" y="80"/>
<use href="#p" x="240" y="96"/>
<use href="#p" x="240" y="104"/>
<use href="#p" x="240" y="128"/>
<use href="#p" x="240" y="144"/>
<use href="#p" x="240" y="168"/>
<use href="#p" x="240" y="176"/>
<use href="#p" x="240" y="184"/>
<use href="#p" x="240" y="192"/>
<use href="#p" x="240" y="224"/>
<use href="#p" x="240" y="232"/>
<use href="#p" x="240" y="240"/>
<use href="#p" x="248" y="32"/>
<use href="#p" x="248" y="80"/>
<use href="#p" x="248" y="128"/>
<use href="#p" x="248" y="136"/>
<use href="#p" x="248" y="144"/>
<use href="#p" x="248" y="152"/>
<use href="#p" x="248" y="168"/>
<use href="#p" x="248" y="184"/>
<use href="#p" x="248" y="192"/>
<use href="#p" x="248" y="208"/>
<use href="#p" x="248" y="216"/>
<use href="#p" x="248" y="232"/>
<use href="#p" x="248" y="248"/>
<use href="#p" x="248" y="256"/>
<use href="#p" x="256" y="32"/>
<use href="#p" x="256" y="40"/>
<use href="#p" x="256" y="48"/>
<use href="#p" x="256" y="56"/>
<use href="#p" x="256" y="64"/>
<use href="#p" x="256" y="72"/>
<use href="#p" x="256" y="80"/>
<use href="#p" x="256" y="96"/>
<use href="#p" x="256" y="104"/>
<use href="#p" x="256" y="120"/>
<use href="#p" x="256" y="136"/>
<use href="#p" x="256" y="144"/>
<use href="#p" x="256" y="160"/>
<use href="#p" x="256" y="184"/>
<use href="#p" x="256" y="192"/>
<use href="#p" x="256" y="200"/>
<use href="#p" x="256" y="216"/>
<use href="#p" x="256" y="232"/>
<use href="#p" x="256" y="240"/>
</g></svg>