<svg width="328" height="328" viewBox="32 32 328 328" xmlns="http://www.w3.org/2000/svg">
<defs>
<rect id="p" width="8" height="8"/>
</defs>
<g class="qrcode">
<use href="#p" x="32" y="32"/>
<use href="#p" x="32" y="40"/>
<use href="#p" x="32" y="48"/>
<use href="#p" x="32" y="56"/>
<use href="#p" x="32" y="64"/>
<use href="#p" x="32" y="72"/>
<use href="#p" x="32" y="80"/>
<use href="#p" x="32" y="96"/>
<use href="#p" x="32" y="112"/>
<use href="#p" x="32" y="120"/>
<use href="#p" x="32" y="128"/>
<use href="#p" x="32" y="160"/>
<use href="#p" x="32" y="176"/>
<use href="#p" x="32" y="192"/>
<use href="#p" x="32" y="216"/>
<use href="#p" x="32" y="240"/>
<use href="#p" x="32" y="248"/>
<use href="#p" x="32" y="256"/>
<use href="#p" x="32" y="264"/>
<use href="#p" x="32" y="280"/>
<use href="#p" x="32" y="288"/>
<use href="#p" x="32" y="304"/>
<use href="#p" x="32" y="312"/>
<use href="#p" x="32" y="320"/>
<use href="#p" x="32" y="328"/>
<use href="#p" x="32" y="336"/>
<use href="#p" x="32" y="344"/>
<use href="#p" x="32" y="352"/>
<use href="#p" x="40" y="32"/>
<use href="#p" x="40" y="80"/>
<use href="#p" x="40" y="96"/>
<use href="#p" x="40" y="160"/>
<use href="#p" x="40" y="168"/>
<use href="#p" x="40" y="176"/>
<use href="#p" x="40" y="208"/>
<use href="#p" x="40" y="216"/>
<use href="#p" x="40" y="224"/>
<use href="#p" x="40" y="264"/>
<use href="#p" x="40" y="272"/>
<use href="#p" x="40" y="280"/>
<use href="#p" x="40" y="304"/>
<use href="#p" x="40" y="352"/>
<use href="#p" x="48" y="32"/>
<use href="#p" x="48" y="48"/>
<use href="#p" x="48" y="56"/>
<use href="#p" x="48" y="64"/>
<use href="#p" x="48" y="80"/>
<use href="#p" x="48" y="96"/>
<use href="#p" x="48" y="112"/>
<use href="#p" x="48" y="120"/>
<use href="#p" x="48" y="136"/>
<use href="#p" x="48" y="160"/>
<use href="#p" x="48" y="168"/>
<use href="#p" x="48" y="200"/>
<use href="#p" x="48" y="208"/>
<use href="#p" x="48" y="224"/>
<use href="#p" x="48" y="232"/>
<use href="#p" x="48" y="240"/>
<use href="#p" x="48" y="248"/>
<use href="#p" x="48" y="256"/>
<use href="#p" x="48" y="264"/>
<use href="#p" x="48" y="272"/>
<use href="#p" x="48" y="288"/>
<use href="#p" x="48" y="304"/>
<use href="#p" x="48" y="320"/>
<use href="#p" x="48" y="328"/>
<use href="#p" x="48" y="336"/>
<use href="#p" x="48" y="352"/>
<use href="#p" x="56" y="32"/>
<use href="#p" x="56" y="48"/>
<use href="#p" x="56" y="56"/>
<use href="#p" x="56" y="64"/>
<use href="#p" x="56" y="80"/>
<use href="#p" x="56" y="96"/>
<use href="#p" x="56" y="104"/>
<use href="#p" x="56" y="112"/>
<use href="#p" x="56" y="152"/>
<use href="#p" x="56" y="168"/>
<use href="#p" x="56" y="176"/>
<use href="#p" x="56" y="184"/>
<use href="#p" x="56" y="208"/>
<use href="#p" x="56" y="216"/>
<use href="#p" x="56" y="224"/>
<use href="#p" x="56" y="264"/>
<use href="#p" x="56" y="272"/>
<use href="#p" x="56" y="288"/>
<use href="#p" x="56" y="304"/>
<use href="#p" x="56" y="320"/>
<use href="#p" x="56" y="328"/>
<use href="#p" x="56" y="336"/>
<use href="#p" x="56" y="352"/>
<use href="#p" x="64" y="32"/>
<use href="#p" x="64" y="48"/>
<use href="#p" x="64" y="56"/>
<use href="#p" x="64" y="64"/>
<use href="#p" x="64" y="80"/>
<use href="#p" x="64" y="112"/>
<use href="#p" x="64" y="128"/>
<use href="#p" x="64" y="136"/>
<use href="#p" x="64" y="144"/>
<use href="#p" x="64" y="176"/>
<use href="#p" x="64" y="200"/>
<use href="#p" x="64" y="224"/>
<use href="#p" x="64" y="232"/>
<use href="#p" x="64" y="240"/>
<use href="#p" x="64" y="272"/>
<use href="#p" x="64" y="280"/>
<use href="#p" x="64" y="304"/>
<use href="#p" x="64" y="320"/>
<use href="#p" x="64" y="328"/>
<use href="#p" x="64" y="336"/>
<use href="#p" x="64" y="352"/>
<use href="#p" x="72" y="32"/>
<use href="#p" x="72" y="80"/>
<use href="#p" x="72" y="112"/>
<use href="#p" x="72" y="120"/>
<use href="#p" x="72" y="128"/>
<use href="#p" x="72" y="152"/>
<use href="#p" x="72" y="184"/>
<use href="#p" x="72" y="192"/>
<use href="#p" x="72" y="208"/>
<use href="#p" x="72" y="216"/>
<use href="#p" x="72" y="240"/>
<use href="#p" x="72" y="248"/>
<use href="#p" x="72" y="264"/>
<use href="#p" x="72" y="272"/>
<use href="#p" x="72" y="280"/>
<use href="#p" x="72" y="304"/>
<use href="#p" x="72" y="352"/>
<use href="#p" x="80" y="32"/>
<use href="#p" x="80" y="40"/>
<use href="#p" x="80" y="48"/>
<use href="#p" x="80" y="56"/>
<use href="#p" x="80" y="64"/>
<use href="#p" x="80" y="72"/>
<use href="#p" x="80" y="80"/>
<use href="#p" x="80" y="96"/>
<use href="#p" x="80" y="112"/>
<use href="#p" x="80" y="128"/>
<use href="#p" x="80" y="144"/>
<use href="#p" x="80" y="160"/>
<use href="#p" x="80" y="176"/>
<use href="#p" x="80" y="192"/>
<use href="#p" x="80" y="208"/>
<use href="#p" x="80" y="224"/>
<use href="#p" x="80" y="240"/>
<use href="#p" x="80" y="256"/>
<use href="#p" x="80" y="272"/>
<use href="#p" x="80" y="288"/>
<use href="#p" x="80" y="304"/>
<use href="#p" x="80" y="312"/>
<use href="#p" x="80" y="320"/>
<use href="#p" x="80" y="328"/>
<use href="#p" x="80" y="336"/>
<use href="#p" x="80" y="344"/>
<use href="#p" x="80" y="352"/>
<use href="#p" x="88" y="112"/>
<use href="#p" x="88" y="128"/>
<use href="#p" x="88" y="136"/>
<use href="#p" x="88" y="144"/>
<use href="#p" x="88" y="152"/>
<use href="#p" x="88" y="184"/>
<use href="#p" x="88" y="200"/>
<use href="#p" x="88" y="208"/>
<use href="#p" x="88" y="216"/>
<use href="#p" x="88" y="224"/>
<use href="#p" x="88" y="240"/>
<use href="#p" x="88" y="248"/>
<use href="#p" x="88" y="264"/>
<use href="#p" x="88" y="280"/>
<use href="#p" x="96" y="32"/>
<use href="#p" x="96" y="48"/>
<use href="#p" x="96" y="56"/>
<use href="#p" x="96" y="64"/>
<use href="#p" x="96" y="80"/>
<use href="#p" x="96" y="96"/>
<use href="#p" x="96" y="144"/>
<use href="#p" x="96" y="152"/>
<use href="#p" x="96" y="168"/>
<use href="#p" x="96" y="176"/>
<use href="#p" x="96" y="216"/>
<use href="#p" x="96" y="232"/>
<use href="#p" x="96" y="256"/>
<use href="#p" x="96" y="272"/>
<use href="#p" x="96" y="280"/>
<use href="#p" x="96" y="288"/>
<use href="#p" x="96" y="296"/>
<use href="#p" x="96" y="328"/>
<use href="#p" x="96" y="336"/>
<use href="#p" x="96" y="344"/>
<use href="#p" x="96" y="352"/>
<use href="#p" x="104" y="56"/>
<use href="#p" x="104" y="64"/>
<use href="#p" x="104" y="72"/>
<use href="#p" x="104" y="112"/>
<use href="#p" x="104" y="136"/>
<use href="#p" x="104" y="144"/>
<use href="#p" x="104" y="152"/>
<use href="#p" x="104" y="200"/>
<use href="#p" x="104" y="280"/>
<use href="#p" x="104" y="336"/>
<use href="#p" x="112" y="56"/>
<use href="#p" x="112" y="72"/>
<use href="#p" x="112" y="80"/>
<use href="#p" x="112" y="136"/>
<use href="#p" x="112" y="144"/>
<use href="#p" x="112" y="160"/>
<use href="#p" x="112" y="184"/>
<use href="#p" x="112" y="200"/>
<use href="#p" x="112" y="224"/>
<use href="#p" x="112" y="232"/>
<use href="#p" x="112" y="240"/>
<use href="#p" x="112" y="256"/>
<use href="#p" x="112" y="264"/>
<use href="#p" x="112" y="296"/>
<use href="#p" x="112" y="304"/>
<use href="#p" x="112" y="320"/>
<use href="#p" x="112" y="352"/>
<use href="#p" x="120" y="64"/>
<use href="#p" x="120" y="72"/>
<use href="#p" x="120" y="136"/>
<use href="#p" x="120" y="160"/>
<use href="#p" x="120" y="168"/>
<use href="#p" x="120" y="184"/>
<use href="#p" x="120" y="192"/>
<use href="#p" x="120" y="216"/>
<use href="#p" x="120" y="224"/>
<use href="#p" x="120" y="248"/>
<use href="#p" x="120" y="256"/>
<use href="#p" x="120" y="280"/>
<use href="#p" x="120" y="296"/>
<use href="#p" x="120" y="304"/>
<use href="#p" x="120" y="320"/>
<use href="#p" x="120" y="328"/>
<use href="#p" x="120" y="336"/>
<use href="#p" x="120" y="344"/>
<use href="#p" x="128" y="56"/>
<use href="#p" x="128" y="80"/>
<use href="#p" x="128" y="88"/>
<use href="#p" x="128" y="104"/>
<use href="#p" x="128" y="112"/>
<use href="#p" x="128" y="144"/>
<use href="#p" x="128" y="152"/>
<use href="#p" x="128" y="168"/>
<use href="#p" x="128" y="216"/>
<use href="#p" x="128" y="224"/>
<use href="#p" x="128" y="232"/>
<use href="#p" x="128" y="240"/>
<use href="#p" x="128" y="256"/>
<use href="#p" x="128" y="288"/>
<use href="#p" x="128" y="304"/>
<use href="#p" x="128" y="320"/>
<use href="#p" x="128" y="328"/>
<use href="#p" x="136" y="48"/>
<use href="#p" x="136" y="72"/>
<use href="#p" x="136" y="96"/>
<use href="#p" x="136" y="104"/>
<use href="#p" x="136" y="112"/>
<use href="#p" x="136" y="144"/>
<use href="#p" x="136" y="160"/>
<use href="#p" x="136" y="168"/>
<use href="#p" x="136" y="192"/>
<use href="#p" x="136" y="200"/>
<use href="#p" x="136" y="216"/>
<use href="#p" x="136" y="232"/>
<use href="#p" x="136" y="248"/>
<use href="#p" x="136" y="264"/>
<use href="#p" x="136" y="272"/>
<use href="#p" x="136" y="288"/>
<use href="#p" x="136" y="312"/>
<use href="#p" x="136" y="328"/>
<use href="#p" x="136" y="336"/>
<use href="#p" x="136" y="352"/>
<use href="#p" x="144" y="32"/>
<use href="#p" x="144" y="40"/>
<use href="#p" x="144" y="48"/>
<use href="#p" x="144" y="72"/>
<use href="#p" x="144" y="80"/>
<use href="#p" x="144" y="96"/>
<use href="#p" x="144" y="104"/>
<use href="#p" x="144" y="128"/>
<use href="#p" x="144" y="136"/>
<use href="#p" x="144" y="144"/>
<use href="#p" x="144" y="152"/>
<use href="#p" x="144" y="200"/>
<use href="#p" x="144" y="224"/>
<use href="#p" x="144" y="240"/>
<use href="#p" x="144" y="272"/>
<use href="#p" x="144" y="280"/>
<use href="#p" x="144" y="288"/>
<use href="#p" x="144" y="304"/>
<use href="#p" x="144" y="312"/>
<use href="#p" x="144" y="344"/>
<use href="#p" x="152" y="32"/>
<use href="#p" x="152" y="48"/>
<use href="#p" x="152" y="56"/>
<use href="#p" x="152" y="72"/>
<use href="#p" x="152" y="88"/>
<use href="#p" x="152" y="96"/>
<use href="#p" x="152" y="104"/>
<use href="#p" x="152" y="152"/>
<use href="#p" x="152" y="168"/>
<use href="#p" x="152" y="176"/>
<use href="#p" x="152" y="200"/>
<use href="#p" x="152" y="208"/>
<use href="#p" x="152" y="216"/>
<use href="#p" x="152" y="272"/>
<use href="#p" x="152" y="296"/>
<use href="#p" x="152" y="336"/>
<use href="#p" x="152" y="352"/>
<use href="#p" x="160" y="32"/>
<use href="#p" x="160" y="64"/>
<use href="#p" x="160" y="72"/>
<use href="#p" x="160" y="80"/>
<use href="#p" x="160" y="88"/>
<use href="#p" x="160" y="104"/>
<use href="#p" x="160" y="112"/>
<use href="#p" x="160" y="120"/>
<use href="#p" x="160" y="128"/>
<use href="#p" x="160" y="160"/>
<use href="#p" x="160" y="168"/>
<use href="#p" x="160" y="176"/>
<use href="#p" x="160" y="184"/>
<use href="#p" x="160" y="192"/>
<use href="#p" x="160" y="200"/>
<use href="#p" x="160" y="224"/>
<use href="#p" x="160" y="232"/>
<use href="#p" x="160" y="248"/>
<use href="#p" x="160" y="256"/>
<use href="#p" x="160" y="264"/>
<use href="#p" x="160" y="272"/>
<use href="#p" x="160" y="296"/>
<use href="#p" x="160" y="304"/>
<use href="#p" x="160" y="312"/>
<use href="#p" x="160" y="328"/>
<use href="#p" x="160" y="336"/>
<use href="#p" x="160" y="344"/>
<use href="#p" x="168" y="64"/>
<use href="#p" x="168" y="88"/>
<use href="#p" x="168" y="96"/>
<use href="#p" x="168" y="104"/>
<use href="#p" x="168" y="128"/>
<use href="#p" x="168" y="160"/>
<use href="#p" x="168" y="168"/>
<use href="#p" x="168" y="184"/>
<use href="#p" x="168" y="200"/>
<use href="#p" x="168" y="208"/>
<use href="#p" x="168" y="224"/>
<use href="#p" x="168" y="240"/>
<use href="#p" x="168" y="248"/>
<use href="#p" x="168" y="256"/>
<use href="#p" x="168" y="264"/>
<use href="#p" x="168" y="272"/>
<use href="#p" x="168" y="280"/>
<use href="#p" x="168" y="288"/>
<use href="#p" x="168" y="304"/>
<use href="#p" x="168" y="336"/>
<use href="#p" x="176" y="48"/>
<use href="#p" x="176" y="80"/>
<use href="#p" x="176" y="88"/>
<use href="#p" x="176" y="96"/>
<use href="#p" x="176" y="104"/>
<use href="#p" x="176" y="128"/>
<use href="#p" x="176" y="136"/>
<use href="#p" x="176" y="144"/>
<use href="#p" x="176" y="152"/>
<use href="#p" x="176" y="160"/>
<use href="#p" x="176" y="176"/>
<use href="#p" x="176" y="184"/>
<use href="#p" x="176" y="200"/>
<use href="#p" x="176" y="216"/>
<use href="#p" x="176" y="240"/>
<use href="#p" x="176" y="248"/>
<use href="#p" x="176" y="256"/>
<use href="#p" x="176" y="272"/>
<use href="#p" x="176" y="288"/>
<use href="#p" x="176" y="296"/>
<use href="#p" x="176" y="312"/>
<use href="#p" x="176" y="320"/>
<use href="#p" x="176" y="328"/>
<use href="#p" x="176" y="336"/>
<use href="#p" x="176" y="352"/>
<use href="#p" x="184" y="32"/>
<use href="#p" x="184" y="72"/>
<use href="#p" x="184" y="96"/>
<use href="#p" x="184" y="120"/>
<use href="#p" x="184" y="128"/>
<use href="#p" x="184" y="136"/>
<use href="#p" x="184" y="144"/>
<use href="#p" x="184" y="168"/>
<use href="#p" x="184" y="192"/>
<use href="#p" x="184" y="200"/>
<use href="#p" x="184" y="232"/>
<use href="#p" x="184" y="240"/>
<use href="#p" x="184" y="248"/>
<use href="#p" x="184" y="256"/>
<use href="#p" x="184" y="264"/>
<use href="#p" x="184" y="280"/>
<use href="#p" x="184" y="288"/>
<use href="#p" x="184" y="312"/>
<use href="#p" x="184" y="320"/>
<use href="#p" x="184" y="336"/>
<use href="#p" x="184" y="344"/>
<use href="#p" x="192" y="48"/>
<use href="#p" x="192" y="80"/>
<use href="#p" x="192" y="96"/>
<use href="#p" x="192" y="104"/>
<use href="#p" x="192" y="144"/>
<use href="#p" x="192" y="152"/>
<use href="#p" x="192" y="168"/>
<use href="#p" x="192" y="176"/>
<use href="#p" x="192" y="192"/>
<use href="#p" x="192" y="200"/>
<use href="#p" x="192" y="208"/>
<use href="#p" x="192" y="216"/>
<use href="#p" x="192" y="224"/>
<use href="#p" x="192" y="264"/>
<use href="#p" x="192" y="272"/>
<use href="#p" x="192" y="296"/>
<use href="#p" x="192" y="320"/>
<use href="#p" x="200" y="96"/>
<use href="#p" x="200" y="104"/>
<use href="#p" x="200" y="112"/>
<use href="#p" x="200" y="128"/>
<use href="#p" x="200" y="152"/>
<use href="#p" x="200" y="160"/>
<use href="#p" x="200" y="200"/>
<use href="#p" x="200" y="240"/>
<use href="#p" x="200" y="248"/>
<use href="#p" x="200" y="256"/>
<use href="#p" x="200" y="264"/>
<use href="#p" x="200" y="272"/>
<use href="#p" x="200" y="288"/>
<use href="#p" x="200" y="296"/>
<use href="#p" x="200" y="344"/>
<use href="#p" x="200" y="352"/>
<use href="#p" x="208" y="56"/>
<use href="#p" x="208" y="72"/>
<use href="#p" x="208" y="80"/>
<use href="#p" x="208" y="88"/>
<use href="#p" x="208" y="104"/>
<use href="#p" x="208" y="128"/>
<use href="#p" x="208" y="160"/>
<use href="#p" x="208" y="168"/>
<use href="#p" x="208" y="176"/>
<use href="#p" x="208" y="184"/>
<use href="#p" x="208" y="232"/>
<use href="#p" x="208" y="272"/>
<use href="#p" x="208" y="280"/>
<use href="#p" x="208" y="304"/>
<use href="#p" x="208" y="320"/>
<use href="#p" x="208" y="344"/>
<use href="#p" x="208" y="352"/>
<use href="#p" x="216" y="32"/>
<use href="#p" x="216" y="40"/>
<use href="#p" x="216" y="96"/>
<use href="#p" x="216" y="104"/>
<use href="#p" x="216" y="112"/>
<use href="#p" x="216" y="120"/>
<use href="#p" x="216" y="128"/>
<use href="#p" x="216" y="152"/>
<use href="#p" x="216" y="168"/>
<use href="#p" x="216" y="200"/>
<use href="#p" x="216" y="208"/>
<use href="#p" x="216" y="224"/>
<use href="#p" x="216" y="256"/>
<use href="#p" x="216" y="280"/>
<use href="#p" x="216" y="296"/>
<use href="#p" x="216" y="304"/>
<use href="#p" x="224" y="48"/>
<use href="#p" x="224" y="56"/>
<use href="#p" x="224" y="64"/>
<use href="#p" x="224" y="72"/>
<use href="#p" x="224" y="80"/>
<use href="#p" x="224" y="88"/>
<use href="#p" x="224" y="112"/>
<use href="#p" x="224" y="120"/>
<use href="#p" x="224" y="128"/>
<use href="#p" x="224" y="136"/>
<use href="#p" x="224" y="152"/>
<use href="#p" x="224" y="160"/>
<use href="#p" x="224" y="208"/>
<use href="#p" x="224" y="232"/>
<use href="#p" x="224" y="240"/>
<use href="#p" x="224" y="264"/>
<use href="#p" x="224" y="280"/>
<use href="#p" x="224" y="312"/>
<use href="#p" x="224" y="328"/>
<use href="#p" x="224" y="336"/>
<use href="#p" x="224" y="344"/>
<use href="#p" x="232" y="40"/>
<use href="#p" x="232" y="48"/>
<use href="#p" x="232" y="72"/>
<use href="#p" x="232" y="104"/>
<use href="#p" x="232" y="112"/>
<use href="#p" x="232" y="120"/>
<use href="#p" x="232" y="128"/>
<use href="#p" x="232" y="160"/>
<use href="#p" x="232" y="168"/>
<use href="#p" x="232" y="200"/>
<use href="#p" x="232" y="216"/>
<use href="#p" x="232" y="224"/>
<use href="#p" x="232" y="240"/>
<use href="#p" x="232" y="264"/>
<use href="#p" x="232" y="272"/>
<use href="#p" x="232" y="304"/>
<use href="#p" x="232" y="312"/>
<use href="#p" x="232" y="320"/>
<use href="#p" x="232" y="328"/>
<use href="#p" x="232" y="352"/>
<use href="#p" x="240" y="32"/>
<use href="#p" x="240" y="48"/>
<use href="#p" x="240" y="56"/>
<use href="#p" x="240" y="64"/>
<use href="#p" x="240" y="80"/>
<use href="#p" x="240" y="96"/>
<use href="#p" x="240" y="104"/>
<use href="#p" x="240" y="160"/>
<use href="#p" x="240" y="184"/>
<use href="#p" x="240" y="192"/>
<use href="#p" x="240" y="216"/>
<use href="#p" x="240" y="224"/>
<use href="#p" x="240" y="232"/>
<use href="#p" x="240" y="248"/>
<use href="#p" x="240" y="264"/>
<use href="#p" x="240" y="288"/>
<use href="#p" x="240" y="312"/>
<use href="#p" x="240" y="336"/>
<use href="#p" x="240" y="344"/>
<use href="#p" x="248" y="48"/>
<use href="#p" x="248" y="96"/>
<use href="#p" x="248" y="152"/>
<use href="#p" x="248" y="160"/>
<use href="#p" x="248" y="168"/>
<use href="#p" x="248" y="176"/>
<use href="#p" x="248" y="184"/>
<use href="#p" x="248" y="192"/>
<use href="#p" x="248" y="216"/>
<use href="#p" x="248" y="224"/>
<use href="#p" x="248" y="232"/>
<use href="#p" x="248" y="264"/>
<use href="#p" x="248" y="272"/>
<use href="#p" x="248" y="288"/>
<use href="#p" x="248" y="312"/>
<use href="#p" x="248" y="328"/>
<use href="#p" x="248" y="344"/>
<use href="#p" x="248" y="352"/>
<use href="#p" x="256" y="32"/>
<use href="#p" x="256" y="40"/>
<use href="#p" x="256" y="56"/>
<use href="#p" x="256" y="64"/>
<use href="#p" x="256" y="80"/>
<use href="#p" x="256" y="96"/>
<use href="#p" x="256" y="112"/>
<use href="#p" x="256" y="128"/>
<use href="#p" x="256" y="136"/>
<use href="#p" x="256" y="176"/>
<use href="#p" x="256" y="184"/>
<use href="#p" x="256" y="192"/>
<use href="#p" x="256" y="200"/>
<use href="#p" x="256" y="208"/>
<use href="#p" x="256" y="232"/>
<use href="#p" x="256" y="256"/>
<use href="#p" x="256" y="272"/>
<use href="#p" x="256" y="288"/>
<use href="#p" x="256" y="296"/>
<use href="#p" x="256" y="328"/>
<use href="#p" x="264" y="40"/>
<use href="#p" x="264" y="88"/>
<use href="#p" x="264" y="96"/>
<use href="#p" x="264" y="104"/>
<use href="#p" x="264" y="136"/>
<use href="#p" x="264" y="184"/>
<use href="#p" x="264" y="208"/>
<use href="#p" x="264" y="224"/>
<use href="#p" x="264" y="232"/>
<use href="#p" x="264" y="280"/>
<use href="#p" x="264" y="288"/>
<use href="#p" x="272" y="32"/>
<use href="#p" x="272" y="40"/>
<use href="#p" x="272" y="72"/>
<use href="#p" x="272" y="80"/>
<use href="#p" x="272" y="96"/>
<use href="#p" x="272" y="104"/>
<use href="#p" x="272" y="112"/>
<use href="#p" x="272" y="144"/>
<use href="#p" x="272" y="160"/>
<use href="#p" x="272" y="168"/>
<use href="#p" x="272" y="192"/>
<use href="#p" x="272" y="200"/>
<use href="#p" x="272" y="264"/>
<use href="#p" x="272" y="272"/>
<use href="#p" x="272" y="280"/>
<use href="#p" x="272" y="288"/>
<use href="#p" x="272" y="312"/>
<use href="#p" x="280" y="32"/>
<use href="#p" x="280" y="48"/>
<use href="#p" x="280" y="56"/>
<use href="#p" x="280" y="64"/>
<use href="#p" x="280" y="72"/>
<use href="#p" x="280" y="96"/>
<use href="#p" x="280" y="104"/>
<use href="#p" x="280" y="120"/>
<use href="#p" x="280" y="144"/>
<use href="#p" x="280" y="152"/>
<use href="#p" x="280" y="160"/>
<use href="#p" x="280" y="184"/>
<use href="#p" x="280" y="200"/>
<use href="#p" x="280" y="216"/>
<use href="#p" x="280" y="224"/>
<use href="#p" x="280" y="232"/>
<use href="#p" x="280" y="240"/>
<use href="#p" x="280" y="248"/>
<use href="#p" x="280" y="256"/>
<use href="#p" x="280" y="264"/>
<use href="#p" x="280" y="288"/>
<use href="#p" x="280" y="304"/>
<use href="#p" x="280" y="312"/>
<use href="#p" x="280" y="344"/>
<use href="#p" x="288" y="32"/>
<use href="#p" x="288" y="40"/>
<use href="#p" x="288" y="48"/>
<use href="#p" x="288" y="56"/>
<use href="#p" x="288" y="64"/>
<use href="#p" x="288" y="72"/>
<use href="#p" x="288" y="80"/>
<use href="#p" x="288" y="104"/>
<use href="#p" x="288" y="120"/>
<use href="#p" x="288" y="128"/>
<use href="#p" x="288" y="160"/>
<use href="#p" x="288" y="168"/>
<use href="#p" x="288" y="184"/>
<use href="#p" x="288" y="200"/>
<use href="#p" x="288" y="216"/>
<use href="#p" x="288" y="224"/>
<use href="#p" x="288" y="248"/>
<use href="#p" x="288" y="256"/>
<use href="#p" x="288" y="264"/>
<use href="#p" x="288" y="288"/>
<use href="#p" x="288" y="296"/>
<use href="#p" x="288" y="304"/>
<use href="#p" x="288" y="312"/>
<use href="#p" x="288" y="320"/>
<use href="#p" x="288" y="328"/>
<use href="#p" x="288" y="336"/>
<use href="#p" x="288" y="344"/>
<use href="#p" x="288" y="352"/>
<use href="#p" x="296" y="96"/>
<use href="#p" x="296" y="112"/>
<use href="#p" x="296" y="152"/>
<use href="#p" x="296" y="160"/>
<use href="#p" x="296" y="184"/>
<use href="#p" x="296" y="192"/>
<use href="#p" x="296" y="200"/>
<use href="#p" x="296" y="208"/>
<use href="#p" x="296" y="216"/>
<use href="#p" x="296" y="240"/>
<use href="#p" x="296" y="248"/>
<use href="#p" x="296" y="256"/>
<use href="#p" x="296" y="264"/>
<use href="#p" x="296" y="288"/>
<use href="#p" x="296" y="320"/>
<use href="#p" x="296" y="328"/>
<use href="#p" x="296" y="352"/>
<use href="#p" x="304" y="32"/>
<use href="#p" x="304" y="40"/>
<use href="#p" x="304" y="48"/>
<use href="#p" x="304" y="56"/>
<use href="#p" x="304" y="64"/>
<use href="#p" x="304" y="72"/>
<use href="#p" x="304" y="80"/>
<use href="#p" x="304" y="104"/>
<use href="#p" x="304" y="120"/>
<use href="#p" x="304" y="144"/>
<use href="#p" x="304" y="152"/>
<use href="#p" x="304" y="176"/>
<use href="#p" x="304" y="192"/>
<use href="#p" x="304" y="208"/>
<use href="#p" x="304" y="232"/>
<use href="#p" x="304" y="240"/>
<use href="#p" x="304" y="264"/>
<use href="#p" x="304" y="272"/>
<use href="#p" x="304" y="288"/>
<use href="#p" x="304" y="304"/>
<use href="#p" x="304" y="320"/>
<use href="#p" x="312" y="32"/>
<use href="#p" x="312" y="80"/>
<use href="#p" x="312" y="104"/>
<use href="#p" x="312" y="112"/>
<use href="#p" x="312" y="120"/>
<use href="#p" x="312" y="128"/>
<use href="#p" x="312" y="136"/>
<use href="#p" x="312" y="144"/>
<use href="#p" x="312" y="160"/>
<use href="#p" x="312" y="168"/>
<use href="#p" x="312" y="176"/>
<use href="#p" x="312" y="200"/>
<use href="#p" x="312" y="240"/>
<use href="#p" x="312" y="248"/>
<use href="#p" x="312" y="256"/>
<use href="#p" x="312" y="264"/>
<use href="#p" x="312" y="272"/>
<use href="#p" x="312" y="288"/>
<use href="#p" x="312" y="320"/>
<use href="#p" x="312" y="328"/>
<use href="#p" x="312" y="344"/>
<use href="#p" x="320" y="32"/>
<use href="#p" x="320" y="48"/>
<use href="#p" x="320" y="56"/>
<use href="#p" x="320" y="64"/>
<use href="#p" x="320" y="80"/>
<use href="#p" x="320" y="96"/>
<use href="#p" x="320" y="104"/>
<use href="#p" x="320" y="112"/>
<use href="#p" x="320" y="120"/>
<use href="#p" x="320" y="160"/>
<use href="#p" x="320" y="176"/>
<use href="#p" x="320" y="200"/>
<use href="#p" x="320" y="216"/>
<use href="#p" x="320" y="240"/>
<use href="#p" x="320" y="256"/>
<use href="#p" x="320" y="280"/>
<use href="#p" x="320" y="288"/>
<use href="#p" x="320" y="296"/>
<use href="#p" x="320" y="304"/>
<use href="#p" x="320" y="312"/>
<use href="#p" x="320" y="320"/>
<use href="#p" x="320" y="328"/>
<use href="#p" x="320" y="352"/>
<use href="#p" x="328" y="32"/>
<use href="#p" x="328" y="48"/>
<use href="#p" x="328" y="56"/>
<use href="#p" x="328" y="64"/>
<use href="#p" x="328" y="80"/>
<use href="#p" x="328" y="96"/>
<use href="#p" x="328" y="104"/>
<use href="#p" x="328" y="128"/>
<use href="#p" x="328" y="144"/>
<use href="#p" x="328" y="152"/>
<use href="#p" x="328" y="160"/>
<use href="#p" x="328" y="168"/>
<use href="#p" x="328" y="184"/>
<use href="#p" x="328" y="200"/>
<use href="#p" x="328" y="208"/>
<use href="#p" x="328" y="216"/>
<use href="#p" x="328" y="224"/>
<use href="#p" x="328" y="256"/>
<use href="#p" x="328" y="280"/>
<use href="#p" x="328" y="288"/>
<use href="#p" x="328" y="312"/>
<use href="#p" x="328" y="344"/>
<use href="#p" x="336" y="32"/>
<use href="#p" x="336" y="48"/>
<use href="#p" x="336" y="56"/>
<use href="#p" x="336" y="64"/>
<use href="#p" x="336" y="80"/>
<use href="#p" x="336" y="96"/>
<use href="#p" x="336" y="112"/>
<use href="#p" x="336" y="128"/>
<use href="#p" x="336" y="144"/>
<use href="#p" x="336" y="160"/>
<use href="#p" x="336" y="184"/>
<use href="#p" x="336" y="192"/>
<use href="#p" x="336" y="224"/>
<use href="#p" x="336" y="232"/>
<use href="#p" x="336" y="240"/>
<use href="#p" x="336" y="280"/>
<use href="#p" x="336" y="288"/>
<use href="#p" x="336" y="296"/>
<use href="#p" x="336" y="320"/>
<use href="#p" x="336" y="352"/>
<use href="#p" x="344" y="32"/>
<use href="#p" x="344" y="80"/>
<use href="#p" x="344" y="112"/>
<use href="#p" x="344" y="128"/>
<use href="#p" x="344" y="136"/>
<use href="#p" x="344" y="144"/>
<use href="#p" x="344" y="152"/>
<use href="#p" x="344" y="160"/>
<use href="#p" x="344" y="168"/>
<use href="#p" x="344" y="184"/>
<use href="#p" x="344" y="208"/>
<use href="#p" x="344" y="224"/>
<use href="#p" x="344" y="232"/>
<use href="#p" x="344" y="256"/>
<use href="#p" x="344" y="288"/>
<use href="#p" x="344" y="296"/>
<use href="#p" x="344" y="304"/>
<use href="#p" x="344" y="328"/>
<use href="#p" x="344" y="336"/>
<use href="#p" x="344" y="344"/>
<use href="#p" x="344" y="352"/>
<use href="#p" x="352" y="32"/>
<use href="#p" x="352" y="40"/>
<use href="#p" x="352" y="48"/>
<use href="#p" x="352" y="56"/>
<use href="#p" x="352" y="64"/>
<use href="#p" x="352" y="72"/>
<use href="#p" x="352" y="80"/>
<use href="#p" x="352" y="96"/>
<use href="#p" x="352" y="136"/>
<use href="#p" x="352" y="144"/>
<use href="#p" x="352" y="200"/>
<use href="#p" x="352" y="216"/>
<use href="#p" x="352" y="224"/>
<use href="#p" x="352" y="232"/>
<use href="#p" x="352" y="240"/>
<use href="#p" x="352" y="248"/>
<use href="#p" x="352" y="280"/>
<use href="#p" x="352" y="288"/>
<use href="#p" x="352" y="312"/>
<use href="#p" x="352" y="328"/>
<use href="#p" x="352" y="336"/>
</g></svg>
