<?xml version="1.0" encoding="UTF-8" standalone="no"?>
<!-- Created with Inkscape (http://www.inkscape.org/) -->

<svg
   version="1.1"
   id="svg1"
   width="837.96252"
   height="503.17834"
   viewBox="0 0 837.96252 503.17834"
   sodipodi:docname="intervals.pdf"
   xmlns:inkscape="http://www.inkscape.org/namespaces/inkscape"
   xmlns:sodipodi="http://sodipodi.sourceforge.net/DTD/sodipodi-0.dtd"
   xmlns="http://www.w3.org/2000/svg"
   xmlns:svg="http://www.w3.org/2000/svg">
  <defs
     id="defs1">
    <clipPath
       clipPathUnits="userSpaceOnUse"
       id="clipPath14">
      <path
         d="M -8,-8 H 8 V 8 H -8 Z"
         transform="translate(1.3636e-6)"
         id="path14" />
    </clipPath>
    <clipPath
       clipPathUnits="userSpaceOnUse"
       id="clipPath16">
      <path
         d="M 63.271875,37.54375 H 621.27188 v 332.64 H 63.271875 Z"
         transform="matrix(1.3333333,0,0,-1.3333333,0,503.17833)"
         id="path16" />
    </clipPath>
    <clipPath
       clipPathUnits="userSpaceOnUse"
       id="clipPath17">
      <path
         d="M -8,-8 H 8 V 8 H -8 Z"
         id="path17" />
    </clipPath>
    <clipPath
       clipPathUnits="userSpaceOnUse"
       id="clipPath19">
      <path
         d="M 63.271875,37.54375 H 621.27188 v 332.64 H 63.271875 Z"
         transform="matrix(1.3333333,0,0,-1.3333333,0,503.17833)"
         id="path19" />
    </clipPath>
    <clipPath
       clipPathUnits="userSpaceOnUse"
       id="clipPath20">
      <path
         d="M -8,-8 H 8 V 8 H -8 Z"
         id="path20" />
    </clipPath>
    <clipPath
       clipPathUnits="userSpaceOnUse"
       id="clipPath22">
      <path
         d="M 63.271875,37.54375 H 621.27188 v 332.64 H 63.271875 Z"
         transform="matrix(1.3333333,0,0,-1.3333333,0,503.17833)"
         id="path22" />
    </clipPath>
    <clipPath
       clipPathUnits="userSpaceOnUse"
       id="clipPath23">
      <path
         d="M -8,-8 H 8 V 8 H -8 Z"
         transform="translate(-1.5431001e-6)"
         id="path23" />
    </clipPath>
    <clipPath
       clipPathUnits="userSpaceOnUse"
       id="clipPath25">
      <path
         d="M 63.271875,37.54375 H 621.27188 v 332.64 H 63.271875 Z"
         transform="matrix(1.3333333,0,0,-1.3333333,0,503.17833)"
         id="path25" />
    </clipPath>
    <clipPath
       clipPathUnits="userSpaceOnUse"
       id="clipPath26">
      <path
         d="M -8,-8 H 8 V 8 H -8 Z"
         transform="translate(-2.5120001e-6)"
         id="path26" />
    </clipPath>
    <clipPath
       clipPathUnits="userSpaceOnUse"
       id="clipPath28">
      <path
         d="M 63.271875,37.54375 H 621.27188 v 332.64 H 63.271875 Z"
         transform="matrix(1.3333333,0,0,-1.3333333,0,503.17833)"
         id="path28" />
    </clipPath>
    <clipPath
       clipPathUnits="userSpaceOnUse"
       id="clipPath29">
      <path
         d="M -8,-8 H 8 V 8 H -8 Z"
         transform="translate(-3.4809001e-6)"
         id="path29" />
    </clipPath>
    <clipPath
       clipPathUnits="userSpaceOnUse"
       id="clipPath31">
      <path
         d="M 63.271875,37.54375 H 621.27188 v 332.64 H 63.271875 Z"
         transform="matrix(1.3333333,0,0,-1.3333333,0,503.17833)"
         id="path31" />
    </clipPath>
    <clipPath
       clipPathUnits="userSpaceOnUse"
       id="clipPath32">
      <path
         d="M -8,-8 H 8 V 8 H -8 Z"
         transform="translate(3.0502001e-6)"
         id="path32" />
    </clipPath>
    <clipPath
       clipPathUnits="userSpaceOnUse"
       id="clipPath34">
      <path
         d="M 63.271875,37.54375 H 621.27188 v 332.64 H 63.271875 Z"
         transform="matrix(1.3333333,0,0,-1.3333333,0,503.17833)"
         id="path34" />
    </clipPath>
    <clipPath
       clipPathUnits="userSpaceOnUse"
       id="clipPath35">
      <path
         d="M -8,-8 H 8 V 8 H -8 Z"
         transform="translate(2.0813001e-6)"
         id="path35" />
    </clipPath>
    <clipPath
       clipPathUnits="userSpaceOnUse"
       id="clipPath37">
      <path
         d="M 63.271875,37.54375 H 621.27188 v 332.64 H 63.271875 Z"
         transform="matrix(1.3333333,0,0,-1.3333333,0,503.17833)"
         id="path37" />
    </clipPath>
    <clipPath
       clipPathUnits="userSpaceOnUse"
       id="clipPath38">
      <path
         d="M -8,-8 H 8 V 8 H -8 Z"
         transform="translate(1.1124001e-6)"
         id="path38" />
    </clipPath>
    <clipPath
       clipPathUnits="userSpaceOnUse"
       id="clipPath40">
      <path
         d="M 63.271875,37.54375 H 621.27188 v 332.64 H 63.271875 Z"
         transform="matrix(1.3333333,0,0,-1.3333333,0,503.17833)"
         id="path40" />
    </clipPath>
    <clipPath
       clipPathUnits="userSpaceOnUse"
       id="clipPath41">
      <path
         d="M -8,-8 H 8 V 8 H -8 Z"
         id="path41" />
    </clipPath>
    <clipPath
       clipPathUnits="userSpaceOnUse"
       id="clipPath43">
      <path
         d="M 63.271875,37.54375 H 621.27188 v 332.64 H 63.271875 Z"
         transform="matrix(1.3333333,0,0,-1.3333333,0,503.17833)"
         id="path43" />
    </clipPath>
    <clipPath
       clipPathUnits="userSpaceOnUse"
       id="clipPath44">
      <path
         d="M -8,-8 H 8 V 8 H -8 Z"
         id="path44" />
    </clipPath>
    <clipPath
       clipPathUnits="userSpaceOnUse"
       id="clipPath46">
      <path
         d="M 63.271875,37.54375 H 621.27188 v 332.64 H 63.271875 Z"
         transform="matrix(1.3333333,0,0,-1.3333333,0,503.17833)"
         id="path46" />
    </clipPath>
    <clipPath
       clipPathUnits="userSpaceOnUse"
       id="clipPath47">
      <path
         d="M -8,-8 H 8 V 8 H -8 Z"
         transform="translate(-1.7943e-6)"
         id="path47" />
    </clipPath>
    <clipPath
       clipPathUnits="userSpaceOnUse"
       id="clipPath49">
      <path
         d="M 63.271875,37.54375 H 621.27188 v 332.64 H 63.271875 Z"
         transform="matrix(1.3333333,0,0,-1.3333333,0,503.17833)"
         id="path49" />
    </clipPath>
    <clipPath
       clipPathUnits="userSpaceOnUse"
       id="clipPath50">
      <path
         d="M -8,-8 H 8 V 8 H -8 Z"
         transform="translate(-2.7632001e-6)"
         id="path50" />
    </clipPath>
    <clipPath
       clipPathUnits="userSpaceOnUse"
       id="clipPath52">
      <path
         d="M 63.271875,37.54375 H 621.27188 v 332.64 H 63.271875 Z"
         transform="matrix(1.3333333,0,0,-1.3333333,0,503.17833)"
         id="path52" />
    </clipPath>
    <clipPath
       clipPathUnits="userSpaceOnUse"
       id="clipPath53">
      <path
         d="M -8,-8 H 8 V 8 H -8 Z"
         transform="translate(-3.7321e-6)"
         id="path53" />
    </clipPath>
    <clipPath
       clipPathUnits="userSpaceOnUse"
       id="clipPath55">
      <path
         d="M 63.271875,37.54375 H 621.27188 v 332.64 H 63.271875 Z"
         transform="matrix(1.3333333,0,0,-1.3333333,0,503.17833)"
         id="path55" />
    </clipPath>
    <clipPath
       clipPathUnits="userSpaceOnUse"
       id="clipPath56">
      <path
         d="M -8,-8 H 8 V 8 H -8 Z"
         transform="translate(2.7990002e-6)"
         id="path56" />
    </clipPath>
    <clipPath
       clipPathUnits="userSpaceOnUse"
       id="clipPath58">
      <path
         d="M 63.271875,37.54375 H 621.27188 v 332.64 H 63.271875 Z"
         transform="matrix(1.3333333,0,0,-1.3333333,0,503.17833)"
         id="path58" />
    </clipPath>
    <clipPath
       clipPathUnits="userSpaceOnUse"
       id="clipPath59">
      <path
         d="M -8,-8 H 8 V 8 H -8 Z"
         transform="translate(1.8301001e-6)"
         id="path59" />
    </clipPath>
    <clipPath
       clipPathUnits="userSpaceOnUse"
       id="clipPath61">
      <path
         d="M 63.271875,37.54375 H 621.27188 v 332.64 H 63.271875 Z"
         transform="matrix(1.3333333,0,0,-1.3333333,0,503.17833)"
         id="path61" />
    </clipPath>
    <clipPath
       clipPathUnits="userSpaceOnUse"
       id="clipPath62">
      <path
         d="M -8,-8 H 8 V 8 H -8 Z"
         id="path62" />
    </clipPath>
    <clipPath
       clipPathUnits="userSpaceOnUse"
       id="clipPath64">
      <path
         d="M 63.271875,37.54375 H 621.27188 v 332.64 H 63.271875 Z"
         transform="matrix(1.3333333,0,0,-1.3333333,0,503.17833)"
         id="path64" />
    </clipPath>
    <clipPath
       clipPathUnits="userSpaceOnUse"
       id="clipPath65">
      <path
         d="M -8,-8 H 8 V 8 H -8 Z"
         id="path65" />
    </clipPath>
    <clipPath
       clipPathUnits="userSpaceOnUse"
       id="clipPath67">
      <path
         d="M 63.271875,37.54375 H 621.27188 v 332.64 H 63.271875 Z"
         transform="matrix(1.3333333,0,0,-1.3333333,0,503.17833)"
         id="path67" />
    </clipPath>
    <clipPath
       clipPathUnits="userSpaceOnUse"
       id="clipPath68">
      <path
         d="M -8,-8 H 8 V 8 H -8 Z"
         transform="translate(-1.0766e-6)"
         id="path68" />
    </clipPath>
    <clipPath
       clipPathUnits="userSpaceOnUse"
       id="clipPath70">
      <path
         d="M 63.271875,37.54375 H 621.27188 v 332.64 H 63.271875 Z"
         transform="matrix(1.3333333,0,0,-1.3333333,0,503.17833)"
         id="path70" />
    </clipPath>
    <clipPath
       clipPathUnits="userSpaceOnUse"
       id="clipPath71">
      <path
         d="M -8,-8 H 8 V 8 H -8 Z"
         transform="translate(-2.0454999e-6)"
         id="path71" />
    </clipPath>
    <clipPath
       clipPathUnits="userSpaceOnUse"
       id="clipPath73">
      <path
         d="M 63.271875,37.54375 H 621.27188 v 332.64 H 63.271875 Z"
         transform="matrix(1.3333333,0,0,-1.3333333,0,503.17833)"
         id="path73" />
    </clipPath>
    <clipPath
       clipPathUnits="userSpaceOnUse"
       id="clipPath74">
      <path
         d="M -8,-8 H 8 V 8 H -8 Z"
         transform="translate(-3.0144e-6)"
         id="path74" />
    </clipPath>
    <clipPath
       clipPathUnits="userSpaceOnUse"
       id="clipPath76">
      <path
         d="M 63.271875,37.54375 H 621.27188 v 332.64 H 63.271875 Z"
         transform="matrix(1.3333333,0,0,-1.3333333,0,503.17833)"
         id="path76" />
    </clipPath>
    <clipPath
       clipPathUnits="userSpaceOnUse"
       id="clipPath77">
      <path
         d="M -8,-8 H 8 V 8 H -8 Z"
         transform="translate(3.5167002e-6)"
         id="path77" />
    </clipPath>
    <clipPath
       clipPathUnits="userSpaceOnUse"
       id="clipPath79">
      <path
         d="M 63.271875,37.54375 H 621.27188 v 332.64 H 63.271875 Z"
         transform="matrix(1.3333333,0,0,-1.3333333,0,503.17833)"
         id="path79" />
    </clipPath>
    <clipPath
       clipPathUnits="userSpaceOnUse"
       id="clipPath80">
      <path
         d="M -8,-8 H 8 V 8 H -8 Z"
         transform="translate(2.5478002e-6)"
         id="path80" />
    </clipPath>
    <clipPath
       clipPathUnits="userSpaceOnUse"
       id="clipPath82">
      <path
         d="M 63.271875,37.54375 H 621.27188 v 332.64 H 63.271875 Z"
         transform="matrix(1.3333333,0,0,-1.3333333,0,503.17833)"
         id="path82" />
    </clipPath>
    <clipPath
       clipPathUnits="userSpaceOnUse"
       id="clipPath83">
      <path
         d="M -8,-8 H 8 V 8 H -8 Z"
         transform="translate(1.5789001e-6)"
         id="path83" />
    </clipPath>
    <clipPath
       clipPathUnits="userSpaceOnUse"
       id="clipPath85">
      <path
         d="M 63.271875,37.54375 H 621.27188 v 332.64 H 63.271875 Z"
         transform="matrix(1.3333333,0,0,-1.3333333,0,503.17833)"
         id="path85" />
    </clipPath>
    <clipPath
       clipPathUnits="userSpaceOnUse"
       id="clipPath86">
      <path
         d="M -8,-8 H 8 V 8 H -8 Z"
         id="path86" />
    </clipPath>
    <clipPath
       clipPathUnits="userSpaceOnUse"
       id="clipPath88">
      <path
         d="M 63.271875,37.54375 H 621.27188 v 332.64 H 63.271875 Z"
         transform="matrix(1.3333333,0,0,-1.3333333,0,503.17833)"
         id="path88" />
    </clipPath>
    <clipPath
       clipPathUnits="userSpaceOnUse"
       id="clipPath89">
      <path
         d="M -8,-8 H 8 V 8 H -8 Z"
         id="path89" />
    </clipPath>
    <clipPath
       clipPathUnits="userSpaceOnUse"
       id="clipPath91">
      <path
         d="M 63.271875,37.54375 H 621.27188 v 332.64 H 63.271875 Z"
         transform="matrix(1.3333333,0,0,-1.3333333,0,503.17833)"
         id="path91" />
    </clipPath>
    <clipPath
       clipPathUnits="userSpaceOnUse"
       id="clipPath92">
      <path
         d="M -8,-8 H 8 V 8 H -8 Z"
         transform="translate(-1.3277999e-6)"
         id="path92" />
    </clipPath>
    <clipPath
       clipPathUnits="userSpaceOnUse"
       id="clipPath94">
      <path
         d="M 63.271875,37.54375 H 621.27188 v 332.64 H 63.271875 Z"
         transform="matrix(1.3333333,0,0,-1.3333333,0,503.17833)"
         id="path94" />
    </clipPath>
    <clipPath
       clipPathUnits="userSpaceOnUse"
       id="clipPath95">
      <path
         d="M -8,-8 H 8 V 8 H -8 Z"
         transform="translate(-2.2967e-6)"
         id="path95" />
    </clipPath>
    <clipPath
       clipPathUnits="userSpaceOnUse"
       id="clipPath97">
      <path
         d="M 63.271875,37.54375 H 621.27188 v 332.64 H 63.271875 Z"
         transform="matrix(1.3333333,0,0,-1.3333333,0,503.17833)"
         id="path97" />
    </clipPath>
    <clipPath
       clipPathUnits="userSpaceOnUse"
       id="clipPath98">
      <path
         d="M -8,-8 H 8 V 8 H -8 Z"
         transform="translate(-3.2655999e-6)"
         id="path98" />
    </clipPath>
    <clipPath
       clipPathUnits="userSpaceOnUse"
       id="clipPath100">
      <path
         d="M 63.271875,37.54375 H 621.27188 v 332.64 H 63.271875 Z"
         transform="matrix(1.3333333,0,0,-1.3333333,0,503.17833)"
         id="path100" />
    </clipPath>
    <clipPath
       clipPathUnits="userSpaceOnUse"
       id="clipPath101">
      <path
         d="M -8,-8 H 8 V 8 H -8 Z"
         transform="translate(3.2655003e-6)"
         id="path101" />
    </clipPath>
    <clipPath
       clipPathUnits="userSpaceOnUse"
       id="clipPath103">
      <path
         d="M 63.271875,37.54375 H 621.27188 v 332.64 H 63.271875 Z"
         transform="matrix(1.3333333,0,0,-1.3333333,0,503.17833)"
         id="path103" />
    </clipPath>
    <clipPath
       clipPathUnits="userSpaceOnUse"
       id="clipPath104">
      <path
         d="M -8,-8 H 8 V 8 H -8 Z"
         transform="translate(2.2966002e-6)"
         id="path104" />
    </clipPath>
    <clipPath
       clipPathUnits="userSpaceOnUse"
       id="clipPath106">
      <path
         d="M 63.271875,37.54375 H 621.27188 v 332.64 H 63.271875 Z"
         transform="matrix(1.3333333,0,0,-1.3333333,0,503.17833)"
         id="path106" />
    </clipPath>
    <clipPath
       clipPathUnits="userSpaceOnUse"
       id="clipPath107">
      <path
         d="M -8,-8 H 8 V 8 H -8 Z"
         transform="translate(1.3277001e-6)"
         id="path107" />
    </clipPath>
    <clipPath
       clipPathUnits="userSpaceOnUse"
       id="clipPath109">
      <path
         d="M 63.271875,37.54375 H 621.27188 v 332.64 H 63.271875 Z"
         transform="matrix(1.3333333,0,0,-1.3333333,0,503.17833)"
         id="path109" />
    </clipPath>
    <clipPath
       clipPathUnits="userSpaceOnUse"
       id="clipPath110">
      <path
         d="M -8,-8 H 8 V 8 H -8 Z"
         id="path110" />
    </clipPath>
    <clipPath
       clipPathUnits="userSpaceOnUse"
       id="clipPath112">
      <path
         d="M 63.271875,37.54375 H 621.27188 v 332.64 H 63.271875 Z"
         transform="matrix(1.3333333,0,0,-1.3333333,0,503.17833)"
         id="path112" />
    </clipPath>
    <clipPath
       clipPathUnits="userSpaceOnUse"
       id="clipPath113">
      <path
         d="M -8,-8 H 8 V 8 H -8 Z"
         id="path113" />
    </clipPath>
    <clipPath
       clipPathUnits="userSpaceOnUse"
       id="clipPath115">
      <path
         d="M 63.271875,37.54375 H 621.27188 v 332.64 H 63.271875 Z"
         transform="matrix(1.3333333,0,0,-1.3333333,0,503.17833)"
         id="path115" />
    </clipPath>
    <clipPath
       clipPathUnits="userSpaceOnUse"
       id="clipPath116">
      <path
         d="M -8,-8 H 8 V 8 H -8 Z"
         transform="translate(-1.5789999e-6)"
         id="path116" />
    </clipPath>
    <clipPath
       clipPathUnits="userSpaceOnUse"
       id="clipPath118">
      <path
         d="M 63.271875,37.54375 H 621.27188 v 332.64 H 63.271875 Z"
         transform="matrix(1.3333333,0,0,-1.3333333,0,503.17833)"
         id="path118" />
    </clipPath>
    <clipPath
       clipPathUnits="userSpaceOnUse"
       id="clipPath119">
      <path
         d="M -8,-8 H 8 V 8 H -8 Z"
         transform="translate(-2.5478999e-6)"
         id="path119" />
    </clipPath>
    <clipPath
       clipPathUnits="userSpaceOnUse"
       id="clipPath121">
      <path
         d="M 63.271875,37.54375 H 621.27188 v 332.64 H 63.271875 Z"
         transform="matrix(1.3333333,0,0,-1.3333333,0,503.17833)"
         id="path121" />
    </clipPath>
    <clipPath
       clipPathUnits="userSpaceOnUse"
       id="clipPath122">
      <path
         d="M -8,-8 H 8 V 8 H -8 Z"
         transform="translate(-3.5167999e-6)"
         id="path122" />
    </clipPath>
    <clipPath
       clipPathUnits="userSpaceOnUse"
       id="clipPath124">
      <path
         d="M 63.271875,37.54375 H 621.27188 v 332.64 H 63.271875 Z"
         transform="matrix(1.3333333,0,0,-1.3333333,0,503.17833)"
         id="path124" />
    </clipPath>
    <clipPath
       clipPathUnits="userSpaceOnUse"
       id="clipPath125">
      <path
         d="M -8,-8 H 8 V 8 H -8 Z"
         transform="translate(3.0143001e-6)"
         id="path125" />
    </clipPath>
    <clipPath
       clipPathUnits="userSpaceOnUse"
       id="clipPath127">
      <path
         d="M 63.271875,37.54375 H 621.27188 v 332.64 H 63.271875 Z"
         transform="matrix(1.3333333,0,0,-1.3333333,0,503.17833)"
         id="path127" />
    </clipPath>
    <clipPath
       clipPathUnits="userSpaceOnUse"
       id="clipPath128">
      <path
         d="M -8,-8 H 8 V 8 H -8 Z"
         transform="translate(2.0454001e-6)"
         id="path128" />
    </clipPath>
    <clipPath
       clipPathUnits="userSpaceOnUse"
       id="clipPath130">
      <path
         d="M 63.271875,37.54375 H 621.27188 v 332.64 H 63.271875 Z"
         transform="matrix(1.3333333,0,0,-1.3333333,0,503.17833)"
         id="path130" />
    </clipPath>
    <clipPath
       clipPathUnits="userSpaceOnUse"
       id="clipPath131">
      <path
         d="M -8,-8 H 8 V 8 H -8 Z"
         transform="translate(1.0765e-6)"
         id="path131" />
    </clipPath>
    <clipPath
       clipPathUnits="userSpaceOnUse"
       id="clipPath133">
      <path
         d="M 63.271875,37.54375 H 621.27188 v 332.64 H 63.271875 Z"
         transform="matrix(1.3333333,0,0,-1.3333333,0,503.17833)"
         id="path133" />
    </clipPath>
    <clipPath
       clipPathUnits="userSpaceOnUse"
       id="clipPath134">
      <path
         d="M -8,-8 H 8 V 8 H -8 Z"
         id="path134" />
    </clipPath>
    <clipPath
       clipPathUnits="userSpaceOnUse"
       id="clipPath136">
      <path
         d="M 63.271875,37.54375 H 621.27188 v 332.64 H 63.271875 Z"
         transform="matrix(1.3333333,0,0,-1.3333333,0,503.17833)"
         id="path136" />
    </clipPath>
    <clipPath
       clipPathUnits="userSpaceOnUse"
       id="clipPath137">
      <path
         d="M -8,-8 H 8 V 8 H -8 Z"
         id="path137" />
    </clipPath>
    <clipPath
       clipPathUnits="userSpaceOnUse"
       id="clipPath139">
      <path
         d="M 63.271875,37.54375 H 621.27188 v 332.64 H 63.271875 Z"
         transform="matrix(1.3333333,0,0,-1.3333333,0,503.17833)"
         id="path139" />
    </clipPath>
    <clipPath
       clipPathUnits="userSpaceOnUse"
       id="clipPath140">
      <path
         d="M -8,-8 H 8 V 8 H -8 Z"
         transform="translate(-1.8302002e-6)"
         id="path140" />
    </clipPath>
    <clipPath
       clipPathUnits="userSpaceOnUse"
       id="clipPath142">
      <path
         d="M 63.271875,37.54375 H 621.27188 v 332.64 H 63.271875 Z"
         transform="matrix(1.3333333,0,0,-1.3333333,0,503.17833)"
         id="path142" />
    </clipPath>
    <clipPath
       clipPathUnits="userSpaceOnUse"
       id="clipPath143">
      <path
         d="M -8,-8 H 8 V 8 H -8 Z"
         transform="translate(-2.7991003e-6)"
         id="path143" />
    </clipPath>
    <clipPath
       clipPathUnits="userSpaceOnUse"
       id="clipPath145">
      <path
         d="M 63.271875,37.54375 H 621.27188 v 332.64 H 63.271875 Z"
         transform="matrix(1.3333333,0,0,-1.3333333,0,503.17833)"
         id="path145" />
    </clipPath>
    <clipPath
       clipPathUnits="userSpaceOnUse"
       id="clipPath146">
      <path
         d="M -8,-8 H 8 V 8 H -8 Z"
         transform="translate(3.7319999e-6)"
         id="path146" />
    </clipPath>
    <clipPath
       clipPathUnits="userSpaceOnUse"
       id="clipPath148">
      <path
         d="M 63.271875,37.54375 H 621.27188 v 332.64 H 63.271875 Z"
         transform="matrix(1.3333333,0,0,-1.3333333,0,503.17833)"
         id="path148" />
    </clipPath>
    <clipPath
       clipPathUnits="userSpaceOnUse"
       id="clipPath149">
      <path
         d="M -8,-8 H 8 V 8 H -8 Z"
         transform="translate(2.7630999e-6)"
         id="path149" />
    </clipPath>
    <clipPath
       clipPathUnits="userSpaceOnUse"
       id="clipPath151">
      <path
         d="M 63.271875,37.54375 H 621.27188 v 332.64 H 63.271875 Z"
         transform="matrix(1.3333333,0,0,-1.3333333,0,503.17833)"
         id="path151" />
    </clipPath>
    <clipPath
       clipPathUnits="userSpaceOnUse"
       id="clipPath152">
      <path
         d="M -8,-8 H 8 V 8 H -8 Z"
         transform="translate(1.7941998e-6)"
         id="path152" />
    </clipPath>
    <clipPath
       clipPathUnits="userSpaceOnUse"
       id="clipPath154">
      <path
         d="M 63.271875,37.54375 H 621.27188 v 332.64 H 63.271875 Z"
         transform="matrix(1.3333333,0,0,-1.3333333,0,503.17833)"
         id="path154" />
    </clipPath>
    <clipPath
       clipPathUnits="userSpaceOnUse"
       id="clipPath155">
      <path
         d="M -8,-8 H 8 V 8 H -8 Z"
         id="path155" />
    </clipPath>
    <clipPath
       clipPathUnits="userSpaceOnUse"
       id="clipPath157">
      <path
         d="M 63.271875,37.54375 H 621.27188 v 332.64 H 63.271875 Z"
         transform="matrix(1.3333333,0,0,-1.3333333,0,503.17833)"
         id="path157" />
    </clipPath>
    <clipPath
       clipPathUnits="userSpaceOnUse"
       id="clipPath158">
      <path
         d="M -8,-8 H 8 V 8 H -8 Z"
         id="path158" />
    </clipPath>
    <clipPath
       clipPathUnits="userSpaceOnUse"
       id="clipPath160">
      <path
         d="M 63.271875,37.54375 H 621.27188 v 332.64 H 63.271875 Z"
         transform="matrix(1.3333333,0,0,-1.3333333,0,503.17833)"
         id="path160" />
    </clipPath>
    <clipPath
       clipPathUnits="userSpaceOnUse"
       id="clipPath161">
      <path
         d="M -8,-8 H 8 V 8 H -8 Z"
         transform="translate(-1.1125004e-6)"
         id="path161" />
    </clipPath>
    <clipPath
       clipPathUnits="userSpaceOnUse"
       id="clipPath163">
      <path
         d="M 63.271875,37.54375 H 621.27188 v 332.64 H 63.271875 Z"
         transform="matrix(1.3333333,0,0,-1.3333333,0,503.17833)"
         id="path163" />
    </clipPath>
    <clipPath
       clipPathUnits="userSpaceOnUse"
       id="clipPath164">
      <path
         d="M -8,-8 H 8 V 8 H -8 Z"
         transform="translate(-2.0814005e-6)"
         id="path164" />
    </clipPath>
    <clipPath
       clipPathUnits="userSpaceOnUse"
       id="clipPath166">
      <path
         d="M 63.271875,37.54375 H 621.27188 v 332.64 H 63.271875 Z"
         transform="matrix(1.3333333,0,0,-1.3333333,0,503.17833)"
         id="path166" />
    </clipPath>
    <clipPath
       clipPathUnits="userSpaceOnUse"
       id="clipPath167">
      <path
         d="M -8,-8 H 8 V 8 H -8 Z"
         transform="translate(-3.0503006e-6)"
         id="path167" />
    </clipPath>
    <clipPath
       clipPathUnits="userSpaceOnUse"
       id="clipPath169">
      <path
         d="M 63.271875,37.54375 H 621.27188 v 332.64 H 63.271875 Z"
         transform="matrix(1.3333333,0,0,-1.3333333,0,503.17833)"
         id="path169" />
    </clipPath>
    <clipPath
       clipPathUnits="userSpaceOnUse"
       id="clipPath170">
      <path
         d="M -8,-8 H 8 V 8 H -8 Z"
         transform="translate(3.4807996e-6)"
         id="path170" />
    </clipPath>
    <clipPath
       clipPathUnits="userSpaceOnUse"
       id="clipPath172">
      <path
         d="M 63.271875,37.54375 H 621.27188 v 332.64 H 63.271875 Z"
         transform="matrix(1.3333333,0,0,-1.3333333,0,503.17833)"
         id="path172" />
    </clipPath>
    <clipPath
       clipPathUnits="userSpaceOnUse"
       id="clipPath173">
      <path
         d="M -8,-8 H 8 V 8 H -8 Z"
         transform="translate(2.5118995e-6)"
         id="path173" />
    </clipPath>
    <clipPath
       clipPathUnits="userSpaceOnUse"
       id="clipPath175">
      <path
         d="M 63.271875,37.54375 H 621.27188 v 332.64 H 63.271875 Z"
         transform="matrix(1.3333333,0,0,-1.3333333,0,503.17833)"
         id="path175" />
    </clipPath>
    <clipPath
       clipPathUnits="userSpaceOnUse"
       id="clipPath176">
      <path
         d="M -8,-8 H 8 V 8 H -8 Z"
         transform="translate(1.5429995e-6)"
         id="path176" />
    </clipPath>
    <clipPath
       clipPathUnits="userSpaceOnUse"
       id="clipPath178">
      <path
         d="M 63.271875,37.54375 H 621.27188 v 332.64 H 63.271875 Z"
         transform="matrix(1.3333333,0,0,-1.3333333,0,503.17833)"
         id="path178" />
    </clipPath>
    <clipPath
       clipPathUnits="userSpaceOnUse"
       id="clipPath179">
      <path
         d="M -8,-8 H 8 V 8 H -8 Z"
         id="path179" />
    </clipPath>
    <clipPath
       clipPathUnits="userSpaceOnUse"
       id="clipPath181">
      <path
         d="M 63.271875,37.54375 H 621.27188 v 332.64 H 63.271875 Z"
         transform="matrix(1.3333333,0,0,-1.3333333,0,503.17833)"
         id="path181" />
    </clipPath>
    <clipPath
       clipPathUnits="userSpaceOnUse"
       id="clipPath182">
      <path
         d="M -8,-8 H 8 V 8 H -8 Z"
         id="path182" />
    </clipPath>
    <clipPath
       clipPathUnits="userSpaceOnUse"
       id="clipPath184">
      <path
         d="M 63.271875,37.54375 H 621.27188 v 332.64 H 63.271875 Z"
         transform="matrix(1.3333333,0,0,-1.3333333,0,503.17833)"
         id="path184" />
    </clipPath>
    <clipPath
       clipPathUnits="userSpaceOnUse"
       id="clipPath185">
      <path
         d="M -8,-8 H 8 V 8 H -8 Z"
         transform="translate(-1.3637007e-6)"
         id="path185" />
    </clipPath>
    <clipPath
       clipPathUnits="userSpaceOnUse"
       id="clipPath187">
      <path
         d="M 63.271875,37.54375 H 621.27188 v 332.64 H 63.271875 Z"
         transform="matrix(1.3333333,0,0,-1.3333333,0,503.17833)"
         id="path187" />
    </clipPath>
    <clipPath
       clipPathUnits="userSpaceOnUse"
       id="clipPath189">
      <path
         d="M 63.271875,37.54375 H 621.27188 v 332.64 H 63.271875 Z"
         id="path189" />
    </clipPath>
  </defs>
  <sodipodi:namedview
     id="namedview1"
     pagecolor="#ffffff"
     bordercolor="#111111"
     borderopacity="1"
     inkscape:showpageshadow="0"
     inkscape:pageopacity="0"
     inkscape:pagecheckerboard="1"
     inkscape:deskcolor="#d1d1d1">
    <inkscape:page
       x="0"
       y="0"
       inkscape:label="1"
       id="page1"
       width="837.96252"
       height="503.17834"
       margin="0"
       bleed="0" />
  </sodipodi:namedview>
  <g
     id="g1"
     inkscape:groupmode="layer"
     inkscape:label="1">
    <path
       id="path1"
       d="m 88.635511,37.54375 v -3.5"
       style="fill:#000000;fill-opacity:1;fill-rule:nonzero;stroke:#000000;stroke-width:0.8;stroke-linecap:butt;stroke-linejoin:round;stroke-miterlimit:10;stroke-dasharray:none;stroke-opacity:1"
       transform="matrix(1.3333333,0,0,-1.3333333,0,503.17833)" />
    <text
       id="text1"
       xml:space="preserve"
       transform="matrix(1.3333333,0,0,1.3333333,113.9411,472.57833)"><tspan
         id="tspan1"
         style="font-variant:normal;font-weight:normal;font-size:10px;font-family:'DejaVu Sans';writing-mode:lr-tb;fill:#000000;fill-opacity:1;fill-rule:nonzero;stroke:none"
         x="0"
         y="0">0</tspan></text>
    <path
       id="path2"
       d="m 177.63073,37.54375 v -3.5"
       style="fill:#000000;fill-opacity:1;fill-rule:nonzero;stroke:#000000;stroke-width:0.8;stroke-linecap:butt;stroke-linejoin:round;stroke-miterlimit:10;stroke-dasharray:none;stroke-opacity:1"
       transform="matrix(1.3333333,0,0,-1.3333333,0,503.17833)" />
    <text
       id="text2"
       xml:space="preserve"
       transform="matrix(1.3333333,0,0,1.3333333,228.3618,472.57833)"><tspan
         id="tspan2"
         style="font-variant:normal;font-weight:normal;font-size:10px;font-family:'DejaVu Sans';writing-mode:lr-tb;fill:#000000;fill-opacity:1;fill-rule:nonzero;stroke:none"
         x="0"
         y="0">10</tspan></text>
    <path
       id="path3"
       d="m 266.62594,37.54375 v -3.5"
       style="fill:#000000;fill-opacity:1;fill-rule:nonzero;stroke:#000000;stroke-width:0.8;stroke-linecap:butt;stroke-linejoin:round;stroke-miterlimit:10;stroke-dasharray:none;stroke-opacity:1"
       transform="matrix(1.3333333,0,0,-1.3333333,0,503.17833)" />
    <text
       id="text3"
       xml:space="preserve"
       transform="matrix(1.3333333,0,0,1.3333333,347.02209,472.57833)"><tspan
         id="tspan3"
         style="font-variant:normal;font-weight:normal;font-size:10px;font-family:'DejaVu Sans';writing-mode:lr-tb;fill:#000000;fill-opacity:1;fill-rule:nonzero;stroke:none"
         x="0"
         y="0">20</tspan></text>
    <path
       id="path4"
       d="m 355.62116,37.54375 v -3.5"
       style="fill:#000000;fill-opacity:1;fill-rule:nonzero;stroke:#000000;stroke-width:0.8;stroke-linecap:butt;stroke-linejoin:round;stroke-miterlimit:10;stroke-dasharray:none;stroke-opacity:1"
       transform="matrix(1.3333333,0,0,-1.3333333,0,503.17833)" />
    <text
       id="text4"
       xml:space="preserve"
       transform="matrix(1.3333333,0,0,1.3333333,465.68238,472.57833)"><tspan
         id="tspan4"
         style="font-variant:normal;font-weight:normal;font-size:10px;font-family:'DejaVu Sans';writing-mode:lr-tb;fill:#000000;fill-opacity:1;fill-rule:nonzero;stroke:none"
         x="0"
         y="0">30</tspan></text>
    <path
       id="path5"
       d="m 444.61637,37.54375 v -3.5"
       style="fill:#000000;fill-opacity:1;fill-rule:nonzero;stroke:#000000;stroke-width:0.8;stroke-linecap:butt;stroke-linejoin:round;stroke-miterlimit:10;stroke-dasharray:none;stroke-opacity:1"
       transform="matrix(1.3333333,0,0,-1.3333333,0,503.17833)" />
    <text
       id="text5"
       xml:space="preserve"
       transform="matrix(1.3333333,0,0,1.3333333,584.34266,472.57833)"><tspan
         id="tspan5"
         style="font-variant:normal;font-weight:normal;font-size:10px;font-family:'DejaVu Sans';writing-mode:lr-tb;fill:#000000;fill-opacity:1;fill-rule:nonzero;stroke:none"
         x="0"
         y="0">40</tspan></text>
    <path
       id="path6"
       d="m 533.61159,37.54375 v -3.5"
       style="fill:#000000;fill-opacity:1;fill-rule:nonzero;stroke:#000000;stroke-width:0.8;stroke-linecap:butt;stroke-linejoin:round;stroke-miterlimit:10;stroke-dasharray:none;stroke-opacity:1"
       transform="matrix(1.3333333,0,0,-1.3333333,0,503.17833)" />
    <text
       id="text6"
       xml:space="preserve"
       transform="matrix(1.3333333,0,0,1.3333333,703.00295,472.57833)"><tspan
         id="tspan6"
         style="font-variant:normal;font-weight:normal;font-size:10px;font-family:'DejaVu Sans';writing-mode:lr-tb;fill:#000000;fill-opacity:1;fill-rule:nonzero;stroke:none"
         x="0"
         y="0">50</tspan></text>
    <text
       id="text7"
       xml:space="preserve"
       transform="matrix(1.3333333,0,0,1.3333333,442.60208,490.8075)"><tspan
         id="tspan7"
         style="font-variant:normal;font-weight:normal;font-size:10px;font-family:'DejaVu Sans';writing-mode:lr-tb;fill:#000000;fill-opacity:1;fill-rule:nonzero;stroke:none"
         x="0"
         y="0">Kick</tspan></text>
    <path
       id="path7"
       d="m 63.271875,174.38862 h -2"
       style="fill:#000000;fill-opacity:1;fill-rule:nonzero;stroke:#000000;stroke-width:0.6;stroke-linecap:butt;stroke-linejoin:round;stroke-miterlimit:10;stroke-dasharray:none;stroke-opacity:1"
       transform="matrix(1.3333333,0,0,-1.3333333,0,503.17833)" />
    <text
       id="text8"
       xml:space="preserve"
       transform="matrix(1.3333333,0,0,1.3333333,27.829167,275.85601)"><tspan
         id="tspan8"
         style="font-variant:normal;font-weight:normal;font-size:10px;font-family:'DejaVu Sans';writing-mode:lr-tb;fill:#000000;fill-opacity:1;fill-rule:nonzero;stroke:none"
         x="0"
         dx="0 1.9505469 1.9471484"
         y="0">2×10</tspan><tspan
         id="tspan9"
         style="font-variant:normal;font-weight:normal;font-size:7px;font-family:'DejaVu Sans';writing-mode:lr-tb;fill:#000000;fill-opacity:1;fill-rule:nonzero;stroke:none"
         x="31.458008"
         y="-3.828125">1</tspan></text>
    <path
       id="path9"
       d="m 63.271875,255.51074 h -2"
       style="fill:#000000;fill-opacity:1;fill-rule:nonzero;stroke:#000000;stroke-width:0.6;stroke-linecap:butt;stroke-linejoin:round;stroke-miterlimit:10;stroke-dasharray:none;stroke-opacity:1"
       transform="matrix(1.3333333,0,0,-1.3333333,0,503.17833)" />
    <text
       id="text9"
       xml:space="preserve"
       transform="matrix(1.3333333,0,0,1.3333333,27.829167,167.69318)"><tspan
         id="tspan10"
         style="font-variant:normal;font-weight:normal;font-size:10px;font-family:'DejaVu Sans';writing-mode:lr-tb;fill:#000000;fill-opacity:1;fill-rule:nonzero;stroke:none"
         x="0"
         dx="0 1.9505469 1.9471484"
         y="0">3×10</tspan><tspan
         id="tspan11"
         style="font-variant:normal;font-weight:normal;font-size:7px;font-family:'DejaVu Sans';writing-mode:lr-tb;fill:#000000;fill-opacity:1;fill-rule:nonzero;stroke:none"
         x="31.458008"
         y="-3.828125">1</tspan></text>
    <path
       id="path11"
       d="m 63.271875,313.06781 h -2"
       style="fill:#000000;fill-opacity:1;fill-rule:nonzero;stroke:#000000;stroke-width:0.6;stroke-linecap:butt;stroke-linejoin:round;stroke-miterlimit:10;stroke-dasharray:none;stroke-opacity:1"
       transform="matrix(1.3333333,0,0,-1.3333333,0,503.17833)" />
    <text
       id="text11"
       xml:space="preserve"
       transform="matrix(1.3333333,0,0,1.3333333,27.829167,90.950423)"><tspan
         id="tspan12"
         style="font-variant:normal;font-weight:normal;font-size:10px;font-family:'DejaVu Sans';writing-mode:lr-tb;fill:#000000;fill-opacity:1;fill-rule:nonzero;stroke:none"
         x="0"
         dx="0 1.9505469 1.9471484"
         y="0">4×10</tspan><tspan
         id="tspan13"
         style="font-variant:normal;font-weight:normal;font-size:7px;font-family:'DejaVu Sans';writing-mode:lr-tb;fill:#000000;fill-opacity:1;fill-rule:nonzero;stroke:none"
         x="31.458008"
         y="-3.828125">1</tspan></text>
    <path
       id="path13"
       d="m 63.271875,357.71254 h -2"
       style="fill:#000000;fill-opacity:1;fill-rule:nonzero;stroke:#000000;stroke-width:0.6;stroke-linecap:butt;stroke-linejoin:round;stroke-miterlimit:10;stroke-dasharray:none;stroke-opacity:1"
       transform="matrix(1.3333333,0,0,-1.3333333,0,503.17833)" />
    <text
       id="text13"
       xml:space="preserve"
       transform="matrix(0,-1.3333333,1.3333333,0,19.725,274.21417)"><tspan
         id="tspan14"
         style="font-variant:normal;font-weight:normal;font-size:10px;font-family:'DejaVu Sans';writing-mode:lr-tb;fill:#000000;fill-opacity:1;fill-rule:nonzero;stroke:none"
         x="0"
         y="0">Interval (ms)</tspan></text>
    <g
       id="g15"
       clip-path="url(#clipPath16)">
      <path
         d="m 0,-3 c 0.795609,0 1.55874,0.316099 2.12132,0.87868 C 2.683901,-1.55874 3,-0.795609 3,0 3,0.795609 2.683901,1.55874 2.12132,2.12132 1.55874,2.683901 0.795609,3 0,3 -0.795609,3 -1.55874,2.683901 -2.12132,2.12132 -2.683901,1.55874 -3,0.795609 -3,0 -3,-0.795609 -2.683901,-1.55874 -2.12132,-2.12132 -1.55874,-2.683901 -0.795609,-3 0,-3 Z"
         style="fill:#1f77b4;fill-opacity:1;fill-rule:nonzero;stroke:#1f77b4;stroke-width:1;stroke-linecap:butt;stroke-linejoin:round;stroke-miterlimit:10;stroke-dasharray:none;stroke-opacity:1"
         transform="matrix(1.3333333,0,0,-1.3333333,118.18068,29.76)"
         clip-path="url(#clipPath14)"
         id="path15" />
    </g>
    <g
       id="g18"
       clip-path="url(#clipPath19)">
      <path
         d="m 0,-3 c 0.795609,0 1.55874,0.316099 2.12132,0.87868 C 2.683901,-1.55874 3,-0.795609 3,0 3,0.795609 2.683901,1.55874 2.12132,2.12132 1.55874,2.683901 0.795609,3 0,3 -0.795609,3 -1.55874,2.683901 -2.12132,2.12132 -2.683901,1.55874 -3,0.795609 -3,0 -3,-0.795609 -2.683901,-1.55874 -2.12132,-2.12132 -1.55874,-2.683901 -0.795609,-3 0,-3 Z"
         style="fill:#1f77b4;fill-opacity:1;fill-rule:nonzero;stroke:#1f77b4;stroke-width:1;stroke-linecap:butt;stroke-linejoin:round;stroke-miterlimit:10;stroke-dasharray:none;stroke-opacity:1"
         transform="matrix(1.3333333,0,0,-1.3333333,130.04671,50.133438)"
         clip-path="url(#clipPath17)"
         id="path18" />
    </g>
    <g
       id="g21"
       clip-path="url(#clipPath22)">
      <path
         d="m 0,-3 c 0.795609,0 1.55874,0.316099 2.12132,0.87868 C 2.683901,-1.55874 3,-0.795609 3,0 3,0.795609 2.683901,1.55874 2.12132,2.12132 1.55874,2.683901 0.795609,3 0,3 -0.795609,3 -1.55874,2.683901 -2.12132,2.12132 -2.683901,1.55874 -3,0.795609 -3,0 -3,-0.795609 -2.683901,-1.55874 -2.12132,-2.12132 -1.55874,-2.683901 -0.795609,-3 0,-3 Z"
         style="fill:#1f77b4;fill-opacity:1;fill-rule:nonzero;stroke:#1f77b4;stroke-width:1;stroke-linecap:butt;stroke-linejoin:round;stroke-miterlimit:10;stroke-dasharray:none;stroke-opacity:1"
         transform="matrix(1.3333333,0,0,-1.3333333,141.91274,58.739422)"
         clip-path="url(#clipPath20)"
         id="path21" />
    </g>
    <g
       id="g24"
       clip-path="url(#clipPath25)">
      <path
         d="m 0,-3 c 0.795609,0 1.55874,0.316099 2.12132,0.87868 C 2.683901,-1.55874 3,-0.795609 3,0 3,0.795609 2.683901,1.55874 2.12132,2.12132 1.55874,2.683901 0.795609,3 0,3 -0.795609,3 -1.55874,2.683901 -2.12132,2.12132 -2.683901,1.55874 -3,0.795609 -3,0 -3,-0.795609 -2.683901,-1.55874 -2.12132,-2.12132 -1.55874,-2.683901 -0.795609,-3 0,-3 Z"
         style="fill:#1f77b4;fill-opacity:1;fill-rule:nonzero;stroke:#1f77b4;stroke-width:1;stroke-linecap:butt;stroke-linejoin:round;stroke-miterlimit:10;stroke-dasharray:none;stroke-opacity:1"
         transform="matrix(1.3333333,0,0,-1.3333333,153.77877,63.148818)"
         clip-path="url(#clipPath23)"
         id="path24" />
    </g>
    <g
       id="g27"
       clip-path="url(#clipPath28)">
      <path
         d="m 0,-3 c 0.795609,0 1.55874,0.316099 2.12132,0.87868 C 2.683901,-1.55874 3,-0.795609 3,0 3,0.795609 2.683901,1.55874 2.12132,2.12132 1.55874,2.683901 0.795609,3 0,3 -0.795609,3 -1.55874,2.683901 -2.12132,2.12132 -2.683901,1.55874 -3,0.795609 -3,0 -3,-0.795609 -2.683901,-1.55874 -2.12132,-2.12132 -1.55874,-2.683901 -0.795609,-3 0,-3 Z"
         style="fill:#1f77b4;fill-opacity:1;fill-rule:nonzero;stroke:#1f77b4;stroke-width:1;stroke-linecap:butt;stroke-linejoin:round;stroke-miterlimit:10;stroke-dasharray:none;stroke-opacity:1"
         transform="matrix(1.3333333,0,0,-1.3333333,165.6448,81.55352)"
         clip-path="url(#clipPath26)"
         id="path27" />
    </g>
    <g
       id="g30"
       clip-path="url(#clipPath31)">
      <path
         d="m 0,-3 c 0.795609,0 1.55874,0.316099 2.12132,0.87868 C 2.683901,-1.55874 3,-0.795609 3,0 3,0.795609 2.683901,1.55874 2.12132,2.12132 1.55874,2.683901 0.795609,3 0,3 -0.795609,3 -1.55874,2.683901 -2.12132,2.12132 -2.683901,1.55874 -3,0.795609 -3,0 -3,-0.795609 -2.683901,-1.55874 -2.12132,-2.12132 -1.55874,-2.683901 -0.795609,-3 0,-3 Z"
         style="fill:#1f77b4;fill-opacity:1;fill-rule:nonzero;stroke:#1f77b4;stroke-width:1;stroke-linecap:butt;stroke-linejoin:round;stroke-miterlimit:10;stroke-dasharray:none;stroke-opacity:1"
         transform="matrix(1.3333333,0,0,-1.3333333,177.51083,58.739422)"
         clip-path="url(#clipPath29)"
         id="path30" />
    </g>
    <g
       id="g33"
       clip-path="url(#clipPath34)">
      <path
         d="m 0,-3 c 0.795609,0 1.55874,0.316099 2.12132,0.87868 C 2.683901,-1.55874 3,-0.795609 3,0 3,0.795609 2.683901,1.55874 2.12132,2.12132 1.55874,2.683901 0.795609,3 0,3 -0.795609,3 -1.55874,2.683901 -2.12132,2.12132 -2.683901,1.55874 -3,0.795609 -3,0 -3,-0.795609 -2.683901,-1.55874 -2.12132,-2.12132 -1.55874,-2.683901 -0.795609,-3 0,-3 Z"
         style="fill:#1f77b4;fill-opacity:1;fill-rule:nonzero;stroke:#1f77b4;stroke-width:1;stroke-linecap:butt;stroke-linejoin:round;stroke-miterlimit:10;stroke-dasharray:none;stroke-opacity:1"
         transform="matrix(1.3333333,0,0,-1.3333333,189.37685,81.55352)"
         clip-path="url(#clipPath32)"
         id="path33" />
    </g>
    <g
       id="g36"
       clip-path="url(#clipPath37)">
      <path
         d="m 0,-3 c 0.795609,0 1.55874,0.316099 2.12132,0.87868 C 2.683901,-1.55874 3,-0.795609 3,0 3,0.795609 2.683901,1.55874 2.12132,2.12132 1.55874,2.683901 0.795609,3 0,3 -0.795609,3 -1.55874,2.683901 -2.12132,2.12132 -2.683901,1.55874 -3,0.795609 -3,0 -3,-0.795609 -2.683901,-1.55874 -2.12132,-2.12132 -1.55874,-2.683901 -0.795609,-3 0,-3 Z"
         style="fill:#1f77b4;fill-opacity:1;fill-rule:nonzero;stroke:#1f77b4;stroke-width:1;stroke-linecap:butt;stroke-linejoin:round;stroke-miterlimit:10;stroke-dasharray:none;stroke-opacity:1"
         transform="matrix(1.3333333,0,0,-1.3333333,201.24288,91.25504)"
         clip-path="url(#clipPath35)"
         id="path36" />
    </g>
    <g
       id="g39"
       clip-path="url(#clipPath40)">
      <path
         d="m 0,-3 c 0.795609,0 1.55874,0.316099 2.12132,0.87868 C 2.683901,-1.55874 3,-0.795609 3,0 3,0.795609 2.683901,1.55874 2.12132,2.12132 1.55874,2.683901 0.795609,3 0,3 -0.795609,3 -1.55874,2.683901 -2.12132,2.12132 -2.683901,1.55874 -3,0.795609 -3,0 -3,-0.795609 -2.683901,-1.55874 -2.12132,-2.12132 -1.55874,-2.683901 -0.795609,-3 0,-3 Z"
         style="fill:#1f77b4;fill-opacity:1;fill-rule:nonzero;stroke:#1f77b4;stroke-width:1;stroke-linecap:butt;stroke-linejoin:round;stroke-miterlimit:10;stroke-dasharray:none;stroke-opacity:1"
         transform="matrix(1.3333333,0,0,-1.3333333,213.10891,106.50275)"
         clip-path="url(#clipPath38)"
         id="path39" />
    </g>
    <g
       id="g42"
       clip-path="url(#clipPath43)">
      <path
         d="m 0,-3 c 0.795609,0 1.55874,0.316099 2.12132,0.87868 C 2.683901,-1.55874 3,-0.795609 3,0 3,0.795609 2.683901,1.55874 2.12132,2.12132 1.55874,2.683901 0.795609,3 0,3 -0.795609,3 -1.55874,2.683901 -2.12132,2.12132 -2.683901,1.55874 -3,0.795609 -3,0 -3,-0.795609 -2.683901,-1.55874 -2.12132,-2.12132 -1.55874,-2.683901 -0.795609,-3 0,-3 Z"
         style="fill:#1f77b4;fill-opacity:1;fill-rule:nonzero;stroke:#1f77b4;stroke-width:1;stroke-linecap:butt;stroke-linejoin:round;stroke-miterlimit:10;stroke-dasharray:none;stroke-opacity:1"
         transform="matrix(1.3333333,0,0,-1.3333333,224.97494,86.36018)"
         clip-path="url(#clipPath41)"
         id="path42" />
    </g>
    <g
       id="g45"
       clip-path="url(#clipPath46)">
      <path
         d="m 0,-3 c 0.795609,0 1.55874,0.316099 2.12132,0.87868 C 2.683901,-1.55874 3,-0.795609 3,0 3,0.795609 2.683901,1.55874 2.12132,2.12132 1.55874,2.683901 0.795609,3 0,3 -0.795609,3 -1.55874,2.683901 -2.12132,2.12132 -2.683901,1.55874 -3,0.795609 -3,0 -3,-0.795609 -2.683901,-1.55874 -2.12132,-2.12132 -1.55874,-2.683901 -0.795609,-3 0,-3 Z"
         style="fill:#1f77b4;fill-opacity:1;fill-rule:nonzero;stroke:#1f77b4;stroke-width:1;stroke-linecap:butt;stroke-linejoin:round;stroke-miterlimit:10;stroke-dasharray:none;stroke-opacity:1"
         transform="matrix(1.3333333,0,0,-1.3333333,236.84097,117.17467)"
         clip-path="url(#clipPath44)"
         id="path45" />
    </g>
    <g
       id="g48"
       clip-path="url(#clipPath49)">
      <path
         d="m 0,-3 c 0.795609,0 1.55874,0.316099 2.12132,0.87868 C 2.683901,-1.55874 3,-0.795609 3,0 3,0.795609 2.683901,1.55874 2.12132,2.12132 1.55874,2.683901 0.795609,3 0,3 -0.795609,3 -1.55874,2.683901 -2.12132,2.12132 -2.683901,1.55874 -3,0.795609 -3,0 -3,-0.795609 -2.683901,-1.55874 -2.12132,-2.12132 -1.55874,-2.683901 -0.795609,-3 0,-3 Z"
         style="fill:#1f77b4;fill-opacity:1;fill-rule:nonzero;stroke:#1f77b4;stroke-width:1;stroke-linecap:butt;stroke-linejoin:round;stroke-miterlimit:10;stroke-dasharray:none;stroke-opacity:1"
         transform="matrix(1.3333333,0,0,-1.3333333,248.707,101.32274)"
         clip-path="url(#clipPath47)"
         id="path48" />
    </g>
    <g
       id="g51"
       clip-path="url(#clipPath52)">
      <path
         d="m 0,-3 c 0.795609,0 1.55874,0.316099 2.12132,0.87868 C 2.683901,-1.55874 3,-0.795609 3,0 3,0.795609 2.683901,1.55874 2.12132,2.12132 1.55874,2.683901 0.795609,3 0,3 -0.795609,3 -1.55874,2.683901 -2.12132,2.12132 -2.683901,1.55874 -3,0.795609 -3,0 -3,-0.795609 -2.683901,-1.55874 -2.12132,-2.12132 -1.55874,-2.683901 -0.795609,-3 0,-3 Z"
         style="fill:#1f77b4;fill-opacity:1;fill-rule:nonzero;stroke:#1f77b4;stroke-width:1;stroke-linecap:butt;stroke-linejoin:round;stroke-miterlimit:10;stroke-dasharray:none;stroke-opacity:1"
         transform="matrix(1.3333333,0,0,-1.3333333,260.57303,134.02843)"
         clip-path="url(#clipPath50)"
         id="path51" />
    </g>
    <g
       id="g54"
       clip-path="url(#clipPath55)">
      <path
         d="m 0,-3 c 0.795609,0 1.55874,0.316099 2.12132,0.87868 C 2.683901,-1.55874 3,-0.795609 3,0 3,0.795609 2.683901,1.55874 2.12132,2.12132 1.55874,2.683901 0.795609,3 0,3 -0.795609,3 -1.55874,2.683901 -2.12132,2.12132 -2.683901,1.55874 -3,0.795609 -3,0 -3,-0.795609 -2.683901,-1.55874 -2.12132,-2.12132 -1.55874,-2.683901 -0.795609,-3 0,-3 Z"
         style="fill:#1f77b4;fill-opacity:1;fill-rule:nonzero;stroke:#1f77b4;stroke-width:1;stroke-linecap:butt;stroke-linejoin:round;stroke-miterlimit:10;stroke-dasharray:none;stroke-opacity:1"
         transform="matrix(1.3333333,0,0,-1.3333333,272.43906,111.78535)"
         clip-path="url(#clipPath53)"
         id="path54" />
    </g>
    <g
       id="g57"
       clip-path="url(#clipPath58)">
      <path
         d="m 0,-3 c 0.795609,0 1.55874,0.316099 2.12132,0.87868 C 2.683901,-1.55874 3,-0.795609 3,0 3,0.795609 2.683901,1.55874 2.12132,2.12132 1.55874,2.683901 0.795609,3 0,3 -0.795609,3 -1.55874,2.683901 -2.12132,2.12132 -2.683901,1.55874 -3,0.795609 -3,0 -3,-0.795609 -2.683901,-1.55874 -2.12132,-2.12132 -1.55874,-2.683901 -0.795609,-3 0,-3 Z"
         style="fill:#1f77b4;fill-opacity:1;fill-rule:nonzero;stroke:#1f77b4;stroke-width:1;stroke-linecap:butt;stroke-linejoin:round;stroke-miterlimit:10;stroke-dasharray:none;stroke-opacity:1"
         transform="matrix(1.3333333,0,0,-1.3333333,284.30508,145.88648)"
         clip-path="url(#clipPath56)"
         id="path57" />
    </g>
    <g
       id="g60"
       clip-path="url(#clipPath61)">
      <path
         d="m 0,-3 c 0.795609,0 1.55874,0.316099 2.12132,0.87868 C 2.683901,-1.55874 3,-0.795609 3,0 3,0.795609 2.683901,1.55874 2.12132,2.12132 1.55874,2.683901 0.795609,3 0,3 -0.795609,3 -1.55874,2.683901 -2.12132,2.12132 -2.683901,1.55874 -3,0.795609 -3,0 -3,-0.795609 -2.683901,-1.55874 -2.12132,-2.12132 -1.55874,-2.683901 -0.795609,-3 0,-3 Z"
         style="fill:#1f77b4;fill-opacity:1;fill-rule:nonzero;stroke:#1f77b4;stroke-width:1;stroke-linecap:butt;stroke-linejoin:round;stroke-miterlimit:10;stroke-dasharray:none;stroke-opacity:1"
         transform="matrix(1.3333333,0,0,-1.3333333,296.17111,122.67512)"
         clip-path="url(#clipPath59)"
         id="path60" />
    </g>
    <g
       id="g63"
       clip-path="url(#clipPath64)">
      <path
         d="m 0,-3 c 0.795609,0 1.55874,0.316099 2.12132,0.87868 C 2.683901,-1.55874 3,-0.795609 3,0 3,0.795609 2.683901,1.55874 2.12132,2.12132 1.55874,2.683901 0.795609,3 0,3 -0.795609,3 -1.55874,2.683901 -2.12132,2.12132 -2.683901,1.55874 -3,0.795609 -3,0 -3,-0.795609 -2.683901,-1.55874 -2.12132,-2.12132 -1.55874,-2.683901 -0.795609,-3 0,-3 Z"
         style="fill:#1f77b4;fill-opacity:1;fill-rule:nonzero;stroke:#1f77b4;stroke-width:1;stroke-linecap:butt;stroke-linejoin:round;stroke-miterlimit:10;stroke-dasharray:none;stroke-opacity:1"
         transform="matrix(1.3333333,0,0,-1.3333333,308.03714,145.88648)"
         clip-path="url(#clipPath62)"
         id="path63" />
    </g>
    <g
       id="g66"
       clip-path="url(#clipPath67)">
      <path
         d="m 0,-3 c 0.795609,0 1.55874,0.316099 2.12132,0.87868 C 2.683901,-1.55874 3,-0.795609 3,0 3,0.795609 2.683901,1.55874 2.12132,2.12132 1.55874,2.683901 0.795609,3 0,3 -0.795609,3 -1.55874,2.683901 -2.12132,2.12132 -2.683901,1.55874 -3,0.795609 -3,0 -3,-0.795609 -2.683901,-1.55874 -2.12132,-2.12132 -1.55874,-2.683901 -0.795609,-3 0,-3 Z"
         style="fill:#1f77b4;fill-opacity:1;fill-rule:nonzero;stroke:#1f77b4;stroke-width:1;stroke-linecap:butt;stroke-linejoin:round;stroke-miterlimit:10;stroke-dasharray:none;stroke-opacity:1"
         transform="matrix(1.3333333,0,0,-1.3333333,319.90317,171.31165)"
         clip-path="url(#clipPath65)"
         id="path66" />
    </g>
    <g
       id="g69"
       clip-path="url(#clipPath70)">
      <path
         d="m 0,-3 c 0.795609,0 1.55874,0.316099 2.12132,0.87868 C 2.683901,-1.55874 3,-0.795609 3,0 3,0.795609 2.683901,1.55874 2.12132,2.12132 1.55874,2.683901 0.795609,3 0,3 -0.795609,3 -1.55874,2.683901 -2.12132,2.12132 -2.683901,1.55874 -3,0.795609 -3,0 -3,-0.795609 -2.683901,-1.55874 -2.12132,-2.12132 -1.55874,-2.683901 -0.795609,-3 0,-3 Z"
         style="fill:#1f77b4;fill-opacity:1;fill-rule:nonzero;stroke:#1f77b4;stroke-width:1;stroke-linecap:butt;stroke-linejoin:round;stroke-miterlimit:10;stroke-dasharray:none;stroke-opacity:1"
         transform="matrix(1.3333333,0,0,-1.3333333,331.7692,158.29627)"
         clip-path="url(#clipPath68)"
         id="path69" />
    </g>
    <g
       id="g72"
       clip-path="url(#clipPath73)">
      <path
         d="m 0,-3 c 0.795609,0 1.55874,0.316099 2.12132,0.87868 C 2.683901,-1.55874 3,-0.795609 3,0 3,0.795609 2.683901,1.55874 2.12132,2.12132 1.55874,2.683901 0.795609,3 0,3 -0.795609,3 -1.55874,2.683901 -2.12132,2.12132 -2.683901,1.55874 -3,0.795609 -3,0 -3,-0.795609 -2.683901,-1.55874 -2.12132,-2.12132 -1.55874,-2.683901 -0.795609,-3 0,-3 Z"
         style="fill:#1f77b4;fill-opacity:1;fill-rule:nonzero;stroke:#1f77b4;stroke-width:1;stroke-linecap:butt;stroke-linejoin:round;stroke-miterlimit:10;stroke-dasharray:none;stroke-opacity:1"
         transform="matrix(1.3333333,0,0,-1.3333333,343.63523,145.88648)"
         clip-path="url(#clipPath71)"
         id="path72" />
    </g>
    <g
       id="g75"
       clip-path="url(#clipPath76)">
      <path
         d="m 0,-3 c 0.795609,0 1.55874,0.316099 2.12132,0.87868 C 2.683901,-1.55874 3,-0.795609 3,0 3,0.795609 2.683901,1.55874 2.12132,2.12132 1.55874,2.683901 0.795609,3 0,3 -0.795609,3 -1.55874,2.683901 -2.12132,2.12132 -2.683901,1.55874 -3,0.795609 -3,0 -3,-0.795609 -2.683901,-1.55874 -2.12132,-2.12132 -1.55874,-2.683901 -0.795609,-3 0,-3 Z"
         style="fill:#1f77b4;fill-opacity:1;fill-rule:nonzero;stroke:#1f77b4;stroke-width:1;stroke-linecap:butt;stroke-linejoin:round;stroke-miterlimit:10;stroke-dasharray:none;stroke-opacity:1"
         transform="matrix(1.3333333,0,0,-1.3333333,355.50126,184.99478)"
         clip-path="url(#clipPath74)"
         id="path75" />
    </g>
    <g
       id="g78"
       clip-path="url(#clipPath79)">
      <path
         d="m 0,-3 c 0.795609,0 1.55874,0.316099 2.12132,0.87868 C 2.683901,-1.55874 3,-0.795609 3,0 3,0.795609 2.683901,1.55874 2.12132,2.12132 1.55874,2.683901 0.795609,3 0,3 -0.795609,3 -1.55874,2.683901 -2.12132,2.12132 -2.683901,1.55874 -3,0.795609 -3,0 -3,-0.795609 -2.683901,-1.55874 -2.12132,-2.12132 -1.55874,-2.683901 -0.795609,-3 0,-3 Z"
         style="fill:#1f77b4;fill-opacity:1;fill-rule:nonzero;stroke:#1f77b4;stroke-width:1;stroke-linecap:butt;stroke-linejoin:round;stroke-miterlimit:10;stroke-dasharray:none;stroke-opacity:1"
         transform="matrix(1.3333333,0,0,-1.3333333,367.36728,158.29627)"
         clip-path="url(#clipPath77)"
         id="path78" />
    </g>
    <g
       id="g81"
       clip-path="url(#clipPath82)">
      <path
         d="m 0,-3 c 0.795609,0 1.55874,0.316099 2.12132,0.87868 C 2.683901,-1.55874 3,-0.795609 3,0 3,0.795609 2.683901,1.55874 2.12132,2.12132 1.55874,2.683901 0.795609,3 0,3 -0.795609,3 -1.55874,2.683901 -2.12132,2.12132 -2.683901,1.55874 -3,0.795609 -3,0 -3,-0.795609 -2.683901,-1.55874 -2.12132,-2.12132 -1.55874,-2.683901 -0.795609,-3 0,-3 Z"
         style="fill:#1f77b4;fill-opacity:1;fill-rule:nonzero;stroke:#1f77b4;stroke-width:1;stroke-linecap:butt;stroke-linejoin:round;stroke-miterlimit:10;stroke-dasharray:none;stroke-opacity:1"
         transform="matrix(1.3333333,0,0,-1.3333333,379.23331,171.31165)"
         clip-path="url(#clipPath80)"
         id="path81" />
    </g>
    <g
       id="g84"
       clip-path="url(#clipPath85)">
      <path
         d="m 0,-3 c 0.795609,0 1.55874,0.316099 2.12132,0.87868 C 2.683901,-1.55874 3,-0.795609 3,0 3,0.795609 2.683901,1.55874 2.12132,2.12132 1.55874,2.683901 0.795609,3 0,3 -0.795609,3 -1.55874,2.683901 -2.12132,2.12132 -2.683901,1.55874 -3,0.795609 -3,0 -3,-0.795609 -2.683901,-1.55874 -2.12132,-2.12132 -1.55874,-2.683901 -0.795609,-3 0,-3 Z"
         style="fill:#1f77b4;fill-opacity:1;fill-rule:nonzero;stroke:#1f77b4;stroke-width:1;stroke-linecap:butt;stroke-linejoin:round;stroke-miterlimit:10;stroke-dasharray:none;stroke-opacity:1"
         transform="matrix(1.3333333,0,0,-1.3333333,391.09934,206.93281)"
         clip-path="url(#clipPath83)"
         id="path84" />
    </g>
    <g
       id="g87"
       clip-path="url(#clipPath88)">
      <path
         d="m 0,-3 c 0.795609,0 1.55874,0.316099 2.12132,0.87868 C 2.683901,-1.55874 3,-0.795609 3,0 3,0.795609 2.683901,1.55874 2.12132,2.12132 1.55874,2.683901 0.795609,3 0,3 -0.795609,3 -1.55874,2.683901 -2.12132,2.12132 -2.683901,1.55874 -3,0.795609 -3,0 -3,-0.795609 -2.683901,-1.55874 -2.12132,-2.12132 -1.55874,-2.683901 -0.795609,-3 0,-3 Z"
         style="fill:#1f77b4;fill-opacity:1;fill-rule:nonzero;stroke:#1f77b4;stroke-width:1;stroke-linecap:butt;stroke-linejoin:round;stroke-miterlimit:10;stroke-dasharray:none;stroke-opacity:1"
         transform="matrix(1.3333333,0,0,-1.3333333,402.96537,214.66559)"
         clip-path="url(#clipPath86)"
         id="path87" />
    </g>
    <g
       id="g90"
       clip-path="url(#clipPath91)">
      <path
         d="m 0,-3 c 0.795609,0 1.55874,0.316099 2.12132,0.87868 C 2.683901,-1.55874 3,-0.795609 3,0 3,0.795609 2.683901,1.55874 2.12132,2.12132 1.55874,2.683901 0.795609,3 0,3 -0.795609,3 -1.55874,2.683901 -2.12132,2.12132 -2.683901,1.55874 -3,0.795609 -3,0 -3,-0.795609 -2.683901,-1.55874 -2.12132,-2.12132 -1.55874,-2.683901 -0.795609,-3 0,-3 Z"
         style="fill:#1f77b4;fill-opacity:1;fill-rule:nonzero;stroke:#1f77b4;stroke-width:1;stroke-linecap:butt;stroke-linejoin:round;stroke-miterlimit:10;stroke-dasharray:none;stroke-opacity:1"
         transform="matrix(1.3333333,0,0,-1.3333333,414.8314,178.06549)"
         clip-path="url(#clipPath89)"
         id="path90" />
    </g>
    <g
       id="g93"
       clip-path="url(#clipPath94)">
      <path
         d="m 0,-3 c 0.795609,0 1.55874,0.316099 2.12132,0.87868 C 2.683901,-1.55874 3,-0.795609 3,0 3,0.795609 2.683901,1.55874 2.12132,2.12132 1.55874,2.683901 0.795609,3 0,3 -0.795609,3 -1.55874,2.683901 -2.12132,2.12132 -2.683901,1.55874 -3,0.795609 -3,0 -3,-0.795609 -2.683901,-1.55874 -2.12132,-2.12132 -1.55874,-2.683901 -0.795609,-3 0,-3 Z"
         style="fill:#1f77b4;fill-opacity:1;fill-rule:nonzero;stroke:#1f77b4;stroke-width:1;stroke-linecap:butt;stroke-linejoin:round;stroke-miterlimit:10;stroke-dasharray:none;stroke-opacity:1"
         transform="matrix(1.3333333,0,0,-1.3333333,426.69743,206.93281)"
         clip-path="url(#clipPath92)"
         id="path93" />
    </g>
    <g
       id="g96"
       clip-path="url(#clipPath97)">
      <path
         d="m 0,-3 c 0.795609,0 1.55874,0.316099 2.12132,0.87868 C 2.683901,-1.55874 3,-0.795609 3,0 3,0.795609 2.683901,1.55874 2.12132,2.12132 1.55874,2.683901 0.795609,3 0,3 -0.795609,3 -1.55874,2.683901 -2.12132,2.12132 -2.683901,1.55874 -3,0.795609 -3,0 -3,-0.795609 -2.683901,-1.55874 -2.12132,-2.12132 -1.55874,-2.683901 -0.795609,-3 0,-3 Z"
         style="fill:#1f77b4;fill-opacity:1;fill-rule:nonzero;stroke:#1f77b4;stroke-width:1;stroke-linecap:butt;stroke-linejoin:round;stroke-miterlimit:10;stroke-dasharray:none;stroke-opacity:1"
         transform="matrix(1.3333333,0,0,-1.3333333,438.56346,214.66559)"
         clip-path="url(#clipPath95)"
         id="path96" />
    </g>
    <g
       id="g99"
       clip-path="url(#clipPath100)">
      <path
         d="m 0,-3 c 0.795609,0 1.55874,0.316099 2.12132,0.87868 C 2.683901,-1.55874 3,-0.795609 3,0 3,0.795609 2.683901,1.55874 2.12132,2.12132 1.55874,2.683901 0.795609,3 0,3 -0.795609,3 -1.55874,2.683901 -2.12132,2.12132 -2.683901,1.55874 -3,0.795609 -3,0 -3,-0.795609 -2.683901,-1.55874 -2.12132,-2.12132 -1.55874,-2.683901 -0.795609,-3 0,-3 Z"
         style="fill:#1f77b4;fill-opacity:1;fill-rule:nonzero;stroke:#1f77b4;stroke-width:1;stroke-linecap:butt;stroke-linejoin:round;stroke-miterlimit:10;stroke-dasharray:none;stroke-opacity:1"
         transform="matrix(1.3333333,0,0,-1.3333333,450.42949,248.05441)"
         clip-path="url(#clipPath98)"
         id="path99" />
    </g>
    <g
       id="g102"
       clip-path="url(#clipPath103)">
      <path
         d="m 0,-3 c 0.795609,0 1.55874,0.316099 2.12132,0.87868 C 2.683901,-1.55874 3,-0.795609 3,0 3,0.795609 2.683901,1.55874 2.12132,2.12132 1.55874,2.683901 0.795609,3 0,3 -0.795609,3 -1.55874,2.683901 -2.12132,2.12132 -2.683901,1.55874 -3,0.795609 -3,0 -3,-0.795609 -2.683901,-1.55874 -2.12132,-2.12132 -1.55874,-2.683901 -0.795609,-3 0,-3 Z"
         style="fill:#1f77b4;fill-opacity:1;fill-rule:nonzero;stroke:#1f77b4;stroke-width:1;stroke-linecap:butt;stroke-linejoin:round;stroke-miterlimit:10;stroke-dasharray:none;stroke-opacity:1"
         transform="matrix(1.3333333,0,0,-1.3333333,462.29551,206.93281)"
         clip-path="url(#clipPath101)"
         id="path102" />
    </g>
    <g
       id="g105"
       clip-path="url(#clipPath106)">
      <path
         d="m 0,-3 c 0.795609,0 1.55874,0.316099 2.12132,0.87868 C 2.683901,-1.55874 3,-0.795609 3,0 3,0.795609 2.683901,1.55874 2.12132,2.12132 1.55874,2.683901 0.795609,3 0,3 -0.795609,3 -1.55874,2.683901 -2.12132,2.12132 -2.683901,1.55874 -3,0.795609 -3,0 -3,-0.795609 -2.683901,-1.55874 -2.12132,-2.12132 -1.55874,-2.683901 -0.795609,-3 0,-3 Z"
         style="fill:#1f77b4;fill-opacity:1;fill-rule:nonzero;stroke:#1f77b4;stroke-width:1;stroke-linecap:butt;stroke-linejoin:round;stroke-miterlimit:10;stroke-dasharray:none;stroke-opacity:1"
         transform="matrix(1.3333333,0,0,-1.3333333,474.16154,257.09807)"
         clip-path="url(#clipPath104)"
         id="path105" />
    </g>
    <g
       id="g108"
       clip-path="url(#clipPath109)">
      <path
         d="m 0,-3 c 0.795609,0 1.55874,0.316099 2.12132,0.87868 C 2.683901,-1.55874 3,-0.795609 3,0 3,0.795609 2.683901,1.55874 2.12132,2.12132 1.55874,2.683901 0.795609,3 0,3 -0.795609,3 -1.55874,2.683901 -2.12132,2.12132 -2.683901,1.55874 -3,0.795609 -3,0 -3,-0.795609 -2.683901,-1.55874 -2.12132,-2.12132 -1.55874,-2.683901 -0.795609,-3 0,-3 Z"
         style="fill:#1f77b4;fill-opacity:1;fill-rule:nonzero;stroke:#1f77b4;stroke-width:1;stroke-linecap:butt;stroke-linejoin:round;stroke-miterlimit:10;stroke-dasharray:none;stroke-opacity:1"
         transform="matrix(1.3333333,0,0,-1.3333333,486.02757,239.30732)"
         clip-path="url(#clipPath107)"
         id="path108" />
    </g>
    <g
       id="g111"
       clip-path="url(#clipPath112)">
      <path
         d="m 0,-3 c 0.795609,0 1.55874,0.316099 2.12132,0.87868 C 2.683901,-1.55874 3,-0.795609 3,0 3,0.795609 2.683901,1.55874 2.12132,2.12132 1.55874,2.683901 0.795609,3 0,3 -0.795609,3 -1.55874,2.683901 -2.12132,2.12132 -2.683901,1.55874 -3,0.795609 -3,0 -3,-0.795609 -2.683901,-1.55874 -2.12132,-2.12132 -1.55874,-2.683901 -0.795609,-3 0,-3 Z"
         style="fill:#1f77b4;fill-opacity:1;fill-rule:nonzero;stroke:#1f77b4;stroke-width:1;stroke-linecap:butt;stroke-linejoin:round;stroke-miterlimit:10;stroke-dasharray:none;stroke-opacity:1"
         transform="matrix(1.3333333,0,0,-1.3333333,497.8936,222.62924)"
         clip-path="url(#clipPath110)"
         id="path111" />
    </g>
    <g
       id="g114"
       clip-path="url(#clipPath115)">
      <path
         d="m 0,-3 c 0.795609,0 1.55874,0.316099 2.12132,0.87868 C 2.683901,-1.55874 3,-0.795609 3,0 3,0.795609 2.683901,1.55874 2.12132,2.12132 1.55874,2.683901 0.795609,3 0,3 -0.795609,3 -1.55874,2.683901 -2.12132,2.12132 -2.683901,1.55874 -3,0.795609 -3,0 -3,-0.795609 -2.683901,-1.55874 -2.12132,-2.12132 -1.55874,-2.683901 -0.795609,-3 0,-3 Z"
         style="fill:#1f77b4;fill-opacity:1;fill-rule:nonzero;stroke:#1f77b4;stroke-width:1;stroke-linecap:butt;stroke-linejoin:round;stroke-miterlimit:10;stroke-dasharray:none;stroke-opacity:1"
         transform="matrix(1.3333333,0,0,-1.3333333,509.75963,248.05441)"
         clip-path="url(#clipPath113)"
         id="path114" />
    </g>
    <g
       id="g117"
       clip-path="url(#clipPath118)">
      <path
         d="m 0,-3 c 0.795609,0 1.55874,0.316099 2.12132,0.87868 C 2.683901,-1.55874 3,-0.795609 3,0 3,0.795609 2.683901,1.55874 2.12132,2.12132 1.55874,2.683901 0.795609,3 0,3 -0.795609,3 -1.55874,2.683901 -2.12132,2.12132 -2.683901,1.55874 -3,0.795609 -3,0 -3,-0.795609 -2.683901,-1.55874 -2.12132,-2.12132 -1.55874,-2.683901 -0.795609,-3 0,-3 Z"
         style="fill:#1f77b4;fill-opacity:1;fill-rule:nonzero;stroke:#1f77b4;stroke-width:1;stroke-linecap:butt;stroke-linejoin:round;stroke-miterlimit:10;stroke-dasharray:none;stroke-opacity:1"
         transform="matrix(1.3333333,0,0,-1.3333333,521.62566,257.09807)"
         clip-path="url(#clipPath116)"
         id="path117" />
    </g>
    <g
       id="g120"
       clip-path="url(#clipPath121)">
      <path
         d="m 0,-3 c 0.795609,0 1.55874,0.316099 2.12132,0.87868 C 2.683901,-1.55874 3,-0.795609 3,0 3,0.795609 2.683901,1.55874 2.12132,2.12132 1.55874,2.683901 0.795609,3 0,3 -0.795609,3 -1.55874,2.683901 -2.12132,2.12132 -2.683901,1.55874 -3,0.795609 -3,0 -3,-0.795609 -2.683901,-1.55874 -2.12132,-2.12132 -1.55874,-2.683901 -0.795609,-3 0,-3 Z"
         style="fill:#1f77b4;fill-opacity:1;fill-rule:nonzero;stroke:#1f77b4;stroke-width:1;stroke-linecap:butt;stroke-linejoin:round;stroke-miterlimit:10;stroke-dasharray:none;stroke-opacity:1"
         transform="matrix(1.3333333,0,0,-1.3333333,533.49169,266.45911)"
         clip-path="url(#clipPath119)"
         id="path120" />
    </g>
    <g
       id="g123"
       clip-path="url(#clipPath124)">
      <path
         d="m 0,-3 c 0.795609,0 1.55874,0.316099 2.12132,0.87868 C 2.683901,-1.55874 3,-0.795609 3,0 3,0.795609 2.683901,1.55874 2.12132,2.12132 1.55874,2.683901 0.795609,3 0,3 -0.795609,3 -1.55874,2.683901 -2.12132,2.12132 -2.683901,1.55874 -3,0.795609 -3,0 -3,-0.795609 -2.683901,-1.55874 -2.12132,-2.12132 -1.55874,-2.683901 -0.795609,-3 0,-3 Z"
         style="fill:#1f77b4;fill-opacity:1;fill-rule:nonzero;stroke:#1f77b4;stroke-width:1;stroke-linecap:butt;stroke-linejoin:round;stroke-miterlimit:10;stroke-dasharray:none;stroke-opacity:1"
         transform="matrix(1.3333333,0,0,-1.3333333,545.35772,296.69094)"
         clip-path="url(#clipPath122)"
         id="path123" />
    </g>
    <g
       id="g126"
       clip-path="url(#clipPath127)">
      <path
         d="m 0,-3 c 0.795609,0 1.55874,0.316099 2.12132,0.87868 C 2.683901,-1.55874 3,-0.795609 3,0 3,0.795609 2.683901,1.55874 2.12132,2.12132 1.55874,2.683901 0.795609,3 0,3 -0.795609,3 -1.55874,2.683901 -2.12132,2.12132 -2.683901,1.55874 -3,0.795609 -3,0 -3,-0.795609 -2.683901,-1.55874 -2.12132,-2.12132 -1.55874,-2.683901 -0.795609,-3 0,-3 Z"
         style="fill:#1f77b4;fill-opacity:1;fill-rule:nonzero;stroke:#1f77b4;stroke-width:1;stroke-linecap:butt;stroke-linejoin:round;stroke-miterlimit:10;stroke-dasharray:none;stroke-opacity:1"
         transform="matrix(1.3333333,0,0,-1.3333333,557.22374,276.16063)"
         clip-path="url(#clipPath125)"
         id="path126" />
    </g>
    <g
       id="g129"
       clip-path="url(#clipPath130)">
      <path
         d="m 0,-3 c 0.795609,0 1.55874,0.316099 2.12132,0.87868 C 2.683901,-1.55874 3,-0.795609 3,0 3,0.795609 2.683901,1.55874 2.12132,2.12132 1.55874,2.683901 0.795609,3 0,3 -0.795609,3 -1.55874,2.683901 -2.12132,2.12132 -2.683901,1.55874 -3,0.795609 -3,0 -3,-0.795609 -2.683901,-1.55874 -2.12132,-2.12132 -1.55874,-2.683901 -0.795609,-3 0,-3 Z"
         style="fill:#1f77b4;fill-opacity:1;fill-rule:nonzero;stroke:#1f77b4;stroke-width:1;stroke-linecap:butt;stroke-linejoin:round;stroke-miterlimit:10;stroke-dasharray:none;stroke-opacity:1"
         transform="matrix(1.3333333,0,0,-1.3333333,569.08977,257.09807)"
         clip-path="url(#clipPath128)"
         id="path129" />
    </g>
    <g
       id="g132"
       clip-path="url(#clipPath133)">
      <path
         d="m 0,-3 c 0.795609,0 1.55874,0.316099 2.12132,0.87868 C 2.683901,-1.55874 3,-0.795609 3,0 3,0.795609 2.683901,1.55874 2.12132,2.12132 1.55874,2.683901 0.795609,3 0,3 -0.795609,3 -1.55874,2.683901 -2.12132,2.12132 -2.683901,1.55874 -3,0.795609 -3,0 -3,-0.795609 -2.683901,-1.55874 -2.12132,-2.12132 -1.55874,-2.683901 -0.795609,-3 0,-3 Z"
         style="fill:#1f77b4;fill-opacity:1;fill-rule:nonzero;stroke:#1f77b4;stroke-width:1;stroke-linecap:butt;stroke-linejoin:round;stroke-miterlimit:10;stroke-dasharray:none;stroke-opacity:1"
         transform="matrix(1.3333333,0,0,-1.3333333,580.9558,318.93402)"
         clip-path="url(#clipPath131)"
         id="path132" />
    </g>
    <g
       id="g135"
       clip-path="url(#clipPath136)">
      <path
         d="m 0,-3 c 0.795609,0 1.55874,0.316099 2.12132,0.87868 C 2.683901,-1.55874 3,-0.795609 3,0 3,0.795609 2.683901,1.55874 2.12132,2.12132 1.55874,2.683901 0.795609,3 0,3 -0.795609,3 -1.55874,2.683901 -2.12132,2.12132 -2.683901,1.55874 -3,0.795609 -3,0 -3,-0.795609 -2.683901,-1.55874 -2.12132,-2.12132 -1.55874,-2.683901 -0.795609,-3 0,-3 Z"
         style="fill:#1f77b4;fill-opacity:1;fill-rule:nonzero;stroke:#1f77b4;stroke-width:1;stroke-linecap:butt;stroke-linejoin:round;stroke-miterlimit:10;stroke-dasharray:none;stroke-opacity:1"
         transform="matrix(1.3333333,0,0,-1.3333333,592.82183,296.69094)"
         clip-path="url(#clipPath134)"
         id="path135" />
    </g>
    <g
       id="g138"
       clip-path="url(#clipPath139)">
      <path
         d="m 0,-3 c 0.795609,0 1.55874,0.316099 2.12132,0.87868 C 2.683901,-1.55874 3,-0.795609 3,0 3,0.795609 2.683901,1.55874 2.12132,2.12132 1.55874,2.683901 0.795609,3 0,3 -0.795609,3 -1.55874,2.683901 -2.12132,2.12132 -2.683901,1.55874 -3,0.795609 -3,0 -3,-0.795609 -2.683901,-1.55874 -2.12132,-2.12132 -1.55874,-2.683901 -0.795609,-3 0,-3 Z"
         style="fill:#1f77b4;fill-opacity:1;fill-rule:nonzero;stroke:#1f77b4;stroke-width:1;stroke-linecap:butt;stroke-linejoin:round;stroke-miterlimit:10;stroke-dasharray:none;stroke-opacity:1"
         transform="matrix(1.3333333,0,0,-1.3333333,604.68786,276.16063)"
         clip-path="url(#clipPath137)"
         id="path138" />
    </g>
    <g
       id="g141"
       clip-path="url(#clipPath142)">
      <path
         d="m 0,-3 c 0.795609,0 1.55874,0.316099 2.12132,0.87868 C 2.683901,-1.55874 3,-0.795609 3,0 3,0.795609 2.683901,1.55874 2.12132,2.12132 1.55874,2.683901 0.795609,3 0,3 -0.795609,3 -1.55874,2.683901 -2.12132,2.12132 -2.683901,1.55874 -3,0.795609 -3,0 -3,-0.795609 -2.683901,-1.55874 -2.12132,-2.12132 -1.55874,-2.683901 -0.795609,-3 0,-3 Z"
         style="fill:#1f77b4;fill-opacity:1;fill-rule:nonzero;stroke:#1f77b4;stroke-width:1;stroke-linecap:butt;stroke-linejoin:round;stroke-miterlimit:10;stroke-dasharray:none;stroke-opacity:1"
         transform="matrix(1.3333333,0,0,-1.3333333,616.55389,307.58071)"
         clip-path="url(#clipPath140)"
         id="path141" />
    </g>
    <g
       id="g144"
       clip-path="url(#clipPath145)">
      <path
         d="m 0,-3 c 0.795609,0 1.55874,0.316099 2.12132,0.87868 C 2.683901,-1.55874 3,-0.795609 3,0 3,0.795609 2.683901,1.55874 2.12132,2.12132 1.55874,2.683901 0.795609,3 0,3 -0.795609,3 -1.55874,2.683901 -2.12132,2.12132 -2.683901,1.55874 -3,0.795609 -3,0 -3,-0.795609 -2.683901,-1.55874 -2.12132,-2.12132 -1.55874,-2.683901 -0.795609,-3 0,-3 Z"
         style="fill:#1f77b4;fill-opacity:1;fill-rule:nonzero;stroke:#1f77b4;stroke-width:1;stroke-linecap:butt;stroke-linejoin:round;stroke-miterlimit:10;stroke-dasharray:none;stroke-opacity:1"
         transform="matrix(1.3333333,0,0,-1.3333333,628.41992,318.93402)"
         clip-path="url(#clipPath143)"
         id="path144" />
    </g>
    <g
       id="g147"
       clip-path="url(#clipPath148)">
      <path
         d="m 0,-3 c 0.795609,0 1.55874,0.316099 2.12132,0.87868 C 2.683901,-1.55874 3,-0.795609 3,0 3,0.795609 2.683901,1.55874 2.12132,2.12132 1.55874,2.683901 0.795609,3 0,3 -0.795609,3 -1.55874,2.683901 -2.12132,2.12132 -2.683901,1.55874 -3,0.795609 -3,0 -3,-0.795609 -2.683901,-1.55874 -2.12132,-2.12132 -1.55874,-2.683901 -0.795609,-3 0,-3 Z"
         style="fill:#1f77b4;fill-opacity:1;fill-rule:nonzero;stroke:#1f77b4;stroke-width:1;stroke-linecap:butt;stroke-linejoin:round;stroke-miterlimit:10;stroke-dasharray:none;stroke-opacity:1"
         transform="matrix(1.3333333,0,0,-1.3333333,640.28594,330.79208)"
         clip-path="url(#clipPath146)"
         id="path147" />
    </g>
    <g
       id="g150"
       clip-path="url(#clipPath151)">
      <path
         d="m 0,-3 c 0.795609,0 1.55874,0.316099 2.12132,0.87868 C 2.683901,-1.55874 3,-0.795609 3,0 3,0.795609 2.683901,1.55874 2.12132,2.12132 1.55874,2.683901 0.795609,3 0,3 -0.795609,3 -1.55874,2.683901 -2.12132,2.12132 -2.683901,1.55874 -3,0.795609 -3,0 -3,-0.795609 -2.683901,-1.55874 -2.12132,-2.12132 -1.55874,-2.683901 -0.795609,-3 0,-3 Z"
         style="fill:#1f77b4;fill-opacity:1;fill-rule:nonzero;stroke:#1f77b4;stroke-width:1;stroke-linecap:butt;stroke-linejoin:round;stroke-miterlimit:10;stroke-dasharray:none;stroke-opacity:1"
         transform="matrix(1.3333333,0,0,-1.3333333,652.15197,318.93402)"
         clip-path="url(#clipPath149)"
         id="path150" />
    </g>
    <g
       id="g153"
       clip-path="url(#clipPath154)">
      <path
         d="m 0,-3 c 0.795609,0 1.55874,0.316099 2.12132,0.87868 C 2.683901,-1.55874 3,-0.795609 3,0 3,0.795609 2.683901,1.55874 2.12132,2.12132 1.55874,2.683901 0.795609,3 0,3 -0.795609,3 -1.55874,2.683901 -2.12132,2.12132 -2.683901,1.55874 -3,0.795609 -3,0 -3,-0.795609 -2.683901,-1.55874 -2.12132,-2.12132 -1.55874,-2.683901 -0.795609,-3 0,-3 Z"
         style="fill:#1f77b4;fill-opacity:1;fill-rule:nonzero;stroke:#1f77b4;stroke-width:1;stroke-linecap:butt;stroke-linejoin:round;stroke-miterlimit:10;stroke-dasharray:none;stroke-opacity:1"
         transform="matrix(1.3333333,0,0,-1.3333333,664.018,343.20187)"
         clip-path="url(#clipPath152)"
         id="path153" />
    </g>
    <g
       id="g156"
       clip-path="url(#clipPath157)">
      <path
         d="m 0,-3 c 0.795609,0 1.55874,0.316099 2.12132,0.87868 C 2.683901,-1.55874 3,-0.795609 3,0 3,0.795609 2.683901,1.55874 2.12132,2.12132 1.55874,2.683901 0.795609,3 0,3 -0.795609,3 -1.55874,2.683901 -2.12132,2.12132 -2.683901,1.55874 -3,0.795609 -3,0 -3,-0.795609 -2.683901,-1.55874 -2.12132,-2.12132 -1.55874,-2.683901 -0.795609,-3 0,-3 Z"
         style="fill:#1f77b4;fill-opacity:1;fill-rule:nonzero;stroke:#1f77b4;stroke-width:1;stroke-linecap:butt;stroke-linejoin:round;stroke-miterlimit:10;stroke-dasharray:none;stroke-opacity:1"
         transform="matrix(1.3333333,0,0,-1.3333333,675.88403,330.79208)"
         clip-path="url(#clipPath155)"
         id="path156" />
    </g>
    <g
       id="g159"
       clip-path="url(#clipPath160)">
      <path
         d="m 0,-3 c 0.795609,0 1.55874,0.316099 2.12132,0.87868 C 2.683901,-1.55874 3,-0.795609 3,0 3,0.795609 2.683901,1.55874 2.12132,2.12132 1.55874,2.683901 0.795609,3 0,3 -0.795609,3 -1.55874,2.683901 -2.12132,2.12132 -2.683901,1.55874 -3,0.795609 -3,0 -3,-0.795609 -2.683901,-1.55874 -2.12132,-2.12132 -1.55874,-2.683901 -0.795609,-3 0,-3 Z"
         style="fill:#1f77b4;fill-opacity:1;fill-rule:nonzero;stroke:#1f77b4;stroke-width:1;stroke-linecap:butt;stroke-linejoin:round;stroke-miterlimit:10;stroke-dasharray:none;stroke-opacity:1"
         transform="matrix(1.3333333,0,0,-1.3333333,687.75006,356.21725)"
         clip-path="url(#clipPath158)"
         id="path159" />
    </g>
    <g
       id="g162"
       clip-path="url(#clipPath163)">
      <path
         d="m 0,-3 c 0.795609,0 1.55874,0.316099 2.12132,0.87868 C 2.683901,-1.55874 3,-0.795609 3,0 3,0.795609 2.683901,1.55874 2.12132,2.12132 1.55874,2.683901 0.795609,3 0,3 -0.795609,3 -1.55874,2.683901 -2.12132,2.12132 -2.683901,1.55874 -3,0.795609 -3,0 -3,-0.795609 -2.683901,-1.55874 -2.12132,-2.12132 -1.55874,-2.683901 -0.795609,-3 0,-3 Z"
         style="fill:#1f77b4;fill-opacity:1;fill-rule:nonzero;stroke:#1f77b4;stroke-width:1;stroke-linecap:butt;stroke-linejoin:round;stroke-miterlimit:10;stroke-dasharray:none;stroke-opacity:1"
         transform="matrix(1.3333333,0,0,-1.3333333,699.61609,343.20187)"
         clip-path="url(#clipPath161)"
         id="path162" />
    </g>
    <g
       id="g165"
       clip-path="url(#clipPath166)">
      <path
         d="m 0,-3 c 0.795609,0 1.55874,0.316099 2.12132,0.87868 C 2.683901,-1.55874 3,-0.795609 3,0 3,0.795609 2.683901,1.55874 2.12132,2.12132 1.55874,2.683901 0.795609,3 0,3 -0.795609,3 -1.55874,2.683901 -2.12132,2.12132 -2.683901,1.55874 -3,0.795609 -3,0 -3,-0.795609 -2.683901,-1.55874 -2.12132,-2.12132 -1.55874,-2.683901 -0.795609,-3 0,-3 Z"
         style="fill:#1f77b4;fill-opacity:1;fill-rule:nonzero;stroke:#1f77b4;stroke-width:1;stroke-linecap:butt;stroke-linejoin:round;stroke-miterlimit:10;stroke-dasharray:none;stroke-opacity:1"
         transform="matrix(1.3333333,0,0,-1.3333333,711.48212,415.74355)"
         clip-path="url(#clipPath164)"
         id="path165" />
    </g>
    <g
       id="g168"
       clip-path="url(#clipPath169)">
      <path
         d="m 0,-3 c 0.795609,0 1.55874,0.316099 2.12132,0.87868 C 2.683901,-1.55874 3,-0.795609 3,0 3,0.795609 2.683901,1.55874 2.12132,2.12132 1.55874,2.683901 0.795609,3 0,3 -0.795609,3 -1.55874,2.683901 -2.12132,2.12132 -2.683901,1.55874 -3,0.795609 -3,0 -3,-0.795609 -2.683901,-1.55874 -2.12132,-2.12132 -1.55874,-2.683901 -0.795609,-3 0,-3 Z"
         style="fill:#1f77b4;fill-opacity:1;fill-rule:nonzero;stroke:#1f77b4;stroke-width:1;stroke-linecap:butt;stroke-linejoin:round;stroke-miterlimit:10;stroke-dasharray:none;stroke-opacity:1"
         transform="matrix(1.3333333,0,0,-1.3333333,723.34815,318.93402)"
         clip-path="url(#clipPath167)"
         id="path168" />
    </g>
    <g
       id="g171"
       clip-path="url(#clipPath172)">
      <path
         d="m 0,-3 c 0.795609,0 1.55874,0.316099 2.12132,0.87868 C 2.683901,-1.55874 3,-0.795609 3,0 3,0.795609 2.683901,1.55874 2.12132,2.12132 1.55874,2.683901 0.795609,3 0,3 -0.795609,3 -1.55874,2.683901 -2.12132,2.12132 -2.683901,1.55874 -3,0.795609 -3,0 -3,-0.795609 -2.683901,-1.55874 -2.12132,-2.12132 -1.55874,-2.683901 -0.795609,-3 0,-3 Z"
         style="fill:#1f77b4;fill-opacity:1;fill-rule:nonzero;stroke:#1f77b4;stroke-width:1;stroke-linecap:butt;stroke-linejoin:round;stroke-miterlimit:10;stroke-dasharray:none;stroke-opacity:1"
         transform="matrix(1.3333333,0,0,-1.3333333,735.21417,384.32347)"
         clip-path="url(#clipPath170)"
         id="path171" />
    </g>
    <g
       id="g174"
       clip-path="url(#clipPath175)">
      <path
         d="m 0,-3 c 0.795609,0 1.55874,0.316099 2.12132,0.87868 C 2.683901,-1.55874 3,-0.795609 3,0 3,0.795609 2.683901,1.55874 2.12132,2.12132 1.55874,2.683901 0.795609,3 0,3 -0.795609,3 -1.55874,2.683901 -2.12132,2.12132 -2.683901,1.55874 -3,0.795609 -3,0 -3,-0.795609 -2.683901,-1.55874 -2.12132,-2.12132 -1.55874,-2.683901 -0.795609,-3 0,-3 Z"
         style="fill:#1f77b4;fill-opacity:1;fill-rule:nonzero;stroke:#1f77b4;stroke-width:1;stroke-linecap:butt;stroke-linejoin:round;stroke-miterlimit:10;stroke-dasharray:none;stroke-opacity:1"
         transform="matrix(1.3333333,0,0,-1.3333333,747.0802,369.90037)"
         clip-path="url(#clipPath173)"
         id="path174" />
    </g>
    <g
       id="g177"
       clip-path="url(#clipPath178)">
      <path
         d="m 0,-3 c 0.795609,0 1.55874,0.316099 2.12132,0.87868 C 2.683901,-1.55874 3,-0.795609 3,0 3,0.795609 2.683901,1.55874 2.12132,2.12132 1.55874,2.683901 0.795609,3 0,3 -0.795609,3 -1.55874,2.683901 -2.12132,2.12132 -2.683901,1.55874 -3,0.795609 -3,0 -3,-0.795609 -2.683901,-1.55874 -2.12132,-2.12132 -1.55874,-2.683901 -0.795609,-3 0,-3 Z"
         style="fill:#1f77b4;fill-opacity:1;fill-rule:nonzero;stroke:#1f77b4;stroke-width:1;stroke-linecap:butt;stroke-linejoin:round;stroke-miterlimit:10;stroke-dasharray:none;stroke-opacity:1"
         transform="matrix(1.3333333,0,0,-1.3333333,758.94623,384.32347)"
         clip-path="url(#clipPath176)"
         id="path177" />
    </g>
    <g
       id="g180"
       clip-path="url(#clipPath181)">
      <path
         d="m 0,-3 c 0.795609,0 1.55874,0.316099 2.12132,0.87868 C 2.683901,-1.55874 3,-0.795609 3,0 3,0.795609 2.683901,1.55874 2.12132,2.12132 1.55874,2.683901 0.795609,3 0,3 -0.795609,3 -1.55874,2.683901 -2.12132,2.12132 -2.683901,1.55874 -3,0.795609 -3,0 -3,-0.795609 -2.683901,-1.55874 -2.12132,-2.12132 -1.55874,-2.683901 -0.795609,-3 0,-3 Z"
         style="fill:#1f77b4;fill-opacity:1;fill-rule:nonzero;stroke:#1f77b4;stroke-width:1;stroke-linecap:butt;stroke-linejoin:round;stroke-miterlimit:10;stroke-dasharray:none;stroke-opacity:1"
         transform="matrix(1.3333333,0,0,-1.3333333,770.81226,432.96)"
         clip-path="url(#clipPath179)"
         id="path180" />
    </g>
    <g
       id="g183"
       clip-path="url(#clipPath184)">
      <path
         d="m 0,-3 c 0.795609,0 1.55874,0.316099 2.12132,0.87868 C 2.683901,-1.55874 3,-0.795609 3,0 3,0.795609 2.683901,1.55874 2.12132,2.12132 1.55874,2.683901 0.795609,3 0,3 -0.795609,3 -1.55874,2.683901 -2.12132,2.12132 -2.683901,1.55874 -3,0.795609 -3,0 -3,-0.795609 -2.683901,-1.55874 -2.12132,-2.12132 -1.55874,-2.683901 -0.795609,-3 0,-3 Z"
         style="fill:#1f77b4;fill-opacity:1;fill-rule:nonzero;stroke:#1f77b4;stroke-width:1;stroke-linecap:butt;stroke-linejoin:round;stroke-miterlimit:10;stroke-dasharray:none;stroke-opacity:1"
         transform="matrix(1.3333333,0,0,-1.3333333,782.67829,399.57118)"
         clip-path="url(#clipPath182)"
         id="path183" />
    </g>
    <g
       id="g186"
       clip-path="url(#clipPath187)">
      <path
         d="m 0,-3 c 0.795609,0 1.55874,0.316099 2.12132,0.87868 C 2.683901,-1.55874 3,-0.795609 3,0 3,0.795609 2.683901,1.55874 2.12132,2.12132 1.55874,2.683901 0.795609,3 0,3 -0.795609,3 -1.55874,2.683901 -2.12132,2.12132 -2.683901,1.55874 -3,0.795609 -3,0 -3,-0.795609 -2.683901,-1.55874 -2.12132,-2.12132 -1.55874,-2.683901 -0.795609,-3 0,-3 Z"
         style="fill:#1f77b4;fill-opacity:1;fill-rule:nonzero;stroke:#1f77b4;stroke-width:1;stroke-linecap:butt;stroke-linejoin:round;stroke-miterlimit:10;stroke-dasharray:none;stroke-opacity:1"
         transform="matrix(1.3333333,0,0,-1.3333333,794.54432,415.74355)"
         clip-path="url(#clipPath185)"
         id="path186" />
    </g>
    <path
       id="path188"
       d="m 88.635511,346.16557 8.899522,-4.8195 8.899517,-4.8195 8.89953,-4.8195 8.89952,-4.81951 8.89952,-4.8195 8.89952,-4.8195 8.89952,-4.8195 8.89952,-4.8195 8.89952,-4.8195 8.89953,-4.8195 8.89952,-4.81951 8.89952,-4.8195 8.89952,-4.8195 8.89952,-4.8195 8.89952,-4.8195 8.89953,-4.8195 8.89952,-4.8195 8.89952,-4.81951 8.89952,-4.8195 8.89952,-4.8195 8.89952,-4.8195 8.89952,-4.8195 8.89953,-4.8195 8.89952,-4.8195 8.89952,-4.8195 8.89952,-4.81951 8.89952,-4.8195 8.89952,-4.8195 8.89953,-4.8195 8.89952,-4.8195 8.89952,-4.8195 8.89952,-4.8195 8.89952,-4.81951 8.89952,-4.8195 8.89952,-4.8195 8.89953,-4.8195 8.89952,-4.8195 8.89952,-4.8195 8.89952,-4.8195 8.89952,-4.81951 8.89952,-4.8195 8.89953,-4.8195 8.89952,-4.8195 8.89952,-4.8195 8.89952,-4.8195 8.89952,-4.8195 8.89952,-4.8195 8.89952,-4.81951 8.89953,-4.8195 8.89952,-4.8195 8.89952,-4.8195 8.89952,-4.819501 8.89952,-4.819502 8.89952,-4.819501 8.89953,-4.819501 8.89952,-4.819502 8.89952,-4.819501"
       style="fill:none;stroke:#ff7f0e;stroke-width:1.5;stroke-linecap:square;stroke-linejoin:round;stroke-miterlimit:10;stroke-dasharray:none;stroke-opacity:1"
       transform="matrix(1.3333333,0,0,-1.3333333,0,503.17833)"
       clip-path="url(#clipPath189)" />
    <path
       id="path190"
       d="m 63.271875,37.54375 v 332.64"
       style="fill:none;stroke:#000000;stroke-width:0.8;stroke-linecap:square;stroke-linejoin:miter;stroke-miterlimit:10;stroke-dasharray:none;stroke-opacity:1"
       transform="matrix(1.3333333,0,0,-1.3333333,0,503.17833)" />
    <path
       id="path191"
       d="m 621.27188,37.54375 v 332.64"
       style="fill:none;stroke:#000000;stroke-width:0.8;stroke-linecap:square;stroke-linejoin:miter;stroke-miterlimit:10;stroke-dasharray:none;stroke-opacity:1"
       transform="matrix(1.3333333,0,0,-1.3333333,0,503.17833)" />
    <path
       id="path192"
       d="M 63.271875,37.54375 H 621.27188"
       style="fill:none;stroke:#000000;stroke-width:0.8;stroke-linecap:square;stroke-linejoin:miter;stroke-miterlimit:10;stroke-dasharray:none;stroke-opacity:1"
       transform="matrix(1.3333333,0,0,-1.3333333,0,503.17833)" />
    <path
       id="path193"
       d="M 63.271875,370.18375 H 621.27188"
       style="fill:none;stroke:#000000;stroke-width:0.8;stroke-linecap:square;stroke-linejoin:miter;stroke-miterlimit:10;stroke-dasharray:none;stroke-opacity:1"
       transform="matrix(1.3333333,0,0,-1.3333333,0,503.17833)" />
  </g>
</svg>
