<?xml version="1.0" encoding="UTF-8" standalone="no"?>
<!-- Created with Inkscape (http://www.inkscape.org/) -->

<svg
   version="1.1"
   id="svg1"
   width="844.33545"
   height="508.24084"
   viewBox="0 0 844.33545 508.24084"
   sodipodi:docname="peaks_on_samples.pdf"
   xmlns:inkscape="http://www.inkscape.org/namespaces/inkscape"
   xmlns:sodipodi="http://sodipodi.sourceforge.net/DTD/sodipodi-0.dtd"
   xmlns="http://www.w3.org/2000/svg"
   xmlns:svg="http://www.w3.org/2000/svg">
  <defs
     id="defs1">
    <clipPath
       clipPathUnits="userSpaceOnUse"
       id="clipPath11">
      <path
         d="M -1021,-463 H 1794 V 1233 H -1021 Z"
         transform="translate(-2.5000006e-5)"
         id="path11" />
    </clipPath>
    <clipPath
       clipPathUnits="userSpaceOnUse"
       id="clipPath14">
      <path
         d="M -1021,-463 H 1794 V 1233 H -1021 Z"
         transform="translate(-2.5000006e-5)"
         id="path14" />
    </clipPath>
    <clipPath
       clipPathUnits="userSpaceOnUse"
       id="clipPath17">
      <path
         d="M -1021,-463 H 1794 V 1233 H -1021 Z"
         transform="translate(-2.5000006e-5)"
         id="path17" />
    </clipPath>
    <clipPath
       clipPathUnits="userSpaceOnUse"
       id="clipPath20">
      <path
         d="M -1021,-463 H 1794 V 1233 H -1021 Z"
         transform="translate(-2.5000006e-5)"
         id="path20" />
    </clipPath>
    <clipPath
       clipPathUnits="userSpaceOnUse"
       id="clipPath28">
      <path
         d="m 58.5125,37.54375 h 558 v 332.64 h -558 z"
         id="path28" />
    </clipPath>
    <clipPath
       clipPathUnits="userSpaceOnUse"
       id="clipPath30">
      <path
         d="m 58.5125,37.54375 h 558 v 332.64 h -558 z"
         id="path30" />
    </clipPath>
    <clipPath
       clipPathUnits="userSpaceOnUse"
       id="clipPath32">
      <path
         d="m 58.5125,37.54375 h 558 v 332.64 h -558 z"
         id="path32" />
    </clipPath>
    <clipPath
       clipPathUnits="userSpaceOnUse"
       id="clipPath34">
      <path
         d="m 58.5125,37.54375 h 558 v 332.64 h -558 z"
         id="path34" />
    </clipPath>
    <clipPath
       clipPathUnits="userSpaceOnUse"
       id="clipPath36">
      <path
         d="m 58.5125,37.54375 h 558 v 332.64 h -558 z"
         id="path36" />
    </clipPath>
    <clipPath
       clipPathUnits="userSpaceOnUse"
       id="clipPath38">
      <path
         d="m 58.5125,37.54375 h 558 v 332.64 h -558 z"
         id="path38" />
    </clipPath>
  </defs>
  <sodipodi:namedview
     id="namedview1"
     pagecolor="#ffffff"
     bordercolor="#111111"
     borderopacity="1"
     inkscape:showpageshadow="0"
     inkscape:pageopacity="0"
     inkscape:pagecheckerboard="1"
     inkscape:deskcolor="#d1d1d1">
    <inkscape:page
       x="0"
       y="0"
       inkscape:label="1"
       id="page1"
       width="844.33545"
       height="508.24084"
       margin="0"
       bleed="0" />
  </sodipodi:namedview>
  <g
     id="g1"
     inkscape:groupmode="layer"
     inkscape:label="1">
    <path
       id="path1"
       d="m 58.5125,37.54375 v -3.5"
       style="fill:#000000;fill-opacity:1;fill-rule:nonzero;stroke:#000000;stroke-width:0.8;stroke-linecap:butt;stroke-linejoin:round;stroke-miterlimit:10;stroke-dasharray:none;stroke-opacity:1"
       transform="matrix(1.3333333,0,0,-1.3333333,0,508.24083)" />
    <text
       id="text1"
       xml:space="preserve"
       transform="matrix(1.3333333,0,0,1.3333333,73.777083,477.64083)"><tspan
         id="tspan1"
         style="font-variant:normal;font-weight:normal;font-size:10px;font-family:'DejaVu Sans';writing-mode:lr-tb;fill:#000000;fill-opacity:1;fill-rule:nonzero;stroke:none"
         x="0"
         y="0">0</tspan></text>
    <path
       id="path2"
       d="m 128.2625,37.54375 v -3.5"
       style="fill:#000000;fill-opacity:1;fill-rule:nonzero;stroke:#000000;stroke-width:0.8;stroke-linecap:butt;stroke-linejoin:round;stroke-miterlimit:10;stroke-dasharray:none;stroke-opacity:1"
       transform="matrix(1.3333333,0,0,-1.3333333,0,508.24083)" />
    <text
       id="text2"
       xml:space="preserve"
       transform="matrix(1.3333333,0,0,1.3333333,162.5375,477.64083)"><tspan
         id="tspan2"
         style="font-variant:normal;font-weight:normal;font-size:10px;font-family:'DejaVu Sans';writing-mode:lr-tb;fill:#000000;fill-opacity:1;fill-rule:nonzero;stroke:none"
         x="0"
         y="0">25</tspan></text>
    <path
       id="path3"
       d="m 198.0125,37.54375 v -3.5"
       style="fill:#000000;fill-opacity:1;fill-rule:nonzero;stroke:#000000;stroke-width:0.8;stroke-linecap:butt;stroke-linejoin:round;stroke-miterlimit:10;stroke-dasharray:none;stroke-opacity:1"
       transform="matrix(1.3333333,0,0,-1.3333333,0,508.24083)" />
    <text
       id="text3"
       xml:space="preserve"
       transform="matrix(1.3333333,0,0,1.3333333,255.5375,477.64083)"><tspan
         id="tspan3"
         style="font-variant:normal;font-weight:normal;font-size:10px;font-family:'DejaVu Sans';writing-mode:lr-tb;fill:#000000;fill-opacity:1;fill-rule:nonzero;stroke:none"
         x="0"
         y="0">50</tspan></text>
    <path
       id="path4"
       d="m 267.7625,37.54375 v -3.5"
       style="fill:#000000;fill-opacity:1;fill-rule:nonzero;stroke:#000000;stroke-width:0.8;stroke-linecap:butt;stroke-linejoin:round;stroke-miterlimit:10;stroke-dasharray:none;stroke-opacity:1"
       transform="matrix(1.3333333,0,0,-1.3333333,0,508.24083)" />
    <text
       id="text4"
       xml:space="preserve"
       transform="matrix(1.3333333,0,0,1.3333333,348.5375,477.64083)"><tspan
         id="tspan4"
         style="font-variant:normal;font-weight:normal;font-size:10px;font-family:'DejaVu Sans';writing-mode:lr-tb;fill:#000000;fill-opacity:1;fill-rule:nonzero;stroke:none"
         x="0"
         y="0">75</tspan></text>
    <path
       id="path5"
       d="m 337.5125,37.54375 v -3.5"
       style="fill:#000000;fill-opacity:1;fill-rule:nonzero;stroke:#000000;stroke-width:0.8;stroke-linecap:butt;stroke-linejoin:round;stroke-miterlimit:10;stroke-dasharray:none;stroke-opacity:1"
       transform="matrix(1.3333333,0,0,-1.3333333,0,508.24083)" />
    <text
       id="text5"
       xml:space="preserve"
       transform="matrix(1.3333333,0,0,1.3333333,437.29792,477.64083)"><tspan
         id="tspan5"
         style="font-variant:normal;font-weight:normal;font-size:10px;font-family:'DejaVu Sans';writing-mode:lr-tb;fill:#000000;fill-opacity:1;fill-rule:nonzero;stroke:none"
         x="0"
         y="0">100</tspan></text>
    <path
       id="path6"
       d="m 407.2625,37.54375 v -3.5"
       style="fill:#000000;fill-opacity:1;fill-rule:nonzero;stroke:#000000;stroke-width:0.8;stroke-linecap:butt;stroke-linejoin:round;stroke-miterlimit:10;stroke-dasharray:none;stroke-opacity:1"
       transform="matrix(1.3333333,0,0,-1.3333333,0,508.24083)" />
    <text
       id="text6"
       xml:space="preserve"
       transform="matrix(1.3333333,0,0,1.3333333,530.29792,477.64083)"><tspan
         id="tspan6"
         style="font-variant:normal;font-weight:normal;font-size:10px;font-family:'DejaVu Sans';writing-mode:lr-tb;fill:#000000;fill-opacity:1;fill-rule:nonzero;stroke:none"
         x="0"
         y="0">125</tspan></text>
    <path
       id="path7"
       d="m 477.0125,37.54375 v -3.5"
       style="fill:#000000;fill-opacity:1;fill-rule:nonzero;stroke:#000000;stroke-width:0.8;stroke-linecap:butt;stroke-linejoin:round;stroke-miterlimit:10;stroke-dasharray:none;stroke-opacity:1"
       transform="matrix(1.3333333,0,0,-1.3333333,0,508.24083)" />
    <text
       id="text7"
       xml:space="preserve"
       transform="matrix(1.3333333,0,0,1.3333333,623.29792,477.64083)"><tspan
         id="tspan7"
         style="font-variant:normal;font-weight:normal;font-size:10px;font-family:'DejaVu Sans';writing-mode:lr-tb;fill:#000000;fill-opacity:1;fill-rule:nonzero;stroke:none"
         x="0"
         y="0">150</tspan></text>
    <path
       id="path8"
       d="m 546.7625,37.54375 v -3.5"
       style="fill:#000000;fill-opacity:1;fill-rule:nonzero;stroke:#000000;stroke-width:0.8;stroke-linecap:butt;stroke-linejoin:round;stroke-miterlimit:10;stroke-dasharray:none;stroke-opacity:1"
       transform="matrix(1.3333333,0,0,-1.3333333,0,508.24083)" />
    <text
       id="text8"
       xml:space="preserve"
       transform="matrix(1.3333333,0,0,1.3333333,716.29792,477.64083)"><tspan
         id="tspan8"
         style="font-variant:normal;font-weight:normal;font-size:10px;font-family:'DejaVu Sans';writing-mode:lr-tb;fill:#000000;fill-opacity:1;fill-rule:nonzero;stroke:none"
         x="0"
         y="0">175</tspan></text>
    <path
       id="path9"
       d="m 616.5125,37.54375 v -3.5"
       style="fill:#000000;fill-opacity:1;fill-rule:nonzero;stroke:#000000;stroke-width:0.8;stroke-linecap:butt;stroke-linejoin:round;stroke-miterlimit:10;stroke-dasharray:none;stroke-opacity:1"
       transform="matrix(1.3333333,0,0,-1.3333333,0,508.24083)" />
    <text
       id="text9"
       xml:space="preserve"
       transform="matrix(1.3333333,0,0,1.3333333,809.29792,477.64083)"><tspan
         id="tspan9"
         style="font-variant:normal;font-weight:normal;font-size:10px;font-family:'DejaVu Sans';writing-mode:lr-tb;fill:#000000;fill-opacity:1;fill-rule:nonzero;stroke:none"
         x="0"
         y="0">200</tspan></text>
    <text
       id="text10"
       xml:space="preserve"
       transform="matrix(1.3333333,0,0,1.3333333,416.33958,495.87)"><tspan
         id="tspan10"
         style="font-variant:normal;font-weight:normal;font-size:10px;font-family:'DejaVu Sans';writing-mode:lr-tb;fill:#000000;fill-opacity:1;fill-rule:nonzero;stroke:none"
         x="0"
         dx="0 -0.296875"
         y="0">Time (ms)</tspan></text>
    <path
       id="path10"
       d="m 58.5125,37.54375 h -3.5"
       style="fill:#000000;fill-opacity:1;fill-rule:nonzero;stroke:#000000;stroke-width:0.8;stroke-linecap:butt;stroke-linejoin:round;stroke-miterlimit:10;stroke-dasharray:none;stroke-opacity:1"
       transform="matrix(1.3333333,0,0,-1.3333333,0,508.24083)" />
    <text
       id="text11"
       xml:space="preserve"
       transform="matrix(1.3333333,0,0,1.3333333,39.001042,463.245)"><tspan
         id="tspan11"
         style="font-variant:normal;font-weight:normal;font-size:10px;font-family:'DejaVu Sans';writing-mode:lr-tb;fill:#000000;fill-opacity:1;fill-rule:nonzero;stroke:none"
         x="0"
         y="0">1.00</tspan></text>
    <g
       id="g12">
      <path
         d="M 106,355 H 732 V 272 H 106 Z"
         style="fill:#000000;fill-opacity:1;fill-rule:nonzero;stroke:none"
         transform="matrix(0.01333333,0,0,-0.01333333,27.829167,463.245)"
         clip-path="url(#clipPath11)"
         id="path12" />
    </g>
    <path
       id="path13"
       d="m 58.5125,79.12375 h -3.5"
       style="fill:#000000;fill-opacity:1;fill-rule:nonzero;stroke:#000000;stroke-width:0.8;stroke-linecap:butt;stroke-linejoin:round;stroke-miterlimit:10;stroke-dasharray:none;stroke-opacity:1"
       transform="matrix(1.3333333,0,0,-1.3333333,0,508.24083)" />
    <text
       id="text13"
       xml:space="preserve"
       transform="matrix(1.3333333,0,0,1.3333333,39.001042,407.805)"><tspan
         id="tspan13"
         style="font-variant:normal;font-weight:normal;font-size:10px;font-family:'DejaVu Sans';writing-mode:lr-tb;fill:#000000;fill-opacity:1;fill-rule:nonzero;stroke:none"
         x="0"
         y="0">0.75</tspan></text>
    <g
       id="g15">
      <path
         d="M 106,355 H 732 V 272 H 106 Z"
         style="fill:#000000;fill-opacity:1;fill-rule:nonzero;stroke:none"
         transform="matrix(0.01333333,0,0,-0.01333333,27.829167,407.805)"
         clip-path="url(#clipPath14)"
         id="path15" />
    </g>
    <path
       id="path16"
       d="m 58.5125,120.70375 h -3.5"
       style="fill:#000000;fill-opacity:1;fill-rule:nonzero;stroke:#000000;stroke-width:0.8;stroke-linecap:butt;stroke-linejoin:round;stroke-miterlimit:10;stroke-dasharray:none;stroke-opacity:1"
       transform="matrix(1.3333333,0,0,-1.3333333,0,508.24083)" />
    <text
       id="text16"
       xml:space="preserve"
       transform="matrix(1.3333333,0,0,1.3333333,39.001042,352.365)"><tspan
         id="tspan16"
         style="font-variant:normal;font-weight:normal;font-size:10px;font-family:'DejaVu Sans';writing-mode:lr-tb;fill:#000000;fill-opacity:1;fill-rule:nonzero;stroke:none"
         x="0"
         y="0">0.50</tspan></text>
    <g
       id="g18">
      <path
         d="M 106,355 H 732 V 272 H 106 Z"
         style="fill:#000000;fill-opacity:1;fill-rule:nonzero;stroke:none"
         transform="matrix(0.01333333,0,0,-0.01333333,27.829167,352.365)"
         clip-path="url(#clipPath17)"
         id="path18" />
    </g>
    <path
       id="path19"
       d="m 58.5125,162.28375 h -3.5"
       style="fill:#000000;fill-opacity:1;fill-rule:nonzero;stroke:#000000;stroke-width:0.8;stroke-linecap:butt;stroke-linejoin:round;stroke-miterlimit:10;stroke-dasharray:none;stroke-opacity:1"
       transform="matrix(1.3333333,0,0,-1.3333333,0,508.24083)" />
    <text
       id="text19"
       xml:space="preserve"
       transform="matrix(1.3333333,0,0,1.3333333,39.001042,296.925)"><tspan
         id="tspan19"
         style="font-variant:normal;font-weight:normal;font-size:10px;font-family:'DejaVu Sans';writing-mode:lr-tb;fill:#000000;fill-opacity:1;fill-rule:nonzero;stroke:none"
         x="0"
         y="0">0.25</tspan></text>
    <g
       id="g21">
      <path
         d="M 106,355 H 732 V 272 H 106 Z"
         style="fill:#000000;fill-opacity:1;fill-rule:nonzero;stroke:none"
         transform="matrix(0.01333333,0,0,-0.01333333,27.829167,296.925)"
         clip-path="url(#clipPath20)"
         id="path21" />
    </g>
    <path
       id="path22"
       d="m 58.5125,203.86375 h -3.5"
       style="fill:#000000;fill-opacity:1;fill-rule:nonzero;stroke:#000000;stroke-width:0.8;stroke-linecap:butt;stroke-linejoin:round;stroke-miterlimit:10;stroke-dasharray:none;stroke-opacity:1"
       transform="matrix(1.3333333,0,0,-1.3333333,0,508.24083)" />
    <text
       id="text22"
       xml:space="preserve"
       transform="matrix(1.3333333,0,0,1.3333333,38.995833,241.485)"><tspan
         id="tspan22"
         style="font-variant:normal;font-weight:normal;font-size:10px;font-family:'DejaVu Sans';writing-mode:lr-tb;fill:#000000;fill-opacity:1;fill-rule:nonzero;stroke:none"
         x="0"
         y="0">0.00</tspan></text>
    <path
       id="path23"
       d="m 58.5125,245.44375 h -3.5"
       style="fill:#000000;fill-opacity:1;fill-rule:nonzero;stroke:#000000;stroke-width:0.8;stroke-linecap:butt;stroke-linejoin:round;stroke-miterlimit:10;stroke-dasharray:none;stroke-opacity:1"
       transform="matrix(1.3333333,0,0,-1.3333333,0,508.24083)" />
    <text
       id="text23"
       xml:space="preserve"
       transform="matrix(1.3333333,0,0,1.3333333,38.995833,186.045)"><tspan
         id="tspan23"
         style="font-variant:normal;font-weight:normal;font-size:10px;font-family:'DejaVu Sans';writing-mode:lr-tb;fill:#000000;fill-opacity:1;fill-rule:nonzero;stroke:none"
         x="0"
         y="0">0.25</tspan></text>
    <path
       id="path24"
       d="m 58.5125,287.02375 h -3.5"
       style="fill:#000000;fill-opacity:1;fill-rule:nonzero;stroke:#000000;stroke-width:0.8;stroke-linecap:butt;stroke-linejoin:round;stroke-miterlimit:10;stroke-dasharray:none;stroke-opacity:1"
       transform="matrix(1.3333333,0,0,-1.3333333,0,508.24083)" />
    <text
       id="text24"
       xml:space="preserve"
       transform="matrix(1.3333333,0,0,1.3333333,38.995833,130.605)"><tspan
         id="tspan24"
         style="font-variant:normal;font-weight:normal;font-size:10px;font-family:'DejaVu Sans';writing-mode:lr-tb;fill:#000000;fill-opacity:1;fill-rule:nonzero;stroke:none"
         x="0"
         y="0">0.50</tspan></text>
    <path
       id="path25"
       d="m 58.5125,328.60375 h -3.5"
       style="fill:#000000;fill-opacity:1;fill-rule:nonzero;stroke:#000000;stroke-width:0.8;stroke-linecap:butt;stroke-linejoin:round;stroke-miterlimit:10;stroke-dasharray:none;stroke-opacity:1"
       transform="matrix(1.3333333,0,0,-1.3333333,0,508.24083)" />
    <text
       id="text25"
       xml:space="preserve"
       transform="matrix(1.3333333,0,0,1.3333333,38.995833,75.165)"><tspan
         id="tspan25"
         style="font-variant:normal;font-weight:normal;font-size:10px;font-family:'DejaVu Sans';writing-mode:lr-tb;fill:#000000;fill-opacity:1;fill-rule:nonzero;stroke:none"
         x="0"
         y="0">0.75</tspan></text>
    <path
       id="path26"
       d="m 58.5125,370.18375 h -3.5"
       style="fill:#000000;fill-opacity:1;fill-rule:nonzero;stroke:#000000;stroke-width:0.8;stroke-linecap:butt;stroke-linejoin:round;stroke-miterlimit:10;stroke-dasharray:none;stroke-opacity:1"
       transform="matrix(1.3333333,0,0,-1.3333333,0,508.24083)" />
    <text
       id="text26"
       xml:space="preserve"
       transform="matrix(1.3333333,0,0,1.3333333,38.995833,19.725)"><tspan
         id="tspan26"
         style="font-variant:normal;font-weight:normal;font-size:10px;font-family:'DejaVu Sans';writing-mode:lr-tb;fill:#000000;fill-opacity:1;fill-rule:nonzero;stroke:none"
         x="0"
         y="0">1.00</tspan></text>
    <text
       id="text27"
       xml:space="preserve"
       transform="matrix(0,-1.3333333,1.3333333,0,19.725,270.59958)"><tspan
         id="tspan27"
         style="font-variant:normal;font-weight:normal;font-size:10px;font-family:'DejaVu Sans';writing-mode:lr-tb;fill:#000000;fill-opacity:1;fill-rule:nonzero;stroke:none"
         x="0"
         y="0">Amplitude</tspan></text>
    <path
       id="path27"
       d="m 58.5125,204.78112 0.253061,-12.53124 0.06327,-1.00758 0.06327,0.78197 0.189796,-8.65659 0.06327,1.66974 0.06327,-0.0326 0.06327,-0.75415 0.12653,-86.444994 0.189796,49.550284 0.06327,-14.03269 0.06326,5.58559 0.06327,30.36016 0.189796,-96.570708 0.06327,31.082498 0.189796,72.51515 0.06327,-1.48588 0.06327,-9.52344 0.189796,-103.407346 0.189796,123.000726 0.06327,-17.57633 0.126531,-79.984019 0.06327,8.968594 0.126531,68.528575 0.06327,-2.97416 0.316326,-63.550881 0.126531,11.675711 0.06327,-14.673556 0.06327,5.540346 0.12653,-5.143541 0.126531,40.090241 0.06327,-14.5658 0.06327,-24.562019 0.06327,13.973119 0.12653,82.71464 0.253062,-118.306733 0.06326,6.565367 0.253061,54.465166 0.126531,31.2729 0.06327,-16.14505 0.126531,-88.647579 0.06327,7.645819 0.06327,4.946372 0.126531,54.631828 0.06326,-11.15825 0.126531,-24.473173 0.632653,77.130353 0.06327,-6.75285 0.379592,-93.543939 0.189796,4.010023 0.06326,-0.479012 0.189796,10.687769 0.569388,116.072239 0.06327,5.69533 0.126531,-43.8747 0.06327,10.93935 0.189796,26.30891 0.06327,-5.45369 0.126531,-49.76908 0.126531,-35.52235 0.189795,43.52547 0.06327,-4.65092 0.06327,7.92339 0.06326,-11.32711 0.126531,-50.942717 0.126531,8.007637 0.06327,0.28009 0.06327,-3.472326 0.189796,10.934496 0.06327,-2.24761 0.126531,5.2991 0.06327,-0.41354 0.126531,43.59559 0.06327,-13.35361 0.06327,9.14532 0.06327,-5.5918 0.06327,7.88765 0.126531,39.52507 0.06327,-10.28884 0.06327,2.53521 0.126531,16.88585 0.06327,-0.56648 0.06327,-9.39685 0.06327,-26.33493 0.06326,7.93225 0.316327,84.5842 0.06327,-1.44589 0.06327,3.10592 0.06327,-8.95587 0.06327,0.77854 0.06327,8.85726 0.06327,-5.89935 0.189796,-80.88044 0.06327,8.66774 0.06327,3.2092 0.189796,-14.66143 0.126531,9.55667 0.12653,13.7536 0.06327,-8.23072 0.316326,65.35629 0.189796,-66.05564 0.126531,14.44769 0.379592,-68.57918 0.12653,7.30809 0.06327,-0.0984 0.06327,-3.8392 0.06327,0.8891 0.06327,-0.0506 0.126531,2.92358 0.06327,2.60714 0.126531,-4.32287 0.316326,76.23872 0.06327,-1.32279 0.06327,10.9772 0.06327,-6.41824 0.06327,0.57946 0.189796,29.60531 0.06326,-3.49292 0.253061,87.76851 0.126531,-16.63777 0.06327,10.13074 0.06327,-0.44556 0.126531,-8.37433 0.126531,8.99139 0.12653,-7.37674 0.06327,8.6282 0.569388,-97.80239 0.126531,10.99218 0.12653,-28.49277 0.06327,7.70797 0.06326,-6.58374 0.06327,-20.12448 0.06327,8.67911 0.189796,35.13799 0.06327,-2.20008 0.189796,27.44021 0.06327,-5.79113 0.06327,-4.19434 0.126531,22.01711 0.06327,-2.93856 0.379592,-65.04614 0.06327,12.42623 0.06327,-5.44746 0.06327,-10.21155 0.06327,5.07634 0.189796,11.82473 0.189796,24.8192 0.06327,1.71455 0.253061,58.3499 0.189796,21.23924 0.06327,-3.8287 0.316327,-5.2513 0.06327,1.68235 0.06327,-0.0687 0.189796,-20.35422 0.06327,4.04438 0.06327,5.54445 0.189796,-24.69174 0.06327,2.33861 0.126531,21.55507 0.06327,-1.24032 0.12653,-12.89482 0.126531,4.47646 0.316327,-19.48206 0.06327,6.38521 0.316326,-30.64801 0.06327,6.22691 0.06327,-0.50356 0.126531,-16.26406 0.189796,-20.30065 0.12653,-6.70389 0.379592,-39.49019 0.126531,33.59448 0.06327,-7.18472 0.06326,-10.98014 0.06327,3.35998 0.12653,15.85509 0.126531,-21.98723 0.12653,17.67729 0.06327,-3.69257 0.189796,17.81879 0.12653,15.78375 0.126531,-11.74067 0.06327,0.25147 0.126531,9.69333 0.189796,28.2967 0.06327,-7.52479 0.06327,-11.40087 0.06327,4.90106 0.12653,12.96294 0.06327,-5.11831 0.06327,0.0782 0.06327,3.349 0.189796,26.43582 0.126531,-26.6078 0.12653,17.09451 0.06327,-3.69519 0.316326,24.59937 0.06327,-2.95963 0.442858,-48.21416 0.06327,2.2837 0.12653,11.92564 0.126531,-12.73186 0.06327,1.22298 0.06327,-4.50974 0.12653,21.70683 0.189796,-45.84562 0.06327,5.44433 0.12653,19.29019 0.253061,-38.90507 0.126531,8.19613 0.126531,-21.43062 0.06327,0.13986 0.06327,3.19285 0.126531,17.60649 0.12653,-31.93638 0.06327,0.0142 0.12653,22.1008 0.06327,-4.90257 0.189796,-38.3659 0.06327,1.83864 0.12653,26.57492 0.189796,-38.47452 0.126531,1.94228 0.06327,-8.01599 0.126531,17.9203 0.06327,-0.11688 0.06327,-5.97802 0.06327,2.67854 0.06327,-3.98726 0.126531,-25.94072 0.189796,10.41083 0.06327,3.40404 0.06327,-1.10408 0.379592,-38.199 0.189796,23.61972 0.06327,5.35779 0.06327,-3.50339 0.12653,-5.66045 0.189796,21.97014 0.126531,-3.14736 0.06327,3.39352 0.06327,-2.35 0.06327,-0.19926 0.06327,1.16458 0.126531,12.42123 0.12653,-22.18115 0.379592,53.7389 0.06327,1.4072 0.126531,-3.17797 0.126531,8.18582 0.12653,-21.3742 0.126531,51.0947 0.06327,-4.02333 0.06326,-13.36484 0.06327,7.26391 0.06326,14.24309 0.126531,-37.70758 0.06327,3.8374 0.126531,32.12034 0.12653,-24.42503 0.06327,1.86628 0.12653,27.39555 0.126531,-25.78135 0.06327,6.06081 0.06327,6.43336 0.189796,-31.20773 0.06327,6.09936 0.253061,27.13077 0.06327,-2.14254 0.06327,-7.42709 0.06327,0.97697 0.06327,6.37395 0.126531,-13.30541 0.12653,12.71087 0.06327,-2.93142 0.189795,-2.68897 0.253062,-20.58897 0.06327,0.42161 0.06327,4.30552 0.06327,-0.53474 0.189796,-6.98756 0.06327,5.89566 0.06327,-0.8796 0.189796,-11.31618 0.126531,-21.30984 0.06327,5.46048 0.379592,-29.07821 0.06327,2.28665 0.126531,18.78733 0.189796,-15.90931 0.12653,-39.5134 0.06327,1.53423 0.12653,7.42841 0.126531,-6.76505 0.12653,12.14212 0.126531,-20.288832 0.126531,7.031502 0.316326,-19.458119 0.126531,9.852075 0.06327,-1.948899 0.06327,3.537425 0.189796,23.087178 0.189796,-19.127253 0.253061,28.529023 0.126531,-24.14764 0.06327,3.39078 0.253062,25.82405 0.06327,-0.57761 0.126531,-10.41972 0.12653,24.76366 0.06327,-4.04093 0.06327,-9.44581 0.06327,0.9279 0.126531,4.7464 0.06327,-1.47053 0.126531,-8.78289 0.189795,23.44961 0.126531,22.73773 0.06326,-6.19526 0.06327,7.8e-4 0.06326,3.66703 0.126531,-7.49914 0.253061,25.65819 0.316326,-25.43344 0.126531,13.06618 0.06327,-2.59834 0.126531,7.08176 0.189796,-29.20041 0.316326,40.9578 0.06327,-4.05761 0.189796,24.39328 0.06326,-0.40669 0.06327,-3.11788 0.126533,22.8727 0.0633,-2.24975 0.0633,-12.08004 0.0633,1.91288 0.12653,18.54793 0.0633,-14.73178 0.0633,4.20146 0.0633,1.85979 0.0633,-11.69804 0.0633,0.52763 0.12653,11.80804 0.12654,-11.79858 0.0633,8.93778 0.0633,-0.40887 0.0633,-8.40777 0.1898,25.31651 0.0633,-8.72552 0.0633,-4.14753 0.0633,2.88728 0.12653,-5.28079 0.31633,27.34613 0.0633,-1.66306 0.0633,-3.82993 0.12653,12.04818 0.0633,-2.72295 0.0633,1.07927 0.0633,-0.59514 0.25306,-10.80776 0.25306,16.44759 0.12653,-1.59913 0.25306,27.94429 0.0633,-1.34583 0.0633,-4.88595 0.0633,3.36873 0.31632,8.82788 0.1898,24.78777 0.1898,-12.49913 0.0633,-0.24487 0.12653,7.44506 0.0633,-3.74353 0.0633,1.27158 0.0633,2.82626 0.0633,-8.80458 0.0633,1.66413 0.0633,6.35244 0.1898,-7.87445 0.12653,-6.52139 0.0633,1.32945 0.0633,5.14843 0.0633,-4.63289 0.0633,-13.24018 0.0633,1.61002 0.12653,16.33152 0.12653,-11.83207 0.25306,-15.59823 0.0633,1.83137 0.0633,7.0074 0.12653,-19.32539 0.0633,6.23721 0.0633,1.94943 0.25306,-20.08384 0.0633,2.87579 0.12653,-4.72326 0.0633,3.18066 0.12653,-13.17916 0.12653,20.2008 0.0633,-11.27251 0.0633,6.84182 0.0633,8.78493 0.1898,-16.42532 0.0633,-0.15058 0.0633,7.92247 0.0633,-2.54652 0.25306,-13.28588 0.25307,-10.65332 0.0633,3.4571 0.0633,-1.88697 0.0633,-8.6591 0.0633,0.31138 0.12653,18.27395 0.0633,-2.81187 0.12653,-7.03241 0.0633,-0.59593 0.12653,-15.84572 0.0633,1.88987 0.0633,1.94154 0.12653,-22.46166 0.0633,0.98562 0.1898,14.83858 0.0633,4.90557 0.12653,-7.15087 0.12653,4.42735 0.12653,-3.08554 0.12653,8.70201 0.0633,-3.34787 0.0633,2.02895 0.0633,1.06922 0.0633,-2.0832 0.0633,7.60386 0.0633,-2.14883 0.0633,-11.81134 0.0633,1.44298 0.0633,1.64243 0.18979,-7.53468 0.1898,-2.26148 0.12653,-6.81942 0.0633,1.23638 0.25306,-25.50928 0.12654,12.37178 0.0633,-4.01492 0.25306,-20.8182 0.12653,13.36691 0.12653,-19.82551 0.0633,6.09496 0.0633,3.90131 0.12654,-23.90401 0.0633,2.20704 0.0633,3.86368 0.0633,-1.51945 0.0633,-0.2473 0.12653,20.16258 0.0633,-5.15819 0.0633,-10.46981 0.0633,5.28353 0.0633,6.39662 0.0633,-3.82549 0.12653,-4.4445 0.0633,-2.27823 0.0633,5.35954 0.12654,-14.43112 0.0633,5.90267 0.0633,8.10169 0.0633,-1.23405 0.12653,-7.53765 0.25306,22.09127 0.12653,-14.22093 0.0633,8.64966 0.0633,-1.57297 0.0633,-6.19137 0.0633,4.49668 0.0633,4.1785 0.0633,-2.5906 0.0633,0.83875 0.1898,17.63355 0.0633,-0.95751 0.0633,-0.83346 0.0633,7.47437 0.0633,-1.52057 0.18979,-11.77974 0.31633,24.61779 0.0633,-1.96127 0.12653,-5.74807 0.18979,9.69752 0.0633,9.67134 0.0633,-1.53217 0.0633,-10.00082 0.0633,5.15359 0.0633,11.86859 0.0633,-7.54877 0.0633,-5.80489 0.25306,17.70324 0.1898,-8.01091 0.0633,-0.63776 0.25306,16.30532 0.0633,0.0283 0.12653,-6.90874 0.12653,15.37978 0.12653,-8.13899 0.12653,7.44629 0.0633,-1.39493 0.0633,-1.50619 0.25306,18.94511 0.12653,-22.41777 0.0633,2.64071 0.12653,-2.76886 0.12653,5.12999 0.0633,-0.005 0.18979,-9.72002 0.0633,2.21474 0.0633,10.77476 0.0633,-0.081 0.12653,-14.73354 0.18979,5.11046 0.25306,13.68198 0.0633,-0.0552 0.25306,-18.95758 0.1898,10.87705 0.12653,-18.35681 0.0633,0.47323 0.0633,2.79293 0.12653,-3.55805 0.12653,5.9186 0.0633,-1.83436 0.12652,-9.47376 0.0633,0.4183 0.12653,-2.23875 0.0633,-3.35736 0.0633,1.97398 0.0633,4.52243 0.18979,-19.34844 0.0633,2.32768 0.0633,0.52584 0.12653,3.10353 0.1898,-31.37954 0.1898,12.23236 0.12653,-12.20858 0.12653,7.20697 0.12653,-10.78279 0.0633,2.1067 0.12653,-7.87839 0.0633,4.16141 0.0633,-4.35606 0.0633,1.36834 0.0633,4.89965 0.0633,-0.74533 0.31633,-13.72713 0.0633,-1.03679 0.0633,0.8114 0.0633,-0.44092 0.12653,-2.40624 0.0633,-2.99758 0.0633,1.16317 0.0633,3.38668 0.18979,-17.82175 0.12654,3.27011 0.0633,-1.59886 0.12653,5.78815 0.0633,-5.23421 0.0633,0.11353 0.0633,0.87172 0.12653,-11.40759 0.0633,1.988 0.12653,12.26382 0.3796,-12.34829 0.0633,0.5908 0.0633,-0.7677 0.12653,1.90655 0.12653,-4.33636 0.25306,5.39795 0.1898,-7.68501 0.12653,5.15941 0.12653,-6.16913 0.12653,5.59006 0.0633,-9.38056 0.0633,1.90255 0.0633,6.8449 0.0633,-3.62989 0.12653,-6.6311 0.12653,2.3143 0.25306,-10.21958 0.12653,7.21595 0.12653,-6.52037 0.0633,4.94828 0.0633,-3.45201 0.0633,-4.11266 0.0633,1.33646 0.1898,-3.72875 0.0633,0.11559 0.1898,2.99257 0.12653,-8.19121 0.0633,1.64966 0.12653,5.77954 0.12653,-5.68249 0.25306,7.56016 0.0633,-3.36495 0.0633,1.30185 0.18979,5.25106 0.12654,-2.02588 0.31632,9.36853 0.12653,-1.75672 0.12653,3.26001 0.12653,2.69225 0.0633,-1.6805 0.12653,5.60614 0.0633,-1.78177 0.0633,-0.71074 0.12653,5.84449 0.0633,-1.21669 0.12653,7.84478 0.18979,-3.70348 0.0633,0.84202 0.18979,7.22788 0.12653,2.3437 0.0633,-2.94604 0.0633,1.15277 0.12653,12.28902 0.12653,-8.21757 0.12653,8.60886 0.0633,-0.67018 0.12653,4.16366 0.0633,-0.38 0.0633,-3.122 0.0633,2.12919 0.31633,17.12475 0.0633,-1.78506 0.0633,1.2519 0.37959,18.71082 0.0633,1.09882 0.0633,-3.03718 0.0633,1.06255 0.1898,13.86078 0.0633,-0.21535 0.69592,28.75553 0.12653,7.85502 0.0633,-0.18729 0.25306,15.27552 0.12653,0.63262 0.31633,13.94414 0.0633,0.70855 0.75919,33.54445 0.12653,1.34091 0.18979,7.49648 0.0633,1.57346 0.0633,-0.89265 0.3796,8.84793 0.18979,3.61756 0.1898,2.95279 0.12653,2.99105 0.0633,-1.13466 0.0633,0.71189 0.37959,5.78917 0.1898,-1.82234 0.31632,5.34071 0.0633,-0.23211 0.18979,-4.66761 0.0633,0.23356 0.1898,3.6356 0.0633,-1.20186 0.12653,-6.3469 0.12653,2.1298 0.56939,-10.95927 0.12653,-1.53267 0.50612,-11.47299 0.12653,-4.36392 0.1898,-3.11272 1.51837,-47.75501 0.12653,-3.89737 0.0633,1.37055 0.0633,-1.30904 0.37959,-16.22513 0.63265,-23.39895 0.0633,1.22528 0.0633,-1.17481 0.25306,-14.40893 0.0633,-0.61836 0.44286,-21.51382 0.25306,-10.70279 0.0633,0.81852 0.0633,-1.163 0.31633,-16.14065 0.12653,-1.47505 0.50612,-19.92708 0.0633,-0.10179 0.0633,0.47635 0.0633,-1.01554 0.1898,-8.91272 0.12653,3.96294 0.12653,-2.50241 0.12653,-6.32998 0.0633,0.91074 0.12653,3.03405 0.12653,-4.49512 0.0633,0.19057 0.0633,0.67249 0.0633,-0.28581 0.0633,-0.0224 0.0633,0.49703 0.12653,-2.50801 0.0633,0.0704 0.1898,0.90256 0.12653,-1.11634 0.0633,0.42784 0.12653,3.2117 0.12653,-1.93903 0.12653,1.86393 0.0633,-0.59888 0.0633,-0.44878 0.18979,4.17438 0.12653,-3.87848 0.0633,0.77857 0.12653,5.79293 0.0633,-0.39517 0.12653,-2.78477 0.1898,4.03393 0.0633,-0.92369 0.31633,4.91477 0.0633,-0.65372 0.0633,-0.83374 0.0633,0.82496 0.25306,6.07021 0.12653,-0.0293 0.12653,4.58293 0.12653,3.15001 0.0633,-0.24468 0.12653,1.44982 0.37959,10.04855 0.0633,-0.0701 0.12653,2.96957 0.31633,7.81566 0.12653,2.22079 0.63265,16.52942 0.0633,-0.19795 0.0633,0.0536 0.69592,17.63704 0.1898,2.78985 0.25306,7.70571 0.12653,1.78098 0.25306,9.57496 0.0633,-0.43195 0.18979,1.95806 0.31633,12.01122 0.0633,-0.12882 0.0633,1.10921 0.12653,6.78267 0.0633,-0.18133 0.18979,6.51328 0.50612,13.00526 0.1898,2.00736 0.37959,9.37654 0.12653,-1.77691 0.12653,2.593 0.12653,3.44643 0.0633,-2.25597 0.0633,0.74192 0.12653,3.24586 0.12653,-1.43975 0.12653,0.53775 0.0633,1.03406 0.0633,-0.11139 0.12653,-1.42683 0.18979,2.05238 0.0633,-0.31746 0.25306,-4.74845 0.0633,0.7792 0.12653,2.4757 0.12653,-6.38308 0.0633,0.36239 0.0633,1.216 0.0633,-0.54743 0.25306,-4.29223 0.12653,0.0248 0.44286,-5.07678 0.12653,-3.57145 0.0633,0.0787 0.0633,0.71803 0.3796,-6.14618 0.0633,1.27077 0.0633,-0.60059 0.12653,-5.83315 0.0633,1.01668 0.0633,0.60168 0.12653,-2.4179 0.12653,-5.24268 0.12653,2.91185 0.25306,-10.83027 0.0633,1.28668 0.0633,0.28593 0.63265,-16.44333 1.20204,-30.4734 0.3796,-11.00627 0.12653,-4.51863 0.12653,-4.2529 0.0633,0.0221 0.12653,-2.39194 0.31633,-9.99919 0.31633,-9.08666 0.18979,-5.55353 0.0633,-0.20885 0.0633,-1.13987 0.31633,-11.57615 0.94898,-24.7112 0.0633,-2.81433 0.0633,0.287 0.12653,1.3686 0.0633,-0.0703 0.25306,-10.046955 0.0633,0.212153 0.0633,-0.01644 0.44285,-5.422208 0.12654,-3.530301 0.12653,3.359314 0.0633,-0.07529 0.1898,-4.670839 0.0633,0.709451 0.0633,1.235904 0.0633,-0.477679 0.0633,-0.332824 0.0633,1.319291 0.0633,-0.393559 0.12653,-2.687237 0.25306,2.900153 0.12653,3.004993 0.12653,-4.107898 0.25306,6.317555 0.1898,1.904988 0.12653,-1.087639 0.50612,10.966947 0.0633,-0.77516 0.0633,0.22704 0.1898,4.93551 0.18979,3.1856 0.88572,15.44434 0.31633,5.25638 0.12653,1.5821 0.12653,3.41015 0.0633,-0.16801 0.0633,0.33864 0.12653,3.78885 0.0633,-0.0318 0.69592,12.55048 0.31633,5.15967 0.18979,4.89002 0.12653,2.44775 2.34082,79.91682 0.0633,-0.78492 0.37959,12.14848 0.0633,0.24217 0.12653,5.38615 0.12653,6.98673 0.0633,-1.02339 0.0633,0.007 0.12653,2.90496 0.12653,8.20654 0.0633,-0.70011 0.0633,-0.57402 0.18979,8.05772 0.0633,-0.39449 0.0633,-0.26416 0.0633,1.07078 0.18979,6.52484 0.0633,-10e-5 0.44286,10.30374 0.0633,-0.0702 0.44286,4.81648 0.25306,3.53848 0.0633,0.5683 0.0633,-0.32677 0.0633,-0.64632 0.12653,4.65465 0.0633,-1.88318 0.0633,-3.30731 0.0633,1.10103 0.1898,6.55872 0.1898,-4.34567 0.0633,1.74342 0.0633,1.97876 0.0633,-0.9391 0.0633,-0.69746 0.12653,4.3008 0.0633,-0.42695 0.12653,-3.64169 0.0633,1.42632 0.0633,-0.42009 0.0633,-0.26782 0.12653,3.19845 0.12653,-2.09997 0.12653,-1.8631 0.12653,2.85389 0.1898,-2.41101 0.0633,1.03007 0.0633,-0.50093 0.12653,-2.87868 0.18979,1.67639 0.0633,-0.2703 0.12653,-2.64009 0.12653,1.52509 0.1898,-5.064 0.0633,1.12577 0.0633,2.70632 0.0633,-0.73612 0.25306,-5.66681 0.1898,1.30685 0.0633,-0.37997 0.18979,-4.57662 0.12653,3.53336 0.12653,-4.92008 0.0633,0.13536 0.0633,1.40947 0.0633,-0.69561 0.18979,-4.67312 0.12653,2.19629 0.0633,-0.12064 0.25306,-7.52531 0.0633,0.0345 0.12653,2.29596 0.25306,-6.87573 0.0633,-0.26266 0.69592,-13.5588 0.0633,0.0974 0.0633,0.24507 0.37959,-9.29704 0.0633,0.42557 0.56939,-16.74503 0.0633,1.4801 0.1898,-11.25304 0.0633,0.82398 0.0633,2.68524 0.63265,-19.25812 0.0633,-1.02763 0.25306,-12.26713 0.0633,0.02 0.0633,0.78299 0.0633,-0.89867 0.25306,-11.2509 0.12653,0.25762 0.75918,-19.63855 0.12653,-5.12311 0.0633,3.21104 0.0633,-1.51961 0.25306,-8.92927 0.0633,0.0457 0.0633,-0.5176 0.0633,0.59992 0.18979,-8.29061 0.0633,1.32283 0.0633,-0.23025 0.18979,-5.95453 0.1898,2.65973 0.18979,-7.37738 0.0633,0.0889 0.0633,-0.63723 0.12653,-2.59559 0.0633,3.31221 0.12653,-4.95979 0.0633,0.16643 0.0633,1.05833 0.0633,-1.22105 0.12653,-14.99436 0.18979,21.85018 0.0633,-8.22738 0.0633,0.57426 0.0633,17.97995 0.18979,-86.54328 0.0633,27.28411 0.1898,69.79843 0.0633,1.42571 0.0633,-10.06885 0.18979,-105.901273 0.1898,130.969393 0.0633,-18.95378 0.12653,-84.944157 0.0633,8.016829 0.12653,72.207658 0.0633,-2.17897 0.31632,-66.219598 0.0633,7.981128 0.0633,1.92718 0.0633,-15.980166 0.0633,8.553686 0.0633,-4.732396 0.0633,0.919334 0.12653,40.642042 0.0633,-12.33867 0.0633,-28.567724 0.0633,15.927644 0.12653,85.55508 0.25306,-122.86817 0.0633,1.56271 0.18979,49.6845 0.1898,42.52668 0.0633,-19.71358 0.12654,-89.315862 0.0633,6.676293 0.0633,6.502075 0.12653,56.544094 0.0633,-10.61121 0.12653,-26.843878 0.12653,9.900028 0.12653,39.07076 0.0633,-3.93896 0.0633,4.12743 0.25307,30.90034 0.12653,-31.04548 0.25306,-66.584791 0.0633,-3.123042 0.0633,0.394941 0.0633,0.327109 0.50613,41.650413 0.25306,56.97087 0.18979,38.28491 0.12653,-45.05789 0.0633,8.12506 0.18979,32.80432 0.12654,-24.44683 0.18979,-72.9549 0.12653,41.50411 0.0633,-3.81957 0.12653,4.23282 0.0633,-4.69145 0.12653,-48.393499 0.1898,9.495519 0.0633,-3.50666 0.0633,2.56591 0.0633,1.60393 0.12653,4.81211 0.12653,0.63589 0.0633,1.54108 0.12653,42.20879 0.0633,-13.94492 0.0633,10.32337 0.0633,-6.36575 0.0633,7.52113 0.12653,38.54924 0.0633,-9.51679 0.0633,5.27641 0.12653,16.93187 0.0633,-1.32053 0.0633,-8.05825 0.0633,-23.41642 0.0633,9.02821 0.18979,40.81906 0.12653,37.23146 0.0633,-4.16825 0.0633,3.60652 0.0633,-5.40163 0.0633,1.35233 0.0633,7.05134 0.0633,-5.22541 0.18979,-84.11414 0.0633,13.45844 0.0633,-1.90328 0.1898,-10.85849 0.18979,22.18868 0.0633,-1.10988 0.0633,-7.19404 0.25307,62.19485 0.0633,7.18612 0.1898,-75.1712 0.12653,20.59189 0.37959,-71.31104 0.12653,8.57972 0.0633,-1.94797 0.0633,-1.51109 0.1898,3.57995 0.0633,-0.25935 0.1898,2.53015 0.18979,39.47495 0.12653,31.91988 0.0633,-2.77292 0.0633,13.17853 0.0633,-6.18896 0.0633,3.77287 0.18979,35.13017 0.0633,-5.74316 0.25306,86.14893 0.12653,-24.46076 0.0633,14.1745 0.0633,-0.45926 0.12653,-11.46214 0.12653,11.94202 0.12653,-3.99429 0.0633,9.66366 0.37959,-67.43554 0.18979,-34.33598 0.0633,4.5616 0.0633,-0.8955 0.12654,-22.9209 0.0633,5.37686 0.12653,-25.9643 0.0633,3.60042 0.18979,39.65367 0.0633,-3.76776 0.18979,27.71067 0.0633,-2.88952 0.0633,-6.85503 0.12653,28.33206 0.0633,-6.24151 0.25306,-44.17276 0.12653,-20.3349 0.0633,10.86816 0.0633,-2.2457 0.12653,-9.29377 0.1898,13.41236 0.12653,27.95738 0.0633,-2.27186 0.0633,4.25015 0.1898,61.76903 0.0633,-5.96238 0.0633,1.8654 0.12653,16.09372 0.0633,-1.29393 0.0633,5.00451 0.12653,-11.77053 0.18979,11.06776 0.0633,-0.77372 0.1898,-28.22121 0.12653,15.6856 0.12653,-30.1098 0.0633,1.55502 0.12653,15.80033 0.0633,10.10002 0.0633,-0.38505 0.12653,-16.28501 0.12653,8.39978 0.1898,-14.88396 0.0633,-0.0851 0.0633,-5.59269 0.0633,0.42455 0.0633,0.50081 0.25306,-29.89611 0.0633,6.07056 0.0633,-0.67425 0.3796,-35.00093 0.0633,-2.94668 0.12653,-13.68965 0.0633,0.90112 0.18979,-21.23364 0.12653,22.75917 0.0633,-7.47867 0.0633,-10.80323 0.0633,6.67908 0.12653,17.00706 0.12653,-22.68769 0.12653,22.54994 0.1898,-3.59412 0.18979,28.67125 0.0633,-7.51879 0.12653,-6.55413 0.12653,11.17119 0.1898,24.46984 0.0633,-10.87858 0.0633,-7.64989 0.12653,19.04388 0.0633,-0.30011 0.0633,-2.07357 0.0633,0.11389 0.0633,5.62285 0.12653,29.61594 0.0633,-2.58645 0.12653,-25.54684 0.12653,14.15027 0.0633,-5.27468 0.0633,0.14011 0.18979,15.7801 0.0633,-0.78562 0.0633,0.21528 0.0633,-0.23749 0.25306,-26.97563 0.12653,-14.61255 0.0633,0.54049 0.12654,15.26008 0.12653,-15.66535 0.0633,2.29565 0.0633,-1.35472 0.12653,14.29235 0.0633,-4.56044 0.12653,-38.76042 0.0633,3.33285 0.12653,25.76892 0.25306,-41.89199 0.0633,-1.1406 0.0633,6.21547 0.1898,-21.23162 0.0633,1.00562 0.12653,21.90583 0.12653,-39.71911 0.0633,4.56962 0.12653,21.00673 0.0633,-3.94862 0.1898,-37.01796 0.0633,4.36353 0.12653,22.39581 0.37959,-36.29309 0.0633,3.593 0.0633,10.03402 0.0633,-2.3971 0.31633,-30.87669 0.0633,2.36935 0.18979,11.47594 0.0633,-0.39701 0.12653,-18.83781 0.0633,4.8311 0.0633,-5.44811 0.12653,-17.95535 0.18979,23.93907 0.0633,3.71457 0.1898,-8.3794 0.0633,2.81839 0.12653,21.34724 0.12653,-10.06345 0.12653,6.38506 0.0633,-4.38643 0.0633,0.53434 0.12653,17.5353 0.12653,-22.7676 0.3796,52.84394 0.0633,0.0677 0.0633,-0.57138 0.0633,-3.51095 0.12653,6.49463 0.12653,-16.13933 0.12653,49.00755 0.0633,-7.2403 0.0633,-8.60163 0.12653,17.01576 0.12653,-30.29693 0.0633,3.79155 0.12653,21.22037 0.0633,-3.39382 0.0633,-17.70144 0.0633,1.86135 0.12653,31.26132 0.12653,-22.4512 0.12653,6.38784 0.0633,-4.44631 0.12653,-26.38168 0.12653,19.46401 0.0633,-5.05126 0.0633,3.36852 0.0633,16.03676 0.0633,-1.51579 0.0633,-10.235 0.0633,7.51057 0.0633,7.81739 0.12653,-16.93896 0.1898,12.07606 0.0633,-1.60209 0.0633,-5.67817 0.0633,1.63413 0.0633,-0.55155 0.1898,-18.35707 0.12653,-1.64383 0.0633,0.47109 0.0633,1.3867 0.0633,-3.36768 0.0633,0.13804 0.0633,3.17846 0.0633,-1.8808 0.12653,-4.71103 0.12653,-21.37668 0.0633,0.78296 0.0633,6.01468 0.12653,-23.39451 0.0633,7.24621 0.0633,3.15491 0.1898,-22.92601 0.12653,24.93638 0.0633,-2.26876 0.1898,-34.80322 0.12653,-21.29959 0.12653,7.99592 0.0633,-2.34424 0.0633,2.32767 0.0633,10.72176 0.0633,-4.43441 0.12653,-23.636152 0.12653,9.017962 0.0633,-1.186717 0.12653,-14.654084 0.0633,5.271346 0.0633,-1.147719 0.12653,1.275116 0.0633,-0.765892 0.12653,21.03328 0.0633,10.53536 0.0633,-2.56435 0.18979,-16.44882 0.25307,26.09103 0.12653,-20.7126 0.37959,23.66381 0.12653,-9.4534 0.12653,20.57852 0.0633,-1.3046 0.0633,-10.13637 0.0633,1.62311 0.12654,6.75457 0.18979,-10.72972 0.1898,23.08713 0.12653,21.33168 0.0633,-3.62602 0.0633,-1.28872 0.0633,5.15751 0.12653,-12.25933 0.1898,15.16336 0.0633,10.34422 0.0633,-4.16327 0.0633,-7.7683 0.0633,3.31137 0.12653,-11.31943 0.12653,14.68384 0.0633,-1.88202 0.0633,4.29006 0.0633,-3.04495 0.12653,-26.12595 0.0633,1.8107 0.56939,57.35738 0.0633,-0.29694 0.0633,-3.919 0.12653,23.14465 0.0633,-1.07385 0.0633,-13.57475 0.0633,5.61263 0.0633,20.64558 0.0633,-2.79869 0.0633,-13.43939 0.0633,5.92348 0.0633,1.5473 0.12653,-18.77644 0.12653,16.83677 0.0633,-5.06967 0.0633,-3.6873 0.0633,7.50821 0.0633,-3.40466 0.0633,-4.48391 0.1898,21.89705 0.12653,-6.59689 0.12653,-8.7713 0.12653,8.693 0.25306,21.38267 0.12653,-8.34217 0.0633,9.05671 0.0633,-1.57855 0.0633,-1.23991 0.0633,5.28103 0.0633,-1.67852 0.31633,-8.70142 0.12653,11.27562 0.0633,-0.0737 0.0633,-0.85424 0.0633,1.45433 0.25306,28.82935 0.0633,-3.82605 0.0633,-1.79469 0.0633,4.54393 0.0633,-3.27504 0.0633,1.53627 0.0633,5.53987 0.0633,-0.21561 0.0633,0.29791 0.12653,17.5103 0.0633,8.45484 0.12653,-14.95795 0.25306,11.152 0.12653,-10.16146 0.0633,8.93859 0.0633,-2.16218 0.18979,-4.21323 0.0633,2.09122 0.12653,-10.39794 0.18979,11.18653 0.0633,-2.45751 0.12653,-14.15001 0.1898,15.55409 0.25306,-28.9902 0.0633,-5.414 0.12653,10.06491 0.12653,-15.2215 0.0633,5.00605 0.0633,-1.81754 0.44286,-19.63259 0.0633,2.70402 0.12653,-6.38908 0.12653,15.30423 0.0633,-10.07971 0.0633,4.30988 0.0633,8.01183 0.0633,-4.72604 0.12653,-15.74143 0.0633,1.35018 0.0633,5.11905 0.0633,-1.80317 0.12654,-2.45092 0.25306,-12.47479 0.0633,-1.3662 0.12653,2.76034 0.12653,-10.56819 0.1898,18.20785 0.0633,-0.59558 0.31633,-21.78352 0.0633,1.65235 0.0633,-3.60787 0.12653,-20.31066 0.0633,1.78974 0.18979,13.60425 0.0633,4.30946 0.0633,-2.94827 0.0633,-1.10008 0.0633,2.60466 0.0633,-0.76136 0.0633,-3.70098 0.0633,0.92799 0.12653,8.94727 0.0633,-3.44502 0.0633,4.76135 0.0633,-0.52186 0.0633,-3.40858 0.12653,9.14658 0.1898,-14.41053 0.25306,-8.40812 0.12653,3.30899 0.44286,-27.67291 0.12653,3.16917 0.12653,-7.45937 0.12653,-12.92571 0.0633,2.00589 0.12653,7.02902 0.12653,-13.2407 0.0633,1.80623 0.0633,8.46345 0.12653,-28.10895 0.0633,4.09353 0.0633,5.89284 0.0633,-3.53433 0.0633,-0.13828 0.12653,14.74606 0.0633,-2.69903 0.0633,-6.13019 0.0633,3.83904 0.0633,3.0138 0.0633,-2.70052 0.0633,1.69735 0.0633,-0.98091 0.0633,-3.4076 0.0633,2.4849 0.12653,-9.72462 0.0633,5.49856 0.0633,8.6324 0.0633,-0.67212 0.12653,-9.82808 0.1898,17.99012 0.0633,-1.76999 0.0633,-8.36825 0.0633,0.25186 0.0633,5.38166 0.12653,-11.03411 0.12653,13.36215 0.0633,-1.45127 0.0633,-0.51829 0.12653,13.54991 0.0633,8.10157 0.0633,-2.36369 0.0633,-2.41613 0.0633,6.20022 0.0633,-0.88844 0.0633,-5.90809 0.0633,0.41969 0.0633,-1.18649 0.0633,0.90301 0.25306,21.02613 0.0633,-6.31948 0.0633,-4.75862 0.0633,2.80253 0.12653,1.73672 0.12653,12.25245 0.0633,-0.96381 0.0633,-6.20163 0.0633,3.13102 0.0633,10.3276 0.0633,-2.26358 0.0633,-7.53326 0.12653,13.74928 0.0633,-0.23402 0.0633,-0.15351 0.0633,0.45637 0.12653,-6.29691 0.0633,1.31999 0.0633,1.75008 0.0633,-1.89964 0.1898,15.1967 0.12653,-5.55843 0.12653,12.12581 0.0633,-0.85885 0.18979,-3.17909 0.0633,0.89143 0.25306,13.37139 0.0633,4.66483 0.12653,-21.29593 0.0633,1.74082 0.12653,-4.81145 0.1898,8.05936 0.18979,-9.64379 0.12653,12.30509 0.0633,-4.61985 0.12653,-9.1965 0.0633,3.4975 0.0633,-0.80383 0.0633,-1.61867 0.25306,17.86096 0.12653,-4.00575 0.18979,-11.88266 0.1898,10.22453 0.31633,-22.16472 0.18979,9.9157 0.0633,-2.5466 0.12653,-8.31637 0.0633,0.56571 0.3796,-10.837 0.18979,-8.09532 0.0633,-0.0438 0.12653,4.62922 0.12653,-29.7026 0.0633,1.05147 0.1898,5.656 0.12653,-6.56459 0.0633,2.79623 0.31633,-13.62453 0.0633,2.46405 0.0633,1.11832 0.0633,-3.99474 0.0633,1.88859 0.0633,3.41842 0.18979,-9.87637 0.12653,0.0122 0.12653,-7.10843 0.0633,1.25783 0.0633,7.16671 0.0633,-4.70166 0.12653,-7.75522 0.12653,2.55818 0.1898,-17.87276 0.12653,5.07917 0.0633,-1.56672 0.12653,6.24047 0.0633,-1.67461 0.1898,-9.93942 0.0633,0.47188 0.25306,6.39515 0.12653,-3.62734 0.0633,0.64499 0.0633,0.63373 0.1898,-6.02646 0.12653,2.71553 0.12653,-3.03659 0.0633,0.56313 0.0633,0.81461 0.12653,-1.76473 0.1898,-6.18505 0.0633,0.11137 0.12653,3.84252 0.0633,-0.39534 0.18979,-5.53504 0.0633,0.65475 0.37959,-3.42949 0.44286,-8.20162 0.0633,-0.4893 0.0633,0.78447 0.37959,-8.46243 0.1898,3.37169 0.18979,-5.98853 0.0633,0.80815 0.18979,5.15725 0.0633,0.0923 0.0633,-0.24744 0.0633,-1.17321 0.0633,0.81236 0.31632,5.70999 2.53061,41.9141 0.31633,6.18259 0.25306,6.20032 0.25306,9.63696 0.1898,5.48224 0.31633,15.49322 0.0633,0.44115 0.0633,-0.0307 2.59388,109.38651 0.0633,-0.0369 0.0633,-0.32729 0.12654,5.46666 0.18979,5.73369 0.12653,3.28698 0.37959,10.74222 0.12653,0.0791 0.0633,0.72057 0.0633,-0.74305 0.0633,0.94134 0.12653,5.03446 0.0633,-1.31577 0.0633,0.19185 0.12653,1.4588 0.25306,5.03131 0.12653,-2.69418 0.0633,0.0666 0.25306,4.38757 0.0633,0.6776 0.0633,-0.051 0.12653,-4.46452 0.0633,0.61667 0.25306,3.02078 0.18979,-7.3838 0.0633,1.57416 0.0633,0.30916 0.3796,-7.59056 0.0633,0.25019 1.8347,-45.67241 0.37959,-13.41664 0.25306,-5.72079 0.31633,-10.72037 0.12653,-3.46168 0.31632,-12.89357 0.50613,-17.14503 0.12653,-6.36831 0.0633,0.61758 0.0633,-1.38947 0.18979,-13.80458 0.0633,0.8528 0.0633,-1.24793 0.1898,-10.31868 0.0633,-0.80047 1.26531,-49.20367 0.12653,-3.22409 0.12653,-7.61183 0.0633,0.20333 0.0633,0.85523 0.0633,-0.84162 0.18979,-8.70816 0.12653,3.22821 0.0633,-0.19886 0.1898,-7.30637 0.0633,0.84203 0.0633,2.83753 0.0633,-0.38466 0.12653,-5.38491 0.12653,2.6136 0.12653,-1.8704 0.12653,1.08991 0.12653,-2.47916 0.25307,2.42683 0.12653,-2.32305 0.12653,3.94163 0.12653,-1.95775 0.0633,0.64115 0.0633,1.12928 0.0633,-0.68955 0.0633,-0.31388 0.12653,3.93964 0.0633,-1.03461 0.12653,-2.08249 0.1898,5.35649 0.12653,-1.19186 0.0633,-0.81698 0.12653,3.51002 0.0633,-0.0373 0.0633,-2.04631 0.0633,1.00163 0.12653,4.13356 0.0633,-0.48404 0.0633,0.46165 0.0633,-0.20553 0.0633,-0.4537 0.31632,7.95767 0.0633,0.79017 0.0633,-0.71338 0.0633,0.42389 0.31632,7.35519 0.12653,1.50726 0.31633,8.09705 0.0633,0.19546 0.12653,3.16104 0.31632,7.54848 0.25306,5.88756 0.3796,8.42438 0.12653,4.77417 0.0633,-0.85849 0.0633,0.59974 0.31632,8.19935 1.01225,24.07941 0.1898,7.60204 0.0633,-0.9557 0.0633,0.64291 0.12653,1.83002 0.31632,12.20051 0.0633,-0.14376 0.0633,0.66254 0.12653,7.91301 0.0633,-0.46992 0.0633,0.2309 0.31633,11.47348 0.12653,1.62388 0.25306,6.02136 0.12653,1.22383 0.3796,9.92294 0.12653,-2.14602 0.12653,2.8082 0.0633,2.00434 0.0633,-0.0339 0.0633,-1.43624 0.0633,1.0434 0.12653,3.53472 0.12653,-2.5013 0.25306,2.39668 0.12653,-2.10788 0.12653,2.56282 0.0633,-0.17723 0.31632,-5.55783 0.0633,1.53312 0.0633,2.44497 0.0633,-0.17943 0.12653,-5.3999 0.0633,0.26 0.0633,-0.0407 0.31633,-3.93954 0.12653,0.1083 0.31632,-3.21794 0.0633,-0.29214 0.25306,-5.69119 0.0633,0.50158 0.25306,-4.85039 0.12653,-1.92019 0.0633,1.31005 0.0633,-0.50527 0.12653,-5.46571 0.0633,0.57417 0.0633,0.72284 0.0633,-0.0468 0.18979,-8.05863 0.0633,2.74444 0.0633,0.81403 0.25306,-11.32125 0.0633,2.1142 0.0633,0.36612 0.25306,-7.89125 0.12654,-1.99306 0.37959,-11.13707 0.31632,-6.93746 0.25307,-8.19343 0.25306,-5.26181 0.44285,-14.02893 0.25306,-4.37216 0.1898,-7.54165 0.0633,0.15134 0.0633,-0.71162 0.44286,-13.13869 0.12653,-3.3108 1.4551,-40.37813 0.0633,-0.024 0.0633,-0.39026 0.25306,-8.85202 0.0633,0.19367 0.12653,1.769 0.25306,-10.850554 0.0633,0.638505 0.0633,-0.381142 0.31633,-4.994819 0.0633,0.255172 0.0633,0.236014 0.12653,-4.632682 0.0633,0.372102 0.12654,4.498864 0.12652,-5.27476 0.0633,0.145629 0.0633,-0.02903 0.12653,1.28046 0.0633,-0.916815 0.12653,1.132775 0.12653,-2.410172 0.1898,1.532088 0.12653,2.565426 0.0633,1.817417 0.12654,-4.349083 0.25306,6.236474 0.18979,2.306893 0.12653,-1.481475 0.31633,7.112823 0.12653,2.38419 0.0633,1.46159 0.0633,-0.17358 0.0633,0.48845 0.25306,5.66173 0.69592,11.53096 0.31632,5.9365 0.56939,9.78779 0.25306,3.11038 0.25306,5.51858 0.25306,3.73958 0.1898,3.44017 0.1898,2.83054 0.12653,2.62326 1.20204,36.1109 0.0633,3.92391 0.0633,-0.28132 0.0633,0.25955 0.50613,19.64778 0.12653,2.40434 0.63265,23.75574 0.18979,3.85848 0.1898,5.29449 0.12653,3.31897 0.0633,-0.28325 0.12653,6.56282 0.12653,5.9892 0.0633,-0.46547 0.1898,2.56285 0.12653,8.63984 0.0633,-0.77051 0.0633,-0.63275 0.1898,8.55423 0.0633,-0.78321 0.0633,-0.41534 0.12653,4.04324 0.12653,3.97716 0.0633,-0.0203 0.56939,10.65227 0.0633,-0.0389 0.12653,1.78244 0.50612,7.08426 0.12653,-1.01603 0.12653,4.79406 0.0633,-1.87705 0.0633,-3.22836 0.0633,1.19759 0.18979,6.30725 0.1898,-4.2277 0.12653,3.89812 0.0633,-1.03854 0.0633,-0.63425 0.12653,4.50723 0.0633,-0.86522 0.12653,-3.23546 0.0633,1.31687 0.0633,-0.54327 0.0633,-0.27562 0.12653,3.2375 0.25306,-3.66449 0.12654,2.44101 0.0633,-0.68856 0.0633,-1.59736 0.0633,0.003 0.0633,0.90632 0.0633,-0.30351 0.12653,-3.32226 0.1898,1.9428 0.12653,-1.41374 0.0633,-0.8616 0.0633,0.52004 0.0633,0.49376 0.12653,-3.19704 0.0633,-2.45305 0.0633,1.01156 0.0633,2.71646 0.0633,-0.0808 0.25306,-6.31448 0.12653,1.22483 0.0633,0.73684 0.0633,-0.0347 0.12653,-5.70726 0.0633,0.3464 0.12652,4.30302 0.1898,-6.67242 0.12653,3.0078 0.1898,-6.1228 0.0633,1.61383 0.0633,1.51436 0.0633,-0.0991 0.1898,-8.30596 0.0633,0.12561 0.0633,0.46522 0.0633,1.52934 0.18979,-7.18977 0.0633,0.7063 0.0633,3.11331 0.0633,-2.05488 0.0633,0.2317 0.12653,-7.98359 0.12653,1.96649 0.56939,-13.20664 0.0633,1.34834 0.0633,-0.62962 0.25306,-8.09574 0.0633,-0.43716 0.44286,-12.4838 0.12653,2.05515 0.12653,-7.80523 0.0633,-4.49061 0.0633,0.53152 0.0633,1.82227 0.12653,-5.38881 0.31633,-12.75425 0.0633,2.563 0.31632,-11.10124 0.1898,-12.06082 0.0633,0.30054 0.37959,-27.60079 0.12654,-18.50267 0.12653,10.04047 0.0633,-1.01892 0.12653,-12.78079 0.0633,16.88326 0.18979,-86.449825 0.0633,24.125165 0.1898,59.8722 0.0633,-0.0253 0.0633,-9.33557 0.1898,-101.685694 0.1898,122.889654 0.12653,-71.59987 0.0633,-26.74308 0.0633,9.624453 0.12653,66.052347 0.0633,-3.67952 0.12653,-33.23264 0.1898,-27.847181 0.12653,12.665911 0.0633,-16.894266 0.0633,8.809813 0.0633,-7.69832 0.0633,2.389031 0.12653,37.319052 0.0633,-10.2051 0.0633,-25.285243 0.0633,15.072433 0.12653,81.56182 0.25306,-118.377059 0.0633,7.619791 0.25306,53.350178 0.12653,29.76582 0.0633,-14.04833 0.12653,-85.416733 0.0633,3.803263 0.0633,7.216884 0.12653,51.936856 0.0633,-9.62863 0.12653,-25.766841 0.63265,79.673341 0.0633,-7.23695 0.31633,-91.281844 0.0633,-1.351936 0.0633,0.792724 0.0633,4.335198 0.0633,-1.919307 0.18979,4.8671 0.25306,28.418255 0.25307,62.5689 0.18979,37.23402 0.12653,-46.6497 0.0633,14.72148 0.12653,25.5656 0.0633,-1.9165 0.12653,-22.8456 0.12653,-67.62185 0.0633,1.15651 0.12653,42.10914 0.0633,-4.72048 0.0633,3.13781 0.0633,-0.025 0.0633,-5.67735 0.0633,-48.980096 0.0633,2.357422 0.1898,2.305474 0.37959,7.68171 0.12653,7.04169 0.12653,40.86959 0.0633,-13.47595 0.0633,9.64269 0.0633,-4.68798 0.0633,7.81031 0.12653,33.61586 0.0633,-9.14214 0.0633,6.85422 0.12653,19.81281 0.0633,-2.16591 0.0633,-8.68082 0.0633,-28.79306 0.0633,9.87372 0.31632,82.85363 0.0633,-0.66548 0.0633,-1.02643 0.12653,-7.27632 0.0633,8.6884 0.0633,-4.90782 0.1898,-82.73649 0.0633,12.58523 0.0633,2.84054 0.12653,-15.77708 0.0633,2.21949 0.0633,1.48558 0.1898,17.81124 0.0633,-7.04182 0.31633,66.71962 0.1898,-71.57742 0.0633,6.45996 0.0633,11.6333 0.37959,-69.31231 0.0633,1.77716 0.0633,10.17458 0.0633,-4.64135 0.0633,-4.88403 0.0633,3.49676 0.31633,5.38482 0.0633,3.34847 0.75918,106.62941 0.0633,-5.0485 0.25307,86.66379 0.0633,-18.60745 0.0633,0.86461 0.0633,10.77865 0.0633,-2.75219 0.12653,-7.19652 0.12653,9.66792 0.0633,-7.08037 0.0633,1.69107 0.0633,12.07198 0.25307,-67.7919 0.12653,0.75064 0.44285,-53.60279 0.0633,3.36131 0.0633,-5.41403 0.0633,-18.10799 0.0633,6.39119 0.1898,40.75934 0.0633,-5.66979 0.0633,4.93461 0.12653,22.43809 0.12653,-9.71591 0.12653,21.93779 0.0633,-4.35828 0.1898,-20.53009 0.18979,-39.22484 0.0633,7.48149 0.12653,-12.08398 0.0633,2.06119 0.0633,1.57536 0.12653,16.14883 0.18979,24.27928 0.0633,1.74238 0.18979,59.14709 0.0633,-4.32286 0.0633,0.74738 0.12653,14.33207 0.0633,-1.84547 0.0633,4.69425 0.12653,-11.44394 0.0633,1.63956 0.12653,8.85248 0.25306,-25.45033 0.12653,11.19159 0.1898,-26.05818 0.1898,22.05325 0.0633,-1.74916 0.12653,-8.80159 0.0633,2.63184 0.0633,4.91371 0.69592,-46.57631 0.0633,3.05484 0.12653,-8.18595 0.75918,-68.79361 0.12653,26.2014 0.12653,-12.52323 0.12653,11.55395 0.0633,5.89842 0.12653,-21.0343 0.12653,18.83521 0.1898,-5.4442 0.12653,32.89642 0.0633,-1.46141 0.1898,-13.68486 0.0633,2.32325 0.25306,35.45084 0.0633,-5.81155 0.0633,-8.72737 0.0633,6.4468 0.0633,10.69742 0.0633,-0.39886 0.12653,-3.88577 0.0633,0.84167 0.18979,28.11861 0.12653,-24.8904 0.0633,4.2592 0.0633,9.33589 0.0633,-0.88645 0.0633,0.76681 0.25307,19.49959 0.0633,-1.04783 0.44286,-50.39074 0.0633,2.07903 0.12653,19.39516 0.12653,-20.3474 0.0633,3.01448 0.0633,-0.24998 0.12654,18.51976 0.12653,-32.25393 0.0633,-15.02134 0.0633,7.5291 0.12653,17.45379 0.25306,-34.81622 0.31632,-16.78966 0.12654,7.27647 0.0633,4.56258 0.1898,-27.46757 0.12653,28.66384 0.0633,-6.83793 0.1898,-41.81877 0.0633,4.44411 0.12653,22.88497 0.1898,-24.80802 0.0633,-0.91717 0.12653,-7.50761 0.0633,2.63342 0.0633,5.13009 0.0633,-2.53512 0.12653,3.13119 0.1898,-26.62809 0.0633,3.04573 0.12653,9.33233 0.3796,-23.49913 0.0633,-18.4282 0.0633,3.34011 0.25306,28.85122 0.12653,-10.34337 0.0633,1.35074 0.12653,14.3768 0.0633,7.3953 0.0633,-3.02466 0.0633,-5.08026 0.0633,2.70242 0.0633,1.09037 0.0633,-3.90232 0.0633,2.7036 0.0633,8.02701 0.0633,-0.2513 0.12653,-14.18352 0.31633,48.5836 0.12653,4.59326 0.0633,-0.62547 0.0633,0.16197 0.12653,4.47047 0.12653,-10.98117 0.12653,42.20823 0.0633,-3.60992 0.0633,-9.06602 0.12653,16.10664 0.12653,-38.43899 0.0633,0.52948 0.12653,33.14805 0.0633,-6.40225 0.0633,-19.24345 0.0633,4.17915 0.12653,33.51409 0.12653,-31.18553 0.0633,4.2438 0.0633,9.77394 0.0633,-5.90428 0.12654,-26.91354 0.31632,34.07311 0.0633,-3.45695 0.0633,-10.0598 0.0633,2.09747 0.0633,12.48131 0.0633,-3.39067 0.0633,-11.35212 0.0633,5.87732 0.0633,6.33684 0.0633,-2.11786 0.0633,-0.29886 0.50613,-27.03817 0.12653,6.39278 0.0633,-2.81364 0.0633,-4.88611 0.0633,3.19558 0.0633,3.44532 0.12653,-9.42367 0.12653,-22.24133 0.0633,1.5005 0.0633,12.16046 0.12653,-26.53089 0.0633,5.31906 0.0633,0.97049 0.1898,-22.00431 0.12653,32.29338 0.50612,-58.22951 0.1898,8.83067 0.0633,-2.2347 0.12653,-15.070779 0.12653,2.828599 0.0633,-0.84597 0.12653,-11.462717 0.0633,1.201038 0.0633,-4.647849 0.0633,1.644547 0.0633,5.42881 0.0633,-1.040768 0.0633,2.257386 0.12653,30.067533 0.0633,-4.27727 0.12653,-16.21016 0.0633,0.28964 0.25306,25.31636 0.12653,-26.99981 0.25307,20.37077 0.12653,9.34539 0.12653,-10.95738 0.12653,25.10522 0.0633,-2.63966 0.0633,-11.85301 0.0633,0.45344 0.12653,7.44625 0.12653,-7.70815 0.0633,-5.55668 0.25306,35.02962 0.0633,12.90073 0.0633,-5.06721 0.0633,0.54235 0.0633,2.67288 0.0633,-13.3393 0.0633,0.16949 0.12653,17.15413 0.0633,-0.4592 0.0633,11.05767 0.0633,-3.70392 0.0633,-9.62594 0.0633,2.68498 0.12653,-9.30807 0.0633,3.98637 0.12653,7.47313 0.0633,-0.0218 0.0633,-1.00983 0.12653,-19.70555 0.0633,1.9906 0.1898,13.52959 0.12653,19.29988 0.0633,-1.20614 0.1898,22.53879 0.12653,-3.60572 0.12653,20.88281 0.0633,-2.75349 0.0633,-10.42401 0.0633,3.63437 0.12653,19.93296 0.0633,-9.55206 0.0633,2.69495 0.0633,-0.6997 0.12652,-14.27592 0.1898,13.44433 0.0633,-8.45448 0.0633,0.63924 0.0633,4.87433 0.0633,-3.41404 0.0633,3.01313 0.12653,16.16505 0.0633,-1.25327 0.25306,-14.69243 0.31633,29.20624 0.12653,-9.58808 0.12653,10.54147 0.0633,-2.14293 0.0633,5.77197 0.0633,-3.86939 0.25306,-11.18454 0.31633,17.41216 0.0633,0.72891 0.1898,14.76636 0.12653,10.64761 0.18979,-4.27018 0.25306,6.44856 0.1898,28.66194 0.0633,-7.78337 0.0633,-6.00276 0.1898,7.4437 0.0633,5.70339 0.12653,-11.47395 0.0633,11.23458 0.0633,-3.78685 0.0633,-4.36316 0.0633,6.36757 0.0633,-1.47259 0.25306,-12.07662 0.0633,0.99933 0.0633,5.95149 0.0633,-1.8371 0.12653,-16.67558 0.12653,16.99689 0.0633,-2.244 0.25306,-26.87886 0.0633,-3.79976 0.12653,13.11879 0.12653,-23.04102 0.0633,8.09717 0.0633,-0.15571 0.25306,-16.0938 0.0633,3.4555 0.12653,-5.4059 0.0633,2.17928 0.12652,-9.08839 0.12654,17.25479 0.0633,-11.56774 0.0633,7.21041 0.0633,8.6837 0.1898,-24.91329 0.12653,12.60935 0.25306,-18.48116 0.0633,-2.13656 0.12654,2.16493 0.12653,-3.84979 0.0633,1.80454 0.12653,-6.25971 0.12653,14.37396 0.0633,-0.68016 0.12653,-4.43379 0.0633,1.67027 0.0633,-2.57763 0.37959,-39.02157 0.0633,1.98218 0.18979,10.37161 0.0633,6.5968 0.0633,-0.97327 0.0633,-3.63837 0.12653,3.67567 0.0633,-6.20897 0.12653,17.6373 0.0633,-5.21135 0.0633,-5.28598 0.0633,8.34406 0.0633,-1.71035 0.0633,-5.43084 0.12653,14.8863 0.25306,-20.43766 0.12653,-4.51231 0.12653,0.56929 0.0633,0.83041 0.12653,-10.80564 0.0633,2.71789 0.18979,-11.12164 0.0633,-11.70663 0.0633,0.61431 0.0633,11.84397 0.0633,-3.0827 0.1898,-22.89861 0.12653,10.97367 0.0633,-2.59681 0.12653,-11.39731 0.12654,7.90875 0.18979,-23.17158 0.12653,7.24064 0.0633,-2.74353 0.12653,13.96249 0.0633,-2.4664 0.0633,-5.94993 0.0633,3.00504 0.0633,2.79712 0.12653,-6.68003 0.0633,0.84246 0.12654,3.31321 0.12653,-14.04179 0.12653,20.39324 0.0633,-0.83383 0.12653,-12.15752 0.1898,22.00483 0.0633,-5.02642 0.0633,-10.94767 0.0633,1.28397 0.0633,6.48465 0.0633,-4.19373 0.0633,-1.19466 0.0633,6.08572 0.0633,-0.97203 0.0633,-1.97659 0.12653,6.08967 0.12653,18.96298 0.0633,-3.85072 0.0633,-4.39348 0.0633,5.8492 0.0633,-2.76284 0.0633,-3.99866 0.0633,4.42471 0.12653,-5.25857 0.25306,21.57988 0.1898,-10.03734 0.0633,1.56618 0.25306,17.1989 0.0633,-6.04379 0.0633,3.61907 0.0633,8.34069 0.0633,-6.27502 0.0633,-5.27892 0.12653,17.7912 0.0633,-2.29041 0.0633,-0.77792 0.0633,2.00555 0.0633,-1.31595 0.0633,-5.97053 0.0633,2.09958 0.0633,1.10785 0.0633,-4.89476 0.1898,19.43344 0.0633,-2.01802 0.0633,-8.16122 0.12653,16.20535 0.0633,-3.52159 0.31632,6.39088 0.0633,6.46053 0.0633,-2.4982 0.0633,1.67203 0.0633,9.7078 0.25306,-25.32443 0.0633,-4.37542 0.1898,12.83751 0.18979,-16.6407 0.12653,15.14664 0.0633,-5.11055 0.0633,-7.50862 0.0633,1.70758 0.0633,2.02483 0.0633,-4.12072 0.0633,0.98157 0.25307,18.92675 0.31632,-17.11652 0.0633,0.45929 0.12653,8.37656 0.25306,-15.83139 0.0633,-2.83379 0.0633,2.13789 0.12653,6.39218 0.0633,-1.94929 0.12653,-8.79988 0.0633,0.58384 0.12653,-1.95817 0.0633,-2.56622 0.0633,1.24291 0.0633,-1.35975 0.18979,-13.65562 0.0633,-0.59212 0.12653,-3.32232 0.0633,4.10014 0.18979,-31.69503 0.12653,10.41643 0.0633,-0.74504 0.12653,-5.2978 0.0633,1.74539 0.12653,-6.14098 0.0633,2.22871 0.0633,2.29007 0.12652,-11.38152 0.12654,6.77609 0.0633,-0.63423 0.0633,3.4806 0.44285,-25.15102 0.0633,1.8487 0.12653,7.65374 0.12653,-8.84391 0.0633,1.27862 0.0633,-1.56736 0.1898,-13.51755 0.12653,2.62584 0.0633,-3.44223 0.12653,10.40972 0.25306,-15.22853 0.0633,0.49602 0.12653,5.90025 0.0633,-2.13846 0.0633,1.10555 0.0633,0.58792 0.0633,-1.24932 0.0633,0.56837 0.0633,2.17968 0.0633,-0.29838 0.0633,-3.24859 0.12653,5.8786 0.12653,-8.28129 0.12653,4.03918 0.12653,-6.63667 0.0633,4.44954 0.0633,-0.0141 0.12653,-11.257 0.0633,0.73103 0.1898,7.16808 0.12653,-5.28423 0.0633,2.15942 0.0633,-1.35386 0.12653,-5.90513 0.12653,5.64366 0.12653,-5.68366 0.0633,0.22534 0.12653,-2.18748 0.12653,2.36345 0.18979,-11.14121 0.0633,2.10827 0.0633,-0.406 0.1898,-4.23795 0.1898,-1.02754 0.12653,1.61218 0.12653,-3.32342 0.12653,3.92407 0.0633,-1.13537 0.0633,-3.25639 0.0633,1.64435 0.0633,1.5441 0.0633,-1.26789 0.12653,5.18367 0.12653,-0.3128 0.0633,0.795 0.0633,-3.41508 0.0633,2.5069 0.0633,8.1023 0.0633,-0.54015 0.0633,-4.29194 0.0633,0.17577 0.0633,1.44297 0.12653,9.60648 0.0633,-0.49722 0.0633,-0.14528 0.12653,-3.20992 0.12653,7.5704 0.0633,-0.61291 0.0633,-3.67788 0.0633,1.74784 0.0633,5.49772 0.0633,-0.22132 0.0633,-1.57552 0.12653,5.3577 0.0633,3.72535 0.12653,-9.74317 0.0633,5.41062 0.0633,7.76444 0.0633,-0.72833 0.1898,0.72437 0.12653,7.3618 0.0633,-0.90119 0.31632,6.56903 0.0633,-1.60484 0.0633,0.8076 0.12653,4.05086 0.0633,-0.0114 0.18979,2.24075 0.50613,20.55863 0.0633,-1.62218 0.0633,1.66694 0.18979,11.52111 0.0633,1.31327 0.12653,6.25925 0.0633,-4.51562 0.18979,17.24539 0.12653,-0.93493 0.12653,5.50296 0.12653,10.82684 0.0633,-1.54859 0.0633,1.92123 0.12653,7.36188 0.0633,-0.91703 0.0633,0.041 1.01225,49.09926 0.0633,0.82633 0.50613,20.37933 0.31632,7.1875 0.1898,6.12317 0.0633,-0.11246 0.44285,12.95864 0.12653,-0.8046 0.1898,1.86254 0.12653,4.97891 0.0633,-2.19477 0.0633,0.58829 0.25306,4.33888 0.0633,0.97687 0.12653,-1.92527 0.12653,2.0994 0.0633,-0.86957 0.0633,0.34703 0.1898,2.16825 0.0633,-0.25039 0.12653,-4.21825 0.0633,0.0312 0.0633,0.0715 0.1898,2.74267 0.0633,-1.19026 0.12653,-5.31453 0.12653,2.01506 0.25306,-6.28902 0.1898,-1.94948 0.12653,-3.80913 0.0633,0.0215 0.12653,-3.55471 0.31632,-6.78356 0.63266,-13.70907 0.25306,-7.15814 0.31632,-9.10794 0.88572,-30.75491 0.0633,1.47255 0.0633,-0.80267 0.37959,-15.9749 0.88572,-34.51175 0.37959,-15.26804 0.0633,-0.77086 1.20204,-47.42616 0.0633,-0.17703 0.0633,-0.61118 0.50613,-17.43498 0.0633,-0.0279 0.1898,1.37358 0.0633,-0.71006 0.12653,-6.64274 0.0633,1.01862 0.0633,2.81904 0.0633,-0.39689 0.12653,-3.58068 0.0633,0.63794 0.0633,-0.41192 0.12653,-0.19094 0.0633,-0.51795 0.0633,0.31538 0.0633,-0.20088 0.12653,-2.2574 0.12653,2.5441 0.0633,-0.587 0.0633,-1.52382 0.0633,0.4246 0.12652,3.73888 0.12654,-2.64755 0.12653,2.78739 0.0633,-0.94181 0.0633,-0.81164 0.18979,3.61276 0.12653,-3.36132 0.0633,0.55274 0.12653,5.36254 0.0633,-0.38302 0.12654,-1.48037 0.56938,7.45886 0.0633,-0.58783 0.0633,-1.24958 0.44286,8.5071 0.12653,3.40788 0.1898,3.47853 0.18979,2.48674 0.37959,8.71556 0.0633,0.48168 2.65714,64.09218 0.12653,4.80348 0.0633,-2.12706 0.0633,0.3739 1.4551,41.50351 0.12653,0.59565 0.0633,0.73814 0.12653,6.55576 0.0633,-0.99936 0.0633,0.15065 0.12653,4.83845 0.12653,-2.691 0.1898,6.11852 0.0633,-0.46203 0.0633,-1.67791 0.0633,0.79844 0.12653,2.46876 0.0633,-0.52867 0.0633,0.26062 0.0633,0.0112 0.0633,-0.44534 0.12653,2.03804 0.12653,-2.27157 0.0633,0.78608 0.1898,1.20827 0.0633,-0.25125 0.12653,-4.76875 0.0633,0.2669 0.1898,2.80214 0.18979,-5.58443 0.0633,0.28428 0.1898,-1.17108 0.12653,-3.09331 0.0633,0.40642 0.0633,0.0493 0.25306,-2.82042 0.0633,0.37053 0.0633,-0.44163 0.18979,-4.93693 0.25307,-3.01098 0.25306,-3.69751 0.0633,1.63864 0.0633,-0.50867 0.12653,-6.62404 0.0633,1.52912 0.0633,1.42443 0.12653,-3.42561 0.12653,-4.69659 0.12653,2.20761 0.69592,-17.06801 0.37959,-10.21662 0.1898,-3.45269 0.25306,-7.75906 0.25306,-6.64911 0.50612,-13.42244 0.25306,-7.04064 0.12653,-2.97686 0.25307,-7.46711 0.0633,-0.49249 0.12653,-4.49423 0.1898,-5.91499 0.0633,-0.2985 1.6449,-46.52726 0.12653,0.13029 0.0633,-1.46766 0.12653,-8.15631 0.0633,0.36973 0.1898,1.90247 0.18979,-10.108673 0.12653,0.251989 0.63266,-9.541536 0.0633,1.73224 0.12653,2.411421 0.12653,-5.441871 0.0633,0.06399 0.12653,2.609248 0.0633,-0.822132 0.0633,-1.599886 0.12653,2.128085 0.12653,-3.098319 0.0633,0.457144 0.12653,1.331286 0.0633,-0.290166 0.12653,5.570463 0.12653,-5.408398 0.25306,7.278654 0.0633,0.07588 0.12653,1.173653 0.12653,-0.929633 0.31633,6.864711 0.82245,13.80308 0.31632,6.08522 0.12653,1.56464 1.39184,24.38398 0.0633,0.15291 1.07551,20.11916 2.34081,78.61958 0.0633,0.39719 0.31632,11.12029 0.1898,2.90285 0.1898,9.47823 0.0633,-0.0622 0.1898,3.38839 0.12653,7.68824 0.0633,-0.25193 0.0633,-0.79947 0.1898,8.78017 0.12653,-1.10428 0.12653,3.7743 0.12653,4.76317 0.0633,-1.27479 0.56939,11.23994 0.0633,-0.11377 0.25307,2.9972 0.18979,4.97433 0.0633,-0.006 0.0633,-0.73007 0.0633,0.6079 0.0633,-0.63681 0.0633,0.63572 0.12653,5.46853 0.0633,-2.40907 0.0633,-4.03973 0.0633,1.12855 0.1898,7.42986 0.0633,-0.37545 0.12653,-4.10035 0.0633,0.75114 0.0633,2.53432 0.0633,-0.57716 0.0633,-0.74921 0.18979,4.10894 0.0633,-3.77938 0.0633,0.37629 0.31633,4.57788 0.25306,-4.72141 0.12653,3.57764 0.0633,-0.36353 0.18979,-1.51976 0.0633,0.17198 0.0633,-2.61589 0.0633,0.41084 0.0633,-0.65358 0.12653,1.08356 0.0633,-0.35468 0.12653,-3.5419 0.1898,3.02327 0.12653,-5.88049 0.18979,5.44911 0.1898,-7.26875 0.0633,-0.9287 0.18979,1.23022 0.0633,-0.18602 0.18979,-5.88636 0.12653,4.14526 0.1898,-4.81674 0.0633,0.8503 0.12654,-0.70398 0.12653,-3.66538 0.0633,0.3056 0.0633,1.88425 0.0633,-0.66278 0.1898,-6.47546 0.12653,-0.12315 0.12653,0.79994 0.12653,-3.48353 0.1898,-12.25139 0.0633,-1.61142 1.01225,-100.85891 0.0633,10.30324 0.1898,-86.84962 0.0633,18.922 0.1898,50.96426 0.0633,-1.02067 0.0633,-7.69088 0.18979,-100.205558 0.1898,117.778728 0.1898,-91.837201 0.0633,8.70671 0.12653,60.364461 0.0633,-1.48887 0.12653,-32.96826 0.18979,-27.826792 0.0633,11.469882 0.0633,-2.62931 0.0633,-13.208465 0.0633,7.740006 0.0633,-5.269298 0.0633,3.313413 0.12653,36.685044 0.0633,-12.13954 0.0633,-25.163392 0.0633,12.823072 0.12653,79.47859 0.25306,-112.305233 0.0633,3.743916 0.1898,47.123427 0.18979,37.73673 0.0633,-14.97434 0.12653,-83.057702 0.0633,4.792348 0.0633,4.859808 0.12653,53.828356 0.0633,-9.52803 0.12653,-26.917775 0.1898,32.131635 0.0633,13.06112 0.0633,-4.36755 0.31633,36.45141 0.0633,-6.4961 0.37959,-95.111711 0.0633,0.68024 0.1898,10.186878 0.0633,-1.059976 0.0633,1.14369 0.37959,58.671919 0.25306,62.67921 0.0633,4.67288 0.12654,-44.02759 0.0633,11.90589 0.12653,28.47952 0.0633,-0.23899 0.0633,-5.23853 0.25306,-89.64224 0.0633,23.02405 0.0633,17.28399 0.0633,-3.42596 0.12653,5.4309 0.0633,-5.97114 0.0633,-47.767826 0.0633,2.744849 0.31632,6.529357 0.1898,5.50161 0.0633,-3.79257 0.0633,2.40935 0.0633,1.39086 0.12653,42.90052 0.0633,-13.1129 0.0633,12.41135 0.0633,-3.51369 0.0633,3.28688 0.12653,40.40085 0.0633,-8.13022 0.0633,3.30217 0.18979,16.80416 0.0633,-8.44808 0.0633,-30.05696 0.0633,10.23037 0.31633,81.21821 0.0633,-1.89695 0.0633,1.08155 0.0633,-5.67171 0.0633,1.09451 0.0633,7.09048 0.0633,-3.32461 0.18979,-82.11587 0.0633,9.60667 0.0633,0.62699 0.1898,-10.89792 0.25306,21.99549 0.0633,-8.97836 0.31632,68.57649 0.1898,-71.22954 0.12653,20.15618 0.37959,-71.7233 0.0633,1.19642 0.0633,7.97413 0.0633,-3.82333 0.0633,0.14782 0.0633,0.6467 0.0633,-1.13249 0.0633,0.70965 0.0633,1.24209 0.12653,4.58164 0.0633,-0.24208 0.0633,7.78163 0.25307,63.22033 0.0633,-3.54221 0.0633,13.72852 0.0633,-6.3981 0.0633,4.89055 0.18979,30.47958 0.0633,-4.29087 0.25306,85.44408 0.12653,-20.83446 0.0633,14.71682 0.0633,-3.59378 0.12653,-10.38662 0.12653,12.62737 0.12653,-5.55958 0.0633,9.2211 0.56939,-99.88502 0.0633,7.53168 0.0633,-1.70366 0.12653,-26.16058 0.0633,5.75369 0.0633,-6.86599 0.0633,-19.38531 0.0633,2.95615 0.1898,41.73096 0.0633,-3.46054 0.1898,25.9197 0.0633,-3.53888 0.0633,-7.14842 0.12653,26.53428 0.0633,-3.78359 0.1898,-21.47718 0.18979,-42.94345 0.0633,11.14519 0.0633,-3.96421 0.0633,-7.70815 0.0633,0.73825 0.12653,5.30611 0.37959,53.53029 0.12653,47.70778 0.0633,-7.48264 0.0633,0.77088 0.12653,21.80901 0.1898,-9.29253 0.0633,0.2686 0.0633,5.1244 0.0633,-3.77725 0.12653,2.31841 0.1898,-23.24994 0.12653,9.75135 0.18979,-29.6961 0.0633,6.66113 0.12653,24.0291 0.0633,-1.52303 0.12653,-12.52509 0.0633,3.23429 0.56939,-27.69833 0.1898,-16.06908 0.12653,1.41983 0.0633,-0.58828 0.12653,-21.13263 0.1898,-13.93672 0.0633,-1.51881 0.1898,-17.76228 0.12653,-9.41435 0.0633,-8.98784 0.0633,6.48887 0.0633,15.12537 0.0633,-3.96072 0.0633,-8.19967 0.12653,19.29207 0.0633,-2.25224 0.12653,-17.69039 0.1898,16.42094 0.0633,0.90286 0.0633,-1.11511 0.18979,26.71549 0.0633,-3.00013 0.1898,-7.73236 0.25306,33.67613 0.0633,-0.76215 0.0633,-8.40512 0.0633,1.05259 0.12653,15.87434 0.12654,-8.45673 0.0633,1.92886 0.12653,34.66374 0.0633,-3.04427 0.12653,-26.76852 0.12653,16.55884 0.0633,-3.88925 0.0633,-2.90492 0.25306,20.21957 0.12653,-9.83064 0.0633,2.2388 0.3796,-44.83971 0.12653,22.3316 0.18979,-18.29622 0.0633,2.10758 0.12653,12.30439 0.25306,-36.09146 0.12653,23.0228 0.31633,-43.77595 0.0633,3.95321 0.1898,-17.49069 0.0633,2.06541 0.12653,20.66618 0.12654,-39.13583 0.0633,5.89828 0.12653,23.32575 0.0633,-5.5036 0.18979,-38.69417 0.0633,2.20993 0.12653,26.91416 0.0633,-9.81473 0.12653,-24.28623 0.0633,1.6474 0.0633,2.03713 0.12654,-5.79102 0.12653,12.56262 0.31632,-34.32009 0.0633,0.20834 0.12653,14.68274 0.50612,-38.22228 0.25306,24.9024 0.0633,-3.07052 0.0633,2.13427 0.0633,-2.64666 0.0633,2.68523 0.12653,21.34906 0.12653,-12.37149 0.1898,5.54819 0.0633,-1.69092 0.12653,10.50798 0.12653,-17.57163 0.37959,55.16821 0.12653,-5.49076 0.12653,5.74651 0.0633,-1.0165 0.12653,-12.63321 0.12653,43.47242 0.0633,-2.33807 0.0633,-12.66709 0.12653,19.7824 0.12653,-34.51618 0.0633,5.83751 0.12654,22.74806 0.0633,-0.78419 0.12653,-18.54123 0.12653,31.99269 0.12653,-27.98059 0.12653,11.47669 0.1898,-28.94876 0.0633,10.86942 0.25306,24.46831 0.0633,-5.1546 0.0633,-7.79225 0.0633,5.56789 0.0633,-0.008 0.0633,-7.03285 0.0633,1.00643 0.12653,11.36691 0.25306,-9.68075 0.12653,-9.78175 0.12653,-9.39175 0.12653,2.78182 0.0633,-5.25142 0.0633,2.61832 0.0633,2.34856 0.0633,-0.69407 0.12653,-4.43839 0.0633,2.34301 0.12653,-19.31963 0.0633,-8.66071 0.0633,0.27972 0.0633,3.23103 0.12653,-11.78483 0.0633,3.50246 0.0633,-2.16418 0.12654,-22.60197 0.0633,1.20046 0.12653,26.81266 0.0633,-0.75265 0.31632,-59.34648 0.0633,8.30302 0.0633,-0.0817 0.0633,-4.1062 0.0633,1.79812 0.0633,10.50336 0.0633,-2.64738 0.12653,-17.175439 0.12653,4.717179 0.18979,-13.745388 0.12653,0.599159 0.0633,2.89822 0.0633,-1.447521 0.0633,-0.50059 0.18979,24.24216 0.12654,-1.97758 0.12653,-8.96592 0.25306,25.94455 0.12653,-22.59549 0.0633,3.68476 0.25306,21.54839 0.0633,-0.60897 0.12653,-13.17347 0.12653,25.14545 0.0633,-1.93156 0.0633,-9.4074 0.0633,2.87761 0.12653,5.4684 0.12653,-10.38244 0.0633,-5.2023 0.0633,4.06214 0.25306,45.18551 0.0633,-4.98681 0.0633,0.0515 0.0633,6.61441 0.12653,-10.31686 0.18979,13.0544 0.0633,7.43671 0.0633,-1.32786 0.25306,-19.46847 0.12653,17.11053 0.0633,-1.59795 0.0633,1.4346 0.0633,-2.16205 0.1898,-26.78986 0.37959,40.06734 0.1898,23.21969 0.0633,-4.02157 0.12653,11.29781 0.12653,7.7462 0.0633,-7.7224 0.0633,5.36672 0.0633,17.51574 0.0633,-3.6575 0.0633,-13.99786 0.0633,2.59291 0.0633,1.14683 0.12653,-13.76423 0.12653,15.045 0.0633,-4.47926 0.0633,-2.47902 0.0633,5.14489 0.12653,-7.99962 0.18979,20.14008 0.0633,-2.12754 0.12653,-8.06712 0.0633,0.53266 0.0633,-0.96694 0.31632,28.02519 0.0633,-0.97363 0.0633,-6.33387 0.12653,8.16624 0.0633,-5.61814 0.12653,8.41166 0.0633,-1.37912 0.18979,-10.6998 0.0633,1.56968 0.12653,10.90352 0.0633,-1.18074 0.12653,3.94928 0.25307,23.90531 0.0633,-1.05423 0.0633,-2.55969 0.0633,1.22471 0.0633,-0.80103 0.12653,10.68466 0.0633,-3.37693 0.0633,2.07372 0.0633,3.94771 0.12653,23.27959 0.0633,-7.95561 0.0633,-8.74999 0.0633,0.9716 0.0633,1.25625 0.12653,9.93309 0.0633,-6.72187 0.0633,0.47377 0.0633,5.72197 0.12653,-5.67564 0.0633,3.82533 0.25306,-11.85704 0.1898,7.17335 0.0633,-2.56645 0.12653,-15.93091 0.12653,17.71041 0.0633,-1.10723 0.12653,-19.17062 0.0633,0.0653 0.12653,-12.9504 0.12654,11.18793 0.12652,-16.25231 0.0633,5.12206 0.0633,-3.20966 0.18979,-8.75231 0.25306,-10.34213 0.0633,1.71609 0.12653,-6.83894 0.12653,20.36978 0.0633,-12.93721 0.0633,2.25902 0.0633,8.63115 0.0633,-5.139 0.12653,-13.83134 0.0633,3.2549 0.0633,7.16662 0.12653,-9.996 0.0633,2.00369 0.12653,-9.57305 0.0633,1.61714 0.0633,-1.01979 0.12653,-7.08138 0.0633,4.60816 0.12654,-10.01009 0.0633,5.45229 0.12653,10.87345 0.0633,-0.96024 0.50612,-33.29136 0.0633,-6.85864 0.0633,0.0816 0.25306,17.72357 0.0633,-3.05062 0.0633,0.18159 0.0633,0.92235 0.12653,-3.74812 0.0633,1.47105 0.12653,7.23542 0.0633,-2.50619 0.0633,6.76124 0.0633,-1.17218 0.0633,-7.08882 0.12654,8.90488 0.12653,-12.74151 0.0633,1.55265 0.1898,-6.97521 0.0633,-0.40935 0.12653,1.9413 0.12653,-13.33369 0.0633,1.47764 0.0633,1.44823 0.1898,-21.29746 0.0633,1.37591 0.0633,4.3159 0.0633,-1.09994 0.18979,-20.86012 0.0633,3.63716 0.0633,7.15002 0.0633,-0.4063 0.12653,-9.72372 0.0633,1.0362 0.0633,5.69863 0.12653,-25.35783 0.0633,1.7713 0.0633,3.91079 0.0633,-1.49505 0.0633,1.51941 0.12653,11.46875 0.0633,-2.73342 0.0633,-6.39073 0.0633,3.4334 0.0633,3.92599 0.0633,-3.13904 0.0633,1.02254 0.0633,2.92621 0.0633,-0.34606 0.0633,-0.37645 0.12653,-8.82394 0.12653,12.31536 0.0633,-1.1153 0.12653,-11.52177 0.12653,17.76372 0.0633,-0.50621 0.0633,-1.31639 0.12653,-6.56915 0.0633,4.19666 0.12653,-6.40831 0.12653,10.85014 0.0633,-1.20557 0.0633,-0.28616 0.12653,14.88959 0.0633,6.86786 0.0633,-2.31841 0.0633,0.009 0.0633,4.48523 0.0633,-2.65826 0.1898,-6.74653 0.0633,1.92259 0.25306,19.55566 0.12654,-10.23641 0.0633,0.44067 0.0633,0.70374 0.12653,7.98027 0.0633,7.30075 0.0633,-0.34003 0.0633,-7.27858 0.0633,3.5666 0.0633,9.42817 0.0633,-3.89384 0.0633,-6.76913 0.1898,15.39147 0.0633,-0.15899 0.0633,-0.72049 0.12653,-7.74294 0.0633,1.46172 0.0633,3.90918 0.0633,-3.87388 0.12653,17.06325 0.0633,-0.91722 0.12653,-5.95725 0.12653,14.91198 0.0633,-3.60699 0.0633,-1.86393 0.0633,0.66407 0.0633,-0.0653 0.37959,19.34265 0.12653,-21.01858 0.0633,1.90725 0.12653,-6.52724 0.1898,9.4062 0.1898,-9.5766 0.12653,11.43915 0.18979,-13.37194 0.0633,2.96608 0.0633,-2.3967 0.0633,0.25272 0.25306,16.37896 0.0633,-0.40446 0.12654,-7.45302 0.12653,-8.20082 0.18979,10.67291 0.31633,-21.24971 0.18979,10.2604 0.0633,-2.76025 0.12653,-8.51342 0.0633,0.1629 0.37959,-10.27752 0.18979,-9.54577 0.0633,0.0548 0.12653,5.40464 0.12653,-30.03534 0.0633,1.61538 0.1898,5.51867 0.12653,-6.31082 0.0633,2.00118 0.50612,-13.99967 0.12653,6.34145 0.0633,-2.96299 0.12653,-7.11499 0.0633,0.18831 0.12653,-2.51851 0.0633,-4.83376 0.0633,1.06449 0.0633,6.88735 0.0633,-4.73901 0.12653,-7.77366 0.12653,2.7052 0.1898,-17.05852 0.12653,3.87511 0.0633,-2.145 0.12653,7.12494 0.0633,-1.92575 0.1898,-9.92441 0.0633,0.20088 0.25306,6.66572 0.0633,-2.01212 0.0633,-1.66326 0.0633,0.6076 0.0633,0.67368 0.18979,-5.69775 0.12653,3.24574 0.12653,-3.86171 0.0633,1.09999 0.0633,1.0511 0.31633,-8.21858 0.0633,0.0753 0.12653,4.2955 0.12653,-2.08005 0.12653,-4.48591 0.0633,0.97849 0.0633,-0.14856 0.25306,-1.41772 0.31633,-8.47331 0.0633,1.1805 0.0633,-0.219 0.12653,-2.75156 0.0633,0.69549 0.37959,-8.59371 0.12653,3.23663 0.0633,-0.13087 0.1898,-5.63754 0.0633,0.62918 0.25306,5.77226 0.0633,-0.27385 0.0633,-0.88692 0.12653,2.09148 0.25307,4.53362 0.31632,5.15059 0.31633,4.54418 0.75918,12.93078 1.6449,28.89411 0.37959,13.28803 0.12653,4.4805 0.31633,16.01163 0.18979,2.6459 0.1898,9.61496 0.12653,2.55544 0.12653,6.20186 0.25306,12.71557 0.0633,0.18834 0.12653,5.24658 0.44286,21.61102 0.0633,-0.70863 1.51837,58.49574 0.63265,15.00133 0.12653,-0.12369 0.0633,-0.0164 0.18979,5.37455 0.12653,-0.54751 0.1898,2.80416 0.1898,2.74339 0.0633,-0.1064 0.12653,-1.57352 0.37959,4.82349 0.1898,-4.89396 0.0633,0.43575 0.18979,3.10349 0.0633,-1.2071 0.12653,-5.50925 0.12653,1.36297 1.89796,-42.55 0.94898,-27.98191 0.12653,-3.45233 0.18979,-9.64537 0.0633,1.52 0.0633,-0.3814 0.50613,-19.81168 0.12653,-4.46357 0.37959,-15.33472 0.0633,0.50191 0.0633,-1.53476 0.25306,-14.04685 0.0633,-0.33157 0.37959,-18.22693 0.31632,-14.13034 0.0633,0.55196 0.0633,-1.24911 0.3796,-15.79834 0.0633,-1.07792 0.25306,-10.29868 0.12653,-2.85045 0.12653,-7.76311 0.0633,0.62276 0.0633,0.32193 0.0633,-1.13427 0.1898,-8.19692 0.18979,3.02543 0.1898,-7.34042 0.0633,1.12993 0.12653,2.45024 0.12653,-4.76955 0.0633,0.65995 0.12653,1.62697 0.12653,-1.97719 0.0633,1.09985 0.0633,-0.78162 0.0633,-1.90893 0.0633,0.13367 0.12653,3.01128 0.12653,-3.1115 0.0633,0.20258 0.12653,4.7057 0.0633,-1.22997 0.0633,-1.60265 0.0633,1.07588 0.0633,1.20123 0.0633,-0.79452 0.0633,-0.18854 0.1898,3.62965 0.12653,-2.84574 0.0633,0.507 0.1898,5.49153 0.0633,-1.23562 0.0633,-1.88985 0.0633,1.20106 0.0633,2.23695 0.0633,-0.24452 0.0633,-0.64227 0.25306,3.92494 0.0633,-0.0359 0.0633,0.18224 0.0633,-0.16605 0.0633,0.64648 0.1898,5.39312 0.0633,0.19991 0.1898,2.37439 0.25306,5.85187 0.37959,7.82044 0.12653,3.24747 0.0633,-0.33025 0.44286,10.49736 0.44285,9.55614 0.1898,5.31959 0.12653,4.12428 0.0633,-0.53207 0.12654,1.96485 0.44285,10.7889 0.44286,10.00303 0.1898,5.95301 0.12653,1.49311 0.25306,9.21324 0.0633,-0.29175 0.1898,2.73169 0.31633,11.18771 0.0633,0.016 0.0633,1.06652 0.18979,7.67391 0.1898,4.89509 0.25306,7.45455 0.0633,-0.24254 0.31633,7.48705 0.0633,0.50353 0.31632,9.21466 0.0633,1.02861 0.12653,-2.03878 0.0633,0.40151 0.1898,5.83396 0.0633,-2.25725 0.0633,0.3584 0.12653,3.25799 0.12653,-0.88069 0.0633,-0.07 0.0633,0.0942 0.12653,0.92448 0.12653,-1.96172 0.12653,2.48335 0.0633,-0.094 0.1898,-1.92987 0.12653,-3.54154 0.12653,3.87752 0.0633,-0.019 0.12653,-6.54653 0.0633,0.49679 0.0633,0.98804 0.0633,-0.42285 0.25306,-3.69401 0.12653,-0.68967 0.1898,-1.86042 0.18979,-1.08474 0.25306,-5.19285 0.1898,-2.6158 0.25306,-4.07466 0.12653,1.54168 0.12653,-7.06186 0.0633,0.79591 0.0633,2.48431 0.0633,-0.72817 0.18979,-7.24569 0.12653,2.4301 0.12654,-5.2882 0.12653,-6.0003 0.12653,2.68582 0.82244,-22.13619 0.0633,0.31953 0.1898,-5.95831 1.4551,-40.28033 0.0633,-0.0134 0.0633,-0.76238 0.25306,-9.51231 0.1898,-3.31525 0.31632,-12.00164 0.12653,-0.5454 1.39184,-41.24893 0.0633,0.43354 0.12654,2.40833 0.0633,-0.71512 0.1898,-10.70363 0.18979,0.47012 0.31633,-4.661416 0.0633,0.489313 0.0633,-0.551842 0.12653,-3.358933 0.1898,2.347767 0.18979,-3.814129 0.12653,1.857284 0.0633,-0.729996 0.0633,-1.079564 0.12653,1.372234 0.12653,-2.074052 0.12654,1.384363 0.0633,-0.401985 0.0633,0.235301 0.12653,5.3246 0.12653,-5.290027 0.25306,6.696973 0.18979,2.315394 0.12654,-1.768668 0.37959,8.278033 1.01224,18.0302 0.37959,6.63019 0.12653,1.6147 0.31633,5.32006 0.0633,0.41305 0.12653,4.33709 0.0633,-0.1239 0.0633,-0.33519 0.37959,8.04307 0.12653,1.11898 1.13878,21.74925 0.37959,14.01988 0.25306,5.6158 0.25306,10.9267 0.0633,0.0413 1.51837,54.10355 0.0633,0.0707 0.37959,11.25593 0.12653,5.5264 0.0633,-0.97832 0.0633,0.17074 0.25306,11.47054 0.0633,-1.26716 0.0633,-0.11525 0.31633,8.2042 0.0633,0.5315 0.3796,9.98781 0.0633,0.36331 0.0633,-0.35783 0.18979,5.91044 0.25306,2.01096 0.1898,2.55981 0.37959,5.45241 0.0633,-0.12233 0.0633,-0.69135 0.12653,4.39963 0.0633,-1.86201 0.0633,-1.76507 0.0633,0.41466 0.1898,6.35664 0.0633,-0.41558 0.12653,-3.74908 0.12653,3.8499 0.0633,-1.4317 0.0633,-0.0689 0.12653,3.77219 0.0633,-0.53925 0.0633,-3.10685 0.0633,0.17328 0.0633,1.39633 0.0633,-0.31988 0.0633,0.18014 0.12653,1.54381 0.12654,-2.68718 0.0633,0.0227 0.0633,0.21604 0.12653,1.47349 0.18979,-1.97241 0.0633,2.09081 0.18979,-7.10821 0.0633,-0.18064 0.31633,-13.61086 0.56938,-72.74806 0.0633,-12.53087 0.0633,2.67757 0.0633,-1.25384 0.0633,-3.67886 0.12654,-24.99383 0.0633,8.49722 0.1898,-88.48142 0.0633,15.8619 0.1898,54.14283 0.12653,-12.85548 0.18979,-102.303921 0.1898,113.337451 0.0633,-16.34154 0.12653,-74.293885 0.0633,9.633632 0.12653,63.374323 0.0633,-2.2675 0.12653,-31.49124 0.18979,-29.484041 0.12653,14.477161 0.0633,-15.218414 0.0633,6.661014 0.0633,-4.432834 0.0633,3.274961 0.12653,31.906183 0.0633,-8.40422 0.0633,-25.647059 0.0633,15.106639 0.12653,74.65752 0.25306,-113.090707 0.0633,6.74601 0.31633,74.734597 0.0633,13.18126 0.0633,-17.51618 0.12653,-85.634252 0.0633,1.718877 0.0633,8.607219 0.12653,52.694216 0.0633,-10.2584 0.12653,-28.495356 0.1898,36.203616 0.25306,27.59684 0.1898,15.09841 0.0633,-5.88229 0.31633,-85.027974 0.1898,-4.985064 0.12653,0.865191 0.37959,31.350907 0.18979,53.19721 0.25307,49.93653 0.12653,-47.93806 0.0633,13.087 0.1898,27.86936 0.0633,-5.14537 0.1898,-87.96974 0.0633,4.16789 0.12653,36.10075 0.0633,-3.43447 0.12653,7.82026 0.0633,-6.57116 0.12654,-50.629182 0.25306,7.619092 0.0633,0.58609 0.0633,-0.5904 0.18979,7.94302 0.12653,-2.54492 0.12653,48.5656 0.0633,-14.12567 0.0633,7.20372 0.0633,-1.97412 0.0633,7.22558 0.12653,37.80679 0.0633,-9.21828 0.0633,3.47875 0.12653,14.03195 0.0633,-1.31787 0.0633,-8.12782 0.0633,-26.73439 0.0633,8.54935 0.44286,84.98584 0.12653,-6.33487 0.0633,6.43332 0.0633,-4.15919 0.18979,-80.1438 0.0633,9.7033 0.0633,0.2978 0.1898,-10.41687 0.0633,2.07932 0.12654,18.15864 0.0633,-0.24069 0.0633,-6.54412 0.31632,67.79129 0.1898,-71.39493 0.0633,4.70585 0.0633,13.83846 0.37959,-72.58742 0.12653,8.6175 0.0633,-1.36634 0.0633,-2.21697 0.12653,2.48011 0.0633,-1.07304 0.31633,16.96655 0.25306,63.71298 0.0633,-4.58011 0.0633,11.59827 0.0633,-7.15297 0.0633,2.90326 0.18979,33.62502 0.0633,-4.72569 0.18979,86.76791 0.0633,-2.20804 0.12653,-21.23657 0.0633,14.7328 0.0633,-2.18098 0.12653,-9.34375 0.12653,8.61112 0.12653,-3.76119 0.0633,11.19175 0.25306,-68.6203 0.0633,3.96227 0.12653,-11.91677 0.12654,-25.26535 0.0633,7.72996 0.0633,0.15595 0.12653,-27.52668 0.0633,6.45388 0.0633,-6.96961 0.0633,-20.16121 0.0633,4.12349 0.18979,39.9363 0.0633,-3.38951 0.1898,26.71414 0.0633,-3.55644 0.0633,-3.97686 0.12653,22.00825 0.0633,-2.68803 0.1898,-17.8802 0.12653,-40.86045 0.0633,0.84876 0.0633,8.63457 0.0633,-4.23272 0.0633,-7.40067 0.0633,0.11249 0.12654,4.40272 0.37959,56.41626 0.12653,39.58686 0.0633,-4.4157 0.0633,0.0443 0.12653,19.01321 0.0633,-0.8618 0.0633,3.24966 0.12653,-9.15957 0.0633,0.79901 0.12653,7.47232 0.0633,-2.95494 0.1898,-22.59988 0.12653,13.57916 0.12653,-25.94031 0.12653,3.02776 0.12653,20.18761 0.0633,-1.11285 0.12653,-18.23312 0.12653,10.46213 0.12653,-15.28152 0.0633,1.43424 0.0633,-0.62849 0.31632,-21.7735 0.0633,0.55209 0.12653,-8.02838 0.0633,1.96543 0.0633,-3.56029 0.25306,-30.70531 0.12653,-7.7851 0.12653,-16.90931 0.12653,5.67681 0.12653,-22.93108 0.0633,5.97144 0.0633,14.32939 0.0633,-3.37697 0.0633,-8.20855 0.0633,3.57692 0.12653,12.96915 0.12653,-16.5312 0.12653,18.83046 0.0633,-4.91652 0.0633,0.35032 0.0633,1.54761 0.12653,28.88872 0.0633,-0.79306 0.12653,-11.20046 0.0633,1.02551 0.31633,35.50486 0.0633,-6.41494 0.0633,-7.01127 0.0633,2.26238 0.12653,11.04101 0.0633,-0.7061 0.12653,-2.55688 0.12653,30.82733 0.0633,-2.54523 0.12653,-22.52394 0.0633,6.01516 0.0633,9.16497 0.0633,-4.45408 0.0633,0.0253 0.18979,13.90517 0.0633,1.46779 0.0633,-0.74578 0.0633,0.26803 0.44286,-42.70699 0.12653,17.1717 0.0633,-5.98007 0.12653,-10.12936 0.0633,0.78369 0.12653,13.88866 0.1898,-36.31012 0.0633,2.35163 0.12653,17.83216 0.25306,-37.01639 0.1898,-4.4765 0.12653,-11.20942 0.18979,18.53706 0.1898,-32.32739 0.12653,24.65323 0.0633,-4.27176 0.18979,-38.27462 0.0633,0.12386 0.12653,26.39477 0.0633,-9.03048 0.12653,-26.01019 0.0633,2.70136 0.0633,1.3753 0.0633,-6.00587 0.0633,0.64255 0.12653,9.93577 0.18979,-8.34915 0.12653,-19.01771 0.0633,1.19064 0.25306,6.03173 0.12653,-22.46465 0.0633,5.4888 0.0633,0.88057 0.12653,-23.04821 0.1898,25.85405 0.0633,1.56633 0.12653,-6.79926 0.25306,23.38154 0.0633,-4.77888 0.0633,-0.46475 0.0633,2.95871 0.12653,-4.55195 0.12653,7.14236 0.0633,6.02863 0.12653,-19.78368 0.31632,51.44956 0.0633,5.33588 0.0633,-2.20833 0.12653,-1.72265 0.12653,3.55147 0.12654,-16.33293 0.12653,47.77062 0.0633,-1.5029 0.0633,-12.02963 0.0633,5.67719 0.0633,12.82566 0.12653,-39.68244 0.0633,3.89554 0.12653,28.25798 0.12653,-22.2164 0.0633,6.36206 0.0633,24.87847 0.0633,-0.19303 0.12653,-19.7278 0.12653,7.60258 0.12653,-20.34824 0.0633,-10.53659 0.31632,33.36154 0.12653,-10.32782 0.12654,6.97636 0.12653,-8.07537 0.12653,5.67629 0.0633,-0.15756 0.0633,1.84715 0.50612,-26.68526 0.0633,1.83894 0.0633,2.29121 0.0633,-3.51415 0.0633,1.32742 0.0633,7.27302 0.0633,-0.92619 0.1898,-18.22784 0.12653,-12.90483 0.0633,4.52906 0.12653,-14.65515 0.0633,4.1343 0.0633,-0.43258 0.12653,-24.89288 0.0633,0.82557 0.12653,25.34697 0.0633,-3.81163 0.12653,-11.4394 0.12653,-39.78379 0.0633,0.54642 0.0633,7.80445 0.0633,-3.1277 0.0633,-0.9843 0.0633,2.87915 0.0633,11.29502 0.0633,-2.60452 0.12654,-20.334351 0.12653,4.996621 0.31632,-17.271482 0.12653,8.668653 0.0633,-3.46575 0.0633,4.190864 0.12653,25.617065 0.0633,-2.48613 0.1898,-17.30935 0.25306,27.70578 0.12653,-19.07972 0.25306,19.55376 0.0633,6.99639 0.0633,-4.84608 0.12653,-9.64526 0.0633,4.40641 0.12653,17.19563 0.0633,-11.4947 0.0633,2.34048 0.0633,3.05414 0.0633,-1.13817 0.0633,0.40135 0.12653,-10.72901 0.0633,4.11902 0.25306,45.82533 0.12653,-8.89036 0.0633,7.75512 0.12653,-13.58263 0.25306,24.53708 0.0633,-1.18695 0.25306,-18.51826 0.1898,15.41817 0.0633,-0.0418 0.0633,-1.36366 0.1898,-26.15976 0.31632,41.71948 0.0633,-3.15208 0.0633,4.45363 0.12653,22.88469 0.12654,-7.51676 0.12653,21.33412 0.0633,-1.3075 0.0633,-11.77338 0.0633,3.6442 0.0633,19.15517 0.0633,-0.71658 0.0633,-11.71021 0.0633,3.62858 0.0633,0.0642 0.12653,-15.14711 0.12653,14.13181 0.12653,-10.87799 0.0633,8.29106 0.0633,-2.88214 0.0633,-3.98266 0.18979,21.14444 0.0633,-2.21401 0.18979,-12.0885 0.0633,0.97937 0.31632,32.13409 0.12654,-13.5542 0.12653,10.81372 0.0633,-0.96622 0.0633,3.84276 0.0633,-2.82208 0.12653,-4.21572 0.0633,-6.14347 0.0633,0.19605 0.0633,1.60971 0.18979,12.62537 0.0633,-0.64761 0.12653,5.07375 0.1898,21.80495 0.12653,-0.51477 0.12653,0.4808 0.12653,5.13345 0.0633,-1.7909 0.12653,8.15707 0.12653,20.90031 0.12653,-16.20513 0.0633,1.91976 0.1898,9.53947 0.12653,-7.00591 0.0633,6.8228 0.0633,-3.79248 0.0633,-1.83242 0.0633,3.4676 0.0633,-2.14235 0.0633,0.27157 0.12653,-10.89513 0.0633,2.70437 0.0633,1.44997 0.0633,4.06956 0.0633,-1.7269 0.12653,-13.6366 0.1898,14.11487 0.12653,-19.7178 0.0633,2.30072 0.12653,-17.05693 0.12653,13.9697 0.12653,-16.84499 0.0633,3.58746 0.63265,-22.51372 0.0633,1.23957 0.12653,13.09879 0.0633,-11.86884 0.0633,4.94319 0.0633,11.83057 0.0633,-6.5435 0.12653,-17.18607 0.0633,1.39706 0.0633,7.72056 0.0633,-3.14153 0.31632,-16.07998 0.0633,0.34338 0.0633,-2.90589 0.0633,0.5547 0.0633,2.24434 0.12654,-10.54666 0.25306,18.68825 0.31632,-22.54564 0.0633,0.54075 0.0633,-1.9265 0.1898,-17.54571 0.1898,12.63039 0.18979,3.99545 0.12653,-7.81364 0.0633,0.62304 0.31632,10.6476 0.0633,-0.28126 0.0633,-1.36802 0.0633,6.23985 0.0633,-1.31704 0.12654,-9.03215 0.0633,-0.34515 0.1898,-10.13185 0.0633,1.34193 0.12653,5.66284 0.12653,-12.17131 0.0633,1.48845 0.0633,1.82223 0.1898,-27.34531 0.0633,4.51291"
       style="fill:none;stroke:#1f77b4;stroke-width:1.5;stroke-linecap:square;stroke-linejoin:round;stroke-miterlimit:10;stroke-dasharray:none;stroke-opacity:1"
       transform="matrix(1.3333333,0,0,-1.3333333,0,508.24083)"
       clip-path="url(#clipPath28)" />
    <path
       id="path29"
       d="m 60.53699,37.54375 v 332.64"
       style="fill:none;stroke:#ff0000;stroke-width:1.5;stroke-linecap:square;stroke-linejoin:round;stroke-miterlimit:10;stroke-dasharray:none;stroke-opacity:1"
       transform="matrix(1.3333333,0,0,-1.3333333,0,508.24083)"
       clip-path="url(#clipPath30)" />
    <path
       id="path31"
       d="m 198.2023,37.54375 v 332.64"
       style="fill:none;stroke:#ff0000;stroke-width:1.5;stroke-linecap:square;stroke-linejoin:round;stroke-miterlimit:10;stroke-dasharray:none;stroke-opacity:1"
       transform="matrix(1.3333333,0,0,-1.3333333,0,508.24083)"
       clip-path="url(#clipPath32)" />
    <path
       id="path33"
       d="m 325.74515,37.54375 v 332.64"
       style="fill:none;stroke:#ff0000;stroke-width:1.5;stroke-linecap:square;stroke-linejoin:round;stroke-miterlimit:10;stroke-dasharray:none;stroke-opacity:1"
       transform="matrix(1.3333333,0,0,-1.3333333,0,508.24083)"
       clip-path="url(#clipPath34)" />
    <path
       id="path35"
       d="m 449.23903,37.54375 v 332.64"
       style="fill:none;stroke:#ff0000;stroke-width:1.5;stroke-linecap:square;stroke-linejoin:round;stroke-miterlimit:10;stroke-dasharray:none;stroke-opacity:1"
       transform="matrix(1.3333333,0,0,-1.3333333,0,508.24083)"
       clip-path="url(#clipPath36)" />
    <path
       id="path37"
       d="m 570.70842,37.54375 v 332.64"
       style="fill:none;stroke:#ff0000;stroke-width:1.5;stroke-linecap:square;stroke-linejoin:round;stroke-miterlimit:10;stroke-dasharray:none;stroke-opacity:1"
       transform="matrix(1.3333333,0,0,-1.3333333,0,508.24083)"
       clip-path="url(#clipPath38)" />
    <path
       id="path39"
       d="m 58.5125,37.54375 v 332.64"
       style="fill:none;stroke:#000000;stroke-width:0.8;stroke-linecap:square;stroke-linejoin:miter;stroke-miterlimit:10;stroke-dasharray:none;stroke-opacity:1"
       transform="matrix(1.3333333,0,0,-1.3333333,0,508.24083)" />
    <path
       id="path40"
       d="m 616.5125,37.54375 v 332.64"
       style="fill:none;stroke:#000000;stroke-width:0.8;stroke-linecap:square;stroke-linejoin:miter;stroke-miterlimit:10;stroke-dasharray:none;stroke-opacity:1"
       transform="matrix(1.3333333,0,0,-1.3333333,0,508.24083)" />
    <path
       id="path41"
       d="m 58.5125,37.54375 h 558"
       style="fill:none;stroke:#000000;stroke-width:0.8;stroke-linecap:square;stroke-linejoin:miter;stroke-miterlimit:10;stroke-dasharray:none;stroke-opacity:1"
       transform="matrix(1.3333333,0,0,-1.3333333,0,508.24083)" />
    <path
       id="path42"
       d="m 58.5125,370.18375 h 558"
       style="fill:none;stroke:#000000;stroke-width:0.8;stroke-linecap:square;stroke-linejoin:miter;stroke-miterlimit:10;stroke-dasharray:none;stroke-opacity:1"
       transform="matrix(1.3333333,0,0,-1.3333333,0,508.24083)" />
  </g>
</svg>
