<?xml version="1.0" encoding="UTF-8" standalone="no"?>
<!-- Created with Inkscape (http://www.inkscape.org/) -->

<svg
   version="1.1"
   id="svg1"
   width="543.48065"
   height="414.78262"
   viewBox="0 0 543.48065 414.78262"
   sodipodi:docname="plotZ.pdf"
   xmlns:inkscape="http://www.inkscape.org/namespaces/inkscape"
   xmlns:sodipodi="http://sodipodi.sourceforge.net/DTD/sodipodi-0.dtd"
   xmlns="http://www.w3.org/2000/svg"
   xmlns:svg="http://www.w3.org/2000/svg">
  <defs
     id="defs1">
    <clipPath
       clipPathUnits="userSpaceOnUse"
       id="clipPath72">
      <path
         d="M 36.434872,37.77497 H 393.55487 v 266.112 H 36.434872 Z"
         id="path72" />
    </clipPath>
    <clipPath
       clipPathUnits="userSpaceOnUse"
       id="clipPath74">
      <path
         d="M 36.434872,37.77497 H 393.55487 v 266.112 H 36.434872 Z"
         id="path74" />
    </clipPath>
    <clipPath
       clipPathUnits="userSpaceOnUse"
       id="clipPath76">
      <path
         d="M 36.434872,37.77497 H 393.55487 v 266.112 H 36.434872 Z"
         id="path76" />
    </clipPath>
  </defs>
  <sodipodi:namedview
     id="namedview1"
     pagecolor="#ffffff"
     bordercolor="#000000"
     borderopacity="0.25"
     inkscape:showpageshadow="2"
     inkscape:pageopacity="0.0"
     inkscape:pagecheckerboard="0"
     inkscape:deskcolor="#d1d1d1">
    <inkscape:page
       x="0"
       y="0"
       inkscape:label="1"
       id="page1"
       width="543.48065"
       height="414.78262"
       margin="0"
       bleed="0" />
  </sodipodi:namedview>
  <g
     id="g1"
     inkscape:groupmode="layer"
     inkscape:label="1">
    <path
       id="path1"
       d="m 36.434872,37.77497 v -3.5"
       style="fill:#000000;fill-opacity:1;fill-rule:nonzero;stroke:#000000;stroke-width:0.8;stroke-linecap:butt;stroke-linejoin:round;stroke-miterlimit:10;stroke-dasharray:none;stroke-opacity:1"
       transform="matrix(1.3333333,0,0,-1.3333333,0,414.78263)" />
    <g
       id="g2"
       aria-label="−1.0"
       transform="matrix(1.3333333,0,0,1.3333333,33.756581,383.95814)">
      <path
         id="path2"
         d="m 7.6063922,-2.7430198 c 0,-0.2109375 -0.2109375,-0.2109375 -0.3632812,-0.2109375 H 1.2665485 c -0.1523438,0 -0.35156252,0 -0.35156252,0.2109375 0,0.2226563 0.19921872,0.2226563 0.35156252,0.2226563 H 7.243111 c 0.1523437,0 0.3632812,0 0.3632812,-0.2226563 z m 0,0"
         style="fill:#000000;fill-opacity:1;fill-rule:nonzero;stroke:none" />
      <path
         id="path3"
         d="M 13.011666,-8.322842e-4 V -0.31723853 h -0.339844 c -0.960938,0 -0.996094,-0.12890625 -0.996094,-0.52734375 V -7.0203635 c 0,-0.2578125 0,-0.2695313 -0.210937,-0.2695313 -0.269532,0.2929688 -0.820313,0.703125 -1.9453128,0.703125 v 0.3164063 c 0.2578125,0 0.7968748,0 1.4062498,-0.28125 v 5.70703122 c 0,0.3984375 -0.03516,0.52734375 -0.9960936,0.52734375 H 9.5897907 V -8.322842e-4 C 9.8827594,-0.02426978 10.949166,-0.02426978 11.300728,-0.02426978 c 0.363281,0 1.417969,0 1.710938,0.0234374958 z m 0,0"
         style="fill:#000000;fill-opacity:1;fill-rule:nonzero;stroke:none" />
      <path
         id="path4"
         d="m 15.903267,-0.52817603 c 0,-0.31640625 -0.257812,-0.53906247 -0.527344,-0.53906247 -0.316406,0 -0.539062,0.26953122 -0.539062,0.52734372 0,0.31640625 0.269531,0.5390624958 0.527344,0.5390624958 0.316406,0 0.539062,-0.2578124958 0.539062,-0.5273437458 z m 0,0"
         style="fill:#000000;fill-opacity:1;fill-rule:nonzero;stroke:none" />
      <path
         id="path5"
         d="m 21.78022,-3.5047385 c 0,-0.9140625 -0.05859,-1.8046875 -0.445312,-2.6367188 -0.457031,-0.9023437 -1.242188,-1.1484375 -1.78125,-1.1484375 -0.632813,0 -1.417969,0.3164063 -1.816406,1.2304688 -0.304688,0.6914062 -0.421875,1.3710937 -0.421875,2.5546875 0,1.0546875 0.08203,1.8632812 0.480468,2.63671872 0.421875,0.83203125 1.183594,1.1015625 1.746094,1.1015625 0.949219,0 1.5,-0.57421875 1.816406,-1.20703125 C 21.756783,-1.793801 21.78022,-2.871926 21.78022,-3.5047385 Z m -0.832031,-0.1289063 c 0,0.7265625 0,1.5585938 -0.117187,2.2265625 -0.210938,1.20703127 -0.902344,1.41796877 -1.289063,1.41796877 -0.351562,0 -1.066406,-0.19921875 -1.265625,-1.39453127 -0.128906,-0.65625 -0.128906,-1.4882812 -0.128906,-2.25 0,-0.9023437 0,-1.7109375 0.175781,-2.3554687 0.1875,-0.7382813 0.75,-1.078125 1.21875,-1.078125 0.421875,0 1.054688,0.2460937 1.265625,1.1953125 0.140625,0.6210937 0.140625,1.4882812 0.140625,2.2382812 z m 0,0"
         style="fill:#000000;fill-opacity:1;fill-rule:nonzero;stroke:none" />
    </g>
    <path
       id="path6"
       d="m 95.954872,37.77497 v -3.5"
       style="fill:#000000;fill-opacity:1;fill-rule:nonzero;stroke:#000000;stroke-width:0.8;stroke-linecap:butt;stroke-linejoin:round;stroke-miterlimit:10;stroke-dasharray:none;stroke-opacity:1"
       transform="matrix(1.3333333,0,0,-1.3333333,0,414.78263)" />
    <g
       id="g6"
       aria-label="−0.5"
       transform="matrix(1.3333333,0,0,1.3333333,113.11658,383.95814)">
      <path
         id="path7"
         d="m 7.6059235,-2.7430198 c 0,-0.2109375 -0.2109375,-0.2109375 -0.3632813,-0.2109375 H 1.2660797 c -0.1523437,0 -0.35156247,0 -0.35156247,0.2109375 0,0.2226563 0.19921877,0.2226563 0.35156247,0.2226563 h 5.9765625 c 0.1523438,0 0.3632813,0 0.3632813,-0.2226563 z m 0,0"
         style="fill:#000000;fill-opacity:1;fill-rule:nonzero;stroke:none" />
      <path
         id="path8"
         d="m 13.433072,-3.5047385 c 0,-0.9140625 -0.05859,-1.8046875 -0.445313,-2.6367188 -0.457031,-0.9023437 -1.242187,-1.1484375 -1.78125,-1.1484375 -0.632812,0 -1.4179683,0.3164063 -1.8164058,1.2304688 -0.3046875,0.6914062 -0.421875,1.3710937 -0.421875,2.5546875 0,1.0546875 0.082031,1.8632812 0.4804687,2.63671872 0.421875,0.83203125 1.1835941,1.1015625 1.7460941,1.1015625 0.949218,0 1.5,-0.57421875 1.816406,-1.20703125 0.398437,-0.82031247 0.421875,-1.89843747 0.421875,-2.53124997 z m -0.832031,-0.1289063 c 0,0.7265625 0,1.5585938 -0.117188,2.2265625 -0.210937,1.20703127 -0.902344,1.41796877 -1.289062,1.41796877 -0.351563,0 -1.066407,-0.19921875 -1.2656253,-1.39453127 -0.1289063,-0.65625 -0.1289063,-1.4882812 -0.1289063,-2.25 0,-0.9023437 0,-1.7109375 0.1757813,-2.3554687 0.1875003,-0.7382813 0.7500003,-1.078125 1.2187503,-1.078125 0.421875,0 1.054687,0.2460937 1.265625,1.1953125 0.140625,0.6210937 0.140625,1.4882812 0.140625,2.2382812 z m 0,0"
         style="fill:#000000;fill-opacity:1;fill-rule:nonzero;stroke:none" />
      <path
         id="path9"
         d="m 15.905728,-0.52817603 c 0,-0.31640625 -0.257812,-0.53906247 -0.527344,-0.53906247 -0.316406,0 -0.539062,0.26953122 -0.539062,0.52734372 0,0.31640625 0.269531,0.5390624958 0.527344,0.5390624958 0.316406,0 0.539062,-0.2578124958 0.539062,-0.5273437458 z m 0,0"
         style="fill:#000000;fill-opacity:1;fill-rule:nonzero;stroke:none" />
      <path
         id="path10"
         d="m 21.686002,-2.2039573 c 0,-1.3007812 -0.867188,-2.390625 -2.027344,-2.390625 -0.621094,0 -1.101563,0.28125 -1.382813,0.5859375 v -2.2734375 c 0.46875,0.1523438 0.855469,0.1640625 0.972657,0.1640625 1.242187,0 2.027343,-0.9023437 2.027343,-1.0546875 0,-0.046875 -0.02344,-0.1054687 -0.09375,-0.1054687 0,0 -0.03516,0 -0.140625,0.046875 -0.609375,0.2578125 -1.136718,0.2929687 -1.417968,0.2929687 -0.726563,0 -1.242188,-0.2226562 -1.453125,-0.3046875 -0.07031,-0.035156 -0.105469,-0.035156 -0.105469,-0.035156 -0.09375,0 -0.09375,0.070312 -0.09375,0.2460937 v 3.2460938 c 0,0.1992187 0,0.2695312 0.140625,0.2695312 0.04687,0 0.05859,-0.011719 0.175781,-0.140625 0.304688,-0.4570312 0.820313,-0.7148437 1.359375,-0.7148437 0.585938,0 0.867188,0.5390625 0.960938,0.7265625 0.1875,0.421875 0.199218,0.9609375 0.199218,1.3710937 0,0.421875 0,1.0429688 -0.316406,1.53515627 -0.234375,0.3984375 -0.667969,0.66796875 -1.148437,0.66796875 -0.714844,0 -1.429688,-0.4921875 -1.628907,-1.28906252 0.05859,0.023437 0.117188,0.035156 0.175782,0.035156 0.1875,0 0.480468,-0.1054688 0.480468,-0.4804688 0,-0.3046875 -0.210937,-0.4804687 -0.480468,-0.4804687 -0.199219,0 -0.480469,0.09375 -0.480469,0.515625 0,0.93749997 0.738281,2.00390622 1.957031,2.00390622 1.242188,0 2.320313,-1.04296875 2.320313,-2.43749992 z m 0,0"
         style="fill:#000000;fill-opacity:1;fill-rule:nonzero;stroke:none" />
    </g>
    <path
       id="path11"
       d="m 155.47487,37.77497 v -3.5"
       style="fill:#000000;fill-opacity:1;fill-rule:nonzero;stroke:#000000;stroke-width:0.8;stroke-linecap:butt;stroke-linejoin:round;stroke-miterlimit:10;stroke-dasharray:none;stroke-opacity:1"
       transform="matrix(1.3333333,0,0,-1.3333333,0,414.78263)" />
    <g
       id="g11"
       aria-label="0.0"
       transform="matrix(1.3333333,0,0,1.3333333,198.15899,383.95814)">
      <path
         id="path12"
         d="m 4.9110331,-3.5047385 c 0,-0.9140625 -0.058594,-1.8046875 -0.4453125,-2.6367188 -0.4570313,-0.9023437 -1.2421875,-1.1484375 -1.78125,-1.1484375 -0.6328125,0 -1.4179688,0.3164063 -1.8164063,1.2304688 -0.3046875,0.6914062 -0.421875,1.3710937 -0.421875,2.5546875 0,1.0546875 0.0820313,1.8632812 0.48046875,2.63671872 0.42187505,0.83203125 1.18359375,1.1015625 1.74609375,1.1015625 0.9492188,0 1.5,-0.57421875 1.8164063,-1.20703125 C 4.8875956,-1.793801 4.9110331,-2.871926 4.9110331,-3.5047385 Z M 4.0790018,-3.6336448 c 0,0.7265625 0,1.5585938 -0.1171875,2.2265625 -0.2109375,1.20703127 -0.9023437,1.41796877 -1.2890625,1.41796877 -0.3515625,0 -1.0664062,-0.19921875 -1.265625,-1.39453127 -0.1289062,-0.65625 -0.1289062,-1.4882812 -0.1289062,-2.25 0,-0.9023437 0,-1.7109375 0.1757812,-2.3554687 0.1875,-0.7382813 0.75,-1.078125 1.21875,-1.078125 0.421875,0 1.0546875,0.2460937 1.265625,1.1953125 0.140625,0.6210937 0.140625,1.4882812 0.140625,2.2382812 z m 0,0"
         style="fill:#000000;fill-opacity:1;fill-rule:nonzero;stroke:none" />
      <path
         id="path13"
         d="m 7.3807596,-0.52817603 c 0,-0.31640625 -0.2578125,-0.53906247 -0.5273437,-0.53906247 -0.3164063,0 -0.5390625,0.26953122 -0.5390625,0.52734372 0,0.31640625 0.2695312,0.5390624958 0.5273437,0.5390624958 0.3164063,0 0.5390625,-0.2578124958 0.5390625,-0.5273437458 z m 0,0"
         style="fill:#000000;fill-opacity:1;fill-rule:nonzero;stroke:none" />
      <path
         id="path14"
         d="m 13.254783,-3.5047385 c 0,-0.9140625 -0.05859,-1.8046875 -0.445312,-2.6367188 -0.457032,-0.9023437 -1.242188,-1.1484375 -1.78125,-1.1484375 -0.632813,0 -1.4179692,0.3164063 -1.8164067,1.2304688 -0.3046875,0.6914062 -0.421875,1.3710937 -0.421875,2.5546875 0,1.0546875 0.082031,1.8632812 0.4804688,2.63671872 0.421875,0.83203125 1.1835939,1.1015625 1.7460939,1.1015625 0.949219,0 1.5,-0.57421875 1.816406,-1.20703125 0.398438,-0.82031247 0.421875,-1.89843747 0.421875,-2.53124997 z m -0.832031,-0.1289063 c 0,0.7265625 0,1.5585938 -0.117188,2.2265625 -0.210937,1.20703127 -0.902343,1.41796877 -1.289062,1.41796877 -0.351563,0 -1.0664064,-0.19921875 -1.2656252,-1.39453127 -0.1289062,-0.65625 -0.1289062,-1.4882812 -0.1289062,-2.25 0,-0.9023437 0,-1.7109375 0.1757812,-2.3554687 0.1875,-0.7382813 0.7500002,-1.078125 1.2187502,-1.078125 0.421875,0 1.054687,0.2460937 1.265625,1.1953125 0.140625,0.6210937 0.140625,1.4882812 0.140625,2.2382812 z m 0,0"
         style="fill:#000000;fill-opacity:1;fill-rule:nonzero;stroke:none" />
    </g>
    <path
       id="path15"
       d="m 214.99487,37.77497 v -3.5"
       style="fill:#000000;fill-opacity:1;fill-rule:nonzero;stroke:#000000;stroke-width:0.8;stroke-linecap:butt;stroke-linejoin:round;stroke-miterlimit:10;stroke-dasharray:none;stroke-opacity:1"
       transform="matrix(1.3333333,0,0,-1.3333333,0,414.78263)" />
    <g
       id="g15"
       aria-label="0.5"
       transform="matrix(1.3333333,0,0,1.3333333,277.51899,383.95814)">
      <path
         id="path16"
         d="m 4.9105643,-3.5047385 c 0,-0.9140625 -0.058594,-1.8046875 -0.4453125,-2.6367188 -0.4570312,-0.9023437 -1.2421875,-1.1484375 -1.78125,-1.1484375 -0.6328125,0 -1.4179687,0.3164063 -1.81640625,1.2304688 -0.3046875,0.6914062 -0.421875,1.3710937 -0.421875,2.5546875 0,1.0546875 0.0820313,1.8632812 0.48046875,2.63671872 0.421875,0.83203125 1.1835938,1.1015625 1.7460938,1.1015625 0.9492187,0 1.5,-0.57421875 1.8164062,-1.20703125 C 4.8871268,-1.793801 4.9105643,-2.871926 4.9105643,-3.5047385 Z M 4.0785331,-3.6336448 c 0,0.7265625 0,1.5585938 -0.1171875,2.2265625 -0.2109375,1.20703127 -0.9023438,1.41796877 -1.2890625,1.41796877 -0.3515625,0 -1.0664063,-0.19921875 -1.265625,-1.39453127 -0.1289063,-0.65625 -0.1289063,-1.4882812 -0.1289063,-2.25 0,-0.9023437 0,-1.7109375 0.1757813,-2.3554687 0.1875,-0.7382813 0.75,-1.078125 1.21875,-1.078125 0.421875,0 1.0546875,0.2460937 1.265625,1.1953125 0.140625,0.6210937 0.140625,1.4882812 0.140625,2.2382812 z m 0,0"
         style="fill:#000000;fill-opacity:1;fill-rule:nonzero;stroke:none" />
      <path
         id="path17"
         d="m 7.3802909,-0.52817603 c 0,-0.31640625 -0.2578125,-0.53906247 -0.5273438,-0.53906247 -0.3164062,0 -0.5390625,0.26953122 -0.5390625,0.52734372 0,0.31640625 0.2695313,0.5390624958 0.5273438,0.5390624958 0.3164062,0 0.5390625,-0.2578124958 0.5390625,-0.5273437458 z m 0,0"
         style="fill:#000000;fill-opacity:1;fill-rule:nonzero;stroke:none" />
      <path
         id="path18"
         d="m 13.163494,-2.2039573 c 0,-1.3007812 -0.867188,-2.390625 -2.027344,-2.390625 -0.621094,0 -1.101562,0.28125 -1.3828123,0.5859375 v -2.2734375 c 0.4687503,0.1523438 0.8554683,0.1640625 0.9726563,0.1640625 1.242187,0 2.027344,-0.9023437 2.027344,-1.0546875 0,-0.046875 -0.02344,-0.1054687 -0.09375,-0.1054687 0,0 -0.03516,0 -0.140625,0.046875 -0.609375,0.2578125 -1.136719,0.2929687 -1.417969,0.2929687 -0.726563,0 -1.2421875,-0.2226562 -1.453125,-0.3046875 -0.070312,-0.035156 -0.1054688,-0.035156 -0.1054688,-0.035156 -0.09375,0 -0.09375,0.070312 -0.09375,0.2460937 v 3.2460938 c 0,0.1992187 0,0.2695312 0.140625,0.2695312 0.046875,0 0.058594,-0.011719 0.1757813,-0.140625 0.3046875,-0.4570312 0.8203125,-0.7148437 1.3593745,-0.7148437 0.585938,0 0.867188,0.5390625 0.960938,0.7265625 0.1875,0.421875 0.199219,0.9609375 0.199219,1.3710937 0,0.421875 0,1.0429688 -0.316407,1.53515627 -0.234375,0.3984375 -0.667968,0.66796875 -1.148437,0.66796875 -0.714844,0 -1.4296875,-0.4921875 -1.6289063,-1.28906252 0.058594,0.023437 0.1171875,0.035156 0.1757813,0.035156 0.1875,0 0.4804687,-0.1054688 0.4804687,-0.4804688 0,-0.3046875 -0.2109375,-0.4804687 -0.4804687,-0.4804687 -0.1992188,0 -0.4804688,0.09375 -0.4804688,0.515625 0,0.93749997 0.7382813,2.00390622 1.9570308,2.00390622 1.242188,0 2.320313,-1.04296875 2.320313,-2.43749992 z m 0,0"
         style="fill:#000000;fill-opacity:1;fill-rule:nonzero;stroke:none" />
    </g>
    <path
       id="path19"
       d="m 274.51487,37.77497 v -3.5"
       style="fill:#000000;fill-opacity:1;fill-rule:nonzero;stroke:#000000;stroke-width:0.8;stroke-linecap:butt;stroke-linejoin:round;stroke-miterlimit:10;stroke-dasharray:none;stroke-opacity:1"
       transform="matrix(1.3333333,0,0,-1.3333333,0,414.78263)" />
    <g
       id="g19"
       aria-label="1.0"
       transform="matrix(1.3333333,0,0,1.3333333,356.87899,383.95814)">
      <path
         id="path20"
         d="M 4.4882206,-8.322842e-4 V -0.31723853 H 4.1483768 c -0.9609375,0 -0.9960937,-0.12890625 -0.9960937,-0.52734375 V -7.0203635 c 0,-0.2578125 0,-0.2695313 -0.2109375,-0.2695313 -0.2695313,0.2929688 -0.8203125,0.703125 -1.94531255,0.703125 v 0.3164063 c 0.25781255,0 0.79687505,0 1.40625005,-0.28125 v 5.70703122 c 0,0.3984375 -0.035156,0.52734375 -0.9960938,0.52734375 H 1.0663456 V -8.322842e-4 C 1.3593143,-0.02426978 2.4257206,-0.02426978 2.7772831,-0.02426978 c 0.3632812,0 1.4179687,0 1.7109375,0.0234374958 z m 0,0"
         style="fill:#000000;fill-opacity:1;fill-rule:nonzero;stroke:none" />
      <path
         id="path21"
         d="m 7.3798221,-0.52817603 c 0,-0.31640625 -0.2578125,-0.53906247 -0.5273437,-0.53906247 -0.3164063,0 -0.5390625,0.26953122 -0.5390625,0.52734372 0,0.31640625 0.2695312,0.5390624958 0.5273437,0.5390624958 0.3164063,0 0.5390625,-0.2578124958 0.5390625,-0.5273437458 z m 0,0"
         style="fill:#000000;fill-opacity:1;fill-rule:nonzero;stroke:none" />
      <path
         id="path22"
         d="m 13.256775,-3.5047385 c 0,-0.9140625 -0.05859,-1.8046875 -0.445312,-2.6367188 -0.457032,-0.9023437 -1.242188,-1.1484375 -1.78125,-1.1484375 -0.632813,0 -1.417969,0.3164063 -1.8164065,1.2304688 -0.3046875,0.6914062 -0.421875,1.3710937 -0.421875,2.5546875 0,1.0546875 0.082031,1.8632812 0.4804687,2.63671872 0.421875,0.83203125 1.1835938,1.1015625 1.7460938,1.1015625 0.949219,0 1.5,-0.57421875 1.816406,-1.20703125 0.398438,-0.82031247 0.421875,-1.89843747 0.421875,-2.53124997 z m -0.832031,-0.1289063 c 0,0.7265625 0,1.5585938 -0.117188,2.2265625 -0.210937,1.20703127 -0.902343,1.41796877 -1.289062,1.41796877 -0.351563,0 -1.0664063,-0.19921875 -1.265625,-1.39453127 -0.1289063,-0.65625 -0.1289063,-1.4882812 -0.1289063,-2.25 0,-0.9023437 0,-1.7109375 0.1757813,-2.3554687 0.1875,-0.7382813 0.75,-1.078125 1.21875,-1.078125 0.421875,0 1.054687,0.2460937 1.265625,1.1953125 0.140625,0.6210937 0.140625,1.4882812 0.140625,2.2382812 z m 0,0"
         style="fill:#000000;fill-opacity:1;fill-rule:nonzero;stroke:none" />
    </g>
    <path
       id="path23"
       d="m 334.03487,37.77497 v -3.5"
       style="fill:#000000;fill-opacity:1;fill-rule:nonzero;stroke:#000000;stroke-width:0.8;stroke-linecap:butt;stroke-linejoin:round;stroke-miterlimit:10;stroke-dasharray:none;stroke-opacity:1"
       transform="matrix(1.3333333,0,0,-1.3333333,0,414.78263)" />
    <g
       id="g23"
       aria-label="1.5"
       transform="matrix(1.3333333,0,0,1.3333333,436.23899,383.95814)">
      <path
         id="path24"
         d="M 4.4877518,-8.322842e-4 V -0.31723853 H 4.1479081 c -0.9609375,0 -0.9960938,-0.12890625 -0.9960938,-0.52734375 V -7.0203635 c 0,-0.2578125 0,-0.2695313 -0.2109375,-0.2695313 -0.2695312,0.2929688 -0.8203125,0.703125 -1.9453125,0.703125 v 0.3164063 c 0.2578125,0 0.796875,0 1.40625,-0.28125 v 5.70703122 c 0,0.3984375 -0.035156,0.52734375 -0.9960937,0.52734375 H 1.0658768 V -8.322842e-4 C 1.3588456,-0.02426978 2.4252518,-0.02426978 2.7768143,-0.02426978 c 0.3632813,0 1.4179688,0 1.7109375,0.0234374958 z m 0,0"
         style="fill:#000000;fill-opacity:1;fill-rule:nonzero;stroke:none" />
      <path
         id="path25"
         d="m 7.3822831,-0.52817603 c 0,-0.31640625 -0.2578125,-0.53906247 -0.5273438,-0.53906247 -0.3164062,0 -0.5390625,0.26953122 -0.5390625,0.52734372 0,0.31640625 0.2695313,0.5390624958 0.5273438,0.5390624958 0.3164062,0 0.5390625,-0.2578124958 0.5390625,-0.5273437458 z m 0,0"
         style="fill:#000000;fill-opacity:1;fill-rule:nonzero;stroke:none" />
      <path
         id="path26"
         d="m 13.162556,-2.2039573 c 0,-1.3007812 -0.867187,-2.390625 -2.027343,-2.390625 -0.621094,0 -1.101563,0.28125 -1.3828128,0.5859375 v -2.2734375 c 0.4687498,0.1523438 0.8554688,0.1640625 0.9726558,0.1640625 1.242188,0 2.027344,-0.9023437 2.027344,-1.0546875 0,-0.046875 -0.02344,-0.1054687 -0.09375,-0.1054687 0,0 -0.03516,0 -0.140625,0.046875 -0.609375,0.2578125 -1.136719,0.2929687 -1.417969,0.2929687 -0.726562,0 -1.242187,-0.2226562 -1.4531245,-0.3046875 -0.070312,-0.035156 -0.1054688,-0.035156 -0.1054688,-0.035156 -0.09375,0 -0.09375,0.070312 -0.09375,0.2460937 v 3.2460938 c 0,0.1992187 0,0.2695312 0.140625,0.2695312 0.046875,0 0.058594,-0.011719 0.1757813,-0.140625 0.304687,-0.4570312 0.820312,-0.7148437 1.359375,-0.7148437 0.585937,0 0.867187,0.5390625 0.960937,0.7265625 0.1875,0.421875 0.199219,0.9609375 0.199219,1.3710937 0,0.421875 0,1.0429688 -0.316406,1.53515627 -0.234375,0.3984375 -0.667969,0.66796875 -1.148438,0.66796875 -0.714843,0 -1.429687,-0.4921875 -1.6289058,-1.28906252 0.058594,0.023437 0.1171875,0.035156 0.1757813,0.035156 0.1875,0 0.4804687,-0.1054688 0.4804687,-0.4804688 0,-0.3046875 -0.2109375,-0.4804687 -0.4804687,-0.4804687 -0.1992188,0 -0.4804688,0.09375 -0.4804688,0.515625 0,0.93749997 0.7382813,2.00390622 1.9570313,2.00390622 1.242187,0 2.320312,-1.04296875 2.320312,-2.43749992 z m 0,0"
         style="fill:#000000;fill-opacity:1;fill-rule:nonzero;stroke:none" />
    </g>
    <path
       id="path27"
       d="m 393.55487,37.77497 v -3.5"
       style="fill:#000000;fill-opacity:1;fill-rule:nonzero;stroke:#000000;stroke-width:0.8;stroke-linecap:butt;stroke-linejoin:round;stroke-miterlimit:10;stroke-dasharray:none;stroke-opacity:1"
       transform="matrix(1.3333333,0,0,-1.3333333,0,414.78263)" />
    <g
       id="g27"
       aria-label="2.0"
       transform="matrix(1.3333333,0,0,1.3333333,515.59899,383.95814)">
      <path
         id="path28"
         d="m 4.8154081,-1.840676 h -0.234375 c -0.035156,0.1875 -0.1171875,0.7851562 -0.234375,0.96093747 -0.070312,0.10546875 -0.703125,0.10546875 -1.03125,0.10546875 H 1.2880643 C 1.5927518,-1.0320823 2.2607206,-1.7352073 2.5419706,-1.9930198 c 1.6640625,-1.5351562 2.2734375,-2.109375 2.2734375,-3.1875 0,-1.265625 -0.9960938,-2.109375 -2.2617188,-2.109375 -1.2773437,0 -2.015625,1.0898438 -2.015625,2.0273438 0,0.5625 0.4804688,0.5625 0.515625,0.5625 0.2226563,0 0.515625,-0.1640625 0.515625,-0.515625 0,-0.3046875 -0.2109375,-0.515625 -0.515625,-0.515625 -0.10546875,0 -0.12890625,0 -0.15234375,0.011719 0.19921875,-0.75 0.79687505,-1.2539062 1.51171875,-1.2539062 0.9257813,0 1.5,0.7851562 1.5,1.7929687 0,0.9257813 -0.5390625,1.734375 -1.1601562,2.4375 l -2.2148438,2.48437502 v 0.2578124958 h 3.9960938 z m 0,0"
         style="fill:#000000;fill-opacity:1;fill-rule:nonzero;stroke:none" />
      <path
         id="path29"
         d="m 7.3818143,-0.52817603 c 0,-0.31640625 -0.2578125,-0.53906247 -0.5273437,-0.53906247 -0.3164063,0 -0.5390625,0.26953122 -0.5390625,0.52734372 0,0.31640625 0.2695312,0.5390624958 0.5273437,0.5390624958 0.3164063,0 0.5390625,-0.2578124958 0.5390625,-0.5273437458 z m 0,0"
         style="fill:#000000;fill-opacity:1;fill-rule:nonzero;stroke:none" />
      <path
         id="path30"
         d="m 13.255838,-3.5047385 c 0,-0.9140625 -0.05859,-1.8046875 -0.445313,-2.6367188 -0.457031,-0.9023437 -1.242187,-1.1484375 -1.78125,-1.1484375 -0.632812,0 -1.4179685,0.3164063 -1.816406,1.2304688 -0.3046875,0.6914062 -0.421875,1.3710937 -0.421875,2.5546875 0,1.0546875 0.082031,1.8632812 0.4804687,2.63671872 0.421875,0.83203125 1.1835933,1.1015625 1.7460933,1.1015625 0.949219,0 1.5,-0.57421875 1.816407,-1.20703125 C 13.2324,-1.793801 13.255838,-2.871926 13.255838,-3.5047385 Z m -0.832032,-0.1289063 c 0,0.7265625 0,1.5585938 -0.117187,2.2265625 -0.210938,1.20703127 -0.902344,1.41796877 -1.289063,1.41796877 -0.351562,0 -1.0664058,-0.19921875 -1.2656245,-1.39453127 -0.1289063,-0.65625 -0.1289063,-1.4882812 -0.1289063,-2.25 0,-0.9023437 0,-1.7109375 0.1757813,-2.3554687 0.1875,-0.7382813 0.7499995,-1.078125 1.2187495,-1.078125 0.421875,0 1.054688,0.2460937 1.265625,1.1953125 0.140625,0.6210937 0.140625,1.4882812 0.140625,2.2382812 z m 0,0"
         style="fill:#000000;fill-opacity:1;fill-rule:nonzero;stroke:none" />
    </g>
    <path
       id="path31"
       d="m 5.6248352,-2.0519893 c 0.058594,-0.234375 0.082031,-0.4804688 0.082031,-0.7148438 0,-0.421875 -0.09375,-0.8320312 -0.3164063,-1.1601562 -0.1289062,-0.1992188 -0.28125,-0.375 -0.4804687,-0.4921875 0.1171875,-0.058594 0.234375,-0.140625 0.3515625,-0.2226563 0.4335937,-0.328125 0.75,-0.7851562 0.8789062,-1.265625 0.023437,-0.1289062 0.046875,-0.2695312 0.046875,-0.4101562 0,-0.328125 -0.1054687,-0.6328125 -0.3046875,-0.8671875 -0.28125,-0.3515625 -0.7382812,-0.5390625 -1.2421875,-0.5390625 -1.3007812,0 -2.2617187,1.5 -2.625,2.9882812 l -1.6992187,6.75 c 0,0.082031 0.046875,0.1054688 0.09375,0.1054688 H 0.468585 c 0.046875,0 0.0820312,-0.011719 0.09375,-0.058594 l 0.761719,-3.082031 c 0.1523437,0.66796873 0.6445312,1.12499998 1.40625,1.12499998 0.609375,0 1.2539062,-0.19921875 1.8164062,-0.62109375 0.5273438,-0.3984375 0.9257813,-0.94921873 1.078125,-1.53515623 z m -0.6796875,-0.046875 c -0.1289062,0.515625 -0.375,1.03125 -0.8085937,1.41796873 -0.3984375,0.375 -0.9140625,0.5859375 -1.40625,0.5859375 -0.7851563,0 -1.21875,-0.62109375 -1.21875,-1.39453123 0,-0.1757813 0.023437,-0.3632813 0.070312,-0.5625 l 0.6679687,-2.6484375 c 0.3398438,-1.3828125 1.1835938,-2.8125 2.390625,-2.8125 0.3632813,0 0.6679688,0.1640625 0.84375,0.4453125 0.1054688,0.1640625 0.1523438,0.3632812 0.1523438,0.5742187 0,0.1757813 -0.035156,0.3515625 -0.082031,0.5390625 -0.1054687,0.421875 -0.2929687,0.8320313 -0.6445312,1.1484375 -0.09375,0.082031 -0.1992188,0.1640625 -0.2929688,0.2226563 -0.2226562,-0.082031 -0.46875,-0.1289063 -0.7265625,-0.1289063 -0.375,0 -0.8203125,0 -0.890625,0.2578125 0,0.035156 -0.011719,0.082031 -0.011719,0.082031 0,0.2460937 0.4335937,0.2460937 0.796875,0.2460937 0.2578125,0 0.5273437,-0.046875 0.796875,-0.1523437 0.1523437,0.1289062 0.2695312,0.28125 0.3515625,0.4570312 0.1054687,0.2226563 0.1523437,0.4921875 0.1523437,0.7617188 0,0.3046875 -0.058594,0.6328125 -0.1406245,0.9609378 z M 4.3006165,-4.4308956 c -0.1757813,0.058594 -0.3398438,0.09375 -0.5039063,0.09375 -0.234375,0 -0.5742187,0 -0.5507812,-0.070312 0.023437,-0.09375 0.375,-0.09375 0.6328125,-0.09375 0.1523437,0 0.28125,0.023437 0.421875,0.070312 z m 0,0"
       style="fill:#000000;fill-opacity:1;fill-rule:nonzero;stroke:none"
       aria-label="β"
       transform="matrix(1.3333333,0,0,1.3333333,282.62131,402.34145)" />
    <path
       id="path32"
       d="m 36.434872,50.336941 h -3.5"
       style="fill:#000000;fill-opacity:1;fill-rule:nonzero;stroke:#000000;stroke-width:0.8;stroke-linecap:butt;stroke-linejoin:round;stroke-miterlimit:10;stroke-dasharray:none;stroke-opacity:1"
       transform="matrix(1.3333333,0,0,-1.3333333,0,414.78263)" />
    <g
       id="g32"
       aria-label="−0.6"
       transform="matrix(1.3333333,0,0,1.3333333,9.6,352.77111)">
      <path
         id="path33"
         d="m 7.6066406,-2.7433708 c 0,-0.2109375 -0.2109375,-0.2109375 -0.3632812,-0.2109375 H 1.2667969 c -0.1523438,0 -0.35156252,0 -0.35156252,0.2109375 0,0.2226562 0.19921872,0.2226562 0.35156252,0.2226562 h 5.9765625 c 0.1523437,0 0.3632812,0 0.3632812,-0.2226562 z m 0,0"
         style="fill:#000000;fill-opacity:1;fill-rule:nonzero;stroke:none" />
      <path
         id="path34"
         d="m 13.433789,-3.5050896 c 0,-0.9140625 -0.05859,-1.8046875 -0.445312,-2.6367187 -0.457032,-0.9023438 -1.242188,-1.1484375 -1.78125,-1.1484375 -0.632813,0 -1.4179692,0.3164062 -1.8164067,1.2304687 -0.3046875,0.6914063 -0.421875,1.3710938 -0.421875,2.5546875 0,1.0546875 0.082031,1.8632813 0.4804688,2.63671876 0.421875,0.83203125 1.1835939,1.1015625 1.7460939,1.1015625 0.949219,0 1.5,-0.57421875 1.816406,-1.20703125 0.398438,-0.82031251 0.421875,-1.89843751 0.421875,-2.53125001 z m -0.832031,-0.1289062 c 0,0.7265625 0,1.5585937 -0.117188,2.2265625 -0.210937,1.20703121 -0.902343,1.41796871 -1.289062,1.41796871 -0.351563,0 -1.066406,-0.19921875 -1.2656252,-1.39453121 -0.1289062,-0.65625 -0.1289062,-1.4882813 -0.1289062,-2.25 0,-0.9023438 0,-1.7109375 0.1757812,-2.3554688 0.1875002,-0.7382812 0.7500002,-1.078125 1.2187502,-1.078125 0.421875,0 1.054687,0.2460938 1.265625,1.1953125 0.140625,0.6210938 0.140625,1.4882813 0.140625,2.2382813 z m 0,0"
         style="fill:#000000;fill-opacity:1;fill-rule:nonzero;stroke:none" />
      <path
         id="path35"
         d="m 15.903516,-0.52852709 c 0,-0.31640625 -0.257813,-0.53906251 -0.527344,-0.53906251 -0.316406,0 -0.539063,0.26953126 -0.539063,0.52734376 0,0.31640625 0.269532,0.5390625 0.527344,0.5390625 0.316406,0 0.539063,-0.2578125 0.539063,-0.52734375 z m 0,0"
         style="fill:#000000;fill-opacity:1;fill-rule:nonzero;stroke:none" />
      <path
         id="path36"
         d="m 21.780469,-2.2394646 c 0,-1.453125 -1.019532,-2.4257812 -2.121094,-2.4257812 -0.972656,0 -1.335938,0.84375 -1.441406,1.1484375 v -0.2929688 c 0,-2.7773437 1.347656,-3.2109375 1.933593,-3.2109375 0.398438,0 0.796875,0.1171875 1.007813,0.4453125 -0.140625,0 -0.550781,0 -0.550781,0.4453125 0,0.2460938 0.164062,0.4570313 0.445312,0.4570313 0.28125,0 0.457031,-0.1640625 0.457031,-0.4804688 0,-0.5742187 -0.410156,-1.1367187 -1.359375,-1.1367187 -1.382812,0 -2.835937,1.4179687 -2.835937,3.8320312 0,3.01171876 1.324219,3.69140626 2.25,3.69140626 1.195312,0 2.214844,-1.04296875 2.214844,-2.47265626 z m -0.902344,-0.011719 c 0,0.5625 0,1.0546875 -0.210938,1.47656246 -0.269531,0.515625 -0.667968,0.703125 -1.101562,0.703125 -0.691406,0 -1.019531,-0.609375 -1.113281,-0.84375 -0.105469,-0.28124996 -0.210938,-0.82031246 -0.210938,-1.58203126 0,-0.8671875 0.398438,-1.9570312 1.382813,-1.9570312 0.597656,0 0.914062,0.4101562 1.078125,0.7851562 0.175781,0.3984375 0.175781,0.9492188 0.175781,1.4179688 z m 0,0"
         style="fill:#000000;fill-opacity:1;fill-rule:nonzero;stroke:none" />
    </g>
    <path
       id="path37"
       d="m 36.434872,81.417641 h -3.5"
       style="fill:#000000;fill-opacity:1;fill-rule:nonzero;stroke:#000000;stroke-width:0.8;stroke-linecap:butt;stroke-linejoin:round;stroke-miterlimit:10;stroke-dasharray:none;stroke-opacity:1"
       transform="matrix(1.3333333,0,0,-1.3333333,0,414.78263)" />
    <g
       id="g37"
       aria-label="−0.4"
       transform="matrix(1.3333333,0,0,1.3333333,9.6,311.33018)">
      <path
         id="path38"
         d="m 7.6066406,-2.7407967 c 0,-0.2109375 -0.2109375,-0.2109375 -0.3632812,-0.2109375 H 1.2667969 c -0.1523438,0 -0.35156252,0 -0.35156252,0.2109375 0,0.2226563 0.19921872,0.2226563 0.35156252,0.2226563 h 5.9765625 c 0.1523437,0 0.3632812,0 0.3632812,-0.2226563 z m 0,0"
         style="fill:#000000;fill-opacity:1;fill-rule:nonzero;stroke:none" />
      <path
         id="path39"
         d="m 13.433789,-3.5025154 c 0,-0.9140625 -0.05859,-1.8046875 -0.445312,-2.6367188 -0.457032,-0.9023437 -1.242188,-1.1484375 -1.78125,-1.1484375 -0.632813,0 -1.4179692,0.3164063 -1.8164067,1.2304688 -0.3046875,0.6914062 -0.421875,1.3710937 -0.421875,2.5546875 0,1.0546875 0.082031,1.8632812 0.4804688,2.63671873 0.421875,0.83203125 1.1835939,1.1015625 1.7460939,1.1015625 0.949219,0 1.5,-0.57421875 1.816406,-1.20703125 0.398438,-0.82031248 0.421875,-1.89843748 0.421875,-2.53124998 z m -0.832031,-0.1289063 c 0,0.7265625 0,1.5585938 -0.117188,2.2265625 -0.210937,1.20703128 -0.902343,1.41796878 -1.289062,1.41796878 -0.351563,0 -1.066406,-0.19921875 -1.2656252,-1.39453128 -0.1289062,-0.65625 -0.1289062,-1.4882812 -0.1289062,-2.25 0,-0.9023437 0,-1.7109375 0.1757812,-2.3554687 0.1875002,-0.7382813 0.7500002,-1.078125 1.2187502,-1.078125 0.421875,0 1.054687,0.2460937 1.265625,1.1953125 0.140625,0.6210937 0.140625,1.4882812 0.140625,2.2382812 z m 0,0"
         style="fill:#000000;fill-opacity:1;fill-rule:nonzero;stroke:none" />
      <path
         id="path40"
         d="m 15.903516,-0.52595292 c 0,-0.31640625 -0.257813,-0.53906248 -0.527344,-0.53906248 -0.316406,0 -0.539063,0.26953123 -0.539063,0.52734373 0,0.31640625 0.269532,0.5390625 0.527344,0.5390625 0.316406,0 0.539063,-0.2578125 0.539063,-0.52734375 z m 0,0"
         style="fill:#000000;fill-opacity:1;fill-rule:nonzero;stroke:none" />
      <path
         id="path41"
         d="M 21.932812,-1.8267342 V -2.1431404 H 20.83125 v -4.9921875 c 0,-0.1992188 0,-0.2578125 -0.164063,-0.2578125 -0.08203,0 -0.117187,0 -0.199218,0.1289062 l -3.304688,5.1210938 v 0.3164062 h 2.882813 v 0.99609378 c 0,0.41015625 -0.02344,0.515625 -0.820313,0.515625 h -0.222656 v 0.31640625 c 0.257812,-0.0234375 1.125,-0.0234375 1.429687,-0.0234375 0.304688,0 1.183594,0 1.429688,0.0234375 v -0.31640625 h -0.210938 c -0.796875,0 -0.820312,-0.10546875 -0.820312,-0.515625 V -1.8267342 Z m -1.828125,-0.3164062 h -2.660156 l 2.660156,-4.1367188 z m 0,0"
         style="fill:#000000;fill-opacity:1;fill-rule:nonzero;stroke:none" />
    </g>
    <path
       id="path42"
       d="m 36.434872,112.49834 h -3.5"
       style="fill:#000000;fill-opacity:1;fill-rule:nonzero;stroke:#000000;stroke-width:0.8;stroke-linecap:butt;stroke-linejoin:round;stroke-miterlimit:10;stroke-dasharray:none;stroke-opacity:1"
       transform="matrix(1.3333333,0,0,-1.3333333,0,414.78263)" />
    <g
       id="g42"
       aria-label="−0.2"
       transform="matrix(1.3333333,0,0,1.3333333,9.6,269.88924)">
      <path
         id="path43"
         d="m 7.6066406,-2.7411522 c 0,-0.2109375 -0.2109375,-0.2109375 -0.3632812,-0.2109375 H 1.2667969 c -0.1523438,0 -0.35156252,0 -0.35156252,0.2109375 0,0.2226563 0.19921872,0.2226563 0.35156252,0.2226563 h 5.9765625 c 0.1523437,0 0.3632812,0 0.3632812,-0.2226563 z m 0,0"
         style="fill:#000000;fill-opacity:1;fill-rule:nonzero;stroke:none" />
      <path
         id="path44"
         d="m 13.433789,-3.5028709 c 0,-0.9140625 -0.05859,-1.8046875 -0.445312,-2.6367188 -0.457032,-0.9023437 -1.242188,-1.1484375 -1.78125,-1.1484375 -0.632813,0 -1.4179692,0.3164063 -1.8164067,1.2304688 -0.3046875,0.6914062 -0.421875,1.3710937 -0.421875,2.5546875 0,1.0546875 0.082031,1.8632812 0.4804688,2.63671872 0.421875,0.83203125 1.1835939,1.1015625 1.7460939,1.1015625 0.949219,0 1.5,-0.57421875 1.816406,-1.20703125 0.398438,-0.82031247 0.421875,-1.89843747 0.421875,-2.53124997 z m -0.832031,-0.1289063 c 0,0.7265625 0,1.5585938 -0.117188,2.2265625 -0.210937,1.20703127 -0.902343,1.41796877 -1.289062,1.41796877 -0.351563,0 -1.066406,-0.19921875 -1.2656252,-1.39453127 -0.1289062,-0.65625 -0.1289062,-1.4882812 -0.1289062,-2.25 0,-0.9023437 0,-1.7109375 0.1757812,-2.3554687 0.1875002,-0.7382813 0.7500002,-1.078125 1.2187502,-1.078125 0.421875,0 1.054687,0.2460937 1.265625,1.1953125 0.140625,0.6210937 0.140625,1.4882812 0.140625,2.2382812 z m 0,0"
         style="fill:#000000;fill-opacity:1;fill-rule:nonzero;stroke:none" />
      <path
         id="path45"
         d="m 15.903516,-0.52630843 c 0,-0.31640625 -0.257813,-0.53906247 -0.527344,-0.53906247 -0.316406,0 -0.539063,0.26953122 -0.539063,0.52734372 0,0.31640625 0.269532,0.5390625 0.527344,0.5390625 0.316406,0 0.539063,-0.2578125 0.539063,-0.52734375 z m 0,0"
         style="fill:#000000;fill-opacity:1;fill-rule:nonzero;stroke:none" />
      <path
         id="path46"
         d="m 21.686719,-1.8388084 h -0.234375 c -0.03516,0.1875 -0.117188,0.7851562 -0.234375,0.96093747 -0.07031,0.10546875 -0.703125,0.10546875 -1.03125,0.10546875 h -2.027344 c 0.304687,-0.25781252 0.972656,-0.96093752 1.253906,-1.21875002 1.664063,-1.5351562 2.273438,-2.109375 2.273438,-3.1875 0,-1.265625 -0.996094,-2.109375 -2.261719,-2.109375 -1.277344,0 -2.015625,1.0898438 -2.015625,2.0273438 0,0.5625 0.480469,0.5625 0.515625,0.5625 0.222656,0 0.515625,-0.1640625 0.515625,-0.515625 0,-0.3046875 -0.210938,-0.515625 -0.515625,-0.515625 -0.105469,0 -0.128906,0 -0.152344,0.011719 0.199219,-0.75 0.796875,-1.2539062 1.511719,-1.2539062 0.925781,0 1.5,0.7851562 1.5,1.7929687 0,0.9257813 -0.539063,1.734375 -1.160156,2.4375 l -2.214844,2.48437502 v 0.2578125 h 3.996094 z m 0,0"
         style="fill:#000000;fill-opacity:1;fill-rule:nonzero;stroke:none" />
    </g>
    <path
       id="path47"
       d="m 36.434872,143.57904 h -3.5"
       style="fill:#000000;fill-opacity:1;fill-rule:nonzero;stroke:#000000;stroke-width:0.8;stroke-linecap:butt;stroke-linejoin:round;stroke-miterlimit:10;stroke-dasharray:none;stroke-opacity:1"
       transform="matrix(1.3333333,0,0,-1.3333333,0,414.78263)" />
    <g
       id="g47"
       aria-label="0.0"
       transform="matrix(1.3333333,0,0,1.3333333,20.964812,228.44831)">
      <path
         id="path48"
         d="m 4.9101801,-3.5032264 c 0,-0.9140625 -0.058594,-1.8046875 -0.4453125,-2.6367188 -0.4570313,-0.9023437 -1.2421875,-1.1484375 -1.78125,-1.1484375 -0.6328125,0 -1.4179688,0.3164063 -1.81640626,1.2304688 -0.3046875,0.6914062 -0.421875,1.3710937 -0.421875,2.5546875 0,1.0546875 0.0820313,1.8632812 0.48046875,2.6367187 0.42187501,0.83203125 1.18359371,1.1015625 1.74609371,1.1015625 0.9492188,0 1.5,-0.57421875 1.8164063,-1.20703125 0.3984375,-0.82031245 0.421875,-1.89843745 0.421875,-2.53124995 z M 4.0781488,-3.6321327 c 0,0.7265625 0,1.5585938 -0.1171875,2.2265625 -0.2109375,1.20703125 -0.9023437,1.41796875 -1.2890625,1.41796875 -0.3515625,0 -1.0664062,-0.19921875 -1.265625,-1.39453125 -0.1289062,-0.65625 -0.1289062,-1.4882812 -0.1289062,-2.25 0,-0.9023437 0,-1.7109375 0.1757812,-2.3554687 0.1875,-0.7382813 0.75,-1.078125 1.21875,-1.078125 0.421875,0 1.0546875,0.2460937 1.265625,1.1953125 0.140625,0.6210937 0.140625,1.4882812 0.140625,2.2382812 z m 0,0"
         style="fill:#000000;fill-opacity:1;fill-rule:nonzero;stroke:none" />
      <path
         id="path49"
         d="m 7.3799066,-0.52666395 c 0,-0.31640625 -0.2578125,-0.53906245 -0.5273437,-0.53906245 -0.3164063,0 -0.5390625,0.2695312 -0.5390625,0.5273437 0,0.31640625 0.2695312,0.5390625049 0.5273437,0.5390625049 0.3164063,0 0.5390625,-0.2578125049 0.5390625,-0.5273437549 z m 0,0"
         style="fill:#000000;fill-opacity:1;fill-rule:nonzero;stroke:none" />
      <path
         id="path50"
         d="m 13.25686,-3.5032264 c 0,-0.9140625 -0.05859,-1.8046875 -0.445313,-2.6367188 -0.457031,-0.9023437 -1.242187,-1.1484375 -1.78125,-1.1484375 -0.632812,0 -1.4179685,0.3164063 -1.816406,1.2304688 -0.3046875,0.6914062 -0.421875,1.3710937 -0.421875,2.5546875 0,1.0546875 0.082031,1.8632812 0.4804688,2.6367187 0.421875,0.83203125 1.1835942,1.1015625 1.7460942,1.1015625 0.949218,0 1.5,-0.57421875 1.816406,-1.20703125 0.398437,-0.82031245 0.421875,-1.89843745 0.421875,-2.53124995 z m -0.832031,-0.1289063 c 0,0.7265625 0,1.5585938 -0.117188,2.2265625 -0.210937,1.20703125 -0.902344,1.41796875 -1.289062,1.41796875 -0.351563,0 -1.0664067,-0.19921875 -1.2656255,-1.39453125 -0.1289062,-0.65625 -0.1289062,-1.4882812 -0.1289062,-2.25 0,-0.9023437 0,-1.7109375 0.1757812,-2.3554687 0.1875,-0.7382813 0.7500005,-1.078125 1.2187505,-1.078125 0.421875,0 1.054687,0.2460937 1.265625,1.1953125 0.140625,0.6210937 0.140625,1.4882812 0.140625,2.2382812 z m 0,0"
         style="fill:#000000;fill-opacity:1;fill-rule:nonzero;stroke:none" />
    </g>
    <path
       id="path51"
       d="m 36.434872,174.65974 h -3.5"
       style="fill:#000000;fill-opacity:1;fill-rule:nonzero;stroke:#000000;stroke-width:0.8;stroke-linecap:butt;stroke-linejoin:round;stroke-miterlimit:10;stroke-dasharray:none;stroke-opacity:1"
       transform="matrix(1.3333333,0,0,-1.3333333,0,414.78263)" />
    <g
       id="g51"
       aria-label="0.2"
       transform="matrix(1.3333333,0,0,1.3333333,20.964812,187.00738)">
      <path
         id="path52"
         d="m 4.9101801,-3.503582 c 0,-0.9140625 -0.058594,-1.8046875 -0.4453125,-2.6367187 -0.4570313,-0.9023438 -1.2421875,-1.1484375 -1.78125,-1.1484375 -0.6328125,0 -1.4179688,0.3164062 -1.81640626,1.2304687 -0.3046875,0.6914063 -0.421875,1.3710938 -0.421875,2.5546875 0,1.0546875 0.0820313,1.8632813 0.48046875,2.63671879 0.42187501,0.83203125 1.18359371,1.1015625 1.74609371,1.1015625 0.9492188,0 1.5,-0.57421875 1.8164063,-1.20703125 C 4.8867426,-1.7926445 4.9101801,-2.8707695 4.9101801,-3.503582 Z M 4.0781488,-3.6324882 c 0,0.7265625 0,1.5585937 -0.1171875,2.2265625 -0.2109375,1.20703124 -0.9023437,1.41796874 -1.2890625,1.41796874 -0.3515625,0 -1.0664062,-0.19921875 -1.265625,-1.39453124 -0.1289062,-0.65625 -0.1289062,-1.4882813 -0.1289062,-2.25 0,-0.9023438 0,-1.7109375 0.1757812,-2.3554688 0.1875,-0.7382812 0.75,-1.078125 1.21875,-1.078125 0.421875,0 1.0546875,0.2460938 1.265625,1.1953125 0.140625,0.6210938 0.140625,1.4882813 0.140625,2.2382813 z m 0,0"
         style="fill:#000000;fill-opacity:1;fill-rule:nonzero;stroke:none" />
      <path
         id="path53"
         d="m 7.3799066,-0.52701946 c 0,-0.31640625 -0.2578125,-0.53906254 -0.5273437,-0.53906254 -0.3164063,0 -0.5390625,0.26953129 -0.5390625,0.52734379 0,0.31640625 0.2695312,0.5390625008 0.5273437,0.5390625008 0.3164063,0 0.5390625,-0.2578125008 0.5390625,-0.5273437508 z m 0,0"
         style="fill:#000000;fill-opacity:1;fill-rule:nonzero;stroke:none" />
      <path
         id="path54"
         d="m 13.16311,-1.8395195 h -0.234375 c -0.03516,0.1875 -0.117188,0.7851563 -0.234375,0.96093754 -0.07031,0.10546875 -0.703125,0.10546875 -1.03125,0.10546875 H 9.635766 c 0.3046875,-0.25781249 0.972656,-0.96093749 1.253906,-1.21874999 1.664063,-1.5351563 2.273438,-2.109375 2.273438,-3.1875 0,-1.265625 -0.996094,-2.109375 -2.261719,-2.109375 -1.2773437,0 -2.015625,1.0898437 -2.015625,2.0273437 0,0.5625 0.4804688,0.5625 0.515625,0.5625 0.2226563,0 0.515625,-0.1640625 0.515625,-0.515625 0,-0.3046875 -0.2109375,-0.515625 -0.515625,-0.515625 -0.1054687,0 -0.1289062,0 -0.1523437,0.011719 0.1992187,-0.75 0.7968747,-1.2539063 1.5117187,-1.2539063 0.925781,0 1.5,0.7851563 1.5,1.7929688 0,0.9257812 -0.539062,1.734375 -1.160156,2.4375 L 8.885766,-0.25748821 V 3.242908e-4 h 3.996094 z m 0,0"
         style="fill:#000000;fill-opacity:1;fill-rule:nonzero;stroke:none" />
    </g>
    <path
       id="path55"
       d="m 36.434872,205.74044 h -3.5"
       style="fill:#000000;fill-opacity:1;fill-rule:nonzero;stroke:#000000;stroke-width:0.8;stroke-linecap:butt;stroke-linejoin:round;stroke-miterlimit:10;stroke-dasharray:none;stroke-opacity:1"
       transform="matrix(1.3333333,0,0,-1.3333333,0,414.78263)" />
    <g
       id="g55"
       aria-label="0.4"
       transform="matrix(1.3333333,0,0,1.3333333,20.964812,145.56645)">
      <path
         id="path56"
         d="M 4.9101801,-3.5039375 C 4.9101801,-4.418 4.8515863,-5.308625 4.4648676,-6.1406562 4.0078363,-7.043 3.2226801,-7.2890937 2.6836176,-7.2890937 c -0.6328125,0 -1.4179688,0.3164062 -1.81640626,1.2304687 -0.3046875,0.6914063 -0.421875,1.3710938 -0.421875,2.5546875 0,1.0546875 0.0820313,1.8632813 0.48046875,2.63671878 0.42187501,0.83203125 1.18359371,1.1015625 1.74609371,1.1015625 0.9492188,0 1.5,-0.57421875 1.8164063,-1.20703125 C 4.8867426,-1.793 4.9101801,-2.871125 4.9101801,-3.5039375 Z M 4.0781488,-3.6328437 c 0,0.7265625 0,1.5585937 -0.1171875,2.2265625 -0.2109375,1.20703123 -0.9023437,1.41796873 -1.2890625,1.41796873 -0.3515625,0 -1.0664062,-0.19921875 -1.265625,-1.39453123 -0.1289062,-0.65625 -0.1289062,-1.4882813 -0.1289062,-2.25 0,-0.9023438 0,-1.7109375 0.1757812,-2.3554688 0.1875,-0.7382812 0.75,-1.078125 1.21875,-1.078125 0.421875,0 1.0546875,0.2460938 1.265625,1.1953125 0.140625,0.6210938 0.140625,1.4882813 0.140625,2.2382813 z m 0,0"
         style="fill:#000000;fill-opacity:1;fill-rule:nonzero;stroke:none" />
      <path
         id="path57"
         d="m 7.3799066,-0.52737497 c 0,-0.31640625 -0.2578125,-0.53906253 -0.5273437,-0.53906253 -0.3164063,0 -0.5390625,0.26953128 -0.5390625,0.52734378 0,0.31640625 0.2695312,0.5390624966 0.5273437,0.5390624966 0.3164063,0 0.5390625,-0.2578124966 0.5390625,-0.5273437466 z m 0,0"
         style="fill:#000000;fill-opacity:1;fill-rule:nonzero;stroke:none" />
      <path
         id="path58"
         d="M 13.409204,-1.8281562 V -2.1445625 H 12.307641 V -7.13675 c 0,-0.1992187 0,-0.2578125 -0.164062,-0.2578125 -0.08203,0 -0.117188,0 -0.199219,0.1289063 l -3.3046877,5.1210937 v 0.3164063 h 2.8828127 v 0.99609373 c 0,0.41015625 -0.02344,0.515625 -0.820313,0.515625 H 10.479516 V -3.12234e-5 c 0.257813,-0.0234374966 1.125,-0.0234374966 1.429688,-0.0234374966 0.304687,0 1.183593,0 1.429687,0.0234374966 V -0.31643747 h -0.210937 c -0.796875,0 -0.820313,-0.10546875 -0.820313,-0.515625 V -1.8281562 Z M 11.581079,-2.1445625 H 8.9209223 l 2.6601567,-4.1367187 z m 0,0"
         style="fill:#000000;fill-opacity:1;fill-rule:nonzero;stroke:none" />
    </g>
    <path
       id="path59"
       d="m 36.434872,236.82114 h -3.5"
       style="fill:#000000;fill-opacity:1;fill-rule:nonzero;stroke:#000000;stroke-width:0.8;stroke-linecap:butt;stroke-linejoin:round;stroke-miterlimit:10;stroke-dasharray:none;stroke-opacity:1"
       transform="matrix(1.3333333,0,0,-1.3333333,0,414.78263)" />
    <g
       id="g59"
       aria-label="0.6"
       transform="matrix(1.3333333,0,0,1.3333333,20.964812,104.12552)">
      <path
         id="path60"
         d="m 4.9101801,-3.504293 c 0,-0.9140625 -0.058594,-1.8046875 -0.4453125,-2.6367187 -0.4570313,-0.9023438 -1.2421875,-1.1484375 -1.78125,-1.1484375 -0.6328125,0 -1.4179688,0.3164062 -1.81640626,1.2304687 -0.3046875,0.6914063 -0.421875,1.3710938 -0.421875,2.5546875 0,1.0546875 0.0820313,1.8632813 0.48046875,2.63671876 0.42187501,0.83203125 1.18359371,1.1015625 1.74609371,1.1015625 0.9492188,0 1.5,-0.57421875 1.8164063,-1.20703125 C 4.8867426,-1.7933555 4.9101801,-2.8714805 4.9101801,-3.504293 Z M 4.0781488,-3.6331992 c 0,0.7265625 0,1.5585937 -0.1171875,2.2265625 -0.2109375,1.20703121 -0.9023437,1.41796871 -1.2890625,1.41796871 -0.3515625,0 -1.0664062,-0.19921875 -1.265625,-1.39453121 -0.1289062,-0.65625 -0.1289062,-1.4882813 -0.1289062,-2.25 0,-0.9023438 0,-1.7109375 0.1757812,-2.3554688 0.1875,-0.7382812 0.75,-1.078125 1.21875,-1.078125 0.421875,0 1.0546875,0.2460938 1.265625,1.1953125 0.140625,0.6210938 0.140625,1.4882813 0.140625,2.2382813 z m 0,0"
         style="fill:#000000;fill-opacity:1;fill-rule:nonzero;stroke:none" />
      <path
         id="path61"
         d="m 7.3799066,-0.52773049 c 0,-0.31640625 -0.2578125,-0.53906251 -0.5273437,-0.53906251 -0.3164063,0 -0.5390625,0.26953126 -0.5390625,0.52734376 0,0.31640625 0.2695312,0.5390625025 0.5273437,0.5390625025 0.3164063,0 0.5390625,-0.2578125025 0.5390625,-0.5273437525 z m 0,0"
         style="fill:#000000;fill-opacity:1;fill-rule:nonzero;stroke:none" />
      <path
         id="path62"
         d="m 13.25686,-2.238668 c 0,-1.453125 -1.019531,-2.4257812 -2.121094,-2.4257812 -0.972656,0 -1.3359375,0.84375 -1.4414062,1.1484375 v -0.2929688 c 0,-2.7773437 1.3476562,-3.2109375 1.9335942,-3.2109375 0.398437,0 0.796875,0.1171875 1.007812,0.4453125 -0.140625,0 -0.550781,0 -0.550781,0.4453125 0,0.2460938 0.164062,0.4570313 0.445312,0.4570313 0.28125,0 0.457032,-0.1640625 0.457032,-0.4804688 0,-0.5742187 -0.410157,-1.1367187 -1.359375,-1.1367187 -1.382813,0 -2.835938,1.4179687 -2.835938,3.8320312 0,3.01171876 1.324219,3.69140626 2.25,3.69140626 1.195313,0 2.214844,-1.04296875 2.214844,-2.47265626 z m -0.902344,-0.011719 c 0,0.5625 0,1.0546875 -0.210937,1.47656246 -0.269532,0.515625 -0.667969,0.703125 -1.101563,0.703125 -0.691406,0 -1.019531,-0.609375 -1.1132812,-0.84375 C 9.823266,-1.1956992 9.7177973,-1.7347617 9.7177973,-2.4964805 c 0,-0.8671875 0.3984377,-1.9570312 1.3828127,-1.9570312 0.597656,0 0.914062,0.4101562 1.078125,0.7851562 0.175781,0.3984375 0.175781,0.9492188 0.175781,1.4179685 z m 0,0"
         style="fill:#000000;fill-opacity:1;fill-rule:nonzero;stroke:none" />
    </g>
    <path
       id="path63"
       d="m 36.434872,267.90184 h -3.5"
       style="fill:#000000;fill-opacity:1;fill-rule:nonzero;stroke:#000000;stroke-width:0.8;stroke-linecap:butt;stroke-linejoin:round;stroke-miterlimit:10;stroke-dasharray:none;stroke-opacity:1"
       transform="matrix(1.3333333,0,0,-1.3333333,0,414.78263)" />
    <g
       id="g63"
       aria-label="0.8"
       transform="matrix(1.3333333,0,0,1.3333333,20.964812,62.684583)">
      <path
         id="path64"
         d="m 4.9101801,-3.5046485 c 0,-0.9140625 -0.058594,-1.8046875 -0.4453125,-2.6367188 -0.4570313,-0.9023437 -1.2421875,-1.1484375 -1.78125,-1.1484375 -0.6328125,0 -1.4179688,0.3164063 -1.81640626,1.2304688 -0.3046875,0.6914062 -0.421875,1.3710937 -0.421875,2.5546875 0,1.0546875 0.0820313,1.8632812 0.48046875,2.63671875 0.42187501,0.83203125 1.18359371,1.1015625 1.74609371,1.1015625 0.9492188,0 1.5,-0.57421875 1.8164063,-1.20703125 0.3984375,-0.8203125 0.421875,-1.8984375 0.421875,-2.53125 z M 4.0781488,-3.6335548 c 0,0.7265625 0,1.5585938 -0.1171875,2.2265625 -0.2109375,1.2070313 -0.9023437,1.4179688 -1.2890625,1.4179688 -0.3515625,0 -1.0664062,-0.19921875 -1.265625,-1.3945313 -0.1289062,-0.65625 -0.1289062,-1.4882812 -0.1289062,-2.25 0,-0.9023437 0,-1.7109375 0.1757812,-2.3554687 0.1875,-0.7382813 0.75,-1.078125 1.21875,-1.078125 0.421875,0 1.0546875,0.2460937 1.265625,1.1953125 0.140625,0.6210937 0.140625,1.4882812 0.140625,2.2382812 z m 0,0"
         style="fill:#000000;fill-opacity:1;fill-rule:nonzero;stroke:none" />
      <path
         id="path65"
         d="m 7.3799066,-0.528086 c 0,-0.31640625 -0.2578125,-0.5390625 -0.5273437,-0.5390625 -0.3164063,0 -0.5390625,0.26953125 -0.5390625,0.52734375 0,0.31640625 0.2695312,0.5390624984 0.5273437,0.5390624984 0.3164063,0 0.5390625,-0.2578124984 0.5390625,-0.5273437484 z m 0,0"
         style="fill:#000000;fill-opacity:1;fill-rule:nonzero;stroke:none" />
      <path
         id="path66"
         d="m 13.25686,-1.8171485 c 0,-1.125 -0.785156,-1.6171875 -1.640625,-2.1445313 0.539062,-0.2929687 1.347656,-0.796875 1.347656,-1.7109375 0,-0.9609375 -0.925781,-1.6171875 -1.933594,-1.6171875 -1.0781247,0 -1.9335935,0.796875 -1.9335935,1.8046875 0,0.3632813 0.1054688,0.7382813 0.4101563,1.1132813 0.1171875,0.140625 0.1289062,0.1523437 0.9023442,0.6914062 -1.0664067,0.4921875 -1.617188,1.2304688 -1.617188,2.0273438 0,1.16015625 1.1132813,1.88671875 2.226563,1.88671875 1.21875,0 2.238281,-0.90234375 2.238281,-2.05078125 z m -0.75,-3.84375 c 0,0.6679687 -0.480469,1.1953125 -1.113281,1.546875 l -1.277344,-0.8320313 c -0.1406252,-0.09375 -0.574219,-0.375 -0.574219,-0.9140625 0,-0.7148437 0.738281,-1.1601562 1.476563,-1.1601562 0.785156,0 1.488281,0.5625 1.488281,1.359375 z m 0.246094,4.1953125 c 0,0.83203125 -0.84375,1.39453125 -1.722657,1.39453125 -0.925781,0 -1.7343747,-0.6796875 -1.7343747,-1.58203125 0,-0.8554688 0.6328125,-1.546875 1.3359377,-1.875 l 1.335937,0.8671875 c 0.28125,0.1875 0.785157,0.5273437 0.785157,1.1953125 z m 0,0"
         style="fill:#000000;fill-opacity:1;fill-rule:nonzero;stroke:none" />
    </g>
    <path
       id="path67"
       d="m 36.434872,298.98253 h -3.5"
       style="fill:#000000;fill-opacity:1;fill-rule:nonzero;stroke:#000000;stroke-width:0.8;stroke-linecap:butt;stroke-linejoin:round;stroke-miterlimit:10;stroke-dasharray:none;stroke-opacity:1"
       transform="matrix(1.3333333,0,0,-1.3333333,0,414.78263)" />
    <g
       id="g67"
       aria-label="1.0"
       transform="matrix(1.3333333,0,0,1.3333333,20.964812,21.243651)">
      <path
         id="path68"
         d="M 4.4883051,-0.00109777 V -0.31750402 H 4.1484613 c -0.9609375,0 -0.9960937,-0.12890625 -0.9960937,-0.52734375 V -7.020629 c 0,-0.2578125 0,-0.2695313 -0.2109375,-0.2695313 -0.2695313,0.2929688 -0.8203125,0.703125 -1.94531251,0.703125 v 0.3164063 c 0.25781251,0 0.79687501,0 1.40625001,-0.28125 v 5.70703123 c 0,0.3984375 -0.035156,0.52734375 -0.9960938,0.52734375 H 1.0664301 v 0.31640625 c 0.2929687,-0.0234375 1.359375,-0.0234375 1.7109375,-0.0234375 0.3632812,0 1.4179687,0 1.7109375,0.0234375 z m 0,0"
         style="fill:#000000;fill-opacity:1;fill-rule:nonzero;stroke:none" />
      <path
         id="path69"
         d="m 7.3799066,-0.52844152 c 0,-0.31640625 -0.2578125,-0.53906248 -0.5273437,-0.53906248 -0.3164063,0 -0.5390625,0.26953123 -0.5390625,0.52734373 0,0.31640625 0.2695312,0.5390625 0.5273437,0.5390625 0.3164063,0 0.5390625,-0.2578125 0.5390625,-0.52734375 z m 0,0"
         style="fill:#000000;fill-opacity:1;fill-rule:nonzero;stroke:none" />
      <path
         id="path70"
         d="m 13.25686,-3.505004 c 0,-0.9140625 -0.05859,-1.8046875 -0.445313,-2.6367188 -0.457031,-0.9023437 -1.242187,-1.1484375 -1.78125,-1.1484375 -0.632812,0 -1.4179685,0.3164063 -1.816406,1.2304688 -0.3046875,0.6914062 -0.421875,1.3710937 -0.421875,2.5546875 0,1.0546875 0.082031,1.8632812 0.4804688,2.63671873 0.421875,0.83203125 1.1835942,1.1015625 1.7460942,1.1015625 0.949218,0 1.5,-0.57421875 1.816406,-1.20703125 C 13.233422,-1.7940665 13.25686,-2.8721915 13.25686,-3.505004 Z m -0.832031,-0.1289063 c 0,0.7265625 0,1.5585938 -0.117188,2.2265625 -0.210937,1.20703128 -0.902344,1.41796878 -1.289062,1.41796878 -0.351563,0 -1.0664067,-0.19921875 -1.2656255,-1.39453128 -0.1289062,-0.65625 -0.1289062,-1.4882812 -0.1289062,-2.25 0,-0.9023437 0,-1.7109375 0.1757812,-2.3554687 0.1875,-0.7382813 0.7500005,-1.078125 1.2187505,-1.078125 0.421875,0 1.054687,0.2460937 1.265625,1.1953125 0.140625,0.6210937 0.140625,1.4882812 0.140625,2.2382812 z m 0,0"
         style="fill:#000000;fill-opacity:1;fill-rule:nonzero;stroke:none" />
    </g>
    <path
       id="path71"
       d="m 36.434872,211.2536 3.5712,-2.78998 3.5712,-2.74724 3.5712,-2.70411 3.5712,-2.66063 3.5712,-2.61678 3.5712,-2.57253 3.5712,-2.5279 3.5712,-2.48289 3.5712,-2.43748 3.5712,-2.39167 3.5712,-2.34544 3.5712,-2.29882 3.5712,-2.25176 3.5712,-2.20429 3.5712,-2.15638 3.5712,-2.10805 3.5712,-2.05925 3.571198,-2.01003 3.5712,-1.96034 3.5712,-1.9102 3.5712,-1.85958 3.5712,-1.80849 3.5712,-1.75692 3.5712,-1.70486 3.5712,-1.65231 3.5712,-1.59925 3.5712,-1.5457 3.5712,-1.49162 3.5712,-1.43702 3.5712,-1.38188 3.5712,-1.32622 3.5712,-1.27 3.5712,-1.21324 3.5712,-1.15591 3.5712,-1.09801 3.5712,-1.03954 3.5712,-0.98047 3.5712,-0.92083 3.5712,-0.86057 3.5712,-0.7997 3.5712,-0.73822 3.5712,-0.6761 3.5712,-0.61335 3.5712,-0.54996 3.5712,-0.4859 3.5712,-0.42118 3.5712,-0.3558 3.5712,-0.28972 3.5712,-0.22294 3.5712,-0.15548 3.5712,-0.0873 3.5712,-0.0184 3.5712,0.0513 3.5712,0.12166 3.5712,0.19281 3.5712,0.26472 3.5712,0.33742 3.5712,0.41089 3.5712,0.48518 3.5712,0.56026 3.5712,0.63618 3.5712,0.71294 3.5712,0.79053 3.5712,0.86899 3.5712,0.94832 3.5712,1.02854 3.5712,1.10965 3.5712,1.19168 3.5712,1.27462 3.5712,1.35851 3.5712,1.44334 3.5712,1.52914 3.5712,1.61592 3.5712,1.70369 3.5712,1.79247 3.5712,1.88227 3.5712,1.9731 3.5712,2.065 3.5712,2.15795 3.5712,2.25199 3.5712,2.34712 3.5712,2.44338 3.5712,2.54075 3.5712,2.63929 3.5712,2.73898 3.5712,2.83985 3.5712,2.94192 3.5712,3.04521 3.5712,3.14973 3.5712,3.2555 3.5712,3.36254 3.5712,3.47087 3.5712,3.5805 3.5712,3.69147 3.5712,3.80378 3.5712,3.91745 3.5712,4.03251 3.5712,4.14897 3.5712,4.26686 3.5712,4.3862"
       style="fill:none;stroke:#1f77b4;stroke-width:1.5;stroke-linecap:square;stroke-linejoin:round;stroke-miterlimit:10;stroke-dasharray:none;stroke-opacity:1"
       transform="matrix(1.3333333,0,0,-1.3333333,0,414.78263)"
       clip-path="url(#clipPath72)" />
    <path
       id="path73"
       d="m 36.434872,49.87097 3.5712,1.419048 3.5712,1.431113 3.5712,1.443344 3.5712,1.455745 3.5712,1.468317 3.5712,1.481063 3.5712,1.493987 3.5712,1.50709 3.5712,1.520375 3.5712,1.533845 3.5712,1.547503 3.5712,1.561351 3.5712,1.575392 3.5712,1.589629 3.5712,1.604065 3.5712,1.618704 3.5712,1.633547 3.571198,1.648598 3.5712,1.663861 3.5712,1.679337 3.5712,1.695031 3.5712,1.710946 3.5712,1.727085 3.5712,1.743451 3.5712,1.760047 3.5712,1.776878 3.5712,1.793947 3.5712,1.811256 3.5712,1.828811 3.5712,1.846613 3.5712,1.864671 3.5712,1.88297 3.5712,1.90155 3.5712,1.92039 3.5712,1.93948 3.5712,1.95886 3.5712,1.9785 3.5712,1.99843 3.5712,2.01865 3.5712,2.03914 3.5712,2.05993 3.5712,2.08103 3.5712,2.10241 3.5712,2.12411 3.5712,2.14611 3.5712,2.16844 3.5712,2.19107 3.5712,2.21404 3.5712,2.23733 3.5712,2.26096 3.5712,2.28492 3.5712,2.30924 3.5712,2.33389 3.5712,2.35891 3.5712,2.38428 3.5712,2.41003 3.5712,2.43613 3.5712,2.46261 3.5712,2.48949 3.5712,2.51674 3.5712,2.54438 3.5712,2.57244 3.5712,2.60089 3.5712,2.62975 3.5712,2.65903 3.5712,2.68874 3.5712,2.71887 3.5712,2.74945 3.5712,2.78045 3.5712,2.81193 3.5712,2.84384 3.5712,2.87622 3.5712,2.90908 3.5712,2.94241 3.5712,2.97623 3.5712,3.01053 3.5712,3.04533 3.5712,3.08065 3.5712,3.11647 3.5712,3.15282 3.5712,3.1897 3.5712,3.22711 3.5712,3.26508 3.5712,3.30358 3.5712,3.34266 3.5712,3.38231 3.5712,3.42253 3.5712,3.46334 3.5712,3.50476 3.5712,3.54677 3.5712,3.58939 3.5712,3.63265 3.5712,3.67654 3.5712,3.72107 3.5712,3.76624 3.5712,3.81209 3.5712,3.8586 3.5712,3.90581 3.5712,3.95369 3.5712,4.00228"
       style="fill:none;stroke:#ff7f0e;stroke-width:1.5;stroke-linecap:square;stroke-linejoin:round;stroke-miterlimit:10;stroke-dasharray:none;stroke-opacity:1"
       transform="matrix(1.3333333,0,0,-1.3333333,0,414.78263)"
       clip-path="url(#clipPath74)" />
    <path
       id="path75"
       d="M 36.434872,143.57904 H 393.55487"
       style="fill:none;stroke:#000000;stroke-width:1.5;stroke-linecap:butt;stroke-linejoin:round;stroke-miterlimit:10;stroke-dasharray:5.55, 2.4;stroke-dashoffset:0;stroke-opacity:1"
       transform="matrix(1.3333333,0,0,-1.3333333,0,414.78263)"
       clip-path="url(#clipPath76)" />
    <path
       id="path77"
       d="m 36.434872,37.77497 v 266.112"
       style="fill:none;stroke:#000000;stroke-width:0.8;stroke-linecap:square;stroke-linejoin:miter;stroke-miterlimit:10;stroke-dasharray:none;stroke-opacity:1"
       transform="matrix(1.3333333,0,0,-1.3333333,0,414.78263)" />
    <path
       id="path78"
       d="m 393.55487,37.77497 v 266.112"
       style="fill:none;stroke:#000000;stroke-width:0.8;stroke-linecap:square;stroke-linejoin:miter;stroke-miterlimit:10;stroke-dasharray:none;stroke-opacity:1"
       transform="matrix(1.3333333,0,0,-1.3333333,0,414.78263)" />
    <path
       id="path79"
       d="M 36.434872,37.77497 H 393.55487"
       style="fill:none;stroke:#000000;stroke-width:0.8;stroke-linecap:square;stroke-linejoin:miter;stroke-miterlimit:10;stroke-dasharray:none;stroke-opacity:1"
       transform="matrix(1.3333333,0,0,-1.3333333,0,414.78263)" />
    <path
       id="path80"
       d="M 36.434872,303.88697 H 393.55487"
       style="fill:none;stroke:#000000;stroke-width:0.8;stroke-linecap:square;stroke-linejoin:miter;stroke-miterlimit:10;stroke-dasharray:none;stroke-opacity:1"
       transform="matrix(1.3333333,0,0,-1.3333333,0,414.78263)" />
    <path
       id="path81"
       d="m 44.134872,263.29719 h 66.081738 c 1.46666,0 2.2,0.73333 2.2,2.2 v 30.68978 c 0,1.46667 -0.73334,2.2 -2.2,2.2 H 44.134872 c -1.466667,0 -2.2,-0.73333 -2.2,-2.2 v -30.68978 c 0,-1.46667 0.733333,-2.2 2.2,-2.2 z"
       style="fill:#ffffff;fill-opacity:0.8;fill-rule:nonzero;stroke:#cccccc;stroke-width:1;stroke-linecap:butt;stroke-linejoin:miter;stroke-miterlimit:10;stroke-dasharray:none;stroke-opacity:0.8"
       transform="matrix(1.3333333,0,0,-1.3333333,0,414.78263)" />
    <path
       id="path82"
       d="m 46.334872,290.13697 h 11 11"
       style="fill:none;stroke:#1f77b4;stroke-width:1.5;stroke-linecap:square;stroke-linejoin:round;stroke-miterlimit:10;stroke-dasharray:none;stroke-opacity:1"
       transform="matrix(1.3333333,0,0,-1.3333333,0,414.78263)" />
    <path
       id="path83"
       d="m 6.6571204,-2.6251953 c 0.011719,-0.035156 0.035156,-0.1171875 0.035156,-0.1523438 0,-0.058594 -0.035156,-0.1171875 -0.1054687,-0.1171875 -0.09375,0 -0.09375,0.011719 -0.1875,0.28125 -0.4570313,1.4179688 -0.9375,2.27343754 -2.8476563,2.27343754 H 1.6532141 L 7.6649329,-7.1486328 c 0.070312,-0.070312 0.1289062,-0.140625 0.1289062,-0.2460938 0,-0.082031 -0.011719,-0.09375 -0.2695312,-0.09375 H 3.0008704 c -0.2460938,0 -0.2578125,0.011719 -0.328125,0.2109375 l -0.5976563,1.96875 c -0.035156,0.1171875 -0.035156,0.1640625 -0.035156,0.1640625 0,0.035156 0.035156,0.1054688 0.1054687,0.1054688 0.09375,0 0.1171875,-0.046875 0.1523438,-0.1875 0.4101562,-1.1835938 0.9492187,-1.9335938 2.671875,-1.9335938 h 1.8046875 l -6.01171876,6.78515629 c -0.09375,0.1171875 -0.140625,0.1640625 -0.140625,0.29296875 0,0.0820312475 0.0585938,0.0820312475 0.26953125,0.0820312475 H 5.5672766 c 0.2460938,0 0.2578125,-0.0117187475 0.328125,-0.2109374975 z m 0,0"
       style="fill:#000000;fill-opacity:1;fill-rule:nonzero;stroke:none"
       aria-label="Z"
       transform="matrix(1.3333333,0,0,1.3333333,102.8465,33.066667)" />
    <path
       id="path84"
       d="m 46.334872,274.28691 h 11 11"
       style="fill:none;stroke:#ff7f0e;stroke-width:1.5;stroke-linecap:square;stroke-linejoin:round;stroke-miterlimit:10;stroke-dasharray:none;stroke-opacity:1"
       transform="matrix(1.3333333,0,0,-1.3333333,0,414.78263)" />
    <g
       id="g84"
       aria-label="dZ/dβ"
       transform="matrix(1.3333333,0,0,1.3333333,102.8465,54.200077)">
      <path
         id="path85"
         d="M 5.6493079,-6.43461e-4 V -0.31704971 c -0.75,0 -0.84375,-0.0820313 -0.84375,-0.609375 V -7.6061122 l -1.5234375,0.1171875 v 0.328125 c 0.75,0 0.84375,0.070312 0.84375,0.609375 v 2.4257812 c -0.234375,-0.328125 -0.703125,-0.703125 -1.3710938,-0.703125 -1.2773437,0 -2.36718746,1.0664063 -2.36718746,2.4726563 0,1.39453124 1.04296876,2.46093749 2.23828126,2.46093749 0.8320312,0 1.3242187,-0.5390625 1.4765625,-0.75 v 0.75 z M 4.1024329,-1.2779872 c 0,0.1875 0,0.2226562 -0.1523438,0.46874999 -0.2695312,0.38671875 -0.7148437,0.703125 -1.265625,0.703125 -0.28125,0 -1.4648437,-0.1171875 -1.4648437,-2.23828129 0,-0.7851562 0.1289062,-1.2304687 0.375,-1.59375 0.2109375,-0.3398437 0.65625,-0.6796875 1.1953125,-0.6796875 0.6796875,0 1.0664062,0.4921875 1.171875,0.6679688 0.140625,0.1875 0.140625,0.2109375 0.140625,0.4101562 z m 0,0"
         style="fill:#000000;fill-opacity:1;fill-rule:nonzero;stroke:none" />
      <path
         id="path86"
         d="m 12.619034,-2.6256435 c 0.01172,-0.035156 0.03516,-0.1171875 0.03516,-0.1523437 0,-0.058594 -0.03516,-0.1171875 -0.105469,-0.1171875 -0.09375,0 -0.09375,0.011719 -0.1875,0.28125 -0.457031,1.4179687 -0.9375,2.27343749 -2.8476563,2.27343749 H 7.6151282 L 13.626847,-7.149081 c 0.07031,-0.070312 0.128906,-0.140625 0.128906,-0.2460937 0,-0.082031 -0.01172,-0.09375 -0.269531,-0.09375 H 8.9627845 c -0.2460938,0 -0.2578125,0.011719 -0.328125,0.2109375 l -0.5976563,1.96875 c -0.035156,0.1171875 -0.035156,0.1640625 -0.035156,0.1640625 0,0.035156 0.035156,0.1054687 0.1054687,0.1054687 0.09375,0 0.1171875,-0.046875 0.1523438,-0.1875 0.4101562,-1.1835937 0.9492187,-1.9335937 2.6718743,-1.9335937 h 1.804688 l -6.0117186,6.78515624 c -0.09375,0.1171875 -0.140625,0.1640625 -0.140625,0.29296875 0,0.082031249 0.058594,0.082031249 0.2695313,0.082031249 h 4.6757813 c 0.246093,0 0.257812,-0.011718749 0.328125,-0.210937499 z m 5.645508,-5.3789062 c 0,-0.140625 -0.117187,-0.2109375 -0.199218,-0.2109375 -0.05859,0 -0.152344,0 -0.246094,0.234375 l -3.667969,10.3125 -0.07031,0.1992187 c 0,0.1289063 0.117187,0.2109375 0.199218,0.2109375 0.07031,0 0.164063,-0.011719 0.246094,-0.2460937 l 3.667969,-10.3125 z m 0,0"
         style="fill:#000000;fill-opacity:1;fill-rule:nonzero;stroke:none" />
      <path
         id="path87"
         d="M 24.510636,-6.43461e-4 V -0.31704971 c -0.75,0 -0.84375,-0.0820313 -0.84375,-0.609375 V -7.6061122 l -1.523437,0.1171875 v 0.328125 c 0.75,0 0.84375,0.070312 0.84375,0.609375 v 2.4257812 c -0.234375,-0.328125 -0.703125,-0.703125 -1.371094,-0.703125 -1.277344,0 -2.367188,1.0664063 -2.367188,2.4726563 0,1.39453124 1.042969,2.46093749 2.238282,2.46093749 0.832031,0 1.324218,-0.5390625 1.476562,-0.75 v 0.75 z M 22.963761,-1.2779872 c 0,0.1875 0,0.2226562 -0.152344,0.46874999 -0.269531,0.38671875 -0.714843,0.703125 -1.265625,0.703125 -0.28125,0 -1.464843,-0.1171875 -1.464843,-2.23828129 0,-0.7851562 0.128906,-1.2304687 0.375,-1.59375 0.210937,-0.3398437 0.65625,-0.6796875 1.195312,-0.6796875 0.679688,0 1.066406,0.4921875 1.171875,0.6679688 0.140625,0.1875 0.140625,0.2109375 0.140625,0.4101562 z m 0,0"
         style="fill:#000000;fill-opacity:1;fill-rule:nonzero;stroke:none" />
      <path
         id="path88"
         d="m 30.449113,-2.0514247 c 0.05859,-0.234375 0.08203,-0.4804688 0.08203,-0.7148438 0,-0.421875 -0.09375,-0.8320312 -0.316406,-1.1601562 -0.128907,-0.1992188 -0.28125,-0.375 -0.480469,-0.4921875 0.117187,-0.058594 0.234375,-0.140625 0.351562,-0.2226563 0.433594,-0.328125 0.75,-0.7851562 0.878907,-1.265625 0.02344,-0.1289062 0.04687,-0.2695312 0.04687,-0.4101562 0,-0.328125 -0.105469,-0.6328125 -0.304688,-0.8671875 -0.28125,-0.3515625 -0.738281,-0.5390625 -1.242187,-0.5390625 -1.300782,0 -2.261719,1.5 -2.625,2.9882812 l -1.699219,6.75 c 0,0.082031 0.04687,0.1054688 0.09375,0.1054688 h 0.05859 c 0.04687,0 0.08203,-0.011719 0.09375,-0.058594 l 0.761718,-3.0820312 c 0.152344,0.66796874 0.644532,1.12499999 1.40625,1.12499999 0.609375,0 1.253907,-0.19921875 1.816407,-0.62109375 0.527343,-0.3984375 0.925781,-0.94921874 1.078125,-1.53515624 z m -0.679688,-0.046875 c -0.128906,0.515625 -0.375,1.03125 -0.808594,1.41796874 -0.398437,0.375 -0.914062,0.5859375 -1.40625,0.5859375 -0.785156,0 -1.21875,-0.62109375 -1.21875,-1.39453124 0,-0.1757813 0.02344,-0.3632813 0.07031,-0.5625 l 0.667969,-2.6484375 c 0.339843,-1.3828125 1.183593,-2.8125 2.390625,-2.8125 0.363281,0 0.667968,0.1640625 0.84375,0.4453125 0.105468,0.1640625 0.152343,0.3632812 0.152343,0.5742187 0,0.1757813 -0.03516,0.3515625 -0.08203,0.5390625 -0.105469,0.421875 -0.292969,0.8320313 -0.644531,1.1484375 -0.09375,0.082031 -0.199219,0.1640625 -0.292969,0.2226563 -0.222656,-0.082031 -0.46875,-0.1289063 -0.726562,-0.1289063 -0.375,0 -0.820313,0 -0.890625,0.2578125 0,0.035156 -0.01172,0.082031 -0.01172,0.082031 0,0.2460937 0.433594,0.2460937 0.796875,0.2460937 0.257812,0 0.527344,-0.046875 0.796875,-0.1523437 0.152344,0.1289062 0.269531,0.28125 0.351562,0.4570312 0.105469,0.2226563 0.152344,0.4921875 0.152344,0.7617188 0,0.3046875 -0.05859,0.6328125 -0.140625,0.9609375 z M 29.124894,-4.430331 c -0.175781,0.058594 -0.339844,0.09375 -0.503906,0.09375 -0.234375,0 -0.574219,0 -0.550782,-0.070312 0.02344,-0.09375 0.375,-0.09375 0.632813,-0.09375 0.152344,0 0.28125,0.023437 0.421875,0.070312 z m 0,0"
         style="fill:#000000;fill-opacity:1;fill-rule:nonzero;stroke:none" />
    </g>
  </g>
</svg>
