<?xml version="1.0" encoding="UTF-8"?>
<svg width="256mm" height="256mm" version="1.1" viewBox="0 0 256 256" xmlns="http://www.w3.org/2000/svg" xmlns:cc="http://creativecommons.org/ns#" xmlns:dc="http://purl.org/dc/elements/1.1/" xmlns:rdf="http://www.w3.org/1999/02/22-rdf-syntax-ns#">
<metadata>
<rdf:RDF>
<cc:Work rdf:about="">
<dc:format>image/svg+xml</dc:format>
<dc:type rdf:resource="http://purl.org/dc/dcmitype/StillImage"/>
<dc:title/>
</cc:Work>
</rdf:RDF>
</metadata>
<g transform="translate(-.23823 2.2566)" stroke-width="7.8181" aria-label="Ω">
<path d="m241.24 132.29a105.44 100.09 0 0 1 -105.44 100.09 105.44 100.09 0 0 1 -105.44 -100.09 105.44 100.09 0 0 1 105.44 -100.09 105.44 100.09 0 0 1 105.44 100.09z" fill="#ffedec"/>
<g transform="matrix(.10685 -1.1783 .84177 .076333 5.2029 5.893)" aria-label="(">
<path d="m-147.39 182.61q0-6.6919 1.9251-12.467 1.9251-5.8669 5.5002-10.45 3.5751-4.6752 8.617-7.9753 5.1335-3.3001 11.459-4.8585v7.7919q-4.4002 1.0084-7.9753 3.4835-3.5751 2.4751-6.0502 6.1419-2.4751 3.6668-3.8501 8.342-1.375 4.5835-1.375 9.992v17.417q0 5.3168 1.2834 9.9004 1.375 4.5835 3.8501 8.1586 2.5668 3.5751 6.1419 6.0502 3.5751 2.4751 7.9753 3.4835v8.1586q-6.5086-1.6501-11.642-4.8585-5.0418-3.2084-8.617-7.792-3.4834-4.5835-5.4085-10.359-1.8334-5.8669-1.8334-12.742z" stroke-width="17.917"/>
</g>
<path d="m135.11 27.172c-60.949-2e-6 -110.66 47.01-110.66 105.17 0 58.158 49.713 105.17 110.66 105.17s110.66-47.012 110.66-105.17c0-58.158-49.713-105.17-110.66-105.17zm0 8.4668c56.609 0 102.2 43.368 102.2 96.701 0 53.333-45.586 96.703-102.2 96.703-56.609 0-102.2-43.37-102.2-96.703 4e-6 -53.333 45.586-96.701 102.2-96.701z" color="#000000" color-rendering="auto" dominant-baseline="auto" image-rendering="auto" shape-rendering="auto" solid-color="#000000" stop-color="#000000"/>
<g transform="matrix(.74904 .20624 .11861 -1.3024 5.2029 5.893)" aria-label="7">
<path d="m208.05-70.102v-12.692h27.147v7.3987l-14.513 33.579h-7.7971l13.602-30.619q0.3984-0.85369 0.73987-1.5366 0.34148-0.68296 0.62604-1.1383 0.34148-0.51222 0.68296-0.96752v-0.22765q-0.85369 0.05691-1.6505 0.05691-0.68296 0-1.4797 0.05691-0.73987 0-1.309 0h-9.3906v6.0897z" stroke-width="11.124"/>
</g>
<path d="m34.524 98.876c-5.7054-1.9991-10.319-5.6985-13.017-10.439-1.1368-1.997-1.3526-3.2151-1.3539-7.6419-0.0015-4.8479 0.15407-5.5626 1.9582-8.9959 2.3999-4.5673 8.0407-10.024 12.541-12.132 5.4989-2.5755 14.283-4.0792 16.208-2.7746 0.9719 0.6585 7.1955 13.391 8.3093 17 1.6035 5.1951 1.4381 9.3605-0.52001 13.098-2.1262 4.0581-7.096 8.7648-11.279 10.682-3.9595 1.8149-9.5943 2.3426-12.847 1.203z" fill="#ff98ff"/>
<path d="m54.973 62.381c-4.2365-7.7027-5.4145-11.151-5.4545-15.968-0.0262-3.1581 0.28184-4.891 1.1252-6.3298 1.9475-3.3224 5.4126-6.3027 9.1175-7.8418 3.0644-1.273 4.0849-1.4297 7.8257-1.2017 7.2966 0.44474 13.874 4.3461 17.385 10.312 3.8416 6.5277 2.1719 12.972-4.8444 18.696-5.3102 4.3323-10.543 6.3466-17.266 6.6462l-5.3842 0.23995z" fill="#ff98ff"/>
<g transform="matrix(.68629 .60934 -.72664 .81194 5.2029 5.893)" aria-label="8">
<path d="m108.28 26.244q0 9.6097-7.5184 15.983-7.4686 6.3733-18.821 6.3733-12.049 0-19.219-6.2239-7.1201-6.2239-7.1201-15.933 0-6.1741 3.585-11.153 3.585-5.0289 10.108-7.9666v-0.29875q-5.9749-3.1866-8.8628-6.9707-2.8381-3.7841-2.8381-9.4603 0-8.3649 6.8712-13.941t17.477-5.5766q11.103 0 17.726 5.3276 6.6222 5.3276 6.6222 13.543 0 5.0289-3.1368 9.9084-3.1368 4.8297-9.2113 7.5682v0.29875q6.9707 2.9875 10.655 7.3691 3.6845 4.3816 3.6845 11.153zm-11.8-36.198q0-5.3276-4.1327-8.4645-4.0829-3.1866-10.456-3.1866-6.2737 0-10.307 2.9875-3.9833 2.9875-3.9833 8.0661 0 3.585 1.9916 6.2239 2.0414 2.5891 6.1243 4.6306 1.8423 0.89624 5.2778 2.3402 3.4854 1.4439 6.7716 2.39 4.9293-3.2862 6.8214-6.8214 1.8921-3.5352 1.8921-8.1657zm1.5435 37.144q0-4.5808-2.0414-7.3193-1.9916-2.7883-7.867-5.5766-2.3402-1.0954-5.1285-2.0414t-7.4189-2.6389q-4.4812 2.4398-7.2197 6.6222-2.6887 4.1824-2.6887 9.4603 0 6.7218 4.6306 11.103 4.6306 4.3816 11.751 4.3816 7.2695 0 11.601-3.7343 4.3816-3.7343 4.3816-10.257z" stroke-width="19.931"/>
</g>
</g>
</svg>
